<svg xmlns="http://www.w3.org/2000/svg" xmlns:xlink="http://www.w3.org/1999/xlink" width="256" height="256"
viewBox="0 0 256 256"><g transform="translate(0 0) scale(0.256)">
    <rect fill="#ffffff" x="0" y="0" width="1000" height="1000" /><g id="qr"><g transform="translate(0.000, 0.000) scale(27.027, 27.027)"><defs><path id="qrmain_8306" d="M 8 1 L 9 1 L 9 0 L 8 0 L 8 1 Z M 9 0 L 9 1 L 10 1 L 10 0 L 9 0 Z M 11 0 L 11 1 L 12 1 L 12 0 L 11 0 Z M 13 1 L 14 1 L 14 0 L 13 0 L 13 1 Z M 14 0 L 14 1 L 15 1 L 15 0 L 14 0 Z M 16 0 L 16 1 L 17 1 L 17 0 L 16 0 Z M 19 0 L 19 1 L 20 1 L 20 0 L 19 0 Z M 21 1 L 22 1 L 22 0 L 21 0 L 21 1 Z M 23 0 L 22 0 L 22 1 L 23 1 L 23 0 Z M 24 1 L 25 1 L 25 0 L 24 0 L 24 1 Z M 25 0 L 25 1 L 26 1 L 26 0 L 25 0 Z M 28 0 L 28 1 L 29 1 L 29 0 L 28 0 Z M 9 1 L 9 2 L 10 2 L 10 1 L 9 1 Z M 12 2 L 13 2 L 13 1 L 12 1 L 12 2 Z M 13 1 L 13 2 L 14 2 L 14 1 L 13 1 Z M 14 1 L 14 2 L 15 2 L 15 1 L 14 1 Z M 15 1 L 15 2 L 16 2 L 16 1 L 15 1 Z M 16 1 L 16 2 L 17 2 L 17 1 L 16 1 Z M 18 1 L 18 2 L 19 2 L 19 1 L 18 1 Z M 20 2 L 21 2 L 21 1 L 20 1 L 20 2 Z M 22 1 L 21 1 L 21 2 L 22 2 L 22 1 Z M 25 1 L 25 2 L 26 2 L 26 1 L 25 1 Z M 29 2 L 29 1 L 28 1 L 28 2 L 29 2 Z M 9 2 L 9 3 L 10 3 L 10 2 L 9 2 Z M 10 2 L 10 3 L 11 3 L 11 2 L 10 2 Z M 12 2 L 11 2 L 11 3 L 12 3 L 12 2 Z M 14 3 L 14 2 L 13 2 L 13 3 L 14 3 Z M 14 2 L 14 3 L 15 3 L 15 2 L 14 2 Z M 15 2 L 15 3 L 16 3 L 16 2 L 15 2 Z M 16 2 L 16 3 L 17 3 L 17 2 L 16 2 Z M 18 2 L 17 2 L 17 3 L 18 3 L 18 2 Z M 19 2 L 19 3 L 20 3 L 20 2 L 19 2 Z M 22 2 L 22 3 L 23 3 L 23 2 L 22 2 Z M 24 3 L 25 3 L 25 2 L 24 2 L 24 3 Z M 26 2 L 25 2 L 25 3 L 26 3 L 26 2 Z M 10 4 L 10 3 L 9 3 L 9 4 L 10 4 Z M 16 3 L 16 4 L 17 4 L 17 3 L 16 3 Z M 18 3 L 18 4 L 19 4 L 19 3 L 18 3 Z M 20 4 L 21 4 L 21 3 L 20 3 L 20 4 Z M 22 3 L 21 3 L 21 4 L 22 4 L 22 3 Z M 25 4 L 25 3 L 24 3 L 24 4 L 25 4 Z M 8 4 L 8 5 L 9 5 L 9 4 L 8 4 Z M 10 4 L 10 5 L 11 5 L 11 4 L 10 4 Z M 12 4 L 12 5 L 13 5 L 13 4 L 12 4 Z M 15 5 L 16 5 L 16 4 L 15 4 L 15 5 Z M 16 4 L 16 5 L 17 5 L 17 4 L 16 4 Z M 18 4 L 18 5 L 19 5 L 19 4 L 18 4 Z M 20 4 L 19 4 L 19 5 L 20 5 L 20 4 Z M 23 4 L 23 5 L 24 5 L 24 4 L 23 4 Z M 25 5 L 26 5 L 26 4 L 25 4 L 25 5 Z M 27 4 L 26 4 L 26 5 L 27 5 L 27 4 Z M 28 4 L 28 5 L 29 5 L 29 4 L 28 4 Z M 14 6 L 15 6 L 15 5 L 14 5 L 14 6 Z M 15 5 L 15 6 L 16 6 L 16 5 L 15 5 Z M 16 5 L 16 6 L 17 6 L 17 5 L 16 5 Z M 18 5 L 18 6 L 19 6 L 19 5 L 18 5 Z M 27 6 L 28 6 L 28 5 L 27 5 L 27 6 Z M 28 5 L 28 6 L 29 6 L 29 5 L 28 5 Z M 8 6 L 8 7 L 9 7 L 9 6 L 8 6 Z M 10 6 L 10 7 L 11 7 L 11 6 L 10 6 Z M 12 6 L 12 7 L 13 7 L 13 6 L 12 6 Z M 15 7 L 15 6 L 14 6 L 14 7 L 15 7 Z M 16 6 L 16 7 L 17 7 L 17 6 L 16 6 Z M 18 6 L 18 7 L 19 7 L 19 6 L 18 6 Z M 20 6 L 20 7 L 21 7 L 21 6 L 20 6 Z M 22 6 L 22 7 L 23 7 L 23 6 L 22 6 Z M 24 6 L 24 7 L 25 7 L 25 6 L 24 6 Z M 26 6 L 26 7 L 27 7 L 27 6 L 26 6 Z M 29 7 L 29 6 L 28 6 L 28 7 L 29 7 Z M 8 7 L 8 8 L 9 8 L 9 7 L 8 7 Z M 9 7 L 9 8 L 10 8 L 10 7 L 9 7 Z M 10 7 L 10 8 L 11 8 L 11 7 L 10 7 Z M 12 7 L 11 7 L 11 8 L 12 8 L 12 7 Z M 13 7 L 13 8 L 14 8 L 14 7 L 13 7 Z M 16 7 L 16 8 L 17 8 L 17 7 L 16 7 Z M 17 7 L 17 8 L 18 8 L 18 7 L 17 7 Z M 18 7 L 18 8 L 19 8 L 19 7 L 18 7 Z M 19 7 L 19 8 L 20 8 L 20 7 L 19 7 Z M 20 7 L 20 8 L 21 8 L 21 7 L 20 7 Z M 25 7 L 25 8 L 26 8 L 26 7 L 25 7 Z M 0 8 L 0 9 L 1 9 L 1 8 L 0 8 Z M 3 9 L 4 9 L 4 8 L 3 8 L 3 9 Z M 4 8 L 4 9 L 5 9 L 5 8 L 4 8 Z M 5 8 L 5 9 L 6 9 L 6 8 L 5 8 Z M 6 8 L 6 9 L 7 9 L 7 8 L 6 8 Z M 7 8 L 7 9 L 8 9 L 8 8 L 7 8 Z M 9 8 L 8 8 L 8 9 L 9 9 L 9 8 Z M 15 9 L 16 9 L 16 8 L 15 8 L 15 9 Z M 16 8 L 16 9 L 17 9 L 17 8 L 16 8 Z M 18 8 L 17 8 L 17 9 L 18 9 L 18 8 Z M 19 8 L 19 9 L 20 9 L 20 8 L 19 8 Z M 21 8 L 20 8 L 20 9 L 21 9 L 21 8 Z M 26 9 L 26 8 L 25 8 L 25 9 L 26 9 Z M 26 8 L 26 9 L 27 9 L 27 8 L 26 8 Z M 27 8 L 27 9 L 28 9 L 28 8 L 27 8 Z M 28 8 L 28 9 L 29 9 L 29 8 L 28 8 Z M 29 8 L 29 9 L 30 9 L 30 8 L 29 8 Z M 30 8 L 30 9 L 31 9 L 31 8 L 30 8 Z M 32 8 L 32 9 L 33 9 L 33 8 L 32 8 Z M 36 8 L 36 9 L 37 9 L 37 8 L 36 8 Z M 4 9 L 4 10 L 5 10 L 5 9 L 4 9 Z M 6 9 L 5 9 L 5 10 L 6 10 L 6 9 Z M 9 10 L 10 10 L 10 9 L 9 9 L 9 10 Z M 10 9 L 10 10 L 11 10 L 11 9 L 10 9 Z M 11 9 L 11 10 L 12 10 L 12 9 L 11 9 Z M 20 10 L 20 9 L 19 9 L 19 10 L 20 10 Z M 24 9 L 24 10 L 25 10 L 25 9 L 24 9 Z M 27 10 L 27 9 L 26 9 L 26 10 L 27 10 Z M 30 10 L 30 9 L 29 9 L 29 10 L 30 10 Z M 31 9 L 30 9 L 30 10 L 31 10 L 31 9 Z M 33 10 L 34 10 L 34 9 L 33 9 L 33 10 Z M 34 9 L 34 10 L 35 10 L 35 9 L 34 9 Z M 35 9 L 35 10 L 36 10 L 36 9 L 35 9 Z M 3 11 L 4 11 L 4 10 L 3 10 L 3 11 Z M 4 10 L 4 11 L 5 11 L 5 10 L 4 10 Z M 6 10 L 6 11 L 7 11 L 7 10 L 6 10 Z M 10 10 L 10 11 L 11 11 L 11 10 L 10 10 Z M 11 10 L 11 11 L 12 11 L 12 10 L 11 10 Z M 12 10 L 12 11 L 13 11 L 13 10 L 12 10 Z M 13 10 L 13 11 L 14 11 L 14 10 L 13 10 Z M 14 10 L 14 11 L 15 11 L 15 10 L 14 10 Z M 15 10 L 15 11 L 16 11 L 16 10 L 15 10 Z M 16 10 L 16 11 L 17 11 L 17 10 L 16 10 Z M 17 10 L 17 11 L 18 11 L 18 10 L 17 10 Z M 20 11 L 21 11 L 21 10 L 20 10 L 20 11 Z M 21 10 L 21 11 L 22 11 L 22 10 L 21 10 Z M 22 10 L 22 11 L 23 11 L 23 10 L 22 10 Z M 23 10 L 23 11 L 24 11 L 24 10 L 23 10 Z M 24 10 L 24 11 L 25 11 L 25 10 L 24 10 Z M 26 10 L 25 10 L 25 11 L 26 11 L 26 10 Z M 27 11 L 28 11 L 28 10 L 27 10 L 27 11 Z M 29 10 L 28 10 L 28 11 L 29 11 L 29 10 Z M 31 10 L 31 11 L 32 11 L 32 10 L 31 10 Z M 35 10 L 35 11 L 36 11 L 36 10 L 35 10 Z M 0 12 L 1 12 L 1 11 L 0 11 L 0 12 Z M 2 11 L 1 11 L 1 12 L 2 12 L 2 11 Z M 3 11 L 3 12 L 4 12 L 4 11 L 3 11 Z M 4 11 L 4 12 L 5 12 L 5 11 L 4 11 Z M 5 11 L 5 12 L 6 12 L 6 11 L 5 11 Z M 8 11 L 8 12 L 9 12 L 9 11 L 8 11 Z M 11 12 L 11 11 L 10 11 L 10 12 L 11 12 Z M 11 11 L 11 12 L 12 12 L 12 11 L 11 11 Z M 13 11 L 12 11 L 12 12 L 13 12 L 13 11 Z M 15 12 L 15 11 L 14 11 L 14 12 L 15 12 Z M 15 11 L 15 12 L 16 12 L 16 11 L 15 11 Z M 17 11 L 17 12 L 18 12 L 18 11 L 17 11 Z M 19 12 L 20 12 L 20 11 L 19 11 L 19 12 Z M 20 11 L 20 12 L 21 12 L 21 11 L 20 11 Z M 23 11 L 23 12 L 24 12 L 24 11 L 23 11 Z M 28 12 L 28 11 L 27 11 L 27 12 L 28 12 Z M 35 11 L 35 12 L 36 12 L 36 11 L 35 11 Z M 36 11 L 36 12 L 37 12 L 37 11 L 36 11 Z M 0 12 L 0 13 L 1 13 L 1 12 L 0 12 Z M 3 12 L 3 13 L 4 13 L 4 12 L 3 12 Z M 5 12 L 5 13 L 6 13 L 6 12 L 5 12 Z M 7 12 L 6 12 L 6 13 L 7 13 L 7 12 Z M 8 12 L 8 13 L 9 13 L 9 12 L 8 12 Z M 12 13 L 12 12 L 11 12 L 11 13 L 12 13 Z M 13 12 L 13 13 L 14 13 L 14 12 L 13 12 Z M 16 13 L 16 12 L 15 12 L 15 13 L 16 13 Z M 17 12 L 17 13 L 18 13 L 18 12 L 17 12 Z M 20 13 L 20 12 L 19 12 L 19 13 L 20 13 Z M 21 12 L 20 12 L 20 13 L 21 13 L 21 12 Z M 22 13 L 23 13 L 23 12 L 22 12 L 22 13 Z M 24 12 L 23 12 L 23 13 L 24 13 L 24 12 Z M 32 13 L 33 13 L 33 12 L 32 12 L 32 13 Z M 33 12 L 33 13 L 34 13 L 34 12 L 33 12 Z M 34 12 L 34 13 L 35 13 L 35 12 L 34 12 Z M 35 12 L 35 13 L 36 13 L 36 12 L 35 12 Z M 36 12 L 36 13 L 37 13 L 37 12 L 36 12 Z M 0 13 L 0 14 L 1 14 L 1 13 L 0 13 Z M 1 13 L 1 14 L 2 14 L 2 13 L 1 13 Z M 4 14 L 4 13 L 3 13 L 3 14 L 4 14 Z M 4 13 L 4 14 L 5 14 L 5 13 L 4 13 Z M 5 13 L 5 14 L 6 14 L 6 13 L 5 13 Z M 9 14 L 9 13 L 8 13 L 8 14 L 9 14 Z M 9 13 L 9 14 L 10 14 L 10 13 L 9 13 Z M 10 13 L 10 14 L 11 14 L 11 13 L 10 13 Z M 12 14 L 13 14 L 13 13 L 12 13 L 12 14 Z M 13 13 L 13 14 L 14 14 L 14 13 L 13 13 Z M 14 13 L 14 14 L 15 14 L 15 13 L 14 13 Z M 18 14 L 18 13 L 17 13 L 17 14 L 18 14 Z M 23 14 L 23 13 L 22 13 L 22 14 L 23 14 Z M 24 13 L 24 14 L 25 14 L 25 13 L 24 13 Z M 27 13 L 27 14 L 28 14 L 28 13 L 27 13 Z M 29 14 L 30 14 L 30 13 L 29 13 L 29 14 Z M 30 13 L 30 14 L 31 14 L 31 13 L 30 13 Z M 32 13 L 32 14 L 33 14 L 33 13 L 32 13 Z M 37 14 L 37 13 L 36 13 L 36 14 L 37 14 Z M 1 15 L 1 14 L 0 14 L 0 15 L 1 15 Z M 2 14 L 1 14 L 1 15 L 2 15 L 2 14 Z M 6 15 L 6 14 L 5 14 L 5 15 L 6 15 Z M 7 14 L 6 14 L 6 15 L 7 15 L 7 14 Z M 10 15 L 10 14 L 9 14 L 9 15 L 10 15 Z M 10 14 L 10 15 L 11 15 L 11 14 L 10 14 Z M 14 14 L 14 15 L 15 15 L 15 14 L 14 14 Z M 16 14 L 16 15 L 17 15 L 17 14 L 16 14 Z M 20 14 L 20 15 L 21 15 L 21 14 L 20 14 Z M 25 14 L 25 15 L 26 15 L 26 14 L 25 14 Z M 27 14 L 27 15 L 28 15 L 28 14 L 27 14 Z M 29 14 L 29 15 L 30 15 L 30 14 L 29 14 Z M 30 14 L 30 15 L 31 15 L 31 14 L 30 14 Z M 33 15 L 33 14 L 32 14 L 32 15 L 33 15 Z M 34 15 L 35 15 L 35 14 L 34 14 L 34 15 Z M 36 14 L 35 14 L 35 15 L 36 15 L 36 14 Z M 2 16 L 3 16 L 3 15 L 2 15 L 2 16 Z M 3 15 L 3 16 L 4 16 L 4 15 L 3 15 Z M 4 15 L 4 16 L 5 16 L 5 15 L 4 15 Z M 7 15 L 7 16 L 8 16 L 8 15 L 7 15 Z M 11 16 L 11 15 L 10 15 L 10 16 L 11 16 Z M 11 15 L 11 16 L 12 16 L 12 15 L 11 15 Z M 13 16 L 14 16 L 14 15 L 13 15 L 13 16 Z M 15 15 L 14 15 L 14 16 L 15 16 L 15 15 Z M 21 16 L 21 15 L 20 15 L 20 16 L 21 16 Z M 21 15 L 21 16 L 22 16 L 22 15 L 21 15 Z M 22 15 L 22 16 L 23 16 L 23 15 L 22 15 Z M 23 15 L 23 16 L 24 16 L 24 15 L 23 15 Z M 24 15 L 24 16 L 25 16 L 25 15 L 24 15 Z M 26 16 L 27 16 L 27 15 L 26 15 L 26 16 Z M 27 15 L 27 16 L 28 16 L 28 15 L 27 15 Z M 30 16 L 30 15 L 29 15 L 29 16 L 30 16 Z M 30 15 L 30 16 L 31 16 L 31 15 L 30 15 Z M 36 15 L 36 16 L 37 16 L 37 15 L 36 15 Z M 0 17 L 1 17 L 1 16 L 0 16 L 0 17 Z M 2 16 L 1 16 L 1 17 L 2 17 L 2 16 Z M 4 16 L 4 17 L 5 17 L 5 16 L 4 16 Z M 5 16 L 5 17 L 6 17 L 6 16 L 5 16 Z M 7 16 L 6 16 L 6 17 L 7 17 L 7 16 Z M 8 16 L 8 17 L 9 17 L 9 16 L 8 16 Z M 11 16 L 11 17 L 12 17 L 12 16 L 11 16 Z M 14 17 L 14 16 L 13 16 L 13 17 L 14 17 Z M 15 16 L 15 17 L 16 17 L 16 16 L 15 16 Z M 17 17 L 18 17 L 18 16 L 17 16 L 17 17 Z M 18 16 L 18 17 L 19 17 L 19 16 L 18 16 Z M 21 16 L 21 17 L 22 17 L 22 16 L 21 16 Z M 25 17 L 25 16 L 24 16 L 24 17 L 25 17 Z M 27 16 L 27 17 L 28 17 L 28 16 L 27 16 Z M 30 16 L 30 17 L 31 17 L 31 16 L 30 16 Z M 31 16 L 31 17 L 32 17 L 32 16 L 31 16 Z M 33 17 L 34 17 L 34 16 L 33 16 L 33 17 Z M 34 16 L 34 17 L 35 17 L 35 16 L 34 16 Z M 36 16 L 36 17 L 37 17 L 37 16 L 36 16 Z M 2 17 L 2 18 L 3 18 L 3 17 L 2 17 Z M 4 17 L 4 18 L 5 18 L 5 17 L 4 17 Z M 6 17 L 5 17 L 5 18 L 6 18 L 6 17 Z M 9 18 L 10 18 L 10 17 L 9 17 L 9 18 Z M 10 17 L 10 18 L 11 18 L 11 17 L 10 17 Z M 11 17 L 11 18 L 12 18 L 12 17 L 11 17 Z M 13 17 L 12 17 L 12 18 L 13 18 L 13 17 Z M 14 18 L 15 18 L 15 17 L 14 17 L 14 18 Z M 15 17 L 15 18 L 16 18 L 16 17 L 15 17 Z M 19 18 L 19 17 L 18 17 L 18 18 L 19 18 Z M 19 17 L 19 18 L 20 18 L 20 17 L 19 17 Z M 20 17 L 20 18 L 21 18 L 21 17 L 20 17 Z M 21 17 L 21 18 L 22 18 L 22 17 L 21 17 Z M 25 18 L 26 18 L 26 17 L 25 17 L 25 18 Z M 26 17 L 26 18 L 27 18 L 27 17 L 26 17 Z M 27 17 L 27 18 L 28 18 L 28 17 L 27 17 Z M 29 17 L 28 17 L 28 18 L 29 18 L 29 17 Z M 31 18 L 31 17 L 30 17 L 30 18 L 31 18 Z M 31 17 L 31 18 L 32 18 L 32 17 L 31 17 Z M 35 18 L 35 17 L 34 17 L 34 18 L 35 18 Z M 35 17 L 35 18 L 36 18 L 36 17 L 35 17 Z M 37 17 L 36 17 L 36 18 L 37 18 L 37 17 Z M 3 19 L 3 18 L 2 18 L 2 19 L 3 19 Z M 5 19 L 5 18 L 4 18 L 4 19 L 5 19 Z M 6 18 L 6 19 L 7 19 L 7 18 L 6 18 Z M 9 18 L 9 19 L 10 19 L 10 18 L 9 18 Z M 10 18 L 10 19 L 11 19 L 11 18 L 10 18 Z M 11 18 L 11 19 L 12 19 L 12 18 L 11 18 Z M 13 18 L 13 19 L 14 19 L 14 18 L 13 18 Z M 16 19 L 16 18 L 15 18 L 15 19 L 16 19 Z M 16 18 L 16 19 L 17 19 L 17 18 L 16 18 Z M 20 19 L 20 18 L 19 18 L 19 19 L 20 19 Z M 20 18 L 20 19 L 21 19 L 21 18 L 20 18 Z M 21 18 L 21 19 L 22 19 L 22 18 L 21 18 Z M 23 18 L 22 18 L 22 19 L 23 19 L 23 18 Z M 25 18 L 25 19 L 26 19 L 26 18 L 25 18 Z M 26 18 L 26 19 L 27 19 L 27 18 L 26 18 Z M 27 18 L 27 19 L 28 19 L 28 18 L 27 18 Z M 31 18 L 31 19 L 32 19 L 32 18 L 31 18 Z M 32 18 L 32 19 L 33 19 L 33 18 L 32 18 Z M 36 19 L 36 18 L 35 18 L 35 19 L 36 19 Z M 0 20 L 1 20 L 1 19 L 0 19 L 0 20 Z M 2 19 L 1 19 L 1 20 L 2 20 L 2 19 Z M 5 19 L 5 20 L 6 20 L 6 19 L 5 19 Z M 8 20 L 9 20 L 9 19 L 8 19 L 8 20 Z M 9 19 L 9 20 L 10 20 L 10 19 L 9 19 Z M 10 19 L 10 20 L 11 20 L 11 19 L 10 19 Z M 11 19 L 11 20 L 12 20 L 12 19 L 11 19 Z M 17 20 L 17 19 L 16 19 L 16 20 L 17 20 Z M 17 19 L 17 20 L 18 20 L 18 19 L 17 19 Z M 20 19 L 20 20 L 21 20 L 21 19 L 20 19 Z M 24 20 L 25 20 L 25 19 L 24 19 L 24 20 Z M 25 19 L 25 20 L 26 20 L 26 19 L 25 19 Z M 26 19 L 26 20 L 27 20 L 27 19 L 26 19 Z M 27 19 L 27 20 L 28 20 L 28 19 L 27 19 Z M 32 20 L 32 19 L 31 19 L 31 20 L 32 20 Z M 32 19 L 32 20 L 33 20 L 33 19 L 32 19 Z M 33 19 L 33 20 L 34 20 L 34 19 L 33 19 Z M 36 19 L 36 20 L 37 20 L 37 19 L 36 19 Z M 0 20 L 0 21 L 1 21 L 1 20 L 0 20 Z M 6 21 L 6 20 L 5 20 L 5 21 L 6 21 Z M 6 20 L 6 21 L 7 21 L 7 20 L 6 20 Z M 7 20 L 7 21 L 8 21 L 8 20 L 7 20 Z M 9 20 L 8 20 L 8 21 L 9 21 L 9 20 Z M 11 20 L 11 21 L 12 21 L 12 20 L 11 20 Z M 14 20 L 14 21 L 15 21 L 15 20 L 14 20 Z M 17 20 L 17 21 L 18 21 L 18 20 L 17 20 Z M 19 20 L 18 20 L 18 21 L 19 21 L 19 20 Z M 20 20 L 20 21 L 21 21 L 21 20 L 20 20 Z M 22 21 L 23 21 L 23 20 L 22 20 L 22 21 Z M 23 20 L 23 21 L 24 21 L 24 20 L 23 20 Z M 25 20 L 24 20 L 24 21 L 25 21 L 25 20 Z M 27 20 L 27 21 L 28 21 L 28 20 L 27 20 Z M 28 20 L 28 21 L 29 21 L 29 20 L 28 20 Z M 34 21 L 34 20 L 33 20 L 33 21 L 34 21 Z M 35 20 L 34 20 L 34 21 L 35 21 L 35 20 Z M 1 22 L 1 21 L 0 21 L 0 22 L 1 22 Z M 1 21 L 1 22 L 2 22 L 2 21 L 1 21 Z M 3 21 L 2 21 L 2 22 L 3 22 L 3 21 Z M 8 22 L 8 21 L 7 21 L 7 22 L 8 22 Z M 10 22 L 11 22 L 11 21 L 10 21 L 10 22 Z M 11 21 L 11 22 L 12 22 L 12 21 L 11 21 Z M 12 21 L 12 22 L 13 22 L 13 21 L 12 21 Z M 14 21 L 13 21 L 13 22 L 14 22 L 14 21 Z M 18 22 L 18 21 L 17 21 L 17 22 L 18 22 Z M 19 22 L 20 22 L 20 21 L 19 21 L 19 22 Z M 21 21 L 20 21 L 20 22 L 21 22 L 21 21 Z M 22 21 L 22 22 L 23 22 L 23 21 L 22 21 Z M 24 21 L 23 21 L 23 22 L 24 22 L 24 21 Z M 25 21 L 25 22 L 26 22 L 26 21 L 25 21 Z M 28 22 L 28 21 L 27 21 L 27 22 L 28 22 Z M 28 21 L 28 22 L 29 22 L 29 21 L 28 21 Z M 30 21 L 29 21 L 29 22 L 30 22 L 30 21 Z M 35 22 L 36 22 L 36 21 L 35 21 L 35 22 Z M 36 21 L 36 22 L 37 22 L 37 21 L 36 21 Z M 1 22 L 1 23 L 2 23 L 2 22 L 1 22 Z M 6 22 L 6 23 L 7 23 L 7 22 L 6 22 Z M 9 22 L 9 23 L 10 23 L 10 22 L 9 22 Z M 13 23 L 13 22 L 12 22 L 12 23 L 13 23 Z M 15 23 L 16 23 L 16 22 L 15 22 L 15 23 Z M 16 22 L 16 23 L 17 23 L 17 22 L 16 22 Z M 19 22 L 19 23 L 20 23 L 20 22 L 19 22 Z M 22 22 L 22 23 L 23 23 L 23 22 L 22 22 Z M 25 22 L 25 23 L 26 23 L 26 22 L 25 22 Z M 29 23 L 29 22 L 28 22 L 28 23 L 29 23 Z M 31 23 L 32 23 L 32 22 L 31 22 L 31 23 Z M 32 22 L 32 23 L 33 23 L 33 22 L 32 22 Z M 34 22 L 34 23 L 35 23 L 35 22 L 34 22 Z M 37 23 L 37 22 L 36 22 L 36 23 L 37 23 Z M 1 23 L 1 24 L 2 24 L 2 23 L 1 23 Z M 4 23 L 4 24 L 5 24 L 5 23 L 4 23 Z M 7 24 L 8 24 L 8 23 L 7 23 L 7 24 Z M 8 23 L 8 24 L 9 24 L 9 23 L 8 23 Z M 10 24 L 11 24 L 11 23 L 10 23 L 10 24 Z M 12 23 L 11 23 L 11 24 L 12 24 L 12 23 Z M 13 24 L 14 24 L 14 23 L 13 23 L 13 24 Z M 14 23 L 14 24 L 15 24 L 15 23 L 14 23 Z M 16 23 L 16 24 L 17 24 L 17 23 L 16 23 Z M 18 24 L 19 24 L 19 23 L 18 23 L 18 24 Z M 19 23 L 19 24 L 20 24 L 20 23 L 19 23 Z M 20 23 L 20 24 L 21 24 L 21 23 L 20 23 Z M 21 23 L 21 24 L 22 24 L 22 23 L 21 23 Z M 22 23 L 22 24 L 23 24 L 23 23 L 22 23 Z M 26 24 L 26 23 L 25 23 L 25 24 L 26 24 Z M 27 23 L 26 23 L 26 24 L 27 24 L 27 23 Z M 29 24 L 30 24 L 30 23 L 29 23 L 29 24 Z M 31 23 L 30 23 L 30 24 L 31 24 L 31 23 Z M 33 24 L 33 23 L 32 23 L 32 24 L 33 24 Z M 33 23 L 33 24 L 34 24 L 34 23 L 33 23 Z M 34 23 L 34 24 L 35 24 L 35 23 L 34 23 Z M 35 23 L 35 24 L 36 24 L 36 23 L 35 23 Z M 1 24 L 1 25 L 2 25 L 2 24 L 1 24 Z M 3 24 L 2 24 L 2 25 L 3 25 L 3 24 Z M 5 25 L 5 24 L 4 24 L 4 25 L 5 25 Z M 6 25 L 7 25 L 7 24 L 6 24 L 6 25 Z M 7 24 L 7 25 L 8 25 L 8 24 L 7 24 Z M 8 24 L 8 25 L 9 25 L 9 24 L 8 24 Z M 10 24 L 9 24 L 9 25 L 10 25 L 10 24 Z M 12 24 L 12 25 L 13 25 L 13 24 L 12 24 Z M 14 24 L 14 25 L 15 25 L 15 24 L 14 24 Z M 15 24 L 15 25 L 16 25 L 16 24 L 15 24 Z M 16 24 L 16 25 L 17 25 L 17 24 L 16 24 Z M 17 24 L 17 25 L 18 25 L 18 24 L 17 24 Z M 20 25 L 20 24 L 19 24 L 19 25 L 20 25 Z M 21 24 L 20 24 L 20 25 L 21 25 L 21 24 Z M 22 24 L 22 25 L 23 25 L 23 24 L 22 24 Z M 24 24 L 24 25 L 25 25 L 25 24 L 24 24 Z M 28 24 L 28 25 L 29 25 L 29 24 L 28 24 Z M 31 24 L 31 25 L 32 25 L 32 24 L 31 24 Z M 35 25 L 35 24 L 34 24 L 34 25 L 35 25 Z M 35 24 L 35 25 L 36 25 L 36 24 L 35 24 Z M 37 24 L 36 24 L 36 25 L 37 25 L 37 24 Z M 1 25 L 1 26 L 2 26 L 2 25 L 1 25 Z M 3 25 L 3 26 L 4 26 L 4 25 L 3 25 Z M 5 25 L 5 26 L 6 26 L 6 25 L 5 25 Z M 10 25 L 10 26 L 11 26 L 11 25 L 10 25 Z M 14 25 L 14 26 L 15 26 L 15 25 L 14 25 Z M 18 26 L 18 25 L 17 25 L 17 26 L 18 26 Z M 21 26 L 22 26 L 22 25 L 21 25 L 21 26 Z M 23 25 L 22 25 L 22 26 L 23 26 L 23 25 Z M 33 25 L 33 26 L 34 26 L 34 25 L 33 25 Z M 0 27 L 1 27 L 1 26 L 0 26 L 0 27 Z M 1 26 L 1 27 L 2 27 L 2 26 L 1 26 Z M 2 26 L 2 27 L 3 27 L 3 26 L 2 26 Z M 3 26 L 3 27 L 4 27 L 4 26 L 3 26 Z M 4 26 L 4 27 L 5 27 L 5 26 L 4 26 Z M 6 27 L 7 27 L 7 26 L 6 26 L 6 27 Z M 8 26 L 7 26 L 7 27 L 8 27 L 8 26 Z M 9 27 L 10 27 L 10 26 L 9 26 L 9 27 Z M 10 26 L 10 27 L 11 27 L 11 26 L 10 26 Z M 13 27 L 14 27 L 14 26 L 13 26 L 13 27 Z M 14 26 L 14 27 L 15 27 L 15 26 L 14 26 Z M 15 26 L 15 27 L 16 27 L 16 26 L 15 26 Z M 18 26 L 18 27 L 19 27 L 19 26 L 18 26 Z M 21 26 L 21 27 L 22 27 L 22 26 L 21 26 Z M 24 27 L 25 27 L 25 26 L 24 26 L 24 27 Z M 25 26 L 25 27 L 26 27 L 26 26 L 25 26 Z M 26 26 L 26 27 L 27 27 L 27 26 L 26 26 Z M 28 26 L 27 26 L 27 27 L 28 27 L 28 26 Z M 29 27 L 30 27 L 30 26 L 29 26 L 29 27 Z M 30 26 L 30 27 L 31 27 L 31 26 L 30 26 Z M 32 26 L 31 26 L 31 27 L 32 27 L 32 26 Z M 34 27 L 35 27 L 35 26 L 34 26 L 34 27 Z M 35 26 L 35 27 L 36 27 L 36 26 L 35 26 Z M 36 26 L 36 27 L 37 27 L 37 26 L 36 26 Z M 1 28 L 1 27 L 0 27 L 0 28 L 1 28 Z M 3 28 L 3 27 L 2 27 L 2 28 L 3 28 Z M 3 27 L 3 28 L 4 28 L 4 27 L 3 27 Z M 4 27 L 4 28 L 5 28 L 5 27 L 4 27 Z M 9 27 L 9 28 L 10 28 L 10 27 L 9 27 Z M 10 27 L 10 28 L 11 28 L 11 27 L 10 27 Z M 12 27 L 11 27 L 11 28 L 12 28 L 12 27 Z M 13 27 L 13 28 L 14 28 L 14 27 L 13 27 Z M 14 27 L 14 28 L 15 28 L 15 27 L 14 27 Z M 16 27 L 15 27 L 15 28 L 16 28 L 16 27 Z M 17 28 L 18 28 L 18 27 L 17 27 L 17 28 Z M 18 27 L 18 28 L 19 28 L 19 27 L 18 27 Z M 19 27 L 19 28 L 20 28 L 20 27 L 19 27 Z M 20 27 L 20 28 L 21 28 L 21 27 L 20 27 Z M 21 27 L 21 28 L 22 28 L 22 27 L 21 27 Z M 22 27 L 22 28 L 23 28 L 23 27 L 22 27 Z M 23 27 L 23 28 L 24 28 L 24 27 L 23 27 Z M 24 27 L 24 28 L 25 28 L 25 27 L 24 27 Z M 25 27 L 25 28 L 26 28 L 26 27 L 25 27 Z M 27 27 L 26 27 L 26 28 L 27 28 L 27 27 Z M 37 28 L 37 27 L 36 27 L 36 28 L 37 28 Z M 1 28 L 1 29 L 2 29 L 2 28 L 1 28 Z M 4 29 L 4 28 L 3 28 L 3 29 L 4 29 Z M 5 28 L 4 28 L 4 29 L 5 29 L 5 28 Z M 6 28 L 6 29 L 7 29 L 7 28 L 6 28 Z M 9 28 L 9 29 L 10 29 L 10 28 L 9 28 Z M 10 28 L 10 29 L 11 29 L 11 28 L 10 28 Z M 14 29 L 14 28 L 13 28 L 13 29 L 14 29 Z M 16 29 L 17 29 L 17 28 L 16 28 L 16 29 Z M 18 28 L 17 28 L 17 29 L 18 29 L 18 28 Z M 20 29 L 20 28 L 19 28 L 19 29 L 20 29 Z M 22 29 L 22 28 L 21 28 L 21 29 L 22 29 Z M 26 29 L 26 28 L 25 28 L 25 29 L 26 29 Z M 27 29 L 28 29 L 28 28 L 27 28 L 27 29 Z M 28 28 L 28 29 L 29 29 L 29 28 L 28 28 Z M 29 28 L 29 29 L 30 29 L 30 28 L 29 28 Z M 30 28 L 30 29 L 31 29 L 31 28 L 30 28 Z M 31 28 L 31 29 L 32 29 L 32 28 L 31 28 Z M 32 28 L 32 29 L 33 29 L 33 28 L 32 28 Z M 33 28 L 33 29 L 34 29 L 34 28 L 33 28 Z M 8 30 L 9 30 L 9 29 L 8 29 L 8 30 Z M 9 29 L 9 30 L 10 30 L 10 29 L 9 29 Z M 11 29 L 10 29 L 10 30 L 11 30 L 11 29 Z M 12 29 L 12 30 L 13 30 L 13 29 L 12 29 Z M 16 29 L 16 30 L 17 30 L 17 29 L 16 29 Z M 18 29 L 18 30 L 19 30 L 19 29 L 18 29 Z M 20 29 L 20 30 L 21 30 L 21 29 L 20 29 Z M 24 29 L 24 30 L 25 30 L 25 29 L 24 29 Z M 26 29 L 26 30 L 27 30 L 27 29 L 26 29 Z M 28 29 L 28 30 L 29 30 L 29 29 L 28 29 Z M 32 29 L 32 30 L 33 30 L 33 29 L 32 29 Z M 33 29 L 33 30 L 34 30 L 34 29 L 33 29 Z M 34 29 L 34 30 L 35 30 L 35 29 L 34 29 Z M 36 29 L 35 29 L 35 30 L 36 30 L 36 29 Z M 8 30 L 8 31 L 9 31 L 9 30 L 8 30 Z M 11 31 L 12 31 L 12 30 L 11 30 L 11 31 Z M 13 30 L 12 30 L 12 31 L 13 31 L 13 30 Z M 15 31 L 16 31 L 16 30 L 15 30 L 15 31 Z M 16 30 L 16 31 L 17 31 L 17 30 L 16 30 Z M 19 31 L 20 31 L 20 30 L 19 30 L 19 31 Z M 20 30 L 20 31 L 21 31 L 21 30 L 20 30 Z M 24 30 L 24 31 L 25 31 L 25 30 L 24 30 Z M 28 30 L 28 31 L 29 31 L 29 30 L 28 30 Z M 30 30 L 30 31 L 31 31 L 31 30 L 30 30 Z M 32 30 L 32 31 L 33 31 L 33 30 L 32 30 Z M 33 30 L 33 31 L 34 31 L 34 30 L 33 30 Z M 35 30 L 34 30 L 34 31 L 35 31 L 35 30 Z M 8 31 L 8 32 L 9 32 L 9 31 L 8 31 Z M 10 32 L 11 32 L 11 31 L 10 31 L 10 32 Z M 11 31 L 11 32 L 12 32 L 12 31 L 11 31 Z M 14 32 L 15 32 L 15 31 L 14 31 L 14 32 Z M 15 31 L 15 32 L 16 32 L 16 31 L 15 31 Z M 16 31 L 16 32 L 17 32 L 17 31 L 16 31 Z M 17 31 L 17 32 L 18 32 L 18 31 L 17 31 Z M 19 31 L 18 31 L 18 32 L 19 32 L 19 31 Z M 21 32 L 21 31 L 20 31 L 20 32 L 21 32 Z M 21 31 L 21 32 L 22 32 L 22 31 L 21 31 Z M 22 31 L 22 32 L 23 32 L 23 31 L 22 31 Z M 23 31 L 23 32 L 24 32 L 24 31 L 23 31 Z M 25 31 L 24 31 L 24 32 L 25 32 L 25 31 Z M 26 32 L 27 32 L 27 31 L 26 31 L 26 32 Z M 27 31 L 27 32 L 28 32 L 28 31 L 27 31 Z M 28 31 L 28 32 L 29 32 L 29 31 L 28 31 Z M 32 31 L 32 32 L 33 32 L 33 31 L 32 31 Z M 34 31 L 33 31 L 33 32 L 34 32 L 34 31 Z M 36 31 L 36 32 L 37 32 L 37 31 L 36 31 Z M 8 32 L 8 33 L 9 33 L 9 32 L 8 32 Z M 9 32 L 9 33 L 10 33 L 10 32 L 9 32 Z M 12 33 L 12 32 L 11 32 L 11 33 L 12 33 Z M 13 33 L 14 33 L 14 32 L 13 32 L 13 33 Z M 14 32 L 14 33 L 15 33 L 15 32 L 14 32 Z M 16 32 L 15 32 L 15 33 L 16 33 L 16 32 Z M 17 32 L 17 33 L 18 33 L 18 32 L 17 32 Z M 22 33 L 22 32 L 21 32 L 21 33 L 22 33 Z M 22 32 L 22 33 L 23 33 L 23 32 L 22 32 Z M 24 32 L 23 32 L 23 33 L 24 33 L 24 32 Z M 25 32 L 25 33 L 26 33 L 26 32 L 25 32 Z M 28 33 L 28 32 L 27 32 L 27 33 L 28 33 Z M 28 32 L 28 33 L 29 33 L 29 32 L 28 32 Z M 29 32 L 29 33 L 30 33 L 30 32 L 29 32 Z M 30 32 L 30 33 L 31 33 L 31 32 L 30 32 Z M 31 32 L 31 33 L 32 33 L 32 32 L 31 32 Z M 32 32 L 32 33 L 33 33 L 33 32 L 32 32 Z M 35 32 L 35 33 L 36 33 L 36 32 L 35 32 Z M 9 34 L 9 33 L 8 33 L 8 34 L 9 34 Z M 9 33 L 9 34 L 10 34 L 10 33 L 9 33 Z M 14 34 L 14 33 L 13 33 L 13 34 L 14 34 Z M 14 33 L 14 34 L 15 34 L 15 33 L 14 33 Z M 16 34 L 17 34 L 17 33 L 16 33 L 16 34 Z M 17 33 L 17 34 L 18 34 L 18 33 L 17 33 Z M 19 33 L 18 33 L 18 34 L 19 34 L 19 33 Z M 22 33 L 22 34 L 23 34 L 23 33 L 22 33 Z M 24 34 L 25 34 L 25 33 L 24 33 L 24 34 Z M 25 33 L 25 34 L 26 34 L 26 33 L 25 33 Z M 28 33 L 28 34 L 29 34 L 29 33 L 28 33 Z M 31 33 L 31 34 L 32 34 L 32 33 L 31 33 Z M 32 33 L 32 34 L 33 34 L 33 33 L 32 33 Z M 34 34 L 35 34 L 35 33 L 34 33 L 34 34 Z M 35 33 L 35 34 L 36 34 L 36 33 L 35 33 Z M 9 34 L 9 35 L 10 35 L 10 34 L 9 34 Z M 10 34 L 10 35 L 11 35 L 11 34 L 10 34 Z M 11 34 L 11 35 L 12 35 L 12 34 L 11 34 Z M 12 34 L 12 35 L 13 35 L 13 34 L 12 34 Z M 14 34 L 14 35 L 15 35 L 15 34 L 14 34 Z M 15 34 L 15 35 L 16 35 L 16 34 L 15 34 Z M 16 34 L 16 35 L 17 35 L 17 34 L 16 34 Z M 19 35 L 20 35 L 20 34 L 19 34 L 19 35 Z M 21 34 L 20 34 L 20 35 L 21 35 L 21 34 Z M 23 35 L 23 34 L 22 34 L 22 35 L 23 35 Z M 23 34 L 23 35 L 24 35 L 24 34 L 23 34 Z M 24 34 L 24 35 L 25 35 L 25 34 L 24 34 Z M 26 34 L 25 34 L 25 35 L 26 35 L 26 34 Z M 27 35 L 28 35 L 28 34 L 27 34 L 27 35 Z M 29 34 L 28 34 L 28 35 L 29 35 L 29 34 Z M 32 35 L 32 34 L 31 34 L 31 35 L 32 35 Z M 32 34 L 32 35 L 33 35 L 33 34 L 32 34 Z M 35 34 L 35 35 L 36 35 L 36 34 L 35 34 Z M 36 34 L 36 35 L 37 35 L 37 34 L 36 34 Z M 10 36 L 10 35 L 9 35 L 9 36 L 10 36 Z M 12 36 L 12 35 L 11 35 L 11 36 L 12 36 Z M 12 35 L 12 36 L 13 36 L 13 35 L 12 35 Z M 15 36 L 15 35 L 14 35 L 14 36 L 15 36 Z M 16 35 L 16 36 L 17 36 L 17 35 L 16 35 Z M 18 35 L 17 35 L 17 36 L 18 36 L 18 35 Z M 20 36 L 20 35 L 19 35 L 19 36 L 20 36 Z M 24 36 L 24 35 L 23 35 L 23 36 L 24 36 Z M 24 35 L 24 36 L 25 36 L 25 35 L 24 35 Z M 33 36 L 33 35 L 32 35 L 32 36 L 33 36 Z M 36 36 L 36 35 L 35 35 L 35 36 L 36 36 Z M 36 35 L 36 36 L 37 36 L 37 35 L 36 35 Z M 8 36 L 8 37 L 9 37 L 9 36 L 8 36 Z M 13 37 L 13 36 L 12 36 L 12 37 L 13 37 Z M 17 37 L 17 36 L 16 36 L 16 37 L 17 37 Z M 25 37 L 25 36 L 24 36 L 24 37 L 25 37 Z M 28 36 L 28 37 L 29 37 L 29 36 L 28 36 Z M 31 36 L 31 37 L 32 37 L 32 36 L 31 36 Z M 33 36 L 33 37 L 34 37 L 34 36 L 33 36 Z M 37 37 L 37 36 L 36 36 L 36 37 L 37 37 Z" /><path id="qroutline_eyetopleft_8840" d="M 0 1 L 1 1 L 1 0 L 0 0 L 0 1 Z M 1 0 L 1 1 L 2 1 L 2 0 L 1 0 Z M 2 0 L 2 1 L 3 1 L 3 0 L 2 0 Z M 3 0 L 3 1 L 4 1 L 4 0 L 3 0 Z M 4 0 L 4 1 L 5 1 L 5 0 L 4 0 Z M 5 0 L 5 1 L 6 1 L 6 0 L 5 0 Z M 6 0 L 6 1 L 7 1 L 7 0 L 6 0 Z M 0 1 L 0 2 L 1 2 L 1 1 L 0 1 Z M 6 1 L 6 2 L 7 2 L 7 1 L 6 1 Z M 0 2 L 0 3 L 1 3 L 1 2 L 0 2 Z M 6 2 L 6 3 L 7 3 L 7 2 L 6 2 Z M 0 3 L 0 4 L 1 4 L 1 3 L 0 3 Z M 6 3 L 6 4 L 7 4 L 7 3 L 6 3 Z M 0 4 L 0 5 L 1 5 L 1 4 L 0 4 Z M 6 4 L 6 5 L 7 5 L 7 4 L 6 4 Z M 0 5 L 0 6 L 1 6 L 1 5 L 0 5 Z M 6 5 L 6 6 L 7 6 L 7 5 L 6 5 Z M 1 7 L 1 6 L 0 6 L 0 7 L 1 7 Z M 1 6 L 1 7 L 2 7 L 2 6 L 1 6 Z M 2 6 L 2 7 L 3 7 L 3 6 L 2 6 Z M 3 6 L 3 7 L 4 7 L 4 6 L 3 6 Z M 4 6 L 4 7 L 5 7 L 5 6 L 4 6 Z M 5 6 L 5 7 L 6 7 L 6 6 L 5 6 Z M 7 6 L 6 6 L 6 7 L 7 7 L 7 6 Z" /><path id="qroutline_eyebottomleft_1548" d="M 0 31 L 1 31 L 1 30 L 0 30 L 0 31 Z M 1 30 L 1 31 L 2 31 L 2 30 L 1 30 Z M 2 30 L 2 31 L 3 31 L 3 30 L 2 30 Z M 3 30 L 3 31 L 4 31 L 4 30 L 3 30 Z M 4 30 L 4 31 L 5 31 L 5 30 L 4 30 Z M 5 30 L 5 31 L 6 31 L 6 30 L 5 30 Z M 6 30 L 6 31 L 7 31 L 7 30 L 6 30 Z M 0 31 L 0 32 L 1 32 L 1 31 L 0 31 Z M 6 31 L 6 32 L 7 32 L 7 31 L 6 31 Z M 0 32 L 0 33 L 1 33 L 1 32 L 0 32 Z M 6 32 L 6 33 L 7 33 L 7 32 L 6 32 Z M 0 33 L 0 34 L 1 34 L 1 33 L 0 33 Z M 6 33 L 6 34 L 7 34 L 7 33 L 6 33 Z M 0 34 L 0 35 L 1 35 L 1 34 L 0 34 Z M 6 34 L 6 35 L 7 35 L 7 34 L 6 34 Z M 0 35 L 0 36 L 1 36 L 1 35 L 0 35 Z M 6 35 L 6 36 L 7 36 L 7 35 L 6 35 Z M 1 37 L 1 36 L 0 36 L 0 37 L 1 37 Z M 1 36 L 1 37 L 2 37 L 2 36 L 1 36 Z M 2 36 L 2 37 L 3 37 L 3 36 L 2 36 Z M 3 36 L 3 37 L 4 37 L 4 36 L 3 36 Z M 4 36 L 4 37 L 5 37 L 5 36 L 4 36 Z M 5 36 L 5 37 L 6 37 L 6 36 L 5 36 Z M 7 36 L 6 36 L 6 37 L 7 37 L 7 36 Z" /><path id="qroutline_eyetopright_5269" d="M 30 1 L 31 1 L 31 0 L 30 0 L 30 1 Z M 31 0 L 31 1 L 32 1 L 32 0 L 31 0 Z M 32 0 L 32 1 L 33 1 L 33 0 L 32 0 Z M 33 0 L 33 1 L 34 1 L 34 0 L 33 0 Z M 34 0 L 34 1 L 35 1 L 35 0 L 34 0 Z M 35 0 L 35 1 L 36 1 L 36 0 L 35 0 Z M 36 0 L 36 1 L 37 1 L 37 0 L 36 0 Z M 30 1 L 30 2 L 31 2 L 31 1 L 30 1 Z M 36 1 L 36 2 L 37 2 L 37 1 L 36 1 Z M 30 2 L 30 3 L 31 3 L 31 2 L 30 2 Z M 36 2 L 36 3 L 37 3 L 37 2 L 36 2 Z M 30 3 L 30 4 L 31 4 L 31 3 L 30 3 Z M 36 3 L 36 4 L 37 4 L 37 3 L 36 3 Z M 30 4 L 30 5 L 31 5 L 31 4 L 30 4 Z M 36 4 L 36 5 L 37 5 L 37 4 L 36 4 Z M 30 5 L 30 6 L 31 6 L 31 5 L 30 5 Z M 36 5 L 36 6 L 37 6 L 37 5 L 36 5 Z M 31 7 L 31 6 L 30 6 L 30 7 L 31 7 Z M 31 6 L 31 7 L 32 7 L 32 6 L 31 6 Z M 32 6 L 32 7 L 33 7 L 33 6 L 32 6 Z M 33 6 L 33 7 L 34 7 L 34 6 L 33 6 Z M 34 6 L 34 7 L 35 7 L 35 6 L 34 6 Z M 35 6 L 35 7 L 36 7 L 36 6 L 35 6 Z M 37 6 L 36 6 L 36 7 L 37 7 L 37 6 Z" /><path id="qrball_eyetopleft_5075" d="M 2 3 L 3 3 L 3 2 L 2 2 L 2 3 Z M 3 2 L 3 3 L 4 3 L 4 2 L 3 2 Z M 4 2 L 4 3 L 5 3 L 5 2 L 4 2 Z M 2 3 L 2 4 L 3 4 L 3 3 L 2 3 Z M 3 3 L 3 4 L 4 4 L 4 3 L 3 3 Z M 4 3 L 4 4 L 5 4 L 5 3 L 4 3 Z M 3 5 L 3 4 L 2 4 L 2 5 L 3 5 Z M 3 4 L 3 5 L 4 5 L 4 4 L 3 4 Z M 5 4 L 4 4 L 4 5 L 5 5 L 5 4 Z" /><path id="qrball_eyebottomleft_7272" d="M 2 33 L 3 33 L 3 32 L 2 32 L 2 33 Z M 3 32 L 3 33 L 4 33 L 4 32 L 3 32 Z M 4 32 L 4 33 L 5 33 L 5 32 L 4 32 Z M 2 33 L 2 34 L 3 34 L 3 33 L 2 33 Z M 3 33 L 3 34 L 4 34 L 4 33 L 3 33 Z M 4 33 L 4 34 L 5 34 L 5 33 L 4 33 Z M 3 35 L 3 34 L 2 34 L 2 35 L 3 35 Z M 3 34 L 3 35 L 4 35 L 4 34 L 3 34 Z M 5 34 L 4 34 L 4 35 L 5 35 L 5 34 Z" /><path id="qrball_eyetopright_8223" d="M 32 3 L 33 3 L 33 2 L 32 2 L 32 3 Z M 33 2 L 33 3 L 34 3 L 34 2 L 33 2 Z M 34 2 L 34 3 L 35 3 L 35 2 L 34 2 Z M 32 3 L 32 4 L 33 4 L 33 3 L 32 3 Z M 33 3 L 33 4 L 34 4 L 34 3 L 33 3 Z M 34 3 L 34 4 L 35 4 L 35 3 L 34 3 Z M 33 5 L 33 4 L 32 4 L 32 5 L 33 5 Z M 33 4 L 33 5 L 34 5 L 34 4 L 33 4 Z M 35 4 L 34 4 L 34 5 L 35 5 L 35 4 Z" /></defs><use xlink:href="#qrmain_8306" style="fill: #000000;" stroke="transparent" /><use xlink:href="#qroutline_eyetopleft_8840" style="fill: #000000;" stroke="transparent" /><use xlink:href="#qroutline_eyebottomleft_1548" style="fill: #000000;" stroke="transparent" /><use xlink:href="#qroutline_eyetopright_5269" style="fill: #000000;" stroke="transparent" /><use xlink:href="#qrball_eyetopleft_5075" style="fill: #000000;" stroke="transparent" /><use xlink:href="#qrball_eyebottomleft_7272" style="fill: #000000;" stroke="transparent" /><use xlink:href="#qrball_eyetopright_8223" style="fill: #000000;" stroke="transparent" /></g></g></g></svg>