<svg xmlns="http://www.w3.org/2000/svg" xmlns:xlink="http://www.w3.org/1999/xlink" width="256" height="256"
viewBox="0 0 256 256"><g transform="translate(0 0) scale(0.256)">
    <rect fill="#ffffff" x="0" y="0" width="1000" height="1000" /><g id="qr"><g transform="translate(0.000, 0.000) scale(20.408, 20.408)"><defs><path id="qrmain_4991" d="M 12 0 L 12 1 L 13 1 L 13 0 L 12 0 Z M 14 0 L 14 1 L 15 1 L 15 0 L 14 0 Z M 17 0 L 17 1 L 18 1 L 18 0 L 17 0 Z M 19 1 L 20 1 L 20 0 L 19 0 L 19 1 Z M 21 0 L 20 0 L 20 1 L 21 1 L 21 0 Z M 22 0 L 22 1 L 23 1 L 23 0 L 22 0 Z M 28 0 L 28 1 L 29 1 L 29 0 L 28 0 Z M 32 0 L 32 1 L 33 1 L 33 0 L 32 0 Z M 35 0 L 35 1 L 36 1 L 36 0 L 35 0 Z M 37 0 L 37 1 L 38 1 L 38 0 L 37 0 Z M 40 0 L 40 1 L 41 1 L 41 0 L 40 0 Z M 10 2 L 11 2 L 11 1 L 10 1 L 10 2 Z M 11 1 L 11 2 L 12 2 L 12 1 L 11 1 Z M 13 1 L 12 1 L 12 2 L 13 2 L 13 1 Z M 16 1 L 16 2 L 17 2 L 17 1 L 16 1 Z M 18 2 L 19 2 L 19 1 L 18 1 L 18 2 Z M 19 1 L 19 2 L 20 2 L 20 1 L 19 1 Z M 23 2 L 24 2 L 24 1 L 23 1 L 23 2 Z M 24 1 L 24 2 L 25 2 L 25 1 L 24 1 Z M 27 2 L 28 2 L 28 1 L 27 1 L 27 2 Z M 28 1 L 28 2 L 29 2 L 29 1 L 28 1 Z M 30 1 L 30 2 L 31 2 L 31 1 L 30 1 Z M 35 1 L 35 2 L 36 2 L 36 1 L 35 1 Z M 38 2 L 39 2 L 39 1 L 38 1 L 38 2 Z M 39 1 L 39 2 L 40 2 L 40 1 L 39 1 Z M 40 1 L 40 2 L 41 2 L 41 1 L 40 1 Z M 9 2 L 9 3 L 10 3 L 10 2 L 9 2 Z M 13 2 L 13 3 L 14 3 L 14 2 L 13 2 Z M 15 3 L 16 3 L 16 2 L 15 2 L 15 3 Z M 16 2 L 16 3 L 17 3 L 17 2 L 16 2 Z M 17 2 L 17 3 L 18 3 L 18 2 L 17 2 Z M 18 2 L 18 3 L 19 3 L 19 2 L 18 2 Z M 19 2 L 19 3 L 20 3 L 20 2 L 19 2 Z M 20 2 L 20 3 L 21 3 L 21 2 L 20 2 Z M 22 2 L 21 2 L 21 3 L 22 3 L 22 2 Z M 23 2 L 23 3 L 24 3 L 24 2 L 23 2 Z M 24 2 L 24 3 L 25 3 L 25 2 L 24 2 Z M 26 2 L 25 2 L 25 3 L 26 3 L 26 2 Z M 28 2 L 28 3 L 29 3 L 29 2 L 28 2 Z M 30 2 L 29 2 L 29 3 L 30 3 L 30 2 Z M 31 3 L 32 3 L 32 2 L 31 2 L 31 3 Z M 32 2 L 32 3 L 33 3 L 33 2 L 32 2 Z M 33 2 L 33 3 L 34 3 L 34 2 L 33 2 Z M 34 2 L 34 3 L 35 3 L 35 2 L 34 2 Z M 35 2 L 35 3 L 36 3 L 36 2 L 35 2 Z M 36 2 L 36 3 L 37 3 L 37 2 L 36 2 Z M 38 2 L 37 2 L 37 3 L 38 3 L 38 2 Z M 39 2 L 39 3 L 40 3 L 40 2 L 39 2 Z M 41 2 L 40 2 L 40 3 L 41 3 L 41 2 Z M 8 4 L 9 4 L 9 3 L 8 3 L 8 4 Z M 10 3 L 9 3 L 9 4 L 10 4 L 10 3 Z M 16 3 L 16 4 L 17 4 L 17 3 L 16 3 Z M 18 3 L 18 4 L 19 4 L 19 3 L 18 3 Z M 21 4 L 21 3 L 20 3 L 20 4 L 21 4 Z M 22 4 L 23 4 L 23 3 L 22 3 L 22 4 Z M 23 3 L 23 4 L 24 4 L 24 3 L 23 3 Z M 29 4 L 29 3 L 28 3 L 28 4 L 29 4 Z M 34 3 L 34 4 L 35 4 L 35 3 L 34 3 Z M 36 3 L 35 3 L 35 4 L 36 4 L 36 3 Z M 40 4 L 40 3 L 39 3 L 39 4 L 40 4 Z M 9 5 L 9 4 L 8 4 L 8 5 L 9 5 Z M 12 5 L 13 5 L 13 4 L 12 4 L 12 5 Z M 13 4 L 13 5 L 14 5 L 14 4 L 13 4 Z M 14 4 L 14 5 L 15 5 L 15 4 L 14 4 Z M 16 4 L 16 5 L 17 5 L 17 4 L 16 4 Z M 17 4 L 17 5 L 18 5 L 18 4 L 17 4 Z M 19 4 L 18 4 L 18 5 L 19 5 L 19 4 Z M 22 4 L 22 5 L 23 5 L 23 4 L 22 4 Z M 23 4 L 23 5 L 24 5 L 24 4 L 23 4 Z M 24 4 L 24 5 L 25 5 L 25 4 L 24 4 Z M 25 4 L 25 5 L 26 5 L 26 4 L 25 4 Z M 26 4 L 26 5 L 27 5 L 27 4 L 26 4 Z M 31 5 L 32 5 L 32 4 L 31 4 L 31 5 Z M 32 4 L 32 5 L 33 5 L 33 4 L 32 4 Z M 33 4 L 33 5 L 34 5 L 34 4 L 33 4 Z M 35 4 L 34 4 L 34 5 L 35 5 L 35 4 Z M 37 4 L 37 5 L 38 5 L 38 4 L 37 4 Z M 11 5 L 11 6 L 12 6 L 12 5 L 11 5 Z M 14 6 L 14 5 L 13 5 L 13 6 L 14 6 Z M 14 5 L 14 6 L 15 6 L 15 5 L 14 5 Z M 15 5 L 15 6 L 16 6 L 16 5 L 15 5 Z M 16 5 L 16 6 L 17 6 L 17 5 L 16 5 Z M 19 6 L 20 6 L 20 5 L 19 5 L 19 6 Z M 20 5 L 20 6 L 21 6 L 21 5 L 20 5 Z M 22 5 L 22 6 L 23 6 L 23 5 L 22 5 Z M 26 5 L 26 6 L 27 6 L 27 5 L 26 5 Z M 28 5 L 27 5 L 27 6 L 28 6 L 28 5 Z M 29 6 L 30 6 L 30 5 L 29 5 L 29 6 Z M 30 5 L 30 6 L 31 6 L 31 5 L 30 5 Z M 31 5 L 31 6 L 32 6 L 32 5 L 31 5 Z M 32 5 L 32 6 L 33 6 L 33 5 L 32 5 Z M 36 5 L 36 6 L 37 6 L 37 5 L 36 5 Z M 38 5 L 38 6 L 39 6 L 39 5 L 38 5 Z M 8 6 L 8 7 L 9 7 L 9 6 L 8 6 Z M 10 6 L 10 7 L 11 7 L 11 6 L 10 6 Z M 12 6 L 12 7 L 13 7 L 13 6 L 12 6 Z M 14 6 L 14 7 L 15 7 L 15 6 L 14 6 Z M 16 6 L 16 7 L 17 7 L 17 6 L 16 6 Z M 18 6 L 18 7 L 19 7 L 19 6 L 18 6 Z M 20 6 L 20 7 L 21 7 L 21 6 L 20 6 Z M 22 6 L 22 7 L 23 7 L 23 6 L 22 6 Z M 24 6 L 24 7 L 25 7 L 25 6 L 24 6 Z M 26 6 L 26 7 L 27 7 L 27 6 L 26 6 Z M 28 6 L 28 7 L 29 7 L 29 6 L 28 6 Z M 31 7 L 31 6 L 30 6 L 30 7 L 31 7 Z M 32 6 L 32 7 L 33 7 L 33 6 L 32 6 Z M 34 6 L 34 7 L 35 7 L 35 6 L 34 6 Z M 37 7 L 37 6 L 36 6 L 36 7 L 37 7 Z M 39 7 L 39 6 L 38 6 L 38 7 L 39 7 Z M 40 6 L 40 7 L 41 7 L 41 6 L 40 6 Z M 9 8 L 9 7 L 8 7 L 8 8 L 9 8 Z M 13 8 L 13 7 L 12 7 L 12 8 L 13 8 Z M 13 7 L 13 8 L 14 8 L 14 7 L 13 7 Z M 14 7 L 14 8 L 15 8 L 15 7 L 14 7 Z M 15 7 L 15 8 L 16 8 L 16 7 L 15 7 Z M 16 7 L 16 8 L 17 8 L 17 7 L 16 7 Z M 19 8 L 19 7 L 18 7 L 18 8 L 19 8 Z M 19 7 L 19 8 L 20 8 L 20 7 L 19 7 Z M 20 7 L 20 8 L 21 8 L 21 7 L 20 7 Z M 21 7 L 21 8 L 22 8 L 22 7 L 21 7 Z M 22 7 L 22 8 L 23 8 L 23 7 L 22 7 Z M 26 7 L 26 8 L 27 8 L 27 7 L 26 7 Z M 29 8 L 29 7 L 28 7 L 28 8 L 29 8 Z M 31 8 L 32 8 L 32 7 L 31 7 L 31 8 Z M 32 7 L 32 8 L 33 8 L 33 7 L 32 7 Z M 33 7 L 33 8 L 34 8 L 34 7 L 33 7 Z M 34 7 L 34 8 L 35 8 L 35 7 L 34 7 Z M 39 7 L 39 8 L 40 8 L 40 7 L 39 7 Z M 2 9 L 3 9 L 3 8 L 2 8 L 2 9 Z M 3 8 L 3 9 L 4 9 L 4 8 L 3 8 Z M 6 8 L 6 9 L 7 9 L 7 8 L 6 8 Z M 14 9 L 14 8 L 13 8 L 13 9 L 14 9 Z M 14 8 L 14 9 L 15 9 L 15 8 L 14 8 Z M 16 8 L 16 9 L 17 9 L 17 8 L 16 8 Z M 17 8 L 17 9 L 18 9 L 18 8 L 17 8 Z M 20 9 L 20 8 L 19 8 L 19 9 L 20 9 Z M 22 8 L 22 9 L 23 9 L 23 8 L 22 8 Z M 23 8 L 23 9 L 24 9 L 24 8 L 23 8 Z M 24 8 L 24 9 L 25 9 L 25 8 L 24 8 Z M 25 8 L 25 9 L 26 9 L 26 8 L 25 8 Z M 26 8 L 26 9 L 27 9 L 27 8 L 26 8 Z M 29 9 L 30 9 L 30 8 L 29 8 L 29 9 Z M 31 8 L 30 8 L 30 9 L 31 9 L 31 8 Z M 33 8 L 33 9 L 34 9 L 34 8 L 33 8 Z M 35 8 L 34 8 L 34 9 L 35 9 L 35 8 Z M 36 9 L 37 9 L 37 8 L 36 8 L 36 9 Z M 38 8 L 37 8 L 37 9 L 38 9 L 38 8 Z M 39 8 L 39 9 L 40 9 L 40 8 L 39 8 Z M 40 8 L 40 9 L 41 9 L 41 8 L 40 8 Z M 41 8 L 41 9 L 42 9 L 42 8 L 41 8 Z M 43 8 L 42 8 L 42 9 L 43 9 L 43 8 Z M 44 9 L 45 9 L 45 8 L 44 8 L 44 9 Z M 45 8 L 45 9 L 46 9 L 46 8 L 45 8 Z M 0 10 L 1 10 L 1 9 L 0 9 L 0 10 Z M 1 9 L 1 10 L 2 10 L 2 9 L 1 9 Z M 4 10 L 4 9 L 3 9 L 3 10 L 4 10 Z M 5 9 L 4 9 L 4 10 L 5 10 L 5 9 Z M 7 10 L 8 10 L 8 9 L 7 9 L 7 10 Z M 8 9 L 8 10 L 9 10 L 9 9 L 8 9 Z M 9 9 L 9 10 L 10 10 L 10 9 L 9 9 Z M 10 9 L 10 10 L 11 10 L 11 9 L 10 9 Z M 11 9 L 11 10 L 12 10 L 12 9 L 11 9 Z M 12 9 L 12 10 L 13 10 L 13 9 L 12 9 Z M 15 10 L 15 9 L 14 9 L 14 10 L 15 10 Z M 16 9 L 16 10 L 17 10 L 17 9 L 16 9 Z M 18 9 L 17 9 L 17 10 L 18 10 L 18 9 Z M 21 10 L 22 10 L 22 9 L 21 9 L 21 10 Z M 23 9 L 22 9 L 22 10 L 23 10 L 23 9 Z M 25 9 L 25 10 L 26 10 L 26 9 L 25 9 Z M 27 9 L 26 9 L 26 10 L 27 10 L 27 9 Z M 28 9 L 28 10 L 29 10 L 29 9 L 28 9 Z M 31 10 L 32 10 L 32 9 L 31 9 L 31 10 Z M 32 9 L 32 10 L 33 10 L 33 9 L 32 9 Z M 34 9 L 33 9 L 33 10 L 34 10 L 34 9 Z M 39 9 L 39 10 L 40 10 L 40 9 L 39 9 Z M 45 9 L 45 10 L 46 10 L 46 9 L 45 9 Z M 46 9 L 46 10 L 47 10 L 47 9 L 46 9 Z M 48 9 L 48 10 L 49 10 L 49 9 L 48 9 Z M 1 10 L 1 11 L 2 11 L 2 10 L 1 10 Z M 6 10 L 6 11 L 7 11 L 7 10 L 6 10 Z M 8 10 L 8 11 L 9 11 L 9 10 L 8 10 Z M 11 11 L 11 10 L 10 10 L 10 11 L 11 11 Z M 12 10 L 12 11 L 13 11 L 13 10 L 12 10 Z M 13 10 L 13 11 L 14 11 L 14 10 L 13 10 Z M 17 11 L 17 10 L 16 10 L 16 11 L 17 11 Z M 18 10 L 18 11 L 19 11 L 19 10 L 18 10 Z M 22 11 L 22 10 L 21 10 L 21 11 L 22 11 Z M 24 11 L 25 11 L 25 10 L 24 10 L 24 11 Z M 25 10 L 25 11 L 26 11 L 26 10 L 25 10 Z M 29 10 L 29 11 L 30 11 L 30 10 L 29 10 Z M 35 10 L 35 11 L 36 11 L 36 10 L 35 10 Z M 39 10 L 39 11 L 40 11 L 40 10 L 39 10 Z M 40 10 L 40 11 L 41 11 L 41 10 L 40 10 Z M 41 10 L 41 11 L 42 11 L 42 10 L 41 10 Z M 42 10 L 42 11 L 43 11 L 43 10 L 42 10 Z M 43 10 L 43 11 L 44 11 L 44 10 L 43 10 Z M 44 10 L 44 11 L 45 11 L 45 10 L 44 10 Z M 45 10 L 45 11 L 46 11 L 46 10 L 45 10 Z M 46 10 L 46 11 L 47 11 L 47 10 L 46 10 Z M 47 10 L 47 11 L 48 11 L 48 10 L 47 10 Z M 49 10 L 48 10 L 48 11 L 49 11 L 49 10 Z M 2 12 L 2 11 L 1 11 L 1 12 L 2 12 Z M 2 11 L 2 12 L 3 12 L 3 11 L 2 11 Z M 3 11 L 3 12 L 4 12 L 4 11 L 3 11 Z M 5 11 L 4 11 L 4 12 L 5 12 L 5 11 Z M 9 12 L 9 11 L 8 11 L 8 12 L 9 12 Z M 11 12 L 12 12 L 12 11 L 11 11 L 11 12 Z M 12 11 L 12 12 L 13 12 L 13 11 L 12 11 Z M 13 11 L 13 12 L 14 12 L 14 11 L 13 11 Z M 15 11 L 15 12 L 16 12 L 16 11 L 15 11 Z M 17 11 L 17 12 L 18 12 L 18 11 L 17 11 Z M 22 11 L 22 12 L 23 12 L 23 11 L 22 11 Z M 26 12 L 26 11 L 25 11 L 25 12 L 26 12 Z M 26 11 L 26 12 L 27 12 L 27 11 L 26 11 Z M 28 11 L 28 12 L 29 12 L 29 11 L 28 11 Z M 31 11 L 31 12 L 32 12 L 32 11 L 31 11 Z M 33 12 L 34 12 L 34 11 L 33 11 L 33 12 Z M 34 11 L 34 12 L 35 12 L 35 11 L 34 11 Z M 35 11 L 35 12 L 36 12 L 36 11 L 35 11 Z M 38 12 L 39 12 L 39 11 L 38 11 L 38 12 Z M 39 11 L 39 12 L 40 12 L 40 11 L 39 11 Z M 42 11 L 42 12 L 43 12 L 43 11 L 42 11 Z M 43 11 L 43 12 L 44 12 L 44 11 L 43 11 Z M 44 11 L 44 12 L 45 12 L 45 11 L 44 11 Z M 45 11 L 45 12 L 46 12 L 46 11 L 45 11 Z M 46 11 L 46 12 L 47 12 L 47 11 L 46 11 Z M 0 12 L 0 13 L 1 13 L 1 12 L 0 12 Z M 3 13 L 3 12 L 2 12 L 2 13 L 3 13 Z M 5 13 L 6 13 L 6 12 L 5 12 L 5 13 Z M 7 12 L 6 12 L 6 13 L 7 13 L 7 12 Z M 9 12 L 9 13 L 10 13 L 10 12 L 9 12 Z M 11 12 L 11 13 L 12 13 L 12 12 L 11 12 Z M 13 12 L 13 13 L 14 13 L 14 12 L 13 12 Z M 20 13 L 21 13 L 21 12 L 20 12 L 20 13 Z M 21 12 L 21 13 L 22 13 L 22 12 L 21 12 Z M 22 12 L 22 13 L 23 13 L 23 12 L 22 12 Z M 23 12 L 23 13 L 24 13 L 24 12 L 23 12 Z M 25 12 L 24 12 L 24 13 L 25 13 L 25 12 Z M 27 13 L 27 12 L 26 12 L 26 13 L 27 13 Z M 29 13 L 30 13 L 30 12 L 29 12 L 29 13 Z M 31 12 L 30 12 L 30 13 L 31 13 L 31 12 Z M 32 13 L 33 13 L 33 12 L 32 12 L 32 13 Z M 33 12 L 33 13 L 34 13 L 34 12 L 33 12 Z M 34 12 L 34 13 L 35 13 L 35 12 L 34 12 Z M 35 12 L 35 13 L 36 13 L 36 12 L 35 12 Z M 38 12 L 38 13 L 39 13 L 39 12 L 38 12 Z M 40 12 L 39 12 L 39 13 L 40 13 L 40 12 Z M 42 12 L 42 13 L 43 13 L 43 12 L 42 12 Z M 44 12 L 43 12 L 43 13 L 44 13 L 44 12 Z M 46 13 L 46 12 L 45 12 L 45 13 L 46 13 Z M 46 12 L 46 13 L 47 13 L 47 12 L 46 12 Z M 1 13 L 1 14 L 2 14 L 2 13 L 1 13 Z M 4 13 L 4 14 L 5 14 L 5 13 L 4 13 Z M 10 14 L 11 14 L 11 13 L 10 13 L 10 14 Z M 12 13 L 11 13 L 11 14 L 12 14 L 12 13 Z M 13 13 L 13 14 L 14 14 L 14 13 L 13 13 Z M 16 13 L 16 14 L 17 14 L 17 13 L 16 13 Z M 18 13 L 18 14 L 19 14 L 19 13 L 18 13 Z M 22 14 L 22 13 L 21 13 L 21 14 L 22 14 Z M 23 13 L 22 13 L 22 14 L 23 14 L 23 13 Z M 27 13 L 27 14 L 28 14 L 28 13 L 27 13 Z M 35 13 L 35 14 L 36 14 L 36 13 L 35 13 Z M 36 13 L 36 14 L 37 14 L 37 13 L 36 13 Z M 37 13 L 37 14 L 38 14 L 38 13 L 37 13 Z M 39 13 L 38 13 L 38 14 L 39 14 L 39 13 Z M 42 13 L 42 14 L 43 14 L 43 13 L 42 13 Z M 47 14 L 47 13 L 46 13 L 46 14 L 47 14 Z M 48 13 L 48 14 L 49 14 L 49 13 L 48 13 Z M 3 15 L 4 15 L 4 14 L 3 14 L 3 15 Z M 4 14 L 4 15 L 5 15 L 5 14 L 4 14 Z M 5 14 L 5 15 L 6 15 L 6 14 L 5 14 Z M 7 14 L 6 14 L 6 15 L 7 15 L 7 14 Z M 8 14 L 8 15 L 9 15 L 9 14 L 8 14 Z M 10 14 L 10 15 L 11 15 L 11 14 L 10 14 Z M 14 15 L 14 14 L 13 14 L 13 15 L 14 15 Z M 14 14 L 14 15 L 15 15 L 15 14 L 14 14 Z M 16 14 L 15 14 L 15 15 L 16 15 L 16 14 Z M 19 14 L 19 15 L 20 15 L 20 14 L 19 14 Z M 24 15 L 25 15 L 25 14 L 24 14 L 24 15 Z M 25 14 L 25 15 L 26 15 L 26 14 L 25 14 Z M 28 15 L 28 14 L 27 14 L 27 15 L 28 15 Z M 32 15 L 33 15 L 33 14 L 32 14 L 32 15 Z M 33 14 L 33 15 L 34 15 L 34 14 L 33 14 Z M 35 14 L 35 15 L 36 15 L 36 14 L 35 14 Z M 40 15 L 41 15 L 41 14 L 40 14 L 40 15 Z M 41 14 L 41 15 L 42 15 L 42 14 L 41 14 Z M 42 14 L 42 15 L 43 15 L 43 14 L 42 14 Z M 43 14 L 43 15 L 44 15 L 44 14 L 43 14 Z M 44 14 L 44 15 L 45 15 L 45 14 L 44 14 Z M 46 14 L 45 14 L 45 15 L 46 15 L 46 14 Z M 48 14 L 48 15 L 49 15 L 49 14 L 48 14 Z M 0 16 L 1 16 L 1 15 L 0 15 L 0 16 Z M 2 15 L 1 15 L 1 16 L 2 16 L 2 15 Z M 4 16 L 4 15 L 3 15 L 3 16 L 4 16 Z M 4 15 L 4 16 L 5 16 L 5 15 L 4 15 Z M 6 15 L 5 15 L 5 16 L 6 16 L 6 15 Z M 7 16 L 8 16 L 8 15 L 7 15 L 7 16 Z M 8 15 L 8 16 L 9 16 L 9 15 L 8 15 Z M 10 15 L 10 16 L 11 16 L 11 15 L 10 15 Z M 11 15 L 11 16 L 12 16 L 12 15 L 11 15 Z M 14 15 L 14 16 L 15 16 L 15 15 L 14 15 Z M 16 16 L 17 16 L 17 15 L 16 15 L 16 16 Z M 18 15 L 17 15 L 17 16 L 18 16 L 18 15 Z M 20 16 L 21 16 L 21 15 L 20 15 L 20 16 Z M 21 15 L 21 16 L 22 16 L 22 15 L 21 15 Z M 22 15 L 22 16 L 23 16 L 23 15 L 22 15 Z M 23 15 L 23 16 L 24 16 L 24 15 L 23 15 Z M 24 15 L 24 16 L 25 16 L 25 15 L 24 15 Z M 26 15 L 25 15 L 25 16 L 26 16 L 26 15 Z M 29 15 L 29 16 L 30 16 L 30 15 L 29 15 Z M 31 16 L 32 16 L 32 15 L 31 15 L 31 16 Z M 32 15 L 32 16 L 33 16 L 33 15 L 32 15 Z M 34 15 L 33 15 L 33 16 L 34 16 L 34 15 Z M 36 16 L 36 15 L 35 15 L 35 16 L 36 16 Z M 38 15 L 38 16 L 39 16 L 39 15 L 38 15 Z M 41 15 L 41 16 L 42 16 L 42 15 L 41 15 Z M 42 15 L 42 16 L 43 16 L 43 15 L 42 15 Z M 43 15 L 43 16 L 44 16 L 44 15 L 43 15 Z M 46 16 L 47 16 L 47 15 L 46 15 L 46 16 Z M 47 15 L 47 16 L 48 16 L 48 15 L 47 15 Z M 49 15 L 48 15 L 48 16 L 49 16 L 49 15 Z M 6 17 L 7 17 L 7 16 L 6 16 L 6 17 Z M 7 16 L 7 17 L 8 17 L 8 16 L 7 16 Z M 8 16 L 8 17 L 9 17 L 9 16 L 8 16 Z M 9 16 L 9 17 L 10 17 L 10 16 L 9 16 Z M 10 16 L 10 17 L 11 17 L 11 16 L 10 16 Z M 12 16 L 11 16 L 11 17 L 12 17 L 12 16 Z M 13 17 L 14 17 L 14 16 L 13 16 L 13 17 Z M 15 16 L 14 16 L 14 17 L 15 17 L 15 16 Z M 20 16 L 20 17 L 21 17 L 21 16 L 20 16 Z M 21 16 L 21 17 L 22 17 L 22 16 L 21 16 Z M 23 16 L 22 16 L 22 17 L 23 17 L 23 16 Z M 27 17 L 28 17 L 28 16 L 27 16 L 27 17 Z M 28 16 L 28 17 L 29 17 L 29 16 L 28 16 Z M 29 16 L 29 17 L 30 17 L 30 16 L 29 16 Z M 30 16 L 30 17 L 31 17 L 31 16 L 30 16 Z M 32 16 L 31 16 L 31 17 L 32 17 L 32 16 Z M 36 17 L 37 17 L 37 16 L 36 16 L 36 17 Z M 37 16 L 37 17 L 38 17 L 38 16 L 37 16 Z M 40 17 L 41 17 L 41 16 L 40 16 L 40 17 Z M 41 16 L 41 17 L 42 17 L 42 16 L 41 16 Z M 42 16 L 42 17 L 43 17 L 43 16 L 42 16 Z M 43 16 L 43 17 L 44 17 L 44 16 L 43 16 Z M 45 16 L 44 16 L 44 17 L 45 17 L 45 16 Z M 47 16 L 47 17 L 48 17 L 48 16 L 47 16 Z M 2 18 L 3 18 L 3 17 L 2 17 L 2 18 Z M 4 17 L 3 17 L 3 18 L 4 18 L 4 17 Z M 10 18 L 10 17 L 9 17 L 9 18 L 10 18 Z M 12 18 L 13 18 L 13 17 L 12 17 L 12 18 Z M 14 17 L 13 17 L 13 18 L 14 18 L 14 17 Z M 16 18 L 17 18 L 17 17 L 16 17 L 16 18 Z M 17 17 L 17 18 L 18 18 L 18 17 L 17 17 Z M 18 17 L 18 18 L 19 18 L 19 17 L 18 17 Z M 20 17 L 20 18 L 21 18 L 21 17 L 20 17 Z M 23 18 L 24 18 L 24 17 L 23 17 L 23 18 Z M 24 17 L 24 18 L 25 18 L 25 17 L 24 17 Z M 26 17 L 26 18 L 27 18 L 27 17 L 26 17 Z M 28 17 L 28 18 L 29 18 L 29 17 L 28 17 Z M 29 17 L 29 18 L 30 18 L 30 17 L 29 17 Z M 37 17 L 37 18 L 38 18 L 38 17 L 37 17 Z M 38 17 L 38 18 L 39 18 L 39 17 L 38 17 Z M 39 17 L 39 18 L 40 18 L 40 17 L 39 17 Z M 42 18 L 42 17 L 41 17 L 41 18 L 42 18 Z M 42 17 L 42 18 L 43 18 L 43 17 L 42 17 Z M 45 17 L 45 18 L 46 18 L 46 17 L 45 17 Z M 48 18 L 48 17 L 47 17 L 47 18 L 48 18 Z M 0 19 L 1 19 L 1 18 L 0 18 L 0 19 Z M 1 18 L 1 19 L 2 19 L 2 18 L 1 18 Z M 4 18 L 4 19 L 5 19 L 5 18 L 4 18 Z M 6 18 L 6 19 L 7 19 L 7 18 L 6 18 Z M 8 18 L 8 19 L 9 19 L 9 18 L 8 18 Z M 11 19 L 12 19 L 12 18 L 11 18 L 11 19 Z M 12 18 L 12 19 L 13 19 L 13 18 L 12 18 Z M 14 18 L 14 19 L 15 19 L 15 18 L 14 18 Z M 18 18 L 18 19 L 19 19 L 19 18 L 18 18 Z M 19 18 L 19 19 L 20 19 L 20 18 L 19 18 Z M 20 18 L 20 19 L 21 19 L 21 18 L 20 18 Z M 21 18 L 21 19 L 22 19 L 22 18 L 21 18 Z M 22 18 L 22 19 L 23 19 L 23 18 L 22 18 Z M 23 18 L 23 19 L 24 19 L 24 18 L 23 18 Z M 24 18 L 24 19 L 25 19 L 25 18 L 24 18 Z M 26 18 L 25 18 L 25 19 L 26 19 L 26 18 Z M 27 19 L 28 19 L 28 18 L 27 18 L 27 19 Z M 28 18 L 28 19 L 29 19 L 29 18 L 28 18 Z M 29 18 L 29 19 L 30 19 L 30 18 L 29 18 Z M 33 18 L 33 19 L 34 19 L 34 18 L 33 18 Z M 35 19 L 36 19 L 36 18 L 35 18 L 35 19 Z M 36 18 L 36 19 L 37 19 L 37 18 L 36 18 Z M 37 18 L 37 19 L 38 19 L 38 18 L 37 18 Z M 39 18 L 39 19 L 40 19 L 40 18 L 39 18 Z M 42 18 L 42 19 L 43 19 L 43 18 L 42 18 Z M 46 19 L 46 18 L 45 18 L 45 19 L 46 19 Z M 47 18 L 46 18 L 46 19 L 47 19 L 47 18 Z M 1 19 L 1 20 L 2 20 L 2 19 L 1 19 Z M 3 20 L 4 20 L 4 19 L 3 19 L 3 20 Z M 4 19 L 4 20 L 5 20 L 5 19 L 4 19 Z M 5 19 L 5 20 L 6 20 L 6 19 L 5 19 Z M 8 19 L 8 20 L 9 20 L 9 19 L 8 19 Z M 11 19 L 11 20 L 12 20 L 12 19 L 11 19 Z M 13 19 L 12 19 L 12 20 L 13 20 L 13 19 Z M 15 19 L 15 20 L 16 20 L 16 19 L 15 19 Z M 19 20 L 19 19 L 18 19 L 18 20 L 19 20 Z M 21 20 L 21 19 L 20 19 L 20 20 L 21 20 Z M 21 19 L 21 20 L 22 20 L 22 19 L 21 19 Z M 23 19 L 22 19 L 22 20 L 23 20 L 23 19 Z M 25 20 L 25 19 L 24 19 L 24 20 L 25 20 Z M 28 20 L 28 19 L 27 19 L 27 20 L 28 20 Z M 28 19 L 28 20 L 29 20 L 29 19 L 28 19 Z M 29 19 L 29 20 L 30 20 L 30 19 L 29 19 Z M 31 19 L 30 19 L 30 20 L 31 20 L 31 19 Z M 33 19 L 33 20 L 34 20 L 34 19 L 33 19 Z M 36 20 L 36 19 L 35 19 L 35 20 L 36 20 Z M 36 19 L 36 20 L 37 20 L 37 19 L 36 19 Z M 37 19 L 37 20 L 38 20 L 38 19 L 37 19 Z M 38 19 L 38 20 L 39 20 L 39 19 L 38 19 Z M 39 19 L 39 20 L 40 20 L 40 19 L 39 19 Z M 41 19 L 40 19 L 40 20 L 41 20 L 41 19 Z M 43 20 L 43 19 L 42 19 L 42 20 L 43 20 Z M 44 19 L 44 20 L 45 20 L 45 19 L 44 19 Z M 47 19 L 47 20 L 48 20 L 48 19 L 47 19 Z M 0 21 L 1 21 L 1 20 L 0 20 L 0 21 Z M 1 20 L 1 21 L 2 21 L 2 20 L 1 20 Z M 3 20 L 2 20 L 2 21 L 3 21 L 3 20 Z M 5 21 L 5 20 L 4 20 L 4 21 L 5 21 Z M 5 20 L 5 21 L 6 21 L 6 20 L 5 20 Z M 7 20 L 6 20 L 6 21 L 7 21 L 7 20 Z M 8 20 L 8 21 L 9 21 L 9 20 L 8 20 Z M 11 20 L 11 21 L 12 21 L 12 20 L 11 20 Z M 14 20 L 14 21 L 15 21 L 15 20 L 14 20 Z M 16 21 L 17 21 L 17 20 L 16 20 L 16 21 Z M 18 20 L 17 20 L 17 21 L 18 21 L 18 20 Z M 25 21 L 26 21 L 26 20 L 25 20 L 25 21 Z M 27 20 L 26 20 L 26 21 L 27 21 L 27 20 Z M 29 21 L 29 20 L 28 20 L 28 21 L 29 21 Z M 29 20 L 29 21 L 30 21 L 30 20 L 29 20 Z M 34 21 L 34 20 L 33 20 L 33 21 L 34 21 Z M 35 20 L 34 20 L 34 21 L 35 21 L 35 20 Z M 36 20 L 36 21 L 37 21 L 37 20 L 36 20 Z M 37 20 L 37 21 L 38 21 L 38 20 L 37 20 Z M 39 20 L 38 20 L 38 21 L 39 21 L 39 20 Z M 43 20 L 43 21 L 44 21 L 44 20 L 43 20 Z M 46 21 L 47 21 L 47 20 L 46 20 L 46 21 Z M 48 20 L 47 20 L 47 21 L 48 21 L 48 20 Z M 3 21 L 3 22 L 4 22 L 4 21 L 3 21 Z M 5 21 L 5 22 L 6 22 L 6 21 L 5 21 Z M 8 21 L 8 22 L 9 22 L 9 21 L 8 21 Z M 9 21 L 9 22 L 10 22 L 10 21 L 9 21 Z M 11 21 L 11 22 L 12 22 L 12 21 L 11 21 Z M 13 21 L 12 21 L 12 22 L 13 22 L 13 21 Z M 15 22 L 16 22 L 16 21 L 15 21 L 15 22 Z M 16 21 L 16 22 L 17 22 L 17 21 L 16 21 Z M 18 21 L 18 22 L 19 22 L 19 21 L 18 21 Z M 24 22 L 25 22 L 25 21 L 24 21 L 24 22 Z M 25 21 L 25 22 L 26 22 L 26 21 L 25 21 Z M 30 22 L 30 21 L 29 21 L 29 22 L 30 22 Z M 30 21 L 30 22 L 31 22 L 31 21 L 30 21 Z M 32 21 L 32 22 L 33 22 L 33 21 L 32 21 Z M 35 22 L 36 22 L 36 21 L 35 21 L 35 22 Z M 36 21 L 36 22 L 37 22 L 37 21 L 36 21 Z M 38 21 L 37 21 L 37 22 L 38 22 L 38 21 Z M 39 21 L 39 22 L 40 22 L 40 21 L 39 21 Z M 42 21 L 42 22 L 43 22 L 43 21 L 42 21 Z M 46 21 L 46 22 L 47 22 L 47 21 L 46 21 Z M 48 21 L 48 22 L 49 22 L 49 21 L 48 21 Z M 0 22 L 0 23 L 1 23 L 1 22 L 0 22 Z M 4 23 L 5 23 L 5 22 L 4 22 L 4 23 Z M 5 22 L 5 23 L 6 23 L 6 22 L 5 22 Z M 6 22 L 6 23 L 7 23 L 7 22 L 6 22 Z M 7 22 L 7 23 L 8 23 L 8 22 L 7 22 Z M 8 22 L 8 23 L 9 23 L 9 22 L 8 22 Z M 9 22 L 9 23 L 10 23 L 10 22 L 9 22 Z M 12 23 L 12 22 L 11 22 L 11 23 L 12 23 Z M 13 22 L 13 23 L 14 23 L 14 22 L 13 22 Z M 15 22 L 15 23 L 16 23 L 16 22 L 15 22 Z M 16 22 L 16 23 L 17 23 L 17 22 L 16 22 Z M 22 23 L 23 23 L 23 22 L 22 22 L 22 23 Z M 23 22 L 23 23 L 24 23 L 24 22 L 23 22 Z M 24 22 L 24 23 L 25 23 L 25 22 L 24 22 Z M 25 22 L 25 23 L 26 23 L 26 22 L 25 22 Z M 26 22 L 26 23 L 27 23 L 27 22 L 26 22 Z M 31 23 L 31 22 L 30 22 L 30 23 L 31 23 Z M 31 22 L 31 23 L 32 23 L 32 22 L 31 22 Z M 33 22 L 33 23 L 34 23 L 34 22 L 33 22 Z M 35 22 L 35 23 L 36 23 L 36 22 L 35 22 Z M 40 23 L 41 23 L 41 22 L 40 22 L 40 23 Z M 41 22 L 41 23 L 42 23 L 42 22 L 41 22 Z M 42 22 L 42 23 L 43 23 L 43 22 L 42 22 Z M 43 22 L 43 23 L 44 23 L 44 22 L 43 22 Z M 44 22 L 44 23 L 45 23 L 45 22 L 44 22 Z M 45 22 L 45 23 L 46 23 L 46 22 L 45 22 Z M 47 22 L 46 22 L 46 23 L 47 23 L 47 22 Z M 48 22 L 48 23 L 49 23 L 49 22 L 48 22 Z M 1 24 L 1 23 L 0 23 L 0 24 L 1 24 Z M 1 23 L 1 24 L 2 24 L 2 23 L 1 23 Z M 3 24 L 4 24 L 4 23 L 3 23 L 3 24 Z M 4 23 L 4 24 L 5 24 L 5 23 L 4 23 Z M 8 23 L 8 24 L 9 24 L 9 23 L 8 23 Z M 9 23 L 9 24 L 10 24 L 10 23 L 9 23 Z M 12 24 L 13 24 L 13 23 L 12 23 L 12 24 Z M 13 23 L 13 24 L 14 24 L 14 23 L 13 23 Z M 15 23 L 15 24 L 16 24 L 16 23 L 15 23 Z M 17 23 L 16 23 L 16 24 L 17 24 L 17 23 Z M 20 23 L 20 24 L 21 24 L 21 23 L 20 23 Z M 22 23 L 22 24 L 23 24 L 23 23 L 22 23 Z M 26 23 L 26 24 L 27 24 L 27 23 L 26 23 Z M 32 24 L 32 23 L 31 23 L 31 24 L 32 24 Z M 32 23 L 32 24 L 33 24 L 33 23 L 32 23 Z M 34 24 L 35 24 L 35 23 L 34 23 L 34 24 Z M 35 23 L 35 24 L 36 24 L 36 23 L 35 23 Z M 37 23 L 36 23 L 36 24 L 37 24 L 37 23 Z M 38 24 L 39 24 L 39 23 L 38 23 L 38 24 Z M 39 23 L 39 24 L 40 24 L 40 23 L 39 23 Z M 40 23 L 40 24 L 41 24 L 41 23 L 40 23 Z M 44 23 L 44 24 L 45 24 L 45 23 L 44 23 Z M 47 24 L 48 24 L 48 23 L 47 23 L 47 24 Z M 49 23 L 48 23 L 48 24 L 49 24 L 49 23 Z M 2 25 L 2 24 L 1 24 L 1 25 L 2 25 Z M 3 24 L 3 25 L 4 25 L 4 24 L 3 24 Z M 4 24 L 4 25 L 5 25 L 5 24 L 4 24 Z M 6 24 L 6 25 L 7 25 L 7 24 L 6 24 Z M 8 24 L 8 25 L 9 25 L 9 24 L 8 24 Z M 9 24 L 9 25 L 10 25 L 10 24 L 9 24 Z M 11 24 L 10 24 L 10 25 L 11 25 L 11 24 Z M 12 24 L 12 25 L 13 25 L 13 24 L 12 24 Z M 13 24 L 13 25 L 14 25 L 14 24 L 13 24 Z M 14 24 L 14 25 L 15 25 L 15 24 L 14 24 Z M 16 24 L 15 24 L 15 25 L 16 25 L 16 24 Z M 17 25 L 18 25 L 18 24 L 17 24 L 17 25 Z M 18 24 L 18 25 L 19 25 L 19 24 L 18 24 Z M 21 25 L 21 24 L 20 24 L 20 25 L 21 25 Z M 21 24 L 21 25 L 22 25 L 22 24 L 21 24 Z M 22 24 L 22 25 L 23 25 L 23 24 L 22 24 Z M 24 24 L 24 25 L 25 25 L 25 24 L 24 24 Z M 26 24 L 26 25 L 27 25 L 27 24 L 26 24 Z M 28 24 L 27 24 L 27 25 L 28 25 L 28 24 Z M 29 24 L 29 25 L 30 25 L 30 24 L 29 24 Z M 32 24 L 32 25 L 33 25 L 33 24 L 32 24 Z M 35 25 L 35 24 L 34 24 L 34 25 L 35 25 Z M 35 24 L 35 25 L 36 25 L 36 24 L 35 24 Z M 37 25 L 38 25 L 38 24 L 37 24 L 37 25 Z M 38 24 L 38 25 L 39 25 L 39 24 L 38 24 Z M 40 24 L 40 25 L 41 25 L 41 24 L 40 24 Z M 42 24 L 42 25 L 43 25 L 43 24 L 42 24 Z M 44 24 L 44 25 L 45 25 L 45 24 L 44 24 Z M 0 25 L 0 26 L 1 26 L 1 25 L 0 25 Z M 2 26 L 3 26 L 3 25 L 2 25 L 2 26 Z M 3 25 L 3 26 L 4 26 L 4 25 L 3 25 Z M 4 25 L 4 26 L 5 26 L 5 25 L 4 25 Z M 8 25 L 8 26 L 9 26 L 9 25 L 8 25 Z M 9 25 L 9 26 L 10 26 L 10 25 L 9 25 Z M 11 26 L 12 26 L 12 25 L 11 25 L 11 26 Z M 12 25 L 12 26 L 13 26 L 13 25 L 12 25 Z M 13 25 L 13 26 L 14 26 L 14 25 L 13 25 Z M 14 25 L 14 26 L 15 26 L 15 25 L 14 25 Z M 16 25 L 16 26 L 17 26 L 17 25 L 16 25 Z M 18 25 L 18 26 L 19 26 L 19 25 L 18 25 Z M 19 25 L 19 26 L 20 26 L 20 25 L 19 25 Z M 22 26 L 22 25 L 21 25 L 21 26 L 22 26 Z M 22 25 L 22 26 L 23 26 L 23 25 L 22 25 Z M 26 25 L 26 26 L 27 26 L 27 25 L 26 25 Z M 31 26 L 32 26 L 32 25 L 31 25 L 31 26 Z M 33 25 L 32 25 L 32 26 L 33 26 L 33 25 Z M 36 26 L 36 25 L 35 25 L 35 26 L 36 26 Z M 37 25 L 37 26 L 38 26 L 38 25 L 37 25 Z M 39 25 L 38 25 L 38 26 L 39 26 L 39 25 Z M 40 25 L 40 26 L 41 26 L 41 25 L 40 25 Z M 44 25 L 44 26 L 45 26 L 45 25 L 44 25 Z M 47 26 L 48 26 L 48 25 L 47 25 L 47 26 Z M 49 25 L 48 25 L 48 26 L 49 26 L 49 25 Z M 1 26 L 1 27 L 2 27 L 2 26 L 1 26 Z M 5 27 L 5 26 L 4 26 L 4 27 L 5 27 Z M 5 26 L 5 27 L 6 27 L 6 26 L 5 26 Z M 6 26 L 6 27 L 7 27 L 7 26 L 6 26 Z M 7 26 L 7 27 L 8 27 L 8 26 L 7 26 Z M 8 26 L 8 27 L 9 27 L 9 26 L 8 26 Z M 9 26 L 9 27 L 10 27 L 10 26 L 9 26 Z M 10 26 L 10 27 L 11 27 L 11 26 L 10 26 Z M 11 26 L 11 27 L 12 27 L 12 26 L 11 26 Z M 12 26 L 12 27 L 13 27 L 13 26 L 12 26 Z M 13 26 L 13 27 L 14 27 L 14 26 L 13 26 Z M 15 26 L 14 26 L 14 27 L 15 27 L 15 26 Z M 17 27 L 17 26 L 16 26 L 16 27 L 17 27 Z M 18 26 L 18 27 L 19 27 L 19 26 L 18 26 Z M 19 26 L 19 27 L 20 27 L 20 26 L 19 26 Z M 20 26 L 20 27 L 21 27 L 21 26 L 20 26 Z M 23 27 L 23 26 L 22 26 L 22 27 L 23 27 Z M 23 26 L 23 27 L 24 27 L 24 26 L 23 26 Z M 24 26 L 24 27 L 25 27 L 25 26 L 24 26 Z M 25 26 L 25 27 L 26 27 L 26 26 L 25 26 Z M 27 26 L 26 26 L 26 27 L 27 27 L 27 26 Z M 28 26 L 28 27 L 29 27 L 29 26 L 28 26 Z M 36 27 L 37 27 L 37 26 L 36 26 L 36 27 Z M 37 26 L 37 27 L 38 27 L 38 26 L 37 26 Z M 40 26 L 40 27 L 41 27 L 41 26 L 40 26 Z M 41 26 L 41 27 L 42 27 L 42 26 L 41 26 Z M 42 26 L 42 27 L 43 27 L 43 26 L 42 26 Z M 43 26 L 43 27 L 44 27 L 44 26 L 43 26 Z M 44 26 L 44 27 L 45 27 L 45 26 L 44 26 Z M 45 26 L 45 27 L 46 27 L 46 26 L 45 26 Z M 46 26 L 46 27 L 47 27 L 47 26 L 46 26 Z M 5 27 L 5 28 L 6 28 L 6 27 L 5 27 Z M 8 27 L 8 28 L 9 28 L 9 27 L 8 27 Z M 9 27 L 9 28 L 10 28 L 10 27 L 9 27 Z M 14 28 L 14 27 L 13 27 L 13 28 L 14 28 Z M 15 27 L 15 28 L 16 28 L 16 27 L 15 27 Z M 17 28 L 18 28 L 18 27 L 17 27 L 17 28 Z M 18 27 L 18 28 L 19 28 L 19 27 L 18 27 Z M 21 28 L 21 27 L 20 27 L 20 28 L 21 28 Z M 23 27 L 23 28 L 24 28 L 24 27 L 23 27 Z M 26 28 L 26 27 L 25 27 L 25 28 L 26 28 Z M 30 28 L 31 28 L 31 27 L 30 27 L 30 28 Z M 31 27 L 31 28 L 32 28 L 32 27 L 31 27 Z M 32 27 L 32 28 L 33 28 L 33 27 L 32 27 Z M 34 28 L 35 28 L 35 27 L 34 27 L 34 28 Z M 36 27 L 35 27 L 35 28 L 36 28 L 36 27 Z M 38 28 L 38 27 L 37 27 L 37 28 L 38 28 Z M 41 28 L 41 27 L 40 27 L 40 28 L 41 28 Z M 43 28 L 43 27 L 42 27 L 42 28 L 43 28 Z M 43 27 L 43 28 L 44 28 L 44 27 L 43 27 Z M 44 27 L 44 28 L 45 28 L 45 27 L 44 27 Z M 47 28 L 47 27 L 46 27 L 46 28 L 47 28 Z M 1 29 L 2 29 L 2 28 L 1 28 L 1 29 Z M 3 28 L 2 28 L 2 29 L 3 29 L 3 28 Z M 4 29 L 5 29 L 5 28 L 4 28 L 4 29 Z M 5 28 L 5 29 L 6 29 L 6 28 L 5 28 Z M 6 28 L 6 29 L 7 29 L 7 28 L 6 28 Z M 7 28 L 7 29 L 8 29 L 8 28 L 7 28 Z M 8 28 L 8 29 L 9 29 L 9 28 L 8 28 Z M 9 28 L 9 29 L 10 29 L 10 28 L 9 28 Z M 10 28 L 10 29 L 11 29 L 11 28 L 10 28 Z M 12 28 L 12 29 L 13 29 L 13 28 L 12 28 Z M 14 28 L 14 29 L 15 29 L 15 28 L 14 28 Z M 19 29 L 19 28 L 18 28 L 18 29 L 19 29 Z M 21 29 L 22 29 L 22 28 L 21 28 L 21 29 Z M 22 28 L 22 29 L 23 29 L 23 28 L 22 28 Z M 23 28 L 23 29 L 24 29 L 24 28 L 23 28 Z M 25 28 L 24 28 L 24 29 L 25 29 L 25 28 Z M 27 28 L 27 29 L 28 29 L 28 28 L 27 28 Z M 32 28 L 32 29 L 33 29 L 33 28 L 32 28 Z M 34 28 L 34 29 L 35 29 L 35 28 L 34 28 Z M 36 28 L 36 29 L 37 29 L 37 28 L 36 28 Z M 39 28 L 39 29 L 40 29 L 40 28 L 39 28 Z M 41 28 L 41 29 L 42 29 L 42 28 L 41 28 Z M 44 28 L 44 29 L 45 29 L 45 28 L 44 28 Z M 0 30 L 1 30 L 1 29 L 0 29 L 0 30 Z M 1 29 L 1 30 L 2 30 L 2 29 L 1 29 Z M 3 30 L 4 30 L 4 29 L 3 29 L 3 30 Z M 5 29 L 4 29 L 4 30 L 5 30 L 5 29 Z M 9 30 L 9 29 L 8 29 L 8 30 L 9 30 Z M 9 29 L 9 30 L 10 30 L 10 29 L 9 29 Z M 10 29 L 10 30 L 11 30 L 11 29 L 10 29 Z M 11 29 L 11 30 L 12 30 L 12 29 L 11 29 Z M 15 30 L 16 30 L 16 29 L 15 29 L 15 30 Z M 16 29 L 16 30 L 17 30 L 17 29 L 16 29 Z M 17 29 L 17 30 L 18 30 L 18 29 L 17 29 Z M 19 30 L 20 30 L 20 29 L 19 29 L 19 30 Z M 20 29 L 20 30 L 21 30 L 21 29 L 20 29 Z M 21 29 L 21 30 L 22 30 L 22 29 L 21 29 Z M 22 29 L 22 30 L 23 30 L 23 29 L 22 29 Z M 24 29 L 23 29 L 23 30 L 24 30 L 24 29 Z M 28 30 L 29 30 L 29 29 L 28 29 L 28 30 Z M 29 29 L 29 30 L 30 30 L 30 29 L 29 29 Z M 32 29 L 32 30 L 33 30 L 33 29 L 32 29 Z M 33 29 L 33 30 L 34 30 L 34 29 L 33 29 Z M 34 29 L 34 30 L 35 30 L 35 29 L 34 29 Z M 37 30 L 37 29 L 36 29 L 36 30 L 37 30 Z M 37 29 L 37 30 L 38 30 L 38 29 L 37 29 Z M 39 29 L 38 29 L 38 30 L 39 30 L 39 29 Z M 40 30 L 41 30 L 41 29 L 40 29 L 40 30 Z M 41 29 L 41 30 L 42 30 L 42 29 L 41 29 Z M 42 29 L 42 30 L 43 30 L 43 29 L 42 29 Z M 43 29 L 43 30 L 44 30 L 44 29 L 43 29 Z M 44 29 L 44 30 L 45 30 L 45 29 L 44 29 Z M 45 29 L 45 30 L 46 30 L 46 29 L 45 29 Z M 47 29 L 46 29 L 46 30 L 47 30 L 47 29 Z M 2 31 L 2 30 L 1 30 L 1 31 L 2 31 Z M 4 31 L 4 30 L 3 30 L 3 31 L 4 31 Z M 5 31 L 6 31 L 6 30 L 5 30 L 5 31 Z M 7 30 L 6 30 L 6 31 L 7 31 L 7 30 Z M 10 30 L 10 31 L 11 31 L 11 30 L 10 30 Z M 11 30 L 11 31 L 12 31 L 12 30 L 11 30 Z M 13 30 L 12 30 L 12 31 L 13 31 L 13 30 Z M 14 31 L 15 31 L 15 30 L 14 30 L 14 31 Z M 15 30 L 15 31 L 16 31 L 16 30 L 15 30 Z M 16 30 L 16 31 L 17 31 L 17 30 L 16 30 Z M 18 30 L 17 30 L 17 31 L 18 31 L 18 30 Z M 19 30 L 19 31 L 20 31 L 20 30 L 19 30 Z M 23 31 L 23 30 L 22 30 L 22 31 L 23 31 Z M 25 31 L 26 31 L 26 30 L 25 30 L 25 31 Z M 26 30 L 26 31 L 27 31 L 27 30 L 26 30 Z M 30 31 L 30 30 L 29 30 L 29 31 L 30 31 Z M 31 30 L 30 30 L 30 31 L 31 31 L 31 30 Z M 33 31 L 33 30 L 32 30 L 32 31 L 33 31 Z M 33 30 L 33 31 L 34 31 L 34 30 L 33 30 Z M 34 30 L 34 31 L 35 31 L 35 30 L 34 30 Z M 42 31 L 42 30 L 41 30 L 41 31 L 42 31 Z M 43 30 L 43 31 L 44 31 L 44 30 L 43 30 Z M 47 31 L 48 31 L 48 30 L 47 30 L 47 31 Z M 49 30 L 48 30 L 48 31 L 49 31 L 49 30 Z M 2 31 L 2 32 L 3 32 L 3 31 L 2 31 Z M 4 31 L 4 32 L 5 32 L 5 31 L 4 31 Z M 11 32 L 11 31 L 10 31 L 10 32 L 11 32 Z M 12 31 L 11 31 L 11 32 L 12 32 L 12 31 Z M 15 31 L 15 32 L 16 32 L 16 31 L 15 31 Z M 16 31 L 16 32 L 17 32 L 17 31 L 16 31 Z M 18 32 L 19 32 L 19 31 L 18 31 L 18 32 Z M 19 31 L 19 32 L 20 32 L 20 31 L 19 31 Z M 21 31 L 21 32 L 22 32 L 22 31 L 21 31 Z M 23 32 L 24 32 L 24 31 L 23 31 L 23 32 Z M 24 31 L 24 32 L 25 32 L 25 31 L 24 31 Z M 27 32 L 27 31 L 26 31 L 26 32 L 27 32 Z M 28 31 L 28 32 L 29 32 L 29 31 L 28 31 Z M 31 31 L 31 32 L 32 32 L 32 31 L 31 31 Z M 35 32 L 35 31 L 34 31 L 34 32 L 35 32 Z M 35 31 L 35 32 L 36 32 L 36 31 L 35 31 Z M 36 31 L 36 32 L 37 32 L 37 31 L 36 31 Z M 38 32 L 39 32 L 39 31 L 38 31 L 38 32 Z M 39 31 L 39 32 L 40 32 L 40 31 L 39 31 Z M 40 31 L 40 32 L 41 32 L 41 31 L 40 31 Z M 42 32 L 43 32 L 43 31 L 42 31 L 42 32 Z M 44 31 L 43 31 L 43 32 L 44 32 L 44 31 Z M 45 32 L 46 32 L 46 31 L 45 31 L 45 32 Z M 47 31 L 46 31 L 46 32 L 47 32 L 47 31 Z M 1 32 L 1 33 L 2 33 L 2 32 L 1 32 Z M 6 32 L 6 33 L 7 33 L 7 32 L 6 32 Z M 12 32 L 12 33 L 13 33 L 13 32 L 12 32 Z M 15 32 L 15 33 L 16 33 L 16 32 L 15 32 Z M 16 32 L 16 33 L 17 33 L 17 32 L 16 32 Z M 17 32 L 17 33 L 18 33 L 18 32 L 17 32 Z M 18 32 L 18 33 L 19 33 L 19 32 L 18 32 Z M 19 32 L 19 33 L 20 33 L 20 32 L 19 32 Z M 21 32 L 20 32 L 20 33 L 21 33 L 21 32 Z M 22 32 L 22 33 L 23 33 L 23 32 L 22 32 Z M 25 33 L 25 32 L 24 32 L 24 33 L 25 33 Z M 25 32 L 25 33 L 26 33 L 26 32 L 25 32 Z M 27 32 L 27 33 L 28 33 L 28 32 L 27 32 Z M 29 32 L 29 33 L 30 33 L 30 32 L 29 32 Z M 31 32 L 31 33 L 32 33 L 32 32 L 31 32 Z M 33 32 L 32 32 L 32 33 L 33 33 L 33 32 Z M 36 32 L 36 33 L 37 33 L 37 32 L 36 32 Z M 37 32 L 37 33 L 38 33 L 38 32 L 37 32 Z M 41 33 L 41 32 L 40 32 L 40 33 L 41 33 Z M 41 32 L 41 33 L 42 33 L 42 32 L 41 32 Z M 43 32 L 42 32 L 42 33 L 43 33 L 43 32 Z M 45 32 L 45 33 L 46 33 L 46 32 L 45 32 Z M 47 33 L 48 33 L 48 32 L 47 32 L 47 33 Z M 49 32 L 48 32 L 48 33 L 49 33 L 49 32 Z M 0 33 L 0 34 L 1 34 L 1 33 L 0 33 Z M 2 34 L 3 34 L 3 33 L 2 33 L 2 34 Z M 3 33 L 3 34 L 4 34 L 4 33 L 3 33 Z M 5 33 L 5 34 L 6 34 L 6 33 L 5 33 Z M 7 33 L 7 34 L 8 34 L 8 33 L 7 33 Z M 9 34 L 10 34 L 10 33 L 9 33 L 9 34 Z M 10 33 L 10 34 L 11 34 L 11 33 L 10 33 Z M 12 33 L 12 34 L 13 34 L 13 33 L 12 33 Z M 14 34 L 15 34 L 15 33 L 14 33 L 14 34 Z M 15 33 L 15 34 L 16 34 L 16 33 L 15 33 Z M 16 33 L 16 34 L 17 34 L 17 33 L 16 33 Z M 17 33 L 17 34 L 18 34 L 18 33 L 17 33 Z M 18 33 L 18 34 L 19 34 L 19 33 L 18 33 Z M 21 34 L 22 34 L 22 33 L 21 33 L 21 34 Z M 22 33 L 22 34 L 23 34 L 23 33 L 22 33 Z M 24 33 L 23 33 L 23 34 L 24 34 L 24 33 Z M 26 34 L 26 33 L 25 33 L 25 34 L 26 34 Z M 27 33 L 26 33 L 26 34 L 27 34 L 27 33 Z M 28 33 L 28 34 L 29 34 L 29 33 L 28 33 Z M 30 34 L 31 34 L 31 33 L 30 33 L 30 34 Z M 32 33 L 31 33 L 31 34 L 32 34 L 32 33 Z M 33 34 L 34 34 L 34 33 L 33 33 L 33 34 Z M 34 33 L 34 34 L 35 34 L 35 33 L 34 33 Z M 35 33 L 35 34 L 36 34 L 36 33 L 35 33 Z M 36 33 L 36 34 L 37 34 L 37 33 L 36 33 Z M 37 33 L 37 34 L 38 34 L 38 33 L 37 33 Z M 38 33 L 38 34 L 39 34 L 39 33 L 38 33 Z M 43 34 L 44 34 L 44 33 L 43 33 L 43 34 Z M 44 33 L 44 34 L 45 34 L 45 33 L 44 33 Z M 45 33 L 45 34 L 46 34 L 46 33 L 45 33 Z M 46 33 L 46 34 L 47 34 L 47 33 L 46 33 Z M 47 33 L 47 34 L 48 34 L 48 33 L 47 33 Z M 1 35 L 1 34 L 0 34 L 0 35 L 1 35 Z M 1 34 L 1 35 L 2 35 L 2 34 L 1 34 Z M 2 34 L 2 35 L 3 35 L 3 34 L 2 34 Z M 3 34 L 3 35 L 4 35 L 4 34 L 3 34 Z M 6 34 L 6 35 L 7 35 L 7 34 L 6 34 Z M 9 34 L 9 35 L 10 35 L 10 34 L 9 34 Z M 10 34 L 10 35 L 11 35 L 11 34 L 10 34 Z M 11 34 L 11 35 L 12 35 L 12 34 L 11 34 Z M 12 34 L 12 35 L 13 35 L 13 34 L 12 34 Z M 14 34 L 14 35 L 15 35 L 15 34 L 14 34 Z M 17 35 L 17 34 L 16 34 L 16 35 L 17 35 Z M 19 35 L 19 34 L 18 34 L 18 35 L 19 35 Z M 20 35 L 21 35 L 21 34 L 20 34 L 20 35 Z M 21 34 L 21 35 L 22 35 L 22 34 L 21 34 Z M 23 34 L 22 34 L 22 35 L 23 35 L 23 34 Z M 27 35 L 28 35 L 28 34 L 27 34 L 27 35 Z M 28 34 L 28 35 L 29 35 L 29 34 L 28 34 Z M 30 34 L 29 34 L 29 35 L 30 35 L 30 34 Z M 32 35 L 33 35 L 33 34 L 32 34 L 32 35 Z M 33 34 L 33 35 L 34 35 L 34 34 L 33 34 Z M 35 34 L 34 34 L 34 35 L 35 35 L 35 34 Z M 38 35 L 38 34 L 37 34 L 37 35 L 38 35 Z M 38 34 L 38 35 L 39 35 L 39 34 L 38 34 Z M 40 34 L 39 34 L 39 35 L 40 35 L 40 34 Z M 41 35 L 42 35 L 42 34 L 41 34 L 41 35 Z M 42 34 L 42 35 L 43 35 L 43 34 L 42 34 Z M 44 34 L 43 34 L 43 35 L 44 35 L 44 34 Z M 45 34 L 45 35 L 46 35 L 46 34 L 45 34 Z M 46 34 L 46 35 L 47 35 L 47 34 L 46 34 Z M 47 34 L 47 35 L 48 35 L 48 34 L 47 34 Z M 49 34 L 48 34 L 48 35 L 49 35 L 49 34 Z M 2 36 L 2 35 L 1 35 L 1 36 L 2 36 Z M 3 35 L 3 36 L 4 36 L 4 35 L 3 35 Z M 5 35 L 5 36 L 6 36 L 6 35 L 5 35 Z M 7 35 L 7 36 L 8 36 L 8 35 L 7 35 Z M 9 35 L 9 36 L 10 36 L 10 35 L 9 35 Z M 10 35 L 10 36 L 11 36 L 11 35 L 10 35 Z M 11 35 L 11 36 L 12 36 L 12 35 L 11 35 Z M 12 35 L 12 36 L 13 36 L 13 35 L 12 35 Z M 15 36 L 15 35 L 14 35 L 14 36 L 15 36 Z M 16 35 L 15 35 L 15 36 L 16 36 L 16 35 Z M 19 36 L 20 36 L 20 35 L 19 35 L 19 36 Z M 20 35 L 20 36 L 21 36 L 21 35 L 20 35 Z M 21 35 L 21 36 L 22 36 L 22 35 L 21 35 Z M 23 35 L 23 36 L 24 36 L 24 35 L 23 35 Z M 25 36 L 26 36 L 26 35 L 25 35 L 25 36 Z M 27 35 L 26 35 L 26 36 L 27 36 L 27 35 Z M 30 35 L 30 36 L 31 36 L 31 35 L 30 35 Z M 33 36 L 33 35 L 32 35 L 32 36 L 33 36 Z M 35 35 L 35 36 L 36 36 L 36 35 L 35 35 Z M 40 35 L 40 36 L 41 36 L 41 35 L 40 35 Z M 42 35 L 42 36 L 43 36 L 43 35 L 42 35 Z M 45 35 L 45 36 L 46 36 L 46 35 L 45 35 Z M 46 35 L 46 36 L 47 36 L 47 35 L 46 35 Z M 48 35 L 47 35 L 47 36 L 48 36 L 48 35 Z M 0 36 L 0 37 L 1 37 L 1 36 L 0 36 Z M 4 37 L 4 36 L 3 36 L 3 37 L 4 37 Z M 6 37 L 6 36 L 5 36 L 5 37 L 6 37 Z M 6 36 L 6 37 L 7 37 L 7 36 L 6 36 Z M 7 36 L 7 37 L 8 37 L 8 36 L 7 36 Z M 8 36 L 8 37 L 9 37 L 9 36 L 8 36 Z M 9 36 L 9 37 L 10 37 L 10 36 L 9 36 Z M 10 36 L 10 37 L 11 37 L 11 36 L 10 36 Z M 11 36 L 11 37 L 12 37 L 12 36 L 11 36 Z M 12 36 L 12 37 L 13 37 L 13 36 L 12 36 Z M 14 36 L 13 36 L 13 37 L 14 37 L 14 36 Z M 16 37 L 17 37 L 17 36 L 16 36 L 16 37 Z M 17 36 L 17 37 L 18 37 L 18 36 L 17 36 Z M 21 37 L 21 36 L 20 36 L 20 37 L 21 37 Z M 22 36 L 21 36 L 21 37 L 22 37 L 22 36 Z M 24 36 L 24 37 L 25 37 L 25 36 L 24 36 Z M 28 36 L 28 37 L 29 37 L 29 36 L 28 36 Z M 30 36 L 30 37 L 31 37 L 31 36 L 30 36 Z M 32 36 L 31 36 L 31 37 L 32 37 L 32 36 Z M 36 36 L 36 37 L 37 37 L 37 36 L 36 36 Z M 38 36 L 38 37 L 39 37 L 39 36 L 38 36 Z M 40 36 L 40 37 L 41 37 L 41 36 L 40 36 Z M 41 36 L 41 37 L 42 37 L 42 36 L 41 36 Z M 43 36 L 42 36 L 42 37 L 43 37 L 43 36 Z M 44 37 L 45 37 L 45 36 L 44 36 L 44 37 Z M 45 36 L 45 37 L 46 37 L 46 36 L 45 36 Z M 46 36 L 46 37 L 47 37 L 47 36 L 46 36 Z M 48 36 L 48 37 L 49 37 L 49 36 L 48 36 Z M 1 38 L 1 37 L 0 37 L 0 38 L 1 38 Z M 2 37 L 2 38 L 3 38 L 3 37 L 2 37 Z M 4 37 L 4 38 L 5 38 L 5 37 L 4 37 Z M 7 37 L 7 38 L 8 38 L 8 37 L 7 37 Z M 8 37 L 8 38 L 9 38 L 9 37 L 8 37 Z M 11 37 L 11 38 L 12 38 L 12 37 L 11 37 Z M 15 37 L 15 38 L 16 38 L 16 37 L 15 37 Z M 17 37 L 17 38 L 18 38 L 18 37 L 17 37 Z M 18 37 L 18 38 L 19 38 L 19 37 L 18 37 Z M 23 38 L 24 38 L 24 37 L 23 37 L 23 38 Z M 25 37 L 24 37 L 24 38 L 25 38 L 25 37 Z M 26 38 L 27 38 L 27 37 L 26 37 L 26 38 Z M 27 37 L 27 38 L 28 38 L 28 37 L 27 37 Z M 28 37 L 28 38 L 29 38 L 29 37 L 28 37 Z M 29 37 L 29 38 L 30 38 L 30 37 L 29 37 Z M 31 37 L 30 37 L 30 38 L 31 38 L 31 37 Z M 33 37 L 33 38 L 34 38 L 34 37 L 33 37 Z M 35 37 L 35 38 L 36 38 L 36 37 L 35 37 Z M 40 37 L 40 38 L 41 38 L 41 37 L 40 37 Z M 45 37 L 45 38 L 46 38 L 46 37 L 45 37 Z M 47 37 L 46 37 L 46 38 L 47 38 L 47 37 Z M 1 38 L 1 39 L 2 39 L 2 38 L 1 38 Z M 5 39 L 6 39 L 6 38 L 5 38 L 5 39 Z M 6 38 L 6 39 L 7 39 L 7 38 L 6 38 Z M 7 38 L 7 39 L 8 39 L 8 38 L 7 38 Z M 8 38 L 8 39 L 9 39 L 9 38 L 8 38 Z M 10 38 L 9 38 L 9 39 L 10 39 L 10 38 Z M 11 38 L 11 39 L 12 39 L 12 38 L 11 38 Z M 12 38 L 12 39 L 13 39 L 13 38 L 12 38 Z M 13 38 L 13 39 L 14 39 L 14 38 L 13 38 Z M 14 38 L 14 39 L 15 39 L 15 38 L 14 38 Z M 18 39 L 18 38 L 17 38 L 17 39 L 18 39 Z M 19 38 L 18 38 L 18 39 L 19 39 L 19 38 Z M 20 39 L 21 39 L 21 38 L 20 38 L 20 39 Z M 22 38 L 21 38 L 21 39 L 22 39 L 22 38 Z M 23 38 L 23 39 L 24 39 L 24 38 L 23 38 Z M 25 39 L 26 39 L 26 38 L 25 38 L 25 39 Z M 27 38 L 26 38 L 26 39 L 27 39 L 27 38 Z M 28 38 L 28 39 L 29 39 L 29 38 L 28 38 Z M 34 39 L 34 38 L 33 38 L 33 39 L 34 39 Z M 36 39 L 37 39 L 37 38 L 36 38 L 36 39 Z M 37 38 L 37 39 L 38 39 L 38 38 L 37 38 Z M 38 38 L 38 39 L 39 39 L 39 38 L 38 38 Z M 39 38 L 39 39 L 40 39 L 40 38 L 39 38 Z M 40 38 L 40 39 L 41 39 L 41 38 L 40 38 Z M 42 38 L 42 39 L 43 39 L 43 38 L 42 38 Z M 44 39 L 45 39 L 45 38 L 44 38 L 44 39 Z M 46 38 L 45 38 L 45 39 L 46 39 L 46 38 Z M 1 39 L 1 40 L 2 40 L 2 39 L 1 39 Z M 2 39 L 2 40 L 3 40 L 3 39 L 2 39 Z M 4 39 L 3 39 L 3 40 L 4 40 L 4 39 Z M 8 40 L 8 39 L 7 39 L 7 40 L 8 40 Z M 9 39 L 8 39 L 8 40 L 9 40 L 9 39 Z M 11 39 L 11 40 L 12 40 L 12 39 L 11 39 Z M 13 39 L 12 39 L 12 40 L 13 40 L 13 39 Z M 15 40 L 15 39 L 14 39 L 14 40 L 15 40 Z M 21 40 L 21 39 L 20 39 L 20 40 L 21 40 Z M 22 40 L 23 40 L 23 39 L 22 39 L 22 40 Z M 23 39 L 23 40 L 24 40 L 24 39 L 23 39 Z M 24 39 L 24 40 L 25 40 L 25 39 L 24 39 Z M 27 40 L 28 40 L 28 39 L 27 39 L 27 40 Z M 28 39 L 28 40 L 29 40 L 29 39 L 28 39 Z M 30 39 L 29 39 L 29 40 L 30 40 L 30 39 Z M 31 40 L 32 40 L 32 39 L 31 39 L 31 40 Z M 32 39 L 32 40 L 33 40 L 33 39 L 32 39 Z M 34 40 L 35 40 L 35 39 L 34 39 L 34 40 Z M 35 39 L 35 40 L 36 40 L 36 39 L 35 39 Z M 37 39 L 36 39 L 36 40 L 37 40 L 37 39 Z M 39 39 L 39 40 L 40 40 L 40 39 L 39 39 Z M 40 39 L 40 40 L 41 40 L 41 39 L 40 39 Z M 41 39 L 41 40 L 42 40 L 42 39 L 41 39 Z M 44 39 L 44 40 L 45 40 L 45 39 L 44 39 Z M 0 41 L 1 41 L 1 40 L 0 40 L 0 41 Z M 1 40 L 1 41 L 2 41 L 2 40 L 1 40 Z M 3 40 L 2 40 L 2 41 L 3 41 L 3 40 Z M 6 40 L 6 41 L 7 41 L 7 40 L 6 40 Z M 9 40 L 9 41 L 10 41 L 10 40 L 9 40 Z M 12 41 L 12 40 L 11 40 L 11 41 L 12 41 Z M 17 41 L 18 41 L 18 40 L 17 40 L 17 41 Z M 19 40 L 18 40 L 18 41 L 19 41 L 19 40 Z M 21 41 L 22 41 L 22 40 L 21 40 L 21 41 Z M 22 40 L 22 41 L 23 41 L 23 40 L 22 40 Z M 23 40 L 23 41 L 24 41 L 24 40 L 23 40 Z M 24 40 L 24 41 L 25 41 L 25 40 L 24 40 Z M 25 40 L 25 41 L 26 41 L 26 40 L 25 40 Z M 26 40 L 26 41 L 27 41 L 27 40 L 26 40 Z M 29 41 L 29 40 L 28 40 L 28 41 L 29 41 Z M 30 41 L 31 41 L 31 40 L 30 40 L 30 41 Z M 31 40 L 31 41 L 32 41 L 32 40 L 31 40 Z M 33 40 L 32 40 L 32 41 L 33 41 L 33 40 Z M 37 40 L 37 41 L 38 41 L 38 40 L 37 40 Z M 40 41 L 40 40 L 39 40 L 39 41 L 40 41 Z M 40 40 L 40 41 L 41 41 L 41 40 L 40 40 Z M 41 40 L 41 41 L 42 41 L 42 40 L 41 40 Z M 42 40 L 42 41 L 43 41 L 43 40 L 42 40 Z M 43 40 L 43 41 L 44 41 L 44 40 L 43 40 Z M 44 40 L 44 41 L 45 41 L 45 40 L 44 40 Z M 45 40 L 45 41 L 46 41 L 46 40 L 45 40 Z M 47 40 L 46 40 L 46 41 L 47 41 L 47 40 Z M 9 41 L 9 42 L 10 42 L 10 41 L 9 41 Z M 11 41 L 10 41 L 10 42 L 11 42 L 11 41 Z M 13 41 L 13 42 L 14 42 L 14 41 L 13 41 Z M 17 41 L 17 42 L 18 42 L 18 41 L 17 41 Z M 21 41 L 21 42 L 22 42 L 22 41 L 21 41 Z M 22 41 L 22 42 L 23 42 L 23 41 L 22 41 Z M 26 41 L 26 42 L 27 42 L 27 41 L 26 41 Z M 28 41 L 27 41 L 27 42 L 28 42 L 28 41 Z M 29 41 L 29 42 L 30 42 L 30 41 L 29 41 Z M 33 41 L 33 42 L 34 42 L 34 41 L 33 41 Z M 38 41 L 38 42 L 39 42 L 39 41 L 38 41 Z M 40 41 L 40 42 L 41 42 L 41 41 L 40 41 Z M 44 41 L 44 42 L 45 42 L 45 41 L 44 41 Z M 46 41 L 45 41 L 45 42 L 46 42 L 46 41 Z M 9 42 L 9 43 L 10 43 L 10 42 L 9 42 Z M 12 43 L 13 43 L 13 42 L 12 42 L 12 43 Z M 14 42 L 13 42 L 13 43 L 14 43 L 14 42 Z M 15 43 L 16 43 L 16 42 L 15 42 L 15 43 Z M 16 42 L 16 43 L 17 43 L 17 42 L 16 42 Z M 17 42 L 17 43 L 18 43 L 18 42 L 17 42 Z M 18 42 L 18 43 L 19 43 L 19 42 L 18 42 Z M 19 42 L 19 43 L 20 43 L 20 42 L 19 42 Z M 20 42 L 20 43 L 21 43 L 21 42 L 20 42 Z M 21 42 L 21 43 L 22 43 L 22 42 L 21 42 Z M 22 42 L 22 43 L 23 43 L 23 42 L 22 42 Z M 24 42 L 24 43 L 25 43 L 25 42 L 24 42 Z M 26 42 L 26 43 L 27 43 L 27 42 L 26 42 Z M 28 43 L 29 43 L 29 42 L 28 42 L 28 43 Z M 29 42 L 29 43 L 30 43 L 30 42 L 29 42 Z M 30 42 L 30 43 L 31 43 L 31 42 L 30 42 Z M 32 43 L 33 43 L 33 42 L 32 42 L 32 43 Z M 33 42 L 33 43 L 34 43 L 34 42 L 33 42 Z M 34 42 L 34 43 L 35 43 L 35 42 L 34 42 Z M 36 42 L 36 43 L 37 43 L 37 42 L 36 42 Z M 39 43 L 39 42 L 38 42 L 38 43 L 39 43 Z M 40 42 L 40 43 L 41 43 L 41 42 L 40 42 Z M 42 42 L 42 43 L 43 43 L 43 42 L 42 42 Z M 44 42 L 44 43 L 45 43 L 45 42 L 44 42 Z M 47 42 L 47 43 L 48 43 L 48 42 L 47 42 Z M 9 43 L 9 44 L 10 44 L 10 43 L 9 43 Z M 11 43 L 10 43 L 10 44 L 11 44 L 11 43 Z M 16 43 L 16 44 L 17 44 L 17 43 L 16 43 Z M 22 43 L 22 44 L 23 44 L 23 43 L 22 43 Z M 26 43 L 26 44 L 27 44 L 27 43 L 26 43 Z M 27 43 L 27 44 L 28 44 L 28 43 L 27 43 Z M 29 43 L 29 44 L 30 44 L 30 43 L 29 43 Z M 31 43 L 30 43 L 30 44 L 31 44 L 31 43 Z M 32 43 L 32 44 L 33 44 L 33 43 L 32 43 Z M 34 43 L 34 44 L 35 44 L 35 43 L 34 43 Z M 35 43 L 35 44 L 36 44 L 36 43 L 35 43 Z M 36 43 L 36 44 L 37 44 L 37 43 L 36 43 Z M 37 43 L 37 44 L 38 44 L 38 43 L 37 43 Z M 39 44 L 40 44 L 40 43 L 39 43 L 39 44 Z M 40 43 L 40 44 L 41 44 L 41 43 L 40 43 Z M 44 43 L 44 44 L 45 44 L 45 43 L 44 43 Z M 46 43 L 46 44 L 47 44 L 47 43 L 46 43 Z M 48 43 L 48 44 L 49 44 L 49 43 L 48 43 Z M 10 45 L 10 44 L 9 44 L 9 45 L 10 45 Z M 11 45 L 12 45 L 12 44 L 11 44 L 11 45 Z M 12 44 L 12 45 L 13 45 L 13 44 L 12 44 Z M 13 44 L 13 45 L 14 45 L 14 44 L 13 44 Z M 16 44 L 16 45 L 17 45 L 17 44 L 16 44 Z M 18 44 L 17 44 L 17 45 L 18 45 L 18 44 Z M 21 45 L 22 45 L 22 44 L 21 44 L 21 45 Z M 22 44 L 22 45 L 23 45 L 23 44 L 22 44 Z M 23 44 L 23 45 L 24 45 L 24 44 L 23 44 Z M 24 44 L 24 45 L 25 45 L 25 44 L 24 44 Z M 25 44 L 25 45 L 26 45 L 26 44 L 25 44 Z M 26 44 L 26 45 L 27 45 L 27 44 L 26 44 Z M 27 44 L 27 45 L 28 45 L 28 44 L 27 44 Z M 28 44 L 28 45 L 29 45 L 29 44 L 28 44 Z M 29 44 L 29 45 L 30 45 L 30 44 L 29 44 Z M 32 44 L 32 45 L 33 45 L 33 44 L 32 44 Z M 33 44 L 33 45 L 34 45 L 34 44 L 33 44 Z M 34 44 L 34 45 L 35 45 L 35 44 L 34 44 Z M 38 45 L 38 44 L 37 44 L 37 45 L 38 45 Z M 40 45 L 40 44 L 39 44 L 39 45 L 40 45 Z M 40 44 L 40 45 L 41 45 L 41 44 L 40 44 Z M 41 44 L 41 45 L 42 45 L 42 44 L 41 44 Z M 42 44 L 42 45 L 43 45 L 43 44 L 42 44 Z M 43 44 L 43 45 L 44 45 L 44 44 L 43 44 Z M 45 44 L 44 44 L 44 45 L 45 45 L 45 44 Z M 47 45 L 47 44 L 46 44 L 46 45 L 47 45 Z M 47 44 L 47 45 L 48 45 L 48 44 L 47 44 Z M 48 44 L 48 45 L 49 45 L 49 44 L 48 44 Z M 8 45 L 8 46 L 9 46 L 9 45 L 8 45 Z M 11 45 L 11 46 L 12 46 L 12 45 L 11 45 Z M 13 45 L 13 46 L 14 46 L 14 45 L 13 45 Z M 14 45 L 14 46 L 15 46 L 15 45 L 14 45 Z M 15 45 L 15 46 L 16 46 L 16 45 L 15 45 Z M 17 45 L 16 45 L 16 46 L 17 46 L 17 45 Z M 18 46 L 19 46 L 19 45 L 18 45 L 18 46 Z M 20 45 L 19 45 L 19 46 L 20 46 L 20 45 Z M 21 45 L 21 46 L 22 46 L 22 45 L 21 45 Z M 22 45 L 22 46 L 23 46 L 23 45 L 22 45 Z M 23 45 L 23 46 L 24 46 L 24 45 L 23 45 Z M 25 45 L 24 45 L 24 46 L 25 46 L 25 45 Z M 27 45 L 27 46 L 28 46 L 28 45 L 27 45 Z M 29 45 L 29 46 L 30 46 L 30 45 L 29 45 Z M 30 45 L 30 46 L 31 46 L 31 45 L 30 45 Z M 31 45 L 31 46 L 32 46 L 32 45 L 31 45 Z M 32 45 L 32 46 L 33 46 L 33 45 L 32 45 Z M 33 45 L 33 46 L 34 46 L 34 45 L 33 45 Z M 34 45 L 34 46 L 35 46 L 35 45 L 34 45 Z M 35 45 L 35 46 L 36 46 L 36 45 L 35 45 Z M 37 45 L 36 45 L 36 46 L 37 46 L 37 45 Z M 41 45 L 41 46 L 42 46 L 42 45 L 41 45 Z M 42 45 L 42 46 L 43 46 L 43 45 L 42 45 Z M 44 45 L 43 45 L 43 46 L 44 46 L 44 45 Z M 47 45 L 47 46 L 48 46 L 48 45 L 47 45 Z M 49 45 L 48 45 L 48 46 L 49 46 L 49 45 Z M 9 47 L 9 46 L 8 46 L 8 47 L 9 47 Z M 12 47 L 12 46 L 11 46 L 11 47 L 12 47 Z M 14 47 L 14 46 L 13 46 L 13 47 L 14 47 Z M 19 47 L 19 46 L 18 46 L 18 47 L 19 47 Z M 22 47 L 22 46 L 21 46 L 21 47 L 22 47 Z M 22 46 L 22 47 L 23 47 L 23 46 L 22 46 Z M 24 46 L 23 46 L 23 47 L 24 47 L 24 46 Z M 27 46 L 27 47 L 28 47 L 28 46 L 27 46 Z M 28 46 L 28 47 L 29 47 L 29 46 L 28 46 Z M 29 46 L 29 47 L 30 47 L 30 46 L 29 46 Z M 31 46 L 30 46 L 30 47 L 31 47 L 31 46 Z M 34 47 L 34 46 L 33 46 L 33 47 L 34 47 Z M 36 47 L 36 46 L 35 46 L 35 47 L 36 47 Z M 38 47 L 39 47 L 39 46 L 38 46 L 38 47 Z M 40 46 L 39 46 L 39 47 L 40 47 L 40 46 Z M 41 46 L 41 47 L 42 47 L 42 46 L 41 46 Z M 43 46 L 42 46 L 42 47 L 43 47 L 43 46 Z M 47 46 L 47 47 L 48 47 L 48 46 L 47 46 Z M 14 48 L 15 48 L 15 47 L 14 47 L 14 48 Z M 16 47 L 15 47 L 15 48 L 16 48 L 16 47 Z M 17 47 L 17 48 L 18 48 L 18 47 L 17 47 Z M 19 48 L 20 48 L 20 47 L 19 47 L 19 48 Z M 20 47 L 20 48 L 21 48 L 21 47 L 20 47 Z M 24 48 L 25 48 L 25 47 L 24 47 L 24 48 Z M 25 47 L 25 48 L 26 48 L 26 47 L 25 47 Z M 27 47 L 27 48 L 28 48 L 28 47 L 27 47 Z M 28 47 L 28 48 L 29 48 L 29 47 L 28 47 Z M 30 47 L 29 47 L 29 48 L 30 48 L 30 47 Z M 31 47 L 31 48 L 32 48 L 32 47 L 31 47 Z M 36 47 L 36 48 L 37 48 L 37 47 L 36 47 Z M 42 48 L 42 47 L 41 47 L 41 48 L 42 48 Z M 43 48 L 44 48 L 44 47 L 43 47 L 43 48 Z M 45 47 L 44 47 L 44 48 L 45 48 L 45 47 Z M 47 47 L 47 48 L 48 48 L 48 47 L 47 47 Z M 10 48 L 10 49 L 11 49 L 11 48 L 10 48 Z M 15 49 L 15 48 L 14 48 L 14 49 L 15 49 Z M 18 49 L 19 49 L 19 48 L 18 48 L 18 49 Z M 19 48 L 19 49 L 20 49 L 20 48 L 19 48 Z M 21 48 L 20 48 L 20 49 L 21 49 L 21 48 Z M 22 49 L 23 49 L 23 48 L 22 48 L 22 49 Z M 23 48 L 23 49 L 24 49 L 24 48 L 23 48 Z M 24 48 L 24 49 L 25 49 L 25 48 L 24 48 Z M 25 48 L 25 49 L 26 49 L 26 48 L 25 48 Z M 26 48 L 26 49 L 27 49 L 27 48 L 26 48 Z M 27 48 L 27 49 L 28 49 L 28 48 L 27 48 Z M 29 48 L 28 48 L 28 49 L 29 49 L 29 48 Z M 30 48 L 30 49 L 31 49 L 31 48 L 30 48 Z M 32 48 L 32 49 L 33 49 L 33 48 L 32 48 Z M 34 48 L 34 49 L 35 49 L 35 48 L 34 48 Z M 37 49 L 37 48 L 36 48 L 36 49 L 37 49 Z M 38 48 L 38 49 L 39 49 L 39 48 L 38 48 Z M 42 49 L 43 49 L 43 48 L 42 48 L 42 49 Z M 44 48 L 43 48 L 43 49 L 44 49 L 44 48 Z M 45 49 L 46 49 L 46 48 L 45 48 L 45 49 Z M 46 48 L 46 49 L 47 49 L 47 48 L 46 48 Z M 47 48 L 47 49 L 48 49 L 48 48 L 47 48 Z M 49 48 L 48 48 L 48 49 L 49 49 L 49 48 Z" /><path id="qroutline_eyetopleft_2878" d="M 0 1 L 1 1 L 1 0 L 0 0 L 0 1 Z M 1 0 L 1 1 L 2 1 L 2 0 L 1 0 Z M 2 0 L 2 1 L 3 1 L 3 0 L 2 0 Z M 3 0 L 3 1 L 4 1 L 4 0 L 3 0 Z M 4 0 L 4 1 L 5 1 L 5 0 L 4 0 Z M 5 0 L 5 1 L 6 1 L 6 0 L 5 0 Z M 6 0 L 6 1 L 7 1 L 7 0 L 6 0 Z M 0 1 L 0 2 L 1 2 L 1 1 L 0 1 Z M 6 1 L 6 2 L 7 2 L 7 1 L 6 1 Z M 0 2 L 0 3 L 1 3 L 1 2 L 0 2 Z M 6 2 L 6 3 L 7 3 L 7 2 L 6 2 Z M 0 3 L 0 4 L 1 4 L 1 3 L 0 3 Z M 6 3 L 6 4 L 7 4 L 7 3 L 6 3 Z M 0 4 L 0 5 L 1 5 L 1 4 L 0 4 Z M 6 4 L 6 5 L 7 5 L 7 4 L 6 4 Z M 0 5 L 0 6 L 1 6 L 1 5 L 0 5 Z M 6 5 L 6 6 L 7 6 L 7 5 L 6 5 Z M 1 7 L 1 6 L 0 6 L 0 7 L 1 7 Z M 1 6 L 1 7 L 2 7 L 2 6 L 1 6 Z M 2 6 L 2 7 L 3 7 L 3 6 L 2 6 Z M 3 6 L 3 7 L 4 7 L 4 6 L 3 6 Z M 4 6 L 4 7 L 5 7 L 5 6 L 4 6 Z M 5 6 L 5 7 L 6 7 L 6 6 L 5 6 Z M 7 6 L 6 6 L 6 7 L 7 7 L 7 6 Z" /><path id="qroutline_eyebottomleft_2769" d="M 0 43 L 1 43 L 1 42 L 0 42 L 0 43 Z M 1 42 L 1 43 L 2 43 L 2 42 L 1 42 Z M 2 42 L 2 43 L 3 43 L 3 42 L 2 42 Z M 3 42 L 3 43 L 4 43 L 4 42 L 3 42 Z M 4 42 L 4 43 L 5 43 L 5 42 L 4 42 Z M 5 42 L 5 43 L 6 43 L 6 42 L 5 42 Z M 6 42 L 6 43 L 7 43 L 7 42 L 6 42 Z M 0 43 L 0 44 L 1 44 L 1 43 L 0 43 Z M 6 43 L 6 44 L 7 44 L 7 43 L 6 43 Z M 0 44 L 0 45 L 1 45 L 1 44 L 0 44 Z M 6 44 L 6 45 L 7 45 L 7 44 L 6 44 Z M 0 45 L 0 46 L 1 46 L 1 45 L 0 45 Z M 6 45 L 6 46 L 7 46 L 7 45 L 6 45 Z M 0 46 L 0 47 L 1 47 L 1 46 L 0 46 Z M 6 46 L 6 47 L 7 47 L 7 46 L 6 46 Z M 0 47 L 0 48 L 1 48 L 1 47 L 0 47 Z M 6 47 L 6 48 L 7 48 L 7 47 L 6 47 Z M 1 49 L 1 48 L 0 48 L 0 49 L 1 49 Z M 1 48 L 1 49 L 2 49 L 2 48 L 1 48 Z M 2 48 L 2 49 L 3 49 L 3 48 L 2 48 Z M 3 48 L 3 49 L 4 49 L 4 48 L 3 48 Z M 4 48 L 4 49 L 5 49 L 5 48 L 4 48 Z M 5 48 L 5 49 L 6 49 L 6 48 L 5 48 Z M 7 48 L 6 48 L 6 49 L 7 49 L 7 48 Z" /><path id="qroutline_eyetopright_7586" d="M 42 1 L 43 1 L 43 0 L 42 0 L 42 1 Z M 43 0 L 43 1 L 44 1 L 44 0 L 43 0 Z M 44 0 L 44 1 L 45 1 L 45 0 L 44 0 Z M 45 0 L 45 1 L 46 1 L 46 0 L 45 0 Z M 46 0 L 46 1 L 47 1 L 47 0 L 46 0 Z M 47 0 L 47 1 L 48 1 L 48 0 L 47 0 Z M 48 0 L 48 1 L 49 1 L 49 0 L 48 0 Z M 42 1 L 42 2 L 43 2 L 43 1 L 42 1 Z M 48 1 L 48 2 L 49 2 L 49 1 L 48 1 Z M 42 2 L 42 3 L 43 3 L 43 2 L 42 2 Z M 48 2 L 48 3 L 49 3 L 49 2 L 48 2 Z M 42 3 L 42 4 L 43 4 L 43 3 L 42 3 Z M 48 3 L 48 4 L 49 4 L 49 3 L 48 3 Z M 42 4 L 42 5 L 43 5 L 43 4 L 42 4 Z M 48 4 L 48 5 L 49 5 L 49 4 L 48 4 Z M 42 5 L 42 6 L 43 6 L 43 5 L 42 5 Z M 48 5 L 48 6 L 49 6 L 49 5 L 48 5 Z M 43 7 L 43 6 L 42 6 L 42 7 L 43 7 Z M 43 6 L 43 7 L 44 7 L 44 6 L 43 6 Z M 44 6 L 44 7 L 45 7 L 45 6 L 44 6 Z M 45 6 L 45 7 L 46 7 L 46 6 L 45 6 Z M 46 6 L 46 7 L 47 7 L 47 6 L 46 6 Z M 47 6 L 47 7 L 48 7 L 48 6 L 47 6 Z M 49 6 L 48 6 L 48 7 L 49 7 L 49 6 Z" /><path id="qrball_eyetopleft_2208" d="M 2 3 L 3 3 L 3 2 L 2 2 L 2 3 Z M 3 2 L 3 3 L 4 3 L 4 2 L 3 2 Z M 4 2 L 4 3 L 5 3 L 5 2 L 4 2 Z M 2 3 L 2 4 L 3 4 L 3 3 L 2 3 Z M 3 3 L 3 4 L 4 4 L 4 3 L 3 3 Z M 4 3 L 4 4 L 5 4 L 5 3 L 4 3 Z M 3 5 L 3 4 L 2 4 L 2 5 L 3 5 Z M 3 4 L 3 5 L 4 5 L 4 4 L 3 4 Z M 5 4 L 4 4 L 4 5 L 5 5 L 5 4 Z" /><path id="qrball_eyebottomleft_6226" d="M 2 45 L 3 45 L 3 44 L 2 44 L 2 45 Z M 3 44 L 3 45 L 4 45 L 4 44 L 3 44 Z M 4 44 L 4 45 L 5 45 L 5 44 L 4 44 Z M 2 45 L 2 46 L 3 46 L 3 45 L 2 45 Z M 3 45 L 3 46 L 4 46 L 4 45 L 3 45 Z M 4 45 L 4 46 L 5 46 L 5 45 L 4 45 Z M 3 47 L 3 46 L 2 46 L 2 47 L 3 47 Z M 3 46 L 3 47 L 4 47 L 4 46 L 3 46 Z M 5 46 L 4 46 L 4 47 L 5 47 L 5 46 Z" /><path id="qrball_eyetopright_3112" d="M 44 3 L 45 3 L 45 2 L 44 2 L 44 3 Z M 45 2 L 45 3 L 46 3 L 46 2 L 45 2 Z M 46 2 L 46 3 L 47 3 L 47 2 L 46 2 Z M 44 3 L 44 4 L 45 4 L 45 3 L 44 3 Z M 45 3 L 45 4 L 46 4 L 46 3 L 45 3 Z M 46 3 L 46 4 L 47 4 L 47 3 L 46 3 Z M 45 5 L 45 4 L 44 4 L 44 5 L 45 5 Z M 45 4 L 45 5 L 46 5 L 46 4 L 45 4 Z M 47 4 L 46 4 L 46 5 L 47 5 L 47 4 Z" /></defs><use xlink:href="#qrmain_4991" style="fill: #000000;" stroke="transparent" /><use xlink:href="#qroutline_eyetopleft_2878" style="fill: #000000;" stroke="transparent" /><use xlink:href="#qroutline_eyebottomleft_2769" style="fill: #000000;" stroke="transparent" /><use xlink:href="#qroutline_eyetopright_7586" style="fill: #000000;" stroke="transparent" /><use xlink:href="#qrball_eyetopleft_2208" style="fill: #000000;" stroke="transparent" /><use xlink:href="#qrball_eyebottomleft_6226" style="fill: #000000;" stroke="transparent" /><use xlink:href="#qrball_eyetopright_3112" style="fill: #000000;" stroke="transparent" /></g></g></g></svg>