<svg width="400" height="280" viewBox="0 0 400 280" fill="none" xmlns="http://www.w3.org/2000/svg">
<path d="M74 253.499C74 262.641 129.5 269.999 198 269.999C266.5 269.999 322 262.641 322 253.499C322 244.358 266.5 236.999 198 236.999C129.5 236.999 74 244.469 74 253.499Z" fill="#393E46"/>
<path d="M286.4 240.199C317.5 192.199 314.5 144.099 292.3 127.099C279 116.899 256.7 116.699 239.9 123.199C204.7 136.899 201.7 177.499 181.8 176.999C162.6 176.499 157.3 138.199 137.3 138.199C122.6 138.199 110.4 158.999 106.3 173.099C96.5999 206.299 117 239.199 121.4 238.799C174.6 234.999 233 233.599 286.8 239.499" fill="#EBF3FE"/>
<path d="M132.9 123.799C137.3 135.299 148.3 138.399 151.3 145.499C161.4 156.599 168 176.599 181.9 176.999C201.7 177.499 204.8 136.999 240 123.199C256.8 116.599 279.1 116.899 292.4 127.099C300.2 133.099 305.7 142.999 308.1 155.299C304.8 137.999 303.7 116.599 296.4 93.8994C283 52.3994 255.7 6.59944 240 10.1994C225 13.6994 235.1 58.8994 203.4 81.1994C199.1 84.1994 184.8 94.2994 170.1 90.5994C159.6 87.9994 157.2 80.2994 150.4 81.1994C138.7 82.5994 126.4 106.899 132.9 123.799Z" fill="#EBF3FE"/>
<path d="M219.1 133.799C219.1 133.799 207.5 157.099 195.7 173.199C191 179.599 186.3 184.899 182.2 187.099C178.3 189.199 174.9 192.599 172.1 196.299C164.9 205.899 161.6 217.899 161.6 217.899L131.5 171.999C131.5 171.999 132.5 127.199 136.2 119.699C141.5 108.799 144 86.6994 146.1 82.3994C147.6 79.0994 151.9 62.2994 152.3 61.0994C152.5 60.5994 153.9 59.7994 155.8 59.7994C157.3 59.7994 159.8 61.1994 160.5 64.1994C163.7 79.1994 159.8 89.0994 159.9 89.4994C161 100.999 157.6 109.599 160 111.899C160.1 111.999 160.3 111.899 160.5 111.799C164.7 109.099 190.5 71.3994 193.7 70.4994C196.9 69.6994 219.1 133.799 219.1 133.799Z" fill="#FFBDAD"/>
<path d="M170.7 208.799C170.7 208.799 170.3 229.199 169.1 256.599H93C110.4 219.399 125.5 188.099 125.5 188.099C125.5 188.099 168.9 189.299 170.7 208.799Z" fill="#085E5C"/>
<path opacity="0.56" d="M152 61.7994L149.6 71.6994C149.6 71.6994 151.7 72.5994 153.1 71.8994C154.4 71.1994 155.6 62.2994 152 61.7994Z" fill="#FBC7BA"/>
<path d="M118.1 203.399C118.1 203.399 133 217.699 143 223.199L150.6 217.799V225.799C150.6 225.799 165.5 228.399 170.3 225.799V204.099L128.3 182.999L118.1 203.399Z" fill="#00999A"/>
<path d="M173.5 224.099C167.7 225.299 155.3 220.699 155.3 220.699L157.3 201.199L143.2 217.399C136 214.699 124.8 207.799 118.2 203.399C114.9 201.199 112.7 199.699 112.7 199.699C122.1 184.499 131.5 170.399 131.5 170.399C134.3 175.999 140.8 180.799 148 184.699C159.8 191.099 173.2 194.899 173.2 194.899C173.1 206.399 173.5 224.099 173.5 224.099Z" fill="white"/>
<path opacity="0.41" d="M160.3 142.399C160.3 142.399 158.2 124.299 156.3 120.799C154.4 117.299 152.8 110.199 155.7 104.999C158.6 99.6994 159.6 89.5994 159.6 89.5994C160.7 101.099 157.3 109.699 159.7 111.999C159.8 112.099 160 111.999 160.2 111.899L160.3 142.399Z" fill="#FBC7BA"/>
<path d="M173.5 224.099C167.7 225.299 155.3 220.699 155.3 220.699L157.3 201.199L143.2 217.399C136 214.699 124.8 207.799 118.2 203.399C135.3 201.499 148 184.699 148 184.699C159.8 191.099 173.2 194.899 173.2 194.899C173.1 206.399 173.5 224.099 173.5 224.099Z" fill="white"/>
<path d="M279.151 58.4408L263.133 70.3994L247.412 82.1323C246.485 82.6736 245.782 82.7169 245.177 82.3252C243.153 81.1767 242.29 76.3592 241.199 73.3546L241.044 73.0459C239.571 69.1515 241.439 64.1244 245.065 61.9225L267.217 48.0504L273.839 43.9622C277.51 41.6607 281.671 43.0512 283.063 46.9091L283.217 47.2178C284.69 51.1122 282.822 56.1393 279.151 58.4408Z" fill="#FFBDAD"/>
<path d="M264.677 125.263L257.709 130.487C255.547 132.093 252.578 131.653 250.972 129.492L250.326 128.672C248.72 126.51 249.161 123.541 251.322 121.935L258.29 116.711C260.452 115.105 263.421 115.546 265.027 117.707L265.673 118.527C267.279 120.688 266.838 123.658 264.677 125.263Z" fill="#FFBDAD"/>
<path d="M265.594 92.2098C265.506 92.2331 265.506 92.2331 265.443 92.3477L256.486 97.4631C252.485 99.6985 247.475 98.4852 245.269 94.7672L244.098 92.8284C242.005 89.1785 243.191 84.4625 246.793 82.1372L249.816 80.4548L255.838 76.9986C259.839 74.7631 264.849 75.9765 267.055 79.6945L268.226 81.6333C270.295 85.1918 269.085 89.8165 265.594 92.2098Z" fill="#FFBDAD"/>
<path d="M268.197 110.994L266.696 111.81L256.371 117.395C256.087 117.536 255.903 117.663 255.606 117.704C252.166 119.095 248.04 117.754 246.253 114.369L246 114.001C243.987 110.445 245.358 105.811 248.927 103.897L258.488 98.6205L259.139 98.2263L260.641 97.4103C264.196 95.3978 268.831 96.7684 270.744 100.338L270.998 100.706C273.137 104.445 271.753 108.981 268.197 110.994Z" fill="#FFBDAD"/>
<path d="M241.777 28.9994H174.223C163.822 28.9994 160 32.8197 160 43.2174V209.812C160 220.209 163.822 224.03 174.223 224.03H241.777C252.178 224.03 256 220.209 256 209.812V43.2174C256 32.8197 252.178 28.9994 241.777 28.9994Z" fill="#21252C"/>
<path d="M244.724 33.9307H222.11C220.293 33.9275 218.505 34.3883 216.915 35.2694C215.326 36.1506 213.988 37.4229 213.028 38.9658C212.5 39.7428 211.789 40.3789 210.958 40.8185C210.128 41.2581 209.202 41.4879 208.262 41.4879C207.322 41.4879 206.396 41.2581 205.566 40.8185C204.735 40.3789 204.024 39.7428 203.496 38.9658C202.54 37.4223 201.204 36.1492 199.616 35.2679C198.028 34.3865 196.241 33.9262 194.425 33.9307H171.8C170.094 33.9307 168.458 34.6081 167.252 35.8138C166.046 37.0195 165.368 38.6548 165.368 40.3599V212.657C165.368 214.363 166.046 215.998 167.252 217.204C168.458 218.409 170.094 219.087 171.8 219.087H244.724C245.57 219.088 246.408 218.923 247.189 218.601C247.971 218.278 248.681 217.805 249.28 217.208C249.878 216.611 250.353 215.901 250.677 215.12C251.001 214.34 251.168 213.503 251.168 212.657V40.3599C251.168 39.5147 251.001 38.6777 250.677 37.8969C250.353 37.1161 249.878 36.4069 249.28 35.8097C248.681 35.2126 247.971 34.7392 247.189 34.4168C246.408 34.0944 245.57 33.9292 244.724 33.9307V33.9307Z" fill="white"/>
<rect x="165" y="47" width="86" height="172" rx="4" fill="white"/>
<path opacity="0.06" d="M165 104.999H251V128.999H165V104.999Z" fill="#393E46"/>
<path d="M204.486 67.5008C205.764 68.1733 206.976 68.5095 208.12 68.5095C209.263 68.5095 210.458 68.1733 211.703 67.5008C212.981 66.8283 213.94 66.0045 214.58 65.0294C214.546 64.0879 213.789 63.2978 212.308 62.6589C210.828 62.0201 209.432 61.7006 208.12 61.7006C206.807 61.7006 205.411 62.0201 203.931 62.6589C202.45 63.2641 201.693 64.0543 201.659 65.0294C202.299 66.0045 203.241 66.8283 204.486 67.5008ZM210.391 54.1856C209.751 53.5468 208.994 53.2274 208.12 53.2274C207.245 53.2274 206.488 53.5468 205.848 54.1856C205.209 54.8245 204.889 55.581 204.889 56.4553C204.889 57.3295 205.209 58.086 205.848 58.7249C206.488 59.3638 207.245 59.6832 208.12 59.6832C208.994 59.6832 209.751 59.3638 210.391 58.7249C211.03 58.086 211.35 57.3295 211.35 56.4553C211.35 55.581 211.03 54.8245 210.391 54.1856ZM200.499 53.1769C202.618 51.0586 205.159 49.9994 208.12 49.9994C211.08 49.9994 213.604 51.0586 215.69 53.1769C217.81 55.2616 218.87 57.7834 218.87 60.7423C218.87 63.7013 217.81 66.2399 215.69 68.3582C213.604 70.4429 211.08 71.4852 208.12 71.4852C205.159 71.4852 202.618 70.4429 200.499 68.3582C198.413 66.2399 197.37 63.7013 197.37 60.7423C197.37 57.7834 198.413 55.2616 200.499 53.1769Z" fill="#C7C8CA"/>
<path d="M182 78.5C182 77.6716 182.755 77 183.686 77H233.314C234.245 77 235 77.6716 235 78.5V78.5C235 79.3284 234.245 80 233.314 80H183.686C182.755 80 182 79.3284 182 78.5V78.5Z" fill="#00ADB5"/>
<path d="M191.517 83.7056C191.517 83.0464 192.051 82.512 192.711 82.512H223.767C224.426 82.512 224.961 83.0464 224.961 83.7056V83.7056C224.961 84.3649 224.426 84.8993 223.767 84.8993H192.711C192.051 84.8993 191.517 84.3649 191.517 83.7056V83.7056Z" fill="#00ADB5"/>
<path d="M169.061 112.592C169.061 111.274 170.131 110.205 171.45 110.205H181.005C182.325 110.205 183.394 111.274 183.394 112.592V122.141C183.394 123.46 182.325 124.529 181.005 124.529H171.45C170.131 124.529 169.061 123.46 169.061 122.141V112.592Z" fill="#00ADB5"/>
<path d="M190.561 112.592C190.561 111.274 191.631 110.205 192.95 110.205H202.505C203.825 110.205 204.894 111.274 204.894 112.592V122.141C204.894 123.46 203.825 124.529 202.505 124.529H192.95C191.631 124.529 190.561 123.46 190.561 122.141V112.592Z" fill="#00ADB5"/>
<path d="M212.061 112.592C212.061 111.274 213.131 110.205 214.45 110.205H224.005C225.325 110.205 226.394 111.274 226.394 112.592V122.141C226.394 123.46 225.325 124.529 224.005 124.529H214.45C213.131 124.529 212.061 123.46 212.061 122.141V112.592Z" fill="#00ADB5"/>
<path d="M233.561 112.592C233.561 111.274 234.631 110.205 235.95 110.205H245.505C246.825 110.205 247.894 111.274 247.894 112.592V122.141C247.894 123.46 246.825 124.529 245.505 124.529H235.95C234.631 124.529 233.561 123.46 233.561 122.141V112.592Z" fill="#00ADB5"/>
<path fill-rule="evenodd" clip-rule="evenodd" d="M188.65 90.4936C186.407 90.4936 184.589 92.3106 184.589 94.552C184.589 96.7934 186.407 98.6105 188.65 98.6105C190.893 98.6105 192.711 96.7934 192.711 94.552C192.711 92.3106 190.893 90.4936 188.65 90.4936ZM187.757 92.4006C187.988 92.3901 188.062 92.3875 188.65 92.3875H188.65C189.238 92.3875 189.311 92.3901 189.543 92.4006C189.773 92.4112 189.931 92.4476 190.069 92.5012C190.211 92.5564 190.332 92.6304 190.452 92.7508C190.573 92.8711 190.647 92.9918 190.702 93.1342C190.755 93.2718 190.792 93.4291 190.803 93.6595C190.813 93.8904 190.816 93.9642 190.816 94.552C190.816 95.1399 190.813 95.2135 190.803 95.4444C190.792 95.6747 190.755 95.832 190.702 95.9697C190.647 96.112 190.573 96.2328 190.452 96.3531C190.332 96.4735 190.211 96.5476 190.069 96.6029C189.931 96.6565 189.773 96.6929 189.543 96.7035C189.312 96.714 189.238 96.7166 188.65 96.7166C188.062 96.7166 187.988 96.714 187.757 96.7035C187.526 96.6929 187.369 96.6565 187.231 96.6029C187.089 96.5476 186.968 96.4735 186.848 96.3531C186.727 96.2328 186.653 96.112 186.598 95.9697C186.544 95.832 186.508 95.6748 186.497 95.4443C186.487 95.2134 186.484 95.1399 186.484 94.552C186.484 93.9642 186.487 93.8904 186.497 93.6595C186.507 93.4292 186.544 93.2718 186.598 93.1342C186.653 92.9918 186.727 92.8711 186.848 92.7508C186.968 92.6304 187.089 92.5565 187.231 92.5012C187.369 92.4476 187.527 92.4112 187.757 92.4006Z" fill="#C7C8CA"/>
<path fill-rule="evenodd" clip-rule="evenodd" d="M188.456 92.7776H188.65C189.228 92.7776 189.297 92.7797 189.525 92.79C189.737 92.7997 189.851 92.8349 189.928 92.8646C190.029 92.9038 190.101 92.9507 190.176 93.0265C190.252 93.1022 190.299 93.1744 190.338 93.2754C190.368 93.3516 190.403 93.4661 190.413 93.6772C190.423 93.9053 190.426 93.9739 190.426 94.5515C190.426 95.1292 190.423 95.1977 190.413 95.4259C190.403 95.637 190.368 95.7515 190.338 95.8277C190.299 95.9287 190.252 96.0006 190.176 96.0764C190.101 96.1521 190.029 96.199 189.928 96.2382C189.851 96.268 189.737 96.3032 189.525 96.3128C189.297 96.3232 189.228 96.3255 188.65 96.3255C188.072 96.3255 188.003 96.3232 187.775 96.3128C187.564 96.3031 187.449 96.2678 187.373 96.2382C187.272 96.199 187.199 96.1521 187.124 96.0763C187.048 96.0005 187.001 95.9286 186.962 95.8275C186.932 95.7513 186.897 95.6368 186.887 95.4257C186.877 95.1976 186.875 95.129 186.875 94.551C186.875 93.973 186.877 93.9048 186.887 93.6766C186.897 93.4656 186.932 93.351 186.962 93.2747C187.001 93.1737 187.048 93.1016 187.124 93.0258C187.199 92.9501 187.272 92.9032 187.373 92.8638C187.449 92.8341 187.564 92.7989 187.775 92.7892C187.975 92.7802 188.052 92.7775 188.456 92.777V92.7776ZM189.806 93.137C189.663 93.137 189.546 93.2532 189.546 93.3966C189.546 93.54 189.663 93.6564 189.806 93.6564C189.95 93.6564 190.066 93.54 190.066 93.3966C190.066 93.2532 189.95 93.1369 189.806 93.1369V93.137ZM187.538 94.552C187.538 93.9382 188.036 93.4405 188.65 93.4405C189.264 93.4405 189.762 93.9382 189.762 94.552C189.762 95.1659 189.264 95.6634 188.65 95.6634C188.036 95.6634 187.538 95.1659 187.538 94.552Z" fill="#C7C8CA"/>
<path d="M188.65 93.8305C189.049 93.8305 189.372 94.1535 189.372 94.552C189.372 94.9505 189.049 95.2735 188.65 95.2735C188.251 95.2735 187.928 94.9505 187.928 94.552C187.928 94.1535 188.251 93.8305 188.65 93.8305V93.8305Z" fill="#C7C8CA"/>
<g clip-path="url(#clip0)">
<path d="M205.611 94.552C205.611 92.3104 203.793 90.4936 201.55 90.4936C199.307 90.4936 197.489 92.3104 197.489 94.552C197.489 96.5781 198.974 98.2569 200.915 98.5613V95.7252H199.884V94.552H200.915V93.6579C200.915 92.6409 201.521 92.0789 202.449 92.0789C202.894 92.0789 203.358 92.1582 203.358 92.1582V93.1569H202.846C202.342 93.1569 202.185 93.47 202.185 93.7911V94.552H203.311L203.131 95.7252H202.185V98.5613C204.126 98.2569 205.611 96.5781 205.611 94.552Z" fill="#C7C8CA"/>
</g>
<g clip-path="url(#clip1)">
<path d="M210.389 94.552C210.389 92.3106 212.207 90.4936 214.45 90.4936C216.693 90.4936 218.511 92.3106 218.511 94.552C218.511 96.7934 216.693 98.6105 214.45 98.6105C212.207 98.6105 210.389 96.7934 210.389 94.552Z" fill="#C7C8CA"/>
<path fill-rule="evenodd" clip-rule="evenodd" d="M213.381 96.0739C213.489 96.1307 213.609 96.1604 213.731 96.1603C214.136 96.1603 214.468 95.8378 214.483 95.4359L214.484 91.8464H215.38C215.38 91.9226 215.387 91.9987 215.401 92.0737H214.745V92.0738H215.401H215.641C215.641 92.3742 215.75 92.6644 215.948 92.8906C215.948 92.8907 215.948 92.8908 215.948 92.8909C216.15 93.0227 216.386 93.0927 216.627 93.0925V93.2919C216.711 93.31 216.799 93.3196 216.888 93.3196V94.2154C216.441 94.2159 216.005 94.0758 215.641 93.8147V95.6348C215.641 96.5437 214.901 97.2833 213.992 97.2833C213.765 97.2833 213.541 97.2366 213.334 97.1461C213.126 97.0556 212.94 96.9233 212.786 96.7575C212.786 96.7574 212.785 96.7574 212.785 96.7573C212.36 96.4588 212.081 95.9652 212.081 95.4076C212.081 94.4986 212.821 93.7589 213.731 93.7589C213.805 93.7593 213.879 93.7647 213.953 93.7751V93.9872C213.953 93.9872 213.953 93.9872 213.953 93.9872L213.953 94.6895C213.953 94.6895 213.953 94.6895 213.953 94.6895L213.953 93.9872C213.958 93.9871 213.963 93.9869 213.968 93.9867C213.976 93.9865 213.984 93.9862 213.992 93.9862C214.066 93.9865 214.141 93.9919 214.214 94.0024V94.9167C214.144 94.8947 214.069 94.8819 213.992 94.8819C213.792 94.8821 213.601 94.9615 213.459 95.1027C213.318 95.2438 213.239 95.4352 213.238 95.6348C213.239 95.7925 213.288 95.9462 213.381 96.0738C213.381 96.0738 213.381 96.0739 213.381 96.0739ZM214.343 96.3006C214.574 96.1783 214.733 95.9394 214.744 95.663V95.6631C214.733 95.9395 214.574 96.1783 214.343 96.3006ZM213.731 94.6546C213.777 94.6546 213.822 94.6591 213.866 94.6674C213.821 94.6591 213.776 94.6548 213.731 94.6546ZM213.198 94.8754C213.198 94.8754 213.198 94.8754 213.198 94.8754ZM212.451 96.223C212.528 96.4224 212.642 96.6032 212.785 96.7569C212.639 96.6007 212.526 96.4191 212.451 96.223ZM213.731 97.056C213.731 97.056 213.731 97.056 213.731 97.056ZM215.38 95.4075V93.5873C215.38 93.5873 215.38 93.5873 215.38 93.5873V95.4075Z" fill="white"/>
</g>
<path fill-rule="evenodd" clip-rule="evenodd" d="M223.289 94.552C223.289 96.7934 225.107 98.6105 227.35 98.6105C229.593 98.6105 231.411 96.7934 231.411 94.552C231.411 92.3106 229.593 90.4936 227.35 90.4936C225.107 90.4936 223.289 92.3106 223.289 94.552ZM229.899 94.3967C229.898 95.727 228.815 96.8094 227.484 96.8099H227.483C227.079 96.8098 226.682 96.7085 226.329 96.5162L225.049 96.8518L225.391 95.6013C225.18 95.2353 225.069 94.8201 225.069 94.3948C225.069 93.0642 226.153 91.9817 227.484 91.9817C228.13 91.982 228.736 92.2333 229.192 92.6894C229.648 93.1456 229.899 93.7519 229.899 94.3967Z" fill="#C7C8CA"/>
<path fill-rule="evenodd" clip-rule="evenodd" d="M225.628 96.2785L226.388 96.0793L226.461 96.1228C226.77 96.3055 227.123 96.4022 227.483 96.4024H227.484C228.59 96.4024 229.49 95.5026 229.491 94.3966C229.491 93.8606 229.283 93.3567 228.904 92.9775C228.525 92.5984 228.021 92.3895 227.485 92.3893C226.377 92.3893 225.477 93.289 225.477 94.3949C225.476 94.7739 225.583 95.143 225.783 95.4624L225.831 95.5383L225.628 96.2785ZM228.618 94.9163C228.66 94.9366 228.688 94.9503 228.7 94.9706C228.715 94.9957 228.715 95.1164 228.665 95.2573C228.615 95.3982 228.374 95.5267 228.258 95.544C228.154 95.5596 228.022 95.566 227.878 95.5201C227.79 95.4923 227.678 95.4552 227.534 95.3931C226.968 95.149 226.586 94.6011 226.514 94.4976C226.509 94.4903 226.505 94.4852 226.503 94.4826L226.503 94.482C226.471 94.4394 226.257 94.1541 226.257 93.8588C226.257 93.5811 226.393 93.4355 226.456 93.3685C226.46 93.3639 226.464 93.3597 226.468 93.3558C226.523 93.2954 226.589 93.2803 226.629 93.2803C226.669 93.2803 226.709 93.2807 226.744 93.2825C226.749 93.2827 226.753 93.2827 226.758 93.2826C226.793 93.2824 226.837 93.2822 226.88 93.386C226.897 93.4259 226.921 93.4852 226.947 93.5476C226.999 93.6739 227.056 93.8135 227.066 93.8337C227.081 93.8639 227.091 93.8991 227.071 93.9394C227.068 93.9454 227.065 93.9511 227.063 93.9565C227.048 93.9873 227.037 94.01 227.011 94.0399C227.001 94.0517 226.99 94.0644 226.98 94.0771C226.959 94.1023 226.938 94.1276 226.92 94.1456C226.89 94.1757 226.859 94.2083 226.894 94.2686C226.929 94.329 227.05 94.5265 227.23 94.6864C227.422 94.8582 227.59 94.9309 227.675 94.9677C227.692 94.9749 227.705 94.9807 227.715 94.9857C227.775 95.0158 227.81 95.0108 227.846 94.9706C227.881 94.9303 227.996 94.7945 228.037 94.7341C228.077 94.6738 228.117 94.6838 228.172 94.7039C228.228 94.7241 228.524 94.8699 228.585 94.9001C228.596 94.906 228.608 94.9113 228.618 94.9163Z" fill="#C7C8CA"/>
<path d="M169.194 137.898C169.194 137.107 169.836 136.465 170.628 136.465H209.567C210.358 136.465 211 137.107 211 137.898V137.898C211 138.689 210.358 139.33 209.567 139.33H170.628C169.836 139.33 169.194 138.689 169.194 137.898V137.898Z" fill="#C7C8CA"/>
<path d="M234.95 140.524C234.95 137.227 237.624 134.555 240.922 134.555V134.555C244.221 134.555 246.895 137.227 246.895 140.524V140.524C246.895 143.82 244.221 146.492 240.922 146.492V146.492C237.624 146.492 234.95 143.82 234.95 140.524V140.524Z" fill="#00ADB5"/>
<g clip-path="url(#clip2)">
<path d="M242.676 141.263C242.407 141.263 242.146 141.22 241.903 141.141C241.827 141.114 241.741 141.134 241.682 141.193L241.338 141.624C240.718 141.329 240.138 140.771 239.829 140.13L240.256 139.766C240.316 139.705 240.333 139.62 240.309 139.543C240.228 139.3 240.186 139.04 240.186 138.771C240.186 138.653 240.088 138.554 239.97 138.554H239.212C239.094 138.554 238.951 138.607 238.951 138.771C238.951 140.804 240.644 142.493 242.676 142.493C242.832 142.493 242.893 142.355 242.893 142.235V141.48C242.893 141.362 242.794 141.263 242.676 141.263Z" fill="white"/>
</g>
<path d="M169.194 143.15C169.194 142.622 169.622 142.195 170.15 142.195H195.711C196.239 142.195 196.667 142.622 196.667 143.15V143.15C196.667 143.677 196.239 144.105 195.711 144.105H170.15C169.622 144.105 169.194 143.677 169.194 143.15V143.15Z" fill="#C7C8CA"/>
<path d="M198.1 143.15C198.1 142.622 198.528 142.195 199.056 142.195H217.45C217.978 142.195 218.406 142.622 218.406 143.15V143.15C218.406 143.677 217.978 144.105 217.45 144.105H199.056C198.528 144.105 198.1 143.677 198.1 143.15V143.15Z" fill="#C7C8CA"/>
<path d="M169.194 147.924C169.194 147.397 169.622 146.969 170.15 146.969H200.489C201.017 146.969 201.444 147.397 201.444 147.924V147.924C201.444 148.452 201.017 148.879 200.489 148.879H170.15C169.622 148.879 169.194 148.452 169.194 147.924V147.924Z" fill="#C7C8CA"/>
<path d="M169.194 178.482C169.194 177.691 169.836 177.049 170.628 177.049H202.4C203.192 177.049 203.833 177.691 203.833 178.482V178.482C203.833 179.273 203.192 179.914 202.4 179.914H170.628C169.836 179.914 169.194 179.273 169.194 178.482V178.482Z" fill="#C7C8CA"/>
<path d="M234.95 181.108C234.95 177.812 237.624 175.14 240.922 175.14V175.14C244.221 175.14 246.895 177.812 246.895 181.108V181.108C246.895 184.404 244.221 187.076 240.922 187.076V187.076C237.624 187.076 234.95 184.404 234.95 181.108V181.108Z" fill="#00ADB5"/>
<g clip-path="url(#clip3)">
<path d="M243.414 180.771L241.261 178.62C241.082 178.441 240.767 178.439 240.585 178.62L238.435 180.769C238.249 180.955 238.249 181.256 238.435 181.442L240.585 183.591C240.679 183.684 240.8 183.729 240.922 183.729C241.044 183.729 241.166 183.684 241.259 183.591L243.407 181.445C243.595 181.263 243.598 180.962 243.414 180.771V180.771ZM240.925 183.254L238.775 181.106L240.925 178.957L243.075 181.106L240.925 183.254V183.254ZM239.967 180.869V181.824H240.444V181.108H241.4V181.705L242.236 180.869L241.4 180.034V180.63H240.206C240.074 180.63 239.967 180.738 239.967 180.869Z" fill="white"/>
</g>
<path d="M169.194 183.734C169.194 183.207 169.622 182.779 170.15 182.779H195.711C196.239 182.779 196.667 183.207 196.667 183.734V183.734C196.667 184.261 196.239 184.689 195.711 184.689H170.15C169.622 184.689 169.194 184.261 169.194 183.734V183.734Z" fill="#C7C8CA"/>
<path d="M198.1 183.734C198.1 183.207 198.528 182.779 199.056 182.779H217.45C217.978 182.779 218.406 183.207 218.406 183.734V183.734C218.406 184.261 217.978 184.689 217.45 184.689H199.056C198.528 184.689 198.1 184.261 198.1 183.734V183.734Z" fill="#C7C8CA"/>
<path d="M169.194 188.509C169.194 187.981 169.622 187.554 170.15 187.554H200.489C201.017 187.554 201.444 187.981 201.444 188.509V188.509C201.444 189.036 201.017 189.464 200.489 189.464H170.15C169.622 189.464 169.194 189.036 169.194 188.509V188.509Z" fill="#C7C8CA"/>
<path d="M169.194 159.383C169.194 158.592 169.836 157.951 170.628 157.951H218.406C219.197 157.951 219.839 158.592 219.839 159.383V159.383C219.839 160.175 219.197 160.816 218.406 160.816H170.628C169.836 160.816 169.194 160.175 169.194 159.383V159.383Z" fill="#C7C8CA"/>
<path d="M234.95 162.009C234.95 158.713 237.624 156.041 240.922 156.041V156.041C244.221 156.041 246.895 158.713 246.895 162.009V162.009C246.895 165.306 244.221 167.978 240.922 167.978V167.978C237.624 167.978 234.95 165.306 234.95 162.009V162.009Z" fill="#00ADB5"/>
<g clip-path="url(#clip4)">
<path d="M239.17 160.617H242.674V163.243H239.427L239.17 163.499V160.617ZM239.17 160.179C238.93 160.179 238.735 160.376 238.735 160.617L238.732 164.556L239.608 163.681H242.674C242.915 163.681 243.112 163.484 243.112 163.243V160.617C243.112 160.376 242.915 160.179 242.674 160.179H239.17ZM239.608 162.368H241.36V162.805H239.608V162.368ZM239.608 161.711H242.236V162.149H239.608V161.711ZM239.608 161.055H242.236V161.492H239.608V161.055Z" fill="white"/>
</g>
<path d="M169.194 164.635C169.194 164.108 169.622 163.681 170.15 163.681H204.789C205.317 163.681 205.744 164.108 205.744 164.635V164.635C205.744 165.163 205.317 165.59 204.789 165.59H170.15C169.622 165.59 169.194 165.163 169.194 164.635V164.635Z" fill="#C7C8CA"/>
<path d="M169 199.999C169 198.895 169.895 197.999 171 197.999H243C244.105 197.999 245 198.895 245 199.999V210.999C245 212.104 244.105 212.999 243 212.999H171C169.895 212.999 169 212.104 169 210.999V199.999Z" fill="#393E46"/>
<path d="M224.811 42.7333L191.189 42.7333C189.355 42.7333 187.596 42.0049 186.299 40.7085C185.002 39.412 184.274 37.6537 184.274 35.8202V32.3636L231.68 32.3636V35.8202C231.68 37.6537 230.952 39.412 229.655 40.7085C228.358 42.0049 226.599 42.7333 224.765 42.7333H224.811Z" fill="#21252C"/>
<path d="M268.6 110.299L267 110.899L256 114.999C255.7 115.099 255.5 115.199 255.2 115.199C251.6 116.099 247.7 114.199 246.4 110.599L246.2 110.199C244.7 106.399 246.7 101.999 250.5 100.599L260.7 96.6995L261.4 96.3995L263 95.7995C266.8 94.2995 271.2 96.2995 272.6 100.099L272.8 100.499C274.4 104.499 272.4 108.799 268.6 110.299Z" fill="#FFBDAD"/>
<path d="M259.7 110.499C257.9 111.199 254.6 112.399 252.8 112.699C252.3 112.799 251.4 112.499 250.5 111.599C250.4 111.399 250.3 111.199 250.2 110.899C250 110.399 249.9 109.899 249.8 109.299C249.7 108.699 249.8 107.999 249.9 107.399C250 106.799 250.4 106.299 250.9 106.099C252.8 105.199 255.3 104.099 257.5 103.499C258.5 103.199 259.5 103.399 260.2 103.899L261.4 107.099C262 108.399 261.2 109.999 259.7 110.499Z" fill="#FFD1C5"/>
<path d="M263.894 125.152L255.698 128.098C253.161 128.998 250.452 127.705 249.552 125.167L249.175 124.194C248.275 121.656 249.568 118.947 252.106 118.047L260.302 115.101C262.839 114.201 265.548 115.494 266.448 118.032L266.825 119.005C267.725 121.543 266.432 124.252 263.894 125.152Z" fill="#FFBDAD"/>
<path d="M259.377 125.103C257.912 125.618 255.075 126.542 253.687 126.75C253.189 126.789 252.061 126.476 251.254 125.135C251.124 124.744 250.993 124.353 250.962 123.954C250.923 123.455 250.984 122.949 251.052 122.543C251.121 122.136 251.488 121.706 251.971 121.468C253.52 120.745 255.667 119.976 257.43 119.437C258.511 119.152 259.539 119.473 260.092 120.132L260.869 122.379C261.262 123.552 260.55 124.711 259.377 125.103Z" fill="#FFD1C5"/>
<path d="M267.25 90.8339C267.159 90.8465 267.159 90.8465 267.081 90.9514L257.411 94.9256C253.097 96.6523 248.206 94.8866 246.458 90.9927L245.525 88.9598C243.881 85.1454 245.675 80.6658 249.599 78.8052L252.857 77.507L259.36 74.8183C263.673 73.0916 268.565 74.8573 270.313 78.7513L271.246 80.7842C272.877 84.5063 271.07 88.8937 267.25 90.8339Z" fill="#FFBDAD"/>
<path d="M260.95 88.8768L255.788 91.752C255.688 91.761 255.299 91.8965 254.81 92.041C254.212 92.0949 253.76 91.5332 254.005 90.9087C254.404 89.7682 254.387 88.4645 253.98 87.2963L253.836 86.8073L253.303 85.3493C252.896 84.1811 252.109 83.248 251.141 82.532C251.313 82.2153 251.594 81.9891 251.884 81.8626L257.679 80.4364C258.847 80.0299 260.105 80.6193 260.802 81.661L262.13 85.2562C262.563 86.7232 262.309 88.3527 260.95 88.8768Z" fill="#FFD1C5"/>
<path d="M288.3 256.599H244.3C242.2 255.199 231.2 247.699 226.7 242.099C225.7 240.899 222.2 230.799 219.5 222.499C217.8 217.299 216.4 212.899 216.2 211.899C216.1 211.499 216.1 210.799 216 209.899C215.9 206.499 216 199.999 216.2 194.799V194.699C216.2 194.499 216.2 194.199 216.2 193.999C216.2 193.999 216.2 193.999 216.2 193.899C216.2 192.999 216.3 192.199 216.3 191.399C216.4 189.499 216.4 187.999 216.4 187.499V187.199C216.5 187.199 218.6 185.999 221.4 188.099C222.1 188.599 222.7 189.799 223.3 191.299C223.7 192.299 224 193.399 224.3 194.599C225.5 199.199 226.4 204.699 226.9 206.199C227.7 208.599 236.7 219.099 237.2 219.699V203.099L230.4 184.899L227.6 177.399L226.2 173.699C226.2 173.699 224.1 170.199 222.3 165.899C221.5 163.999 220.8 162.099 220.3 160.199C220.2 159.699 220.1 159.299 220 158.899C219.7 157.299 219.7 155.799 220.1 154.599C220.8 152.399 222.2 151.999 223.4 152.099C223.5 152.099 223.6 152.099 223.7 152.099C223.8 152.099 223.9 152.099 224 152.199C224.2 152.299 224.4 152.299 224.6 152.399C224.9 152.599 225.1 152.799 225.3 153.099C225.3 153.099 226.3 154.399 227.5 155.999C228.3 157.099 229.3 158.399 230.3 159.699C232 161.899 233.6 163.999 234 164.599C236.3 167.899 242.6 178.599 242.6 178.599L250 178.899C251.2 178.899 252.3 179.399 253.1 180.199C255.7 182.599 261.4 187.899 262.1 188.699C262.1 188.999 266.5 191.099 269.9 192.899C272.3 193.899 276.9 197.599 276.9 197.599C277.9 198.399 278.6 199.299 278.9 200.099C280.5 203.499 284.8 233.399 286.8 248.199C287.8 253.199 288.3 256.399 288.3 256.599Z" fill="#FFBDAD"/>
<path opacity="0.41" d="M243 178.899C243 178.899 249.8 189.999 250.7 190.499C251.6 190.999 255.1 191.699 255.5 190.499C255.9 189.299 243 178.899 243 178.899Z" fill="#FBC7BA"/>
<path opacity="0.41" d="M277.3 197.899C277.3 197.899 277.2 197.899 277.3 197.899C277.3 197.899 272.7 194.199 270.2 193.199C267.1 191.499 263.1 189.599 262.5 189.099C263.2 189.899 268.3 195.699 270.3 196.099C272 196.499 275.9 197.499 277.3 197.899Z" fill="#FBC7BA"/>
<path opacity="0.41" d="M237.5 219.899V203.299C237.5 203.299 241.4 209.899 241.7 213.499C242 217.199 240.1 222.999 237.5 219.899Z" fill="#FBC7BA"/>
<path d="M223.2 159.099C222.6 158.099 221.6 156.299 221.2 155.299C221.1 154.999 221.1 154.499 221.5 153.799C221.6 153.699 221.7 153.599 221.8 153.599C222 153.399 222.3 153.299 222.5 153.199C222.8 153.099 223.1 152.999 223.4 152.999C223.7 152.999 224 153.199 224.2 153.499C224.9 154.499 225.7 155.799 226.3 157.099C226.6 157.599 226.6 158.199 226.4 158.699L225 159.699C224.5 160.199 223.7 159.999 223.2 159.099Z" fill="#FFD1C5"/>
<path opacity="0.41" d="M266.2 249.799L253.1 256.599H244.4C242.3 255.199 231.3 247.699 226.8 242.099C225.8 240.899 222.3 230.799 219.6 222.499C220 223.599 227.5 239.599 229.6 241.499C231.7 243.299 243 253.899 246.1 253.799C249.1 253.699 265.2 249.999 266.2 249.799Z" fill="#FBC7BA"/>
<path d="M292.6 256.599H245.2C247.6 255.699 256.7 252.199 266.1 249.799C274.2 247.799 282.5 246.499 287 248.399L292.6 256.599Z" fill="white"/>
<path d="M216.4 194.099C217.2 193.799 218.3 193.599 218.9 194.499C219.7 195.899 216.6 208.399 216.2 209.999L216.4 194.099Z" fill="#FBC7BA"/>
<path opacity="0.56" d="M216.6 187.299L216.3 194.899C216.3 194.899 217.9 195.199 218.8 194.499C219.7 193.799 219.2 187.299 216.6 187.299Z" fill="#FBC7BA"/>
<defs>
<clipPath id="clip0">
<rect width="8.12221" height="8.11686" fill="white" transform="translate(197.489 90.4936)"/>
</clipPath>
<clipPath id="clip1">
<rect width="8.12222" height="8.11686" fill="white" transform="translate(210.389 90.4936)"/>
</clipPath>
<clipPath id="clip2">
<rect width="5.25555" height="5.25208" fill="white" transform="translate(238.294 137.898)"/>
</clipPath>
<clipPath id="clip3">
<rect width="5.73333" height="5.72955" fill="white" transform="translate(238.056 178.243)"/>
</clipPath>
<clipPath id="clip4">
<rect width="5.25555" height="5.25209" fill="white" transform="translate(238.294 159.742)"/>
</clipPath>
</defs>
</svg>
