<svg width="400" height="280" viewBox="0 0 400 280" fill="none" xmlns="http://www.w3.org/2000/svg">
<path d="M288.6 252.91C326.7 202.01 323.1 151.11 295.8 133.11C279.5 122.31 252.1 122.01 231.5 129.01C188.4 143.61 184.6 186.51 160.3 186.01C136.7 185.51 130.3 144.81 105.7 144.91C87.6 144.91 72.8 166.91 67.7 181.91C55.8 217.01 80.8 251.91 86.2 251.61C151.5 247.51 223.1 246.11 289 252.41" fill="#EBF3FE"/>
<path d="M100.2 129.61C105.6 141.81 119.1 145.01 122.8 152.61C135.2 164.41 143.3 185.61 160.3 186.01C184.6 186.51 188.4 143.61 231.5 129.01C252.1 122.01 279.5 122.31 295.8 133.11C305.4 139.51 312.1 149.91 315 163.01C310.9 144.61 309.7 122.01 300.7 97.9099C284.3 53.9099 250.8 5.40988 231.6 9.20988C213.2 12.9099 225.6 60.8099 186.7 84.4099C181.4 87.6099 163.9 98.2099 145.9 94.4099C133 91.6099 130.1 83.5099 121.7 84.4099C107.4 85.9099 92.4 111.61 100.2 129.61Z" fill="#EBF3FE"/>
<path d="M57 259.41C57 265.71 115.1 270.81 186.8 270.81C258.5 270.81 316.6 265.71 316.6 259.41C316.6 253.11 258.5 248.01 186.8 248.01C115.1 248.01 57 253.11 57 259.41Z" fill="#393E46"/>
<path opacity="0.2" d="M66.0879 29.0123C66.3689 24.2354 70.4691 20.5908 75.246 20.8718L230.934 30.03C235.711 30.311 239.356 34.4112 239.075 39.1881L234.496 117.032C234.215 121.809 230.115 125.454 225.338 125.173L69.6494 116.015C64.8725 115.734 61.2278 111.633 61.5088 106.857L66.0879 29.0123Z" fill="#26BDC5"/>
<path d="M62.4919 42.3492C62.2273 37.5714 65.886 33.4837 70.6639 33.2191L226.383 24.5954C231.161 24.3309 235.248 27.9896 235.513 32.7674L239.825 110.627C240.089 115.405 236.431 119.492 231.653 119.757L75.9339 128.381C71.156 128.645 67.0683 124.987 66.8037 120.209L62.4919 42.3492Z" fill="#23BBC2"/>
<path d="M69.7137 32.3C69.7137 27.5148 73.5929 23.6357 78.3781 23.6357H234.336C239.121 23.6357 243 27.5148 243 32.3V110.279C243 115.064 239.121 118.943 234.336 118.943H78.3781C73.5929 118.943 69.7137 115.064 69.7137 110.279V32.3Z" fill="#12C7D0"/>
<path opacity="0.1" d="M69.7137 32.3C69.7137 27.5148 73.5929 23.6357 78.3781 23.6357L129.5 51.5L177.5 77L243 110.279C243 115.064 239.121 118.943 234.336 118.943H78.3781C73.5929 118.943 69.7137 115.064 69.7137 110.279V32.3Z" fill="white"/>
<path opacity="0.3" d="M83.5767 59.1594C83.5767 57.7238 84.7404 56.5601 86.176 56.5601H156.357C157.792 56.5601 158.956 57.7238 158.956 59.1594V59.1594C158.956 60.5949 157.792 61.7586 156.357 61.7586H86.176C84.7404 61.7586 83.5767 60.5949 83.5767 59.1594V59.1594Z" fill="white"/>
<g opacity="0.1">
<path d="M83.5767 89.4845C83.5767 86.1348 86.2921 83.4194 89.6417 83.4194V83.4194C92.9913 83.4194 95.7067 86.1348 95.7067 89.4845V89.4845C95.7067 92.8341 92.9913 95.5495 89.6417 95.5495V95.5495C86.2921 95.5495 83.5767 92.8341 83.5767 89.4845V89.4845Z" fill="black"/>
<path d="M101.772 89.4845C101.772 86.1348 104.487 83.4194 107.837 83.4194V83.4194C111.186 83.4194 113.902 86.1348 113.902 89.4845V89.4845C113.902 92.8341 111.186 95.5495 107.837 95.5495V95.5495C104.487 95.5495 101.772 92.8341 101.772 89.4845V89.4845Z" fill="black"/>
<path d="M119.967 89.4845C119.967 86.1348 122.682 83.4194 126.032 83.4194V83.4194C129.381 83.4194 132.097 86.1348 132.097 89.4845V89.4845C132.097 92.8341 129.381 95.5495 126.032 95.5495V95.5495C122.682 95.5495 119.967 92.8341 119.967 89.4845V89.4845Z" fill="black"/>
</g>
<g opacity="0.3">
<path d="M83.5767 67.8237C83.5767 66.8667 84.3525 66.0909 85.3095 66.0909H136.429C137.386 66.0909 138.162 66.8667 138.162 67.8237V67.8237C138.162 68.7808 137.386 69.5566 136.429 69.5566H85.3095C84.3525 69.5566 83.5767 68.7808 83.5767 67.8237V67.8237Z" fill="white"/>
<path d="M83.5767 74.7553C83.5767 73.7982 84.3525 73.0224 85.3095 73.0224H121.7C122.657 73.0224 123.432 73.7982 123.432 74.7553V74.7553C123.432 75.7123 122.657 76.4881 121.7 76.4881H85.3095C84.3525 76.4881 83.5767 75.7123 83.5767 74.7553V74.7553Z" fill="white"/>
<path d="M126.898 74.7553C126.898 73.7982 127.674 73.0224 128.631 73.0224H143.361C144.318 73.0224 145.093 73.7982 145.093 74.7553V74.7553C145.093 75.7123 144.318 76.4881 143.361 76.4881H128.631C127.674 76.4881 126.898 75.7123 126.898 74.7553V74.7553Z" fill="white"/>
</g>
<path d="M172.819 41.8308C172.819 41.3523 173.207 40.9644 173.686 40.9644H228.271C228.749 40.9644 229.137 41.3523 229.137 41.8308V96.4159C229.137 96.8945 228.749 97.2824 228.271 97.2824H173.686C173.207 97.2824 172.819 96.8945 172.819 96.4159V41.8308Z" fill="white"/>
<g clip-path="url(#clip0)">
<path d="M227.4 42.6H174.6V95.4H227.4V42.6Z" fill="white"/>
<path d="M193.08 47V48.76H194.84V47H193.08ZM196.6 47V48.76H198.36V47H196.6ZM201.88 48.76H203.64V47H201.88V48.76ZM203.64 47V48.76H205.4V47H203.64ZM205.4 47V48.76H207.16V47H205.4ZM208.92 47H207.16V48.76H208.92V47ZM194.84 48.76V50.52H196.6V48.76H194.84ZM198.36 50.52H200.12V48.76H198.36V50.52ZM200.12 48.76V50.52H201.88V48.76H200.12ZM203.64 48.76H201.88V50.52H203.64V48.76ZM193.08 50.52V52.28H194.84V50.52H193.08ZM196.6 52.28H198.36V50.52H196.6V52.28ZM198.36 50.52V52.28H200.12V50.52H198.36ZM201.88 50.52H200.12V52.28H201.88V50.52ZM203.64 52.28H205.4V50.52H203.64V52.28ZM205.4 50.52V52.28H207.16V50.52H205.4ZM208.92 50.52H207.16V52.28H208.92V50.52ZM193.08 52.28V54.04H194.84V52.28H193.08ZM194.84 52.28V54.04H196.6V52.28H194.84ZM198.36 52.28V54.04H200.12V52.28H198.36ZM201.88 54.04H203.64V52.28H201.88V54.04ZM203.64 52.28V54.04H205.4V52.28H203.64ZM205.4 52.28V54.04H207.16V52.28H205.4ZM193.08 54.04V55.8H194.84V54.04H193.08ZM194.84 54.04V55.8H196.6V54.04H194.84ZM200.12 55.8V54.04H198.36V55.8H200.12ZM201.88 54.04V55.8H203.64V54.04H201.88ZM205.4 54.04V55.8H207.16V54.04H205.4ZM208.92 54.04H207.16V55.8H208.92V54.04ZM193.08 55.8V57.56H194.84V55.8H193.08ZM196.6 55.8H194.84V57.56H196.6V55.8ZM200.12 57.56H201.88V55.8H200.12V57.56ZM201.88 55.8V57.56H203.64V55.8H201.88ZM203.64 55.8V57.56H205.4V55.8H203.64ZM207.16 55.8H205.4V57.56H207.16V55.8ZM194.84 59.32V57.56H193.08V59.32H194.84ZM196.6 57.56V59.32H198.36V57.56H196.6ZM200.12 57.56V59.32H201.88V57.56H200.12ZM203.64 57.56V59.32H205.4V57.56H203.64ZM207.16 57.56V59.32H208.92V57.56H207.16ZM194.84 59.32V61.08H196.6V59.32H194.84ZM198.36 61.08H200.12V59.32H198.36V61.08ZM200.12 59.32V61.08H201.88V59.32H200.12ZM203.64 59.32V61.08H205.4V59.32H203.64ZM208.92 61.08V59.32H207.16V61.08H208.92ZM182.52 62.84H184.28V61.08H182.52V62.84ZM184.28 61.08V62.84H186.04V61.08H184.28ZM186.04 61.08V62.84H187.8V61.08H186.04ZM187.8 61.08V62.84H189.56V61.08H187.8ZM189.56 61.08V62.84H191.32V61.08H189.56ZM191.32 61.08V62.84H193.08V61.08H191.32ZM196.6 62.84V61.08H194.84V62.84H196.6ZM196.6 61.08V62.84H198.36V61.08H196.6ZM200.12 61.08V62.84H201.88V61.08H200.12ZM201.88 61.08V62.84H203.64V61.08H201.88ZM203.64 61.08V62.84H205.4V61.08H203.64ZM207.16 61.08H205.4V62.84H207.16V61.08ZM208.92 61.08V62.84H210.68V61.08H208.92ZM212.44 62.84H214.2V61.08H212.44V62.84ZM214.2 61.08V62.84H215.96V61.08H214.2ZM215.96 61.08V62.84H217.72V61.08H215.96ZM217.72 61.08V62.84H219.48V61.08H217.72ZM221.24 61.08V62.84H223V61.08H221.24ZM180.76 62.84V64.6H182.52V62.84H180.76ZM184.28 62.84V64.6H186.04V62.84H184.28ZM191.32 62.84V64.6H193.08V62.84H191.32ZM196.6 62.84V64.6H198.36V62.84H196.6ZM200.12 62.84V64.6H201.88V62.84H200.12ZM201.88 62.84V64.6H203.64V62.84H201.88ZM203.64 62.84V64.6H205.4V62.84H203.64ZM208.92 62.84V64.6H210.68V62.84H208.92ZM214.2 62.84V64.6H215.96V62.84H214.2ZM219.48 64.6V62.84H217.72V64.6H219.48ZM219.48 62.84V64.6H221.24V62.84H219.48ZM221.24 62.84V64.6H223V62.84H221.24ZM182.52 66.36H184.28V64.6H182.52V66.36ZM184.28 64.6V66.36H186.04V64.6H184.28ZM186.04 64.6V66.36H187.8V64.6H186.04ZM189.56 66.36H191.32V64.6H189.56V66.36ZM193.08 64.6H191.32V66.36H193.08V64.6ZM194.84 66.36H196.6V64.6H194.84V66.36ZM198.36 64.6H196.6V66.36H198.36V64.6ZM201.88 66.36V64.6H200.12V66.36H201.88ZM203.64 64.6V66.36H205.4V64.6H203.64ZM205.4 64.6V66.36H207.16V64.6H205.4ZM207.16 64.6V66.36H208.92V64.6H207.16ZM210.68 64.6H208.92V66.36H210.68V64.6ZM215.96 66.36V64.6H214.2V66.36H215.96ZM217.72 64.6H215.96V66.36H217.72V64.6ZM221.24 64.6V66.36H223V64.6H221.24ZM184.28 68.12V66.36H182.52V68.12H184.28ZM186.04 66.36V68.12H187.8V66.36H186.04ZM187.8 66.36V68.12H189.56V66.36H187.8ZM193.08 68.12H194.84V66.36H193.08V68.12ZM196.6 66.36H194.84V68.12H196.6V66.36ZM198.36 66.36V68.12H200.12V66.36H198.36ZM203.64 66.36V68.12H205.4V66.36H203.64ZM205.4 66.36V68.12H207.16V66.36H205.4ZM207.16 66.36V68.12H208.92V66.36H207.16ZM219.48 68.12H221.24V66.36H219.48V68.12ZM223 66.36H221.24V68.12H223V66.36ZM179 69.88H180.76V68.12H179V69.88ZM182.52 68.12H180.76V69.88H182.52V68.12ZM184.28 69.88H186.04V68.12H184.28V69.88ZM186.04 68.12V69.88H187.8V68.12H186.04ZM187.8 68.12V69.88H189.56V68.12H187.8ZM189.56 68.12V69.88H191.32V68.12H189.56ZM191.32 68.12V69.88H193.08V68.12H191.32ZM193.08 68.12V69.88H194.84V68.12H193.08ZM196.6 69.88H198.36V68.12H196.6V69.88ZM198.36 68.12V69.88H200.12V68.12H198.36ZM201.88 68.12H200.12V69.88H201.88V68.12ZM205.4 69.88V68.12H203.64V69.88H205.4ZM207.16 68.12V69.88H208.92V68.12H207.16ZM208.92 68.12V69.88H210.68V68.12H208.92ZM210.68 68.12V69.88H212.44V68.12H210.68ZM212.44 68.12V69.88H214.2V68.12H212.44ZM214.2 68.12V69.88H215.96V68.12H214.2ZM215.96 68.12V69.88H217.72V68.12H215.96ZM221.24 69.88V68.12H219.48V69.88H221.24ZM180.76 71.64V69.88H179V71.64H180.76ZM184.28 69.88V71.64H186.04V69.88H184.28ZM186.04 69.88V71.64H187.8V69.88H186.04ZM187.8 69.88V71.64H189.56V69.88H187.8ZM193.08 69.88V71.64H194.84V69.88H193.08ZM201.88 69.88V71.64H203.64V69.88H201.88ZM207.16 69.88V71.64H208.92V69.88H207.16ZM215.96 71.64V69.88H214.2V71.64H215.96ZM215.96 69.88V71.64H217.72V69.88H215.96ZM219.48 69.88H217.72V71.64H219.48V69.88ZM221.24 69.88V71.64H223V69.88H221.24ZM182.52 73.4H184.28V71.64H182.52V73.4ZM184.28 71.64V73.4H186.04V71.64H184.28ZM187.8 71.64V73.4H189.56V71.64H187.8ZM191.32 71.64H189.56V73.4H191.32V71.64ZM193.08 71.64V73.4H194.84V71.64H193.08ZM196.6 71.64V73.4H198.36V71.64H196.6ZM200.12 71.64V73.4H201.88V71.64H200.12ZM203.64 73.4H205.4V71.64H203.64V73.4ZM205.4 71.64V73.4H207.16V71.64H205.4ZM208.92 71.64H207.16V73.4H208.92V71.64ZM210.68 73.4H212.44V71.64H210.68V73.4ZM214.2 71.64H212.44V73.4H214.2V71.64ZM217.72 73.4V71.64H215.96V73.4H217.72ZM219.48 71.64V73.4H221.24V71.64H219.48ZM180.76 73.4V75.16H182.52V73.4H180.76ZM186.04 75.16V73.4H184.28V75.16H186.04ZM186.04 73.4V75.16H187.8V73.4H186.04ZM187.8 73.4V75.16H189.56V73.4H187.8ZM191.32 75.16H193.08V73.4H191.32V75.16ZM194.84 73.4H193.08V75.16H194.84V73.4ZM196.6 73.4V75.16H198.36V73.4H196.6ZM198.36 73.4V75.16H200.12V73.4H198.36ZM201.88 75.16H203.64V73.4H201.88V75.16ZM205.4 73.4H203.64V75.16H205.4V73.4ZM208.92 73.4V75.16H210.68V73.4H208.92ZM214.2 73.4V75.16H215.96V73.4H214.2ZM217.72 75.16H219.48V73.4H217.72V75.16ZM219.48 73.4V75.16H221.24V73.4H219.48ZM179 75.16V76.92H180.76V75.16H179ZM182.52 75.16V76.92H184.28V75.16H182.52ZM187.8 76.92V75.16H186.04V76.92H187.8ZM187.8 75.16V76.92H189.56V75.16H187.8ZM189.56 75.16V76.92H191.32V75.16H189.56ZM193.08 75.16H191.32V76.92H193.08V75.16ZM194.84 76.92H196.6V75.16H194.84V76.92ZM196.6 75.16V76.92H198.36V75.16H196.6ZM200.12 75.16H198.36V76.92H200.12V75.16ZM201.88 75.16V76.92H203.64V75.16H201.88ZM205.4 76.92H207.16V75.16H205.4V76.92ZM207.16 75.16V76.92H208.92V75.16H207.16ZM208.92 75.16V76.92H210.68V75.16H208.92ZM210.68 75.16V76.92H212.44V75.16H210.68ZM212.44 75.16V76.92H214.2V75.16H212.44ZM214.2 75.16V76.92H215.96V75.16H214.2ZM221.24 76.92V75.16H219.48V76.92H221.24ZM198.36 78.68V76.92H196.6V78.68H198.36ZM200.12 78.68H201.88V76.92H200.12V78.68ZM201.88 76.92V78.68H203.64V76.92H201.88ZM207.16 78.68V76.92H205.4V78.68H207.16ZM207.16 76.92V78.68H208.92V76.92H207.16ZM214.2 76.92V78.68H215.96V76.92H214.2ZM215.96 76.92V78.68H217.72V76.92H215.96ZM221.24 76.92V78.68H223V76.92H221.24ZM193.08 78.68V80.44H194.84V78.68H193.08ZM198.36 80.44H200.12V78.68H198.36V80.44ZM200.12 78.68V80.44H201.88V78.68H200.12ZM201.88 78.68V80.44H203.64V78.68H201.88ZM205.4 78.68H203.64V80.44H205.4V78.68ZM207.16 78.68V80.44H208.92V78.68H207.16ZM210.68 78.68V80.44H212.44V78.68H210.68ZM214.2 78.68V80.44H215.96V78.68H214.2ZM217.72 78.68H215.96V80.44H217.72V78.68ZM219.48 78.68V80.44H221.24V78.68H219.48ZM193.08 80.44V82.2H194.84V80.44H193.08ZM200.12 80.44V82.2H201.88V80.44H200.12ZM205.4 82.2H207.16V80.44H205.4V82.2ZM207.16 80.44V82.2H208.92V80.44H207.16ZM214.2 80.44V82.2H215.96V80.44H214.2ZM217.72 80.44V82.2H219.48V80.44H217.72ZM193.08 82.2V83.96H194.84V82.2H193.08ZM196.6 83.96H198.36V82.2H196.6V83.96ZM198.36 82.2V83.96H200.12V82.2H198.36ZM200.12 82.2V83.96H201.88V82.2H200.12ZM203.64 83.96H205.4V82.2H203.64V83.96ZM205.4 82.2V83.96H207.16V82.2H205.4ZM207.16 82.2V83.96H208.92V82.2H207.16ZM208.92 82.2V83.96H210.68V82.2H208.92ZM210.68 82.2V83.96H212.44V82.2H210.68ZM212.44 82.2V83.96H214.2V82.2H212.44ZM214.2 82.2V83.96H215.96V82.2H214.2ZM219.48 83.96H221.24V82.2H219.48V83.96ZM223 82.2H221.24V83.96H223V82.2ZM193.08 83.96V85.72H194.84V83.96H193.08ZM196.6 83.96H194.84V85.72H196.6V83.96ZM201.88 85.72V83.96H200.12V85.72H201.88ZM203.64 83.96H201.88V85.72H203.64V83.96ZM210.68 85.72V83.96H208.92V85.72H210.68ZM210.68 83.96V85.72H212.44V83.96H210.68ZM215.96 85.72V83.96H214.2V85.72H215.96ZM217.72 85.72H219.48V83.96H217.72V85.72ZM221.24 83.96H219.48V85.72H221.24V83.96ZM194.84 87.48V85.72H193.08V87.48H194.84ZM196.6 85.72V87.48H198.36V85.72H196.6ZM210.68 85.72V87.48H212.44V85.72H210.68ZM221.24 85.72V87.48H223V85.72H221.24ZM196.6 87.48V89.24H198.36V87.48H196.6ZM198.36 87.48V89.24H200.12V87.48H198.36ZM200.12 87.48V89.24H201.88V87.48H200.12ZM203.64 89.24H205.4V87.48H203.64V89.24ZM205.4 87.48V89.24H207.16V87.48H205.4ZM208.92 87.48H207.16V89.24H208.92V87.48ZM210.68 87.48V89.24H212.44V87.48H210.68ZM215.96 87.48V89.24H217.72V87.48H215.96ZM221.24 87.48V89.24H223V87.48H221.24ZM194.84 91H196.6V89.24H194.84V91ZM196.6 89.24V91H198.36V89.24H196.6ZM198.36 89.24V91H200.12V89.24H198.36ZM200.12 89.24V91H201.88V89.24H200.12ZM201.88 89.24V91H203.64V89.24H201.88ZM203.64 89.24V91H205.4V89.24H203.64ZM207.16 89.24H205.4V91H207.16V89.24ZM208.92 91H210.68V89.24H208.92V91ZM210.68 89.24V91H212.44V89.24H210.68ZM214.2 89.24H212.44V91H214.2V89.24ZM217.72 91V89.24H215.96V91H217.72ZM217.72 89.24V91H219.48V89.24H217.72ZM219.48 89.24V91H221.24V89.24H219.48ZM223 89.24H221.24V91H223V89.24Z" fill="black"/>
<path d="M179 48.76H180.76V47H179V48.76ZM180.76 47V48.76H182.52V47H180.76ZM182.52 47V48.76H184.28V47H182.52ZM184.28 47V48.76H186.04V47H184.28ZM186.04 47V48.76H187.8V47H186.04ZM187.8 47V48.76H189.56V47H187.8ZM189.56 47V48.76H191.32V47H189.56ZM179 48.76V50.52H180.76V48.76H179ZM189.56 48.76V50.52H191.32V48.76H189.56ZM179 50.52V52.28H180.76V50.52H179ZM189.56 50.52V52.28H191.32V50.52H189.56ZM179 52.28V54.04H180.76V52.28H179ZM189.56 52.28V54.04H191.32V52.28H189.56ZM179 54.04V55.8H180.76V54.04H179ZM189.56 54.04V55.8H191.32V54.04H189.56ZM179 55.8V57.56H180.76V55.8H179ZM189.56 55.8V57.56H191.32V55.8H189.56ZM180.76 59.32V57.56H179V59.32H180.76ZM180.76 57.56V59.32H182.52V57.56H180.76ZM182.52 57.56V59.32H184.28V57.56H182.52ZM184.28 57.56V59.32H186.04V57.56H184.28ZM186.04 57.56V59.32H187.8V57.56H186.04ZM187.8 57.56V59.32H189.56V57.56H187.8ZM191.32 57.56H189.56V59.32H191.32V57.56Z" fill="black"/>
<path d="M179 80.44H180.76V78.68H179V80.44ZM180.76 78.68V80.44H182.52V78.68H180.76ZM182.52 78.68V80.44H184.28V78.68H182.52ZM184.28 78.68V80.44H186.04V78.68H184.28ZM186.04 78.68V80.44H187.8V78.68H186.04ZM187.8 78.68V80.44H189.56V78.68H187.8ZM189.56 78.68V80.44H191.32V78.68H189.56ZM179 80.44V82.2H180.76V80.44H179ZM189.56 80.44V82.2H191.32V80.44H189.56ZM179 82.2V83.96H180.76V82.2H179ZM189.56 82.2V83.96H191.32V82.2H189.56ZM179 83.96V85.72H180.76V83.96H179ZM189.56 83.96V85.72H191.32V83.96H189.56ZM179 85.72V87.48H180.76V85.72H179ZM189.56 85.72V87.48H191.32V85.72H189.56ZM179 87.48V89.24H180.76V87.48H179ZM189.56 87.48V89.24H191.32V87.48H189.56ZM180.76 91V89.24H179V91H180.76ZM180.76 89.24V91H182.52V89.24H180.76ZM182.52 89.24V91H184.28V89.24H182.52ZM184.28 89.24V91H186.04V89.24H184.28ZM186.04 89.24V91H187.8V89.24H186.04ZM187.8 89.24V91H189.56V89.24H187.8ZM191.32 89.24H189.56V91H191.32V89.24Z" fill="black"/>
<path d="M210.68 48.76H212.44V47H210.68V48.76ZM212.44 47V48.76H214.2V47H212.44ZM214.2 47V48.76H215.96V47H214.2ZM215.96 47V48.76H217.72V47H215.96ZM217.72 47V48.76H219.48V47H217.72ZM219.48 47V48.76H221.24V47H219.48ZM221.24 47V48.76H223V47H221.24ZM210.68 48.76V50.52H212.44V48.76H210.68ZM221.24 48.76V50.52H223V48.76H221.24ZM210.68 50.52V52.28H212.44V50.52H210.68ZM221.24 50.52V52.28H223V50.52H221.24ZM210.68 52.28V54.04H212.44V52.28H210.68ZM221.24 52.28V54.04H223V52.28H221.24ZM210.68 54.04V55.8H212.44V54.04H210.68ZM221.24 54.04V55.8H223V54.04H221.24ZM210.68 55.8V57.56H212.44V55.8H210.68ZM221.24 55.8V57.56H223V55.8H221.24ZM212.44 59.32V57.56H210.68V59.32H212.44ZM212.44 57.56V59.32H214.2V57.56H212.44ZM214.2 57.56V59.32H215.96V57.56H214.2ZM215.96 57.56V59.32H217.72V57.56H215.96ZM217.72 57.56V59.32H219.48V57.56H217.72ZM219.48 57.56V59.32H221.24V57.56H219.48ZM223 57.56H221.24V59.32H223V57.56Z" fill="black"/>
<path d="M182.52 52.28H184.28V50.52H182.52V52.28ZM184.28 50.52V52.28H186.04V50.52H184.28ZM186.04 50.52V52.28H187.8V50.52H186.04ZM182.52 52.28V54.04H184.28V52.28H182.52ZM184.28 52.28V54.04H186.04V52.28H184.28ZM186.04 52.28V54.04H187.8V52.28H186.04ZM184.28 55.8V54.04H182.52V55.8H184.28ZM184.28 54.04V55.8H186.04V54.04H184.28ZM187.8 54.04H186.04V55.8H187.8V54.04Z" fill="black"/>
<path d="M182.52 83.96H184.28V82.2H182.52V83.96ZM184.28 82.2V83.96H186.04V82.2H184.28ZM186.04 82.2V83.96H187.8V82.2H186.04ZM182.52 83.96V85.72H184.28V83.96H182.52ZM184.28 83.96V85.72H186.04V83.96H184.28ZM186.04 83.96V85.72H187.8V83.96H186.04ZM184.28 87.48V85.72H182.52V87.48H184.28ZM184.28 85.72V87.48H186.04V85.72H184.28ZM187.8 85.72H186.04V87.48H187.8V85.72Z" fill="black"/>
<path d="M214.2 52.28H215.96V50.52H214.2V52.28ZM215.96 50.52V52.28H217.72V50.52H215.96ZM217.72 50.52V52.28H219.48V50.52H217.72ZM214.2 52.28V54.04H215.96V52.28H214.2ZM215.96 52.28V54.04H217.72V52.28H215.96ZM217.72 52.28V54.04H219.48V52.28H217.72ZM215.96 55.8V54.04H214.2V55.8H215.96ZM215.96 54.04V55.8H217.72V54.04H215.96ZM219.48 54.04H217.72V55.8H219.48V54.04Z" fill="black"/>
</g>
<path d="M85.9932 42.237L88.1254 47.9026L90.2526 42.237H91.9127V49.6287H90.6333V47.1919L90.7602 43.9326L88.5772 49.6287H87.6583L85.4804 43.9377L85.6073 47.1919V49.6287H84.328V42.237H85.9932Z" fill="white"/>
<path d="M95.7354 49.7302C94.9536 49.7302 94.319 49.4848 93.8317 48.9941C93.3477 48.5 93.1057 47.8434 93.1057 47.0243V46.872C93.1057 46.3237 93.2106 45.8347 93.4205 45.4048C93.6337 44.9716 93.9315 44.6349 94.314 44.3946C94.6964 44.1543 95.1229 44.0341 95.5933 44.0341C96.3413 44.0341 96.9183 44.2727 97.3245 44.7499C97.734 45.2272 97.9388 45.9024 97.9388 46.7756V47.2731H94.3495C94.3867 47.7266 94.5373 48.0854 94.8013 48.3493C95.0687 48.6133 95.4038 48.7453 95.8065 48.7453C96.3717 48.7453 96.832 48.5169 97.1874 48.06L97.8524 48.6946C97.6325 49.0229 97.338 49.2784 96.9691 49.4612C96.6036 49.6405 96.1924 49.7302 95.7354 49.7302ZM95.5882 45.0241C95.2498 45.0241 94.9756 45.1425 94.7658 45.3795C94.5593 45.6164 94.4273 45.9464 94.3698 46.3694H96.7203V46.278C96.6933 45.8651 96.5833 45.5538 96.3903 45.3439C96.1974 45.1307 95.9301 45.0241 95.5882 45.0241Z" fill="white"/>
<path d="M104.66 47.2223C104.586 48.0109 104.295 48.6269 103.787 49.0702C103.279 49.5102 102.604 49.7302 101.762 49.7302C101.173 49.7302 100.653 49.5915 100.203 49.3139C99.7562 49.033 99.411 48.6353 99.1673 48.1209C98.9236 47.6065 98.7967 47.0091 98.7866 46.3288V45.6384C98.7866 44.9412 98.9101 44.3269 99.1572 43.7955C99.4042 43.2641 99.7579 42.8546 100.218 42.5669C100.682 42.2793 101.217 42.1354 101.822 42.1354C102.638 42.1354 103.295 42.3571 103.792 42.8005C104.29 43.2438 104.579 43.87 104.66 44.6789H103.381C103.32 44.1475 103.164 43.765 102.914 43.5315C102.667 43.2946 102.303 43.1761 101.822 43.1761C101.264 43.1761 100.834 43.3809 100.533 43.7904C100.235 44.1966 100.083 44.7939 100.076 45.5825V46.2374C100.076 47.0362 100.218 47.6454 100.503 48.0651C100.79 48.4847 101.21 48.6946 101.762 48.6946C102.266 48.6946 102.645 48.5812 102.899 48.3544C103.153 48.1277 103.313 47.7503 103.381 47.2223H104.66Z" fill="white"/>
<path d="M108.976 49.6287C108.921 49.5238 108.874 49.3529 108.833 49.1159C108.441 49.5255 107.96 49.7302 107.392 49.7302C106.84 49.7302 106.39 49.5728 106.041 49.2581C105.693 48.9433 105.518 48.5541 105.518 48.0904C105.518 47.5049 105.735 47.0565 106.168 46.7451C106.605 46.4303 107.228 46.273 108.036 46.273H108.793V45.9125C108.793 45.6282 108.713 45.4015 108.554 45.2322C108.395 45.0596 108.153 44.9733 107.828 44.9733C107.547 44.9733 107.317 45.0444 107.138 45.1865C106.958 45.3253 106.869 45.503 106.869 45.7196H105.635C105.635 45.4184 105.735 45.1375 105.935 44.8769C106.134 44.6129 106.405 44.4064 106.747 44.2575C107.092 44.1086 107.476 44.0341 107.899 44.0341C108.542 44.0341 109.055 44.1966 109.438 44.5215C109.82 44.843 110.016 45.2965 110.026 45.8821V48.3595C110.026 48.8536 110.096 49.2479 110.235 49.5424V49.6287H108.976ZM107.62 48.7403C107.864 48.7403 108.092 48.681 108.305 48.5626C108.522 48.4441 108.685 48.285 108.793 48.0854V47.0497H108.128C107.671 47.0497 107.327 47.1292 107.097 47.2883C106.867 47.4474 106.752 47.6725 106.752 47.9635C106.752 48.2004 106.83 48.39 106.986 48.5321C107.145 48.6709 107.356 48.7403 107.62 48.7403Z" fill="white"/>
<path d="M114.194 45.2627C114.032 45.2356 113.865 45.2221 113.692 45.2221C113.127 45.2221 112.746 45.4387 112.55 45.8719V49.6287H111.316V44.1357H112.494L112.524 44.7499C112.822 44.2727 113.235 44.0341 113.763 44.0341C113.939 44.0341 114.084 44.0578 114.2 44.1052L114.194 45.2627Z" fill="white"/>
<path d="M114.641 46.8416C114.641 45.9954 114.838 45.3168 115.23 44.8058C115.623 44.2913 116.149 44.0341 116.809 44.0341C117.391 44.0341 117.862 44.2372 118.22 44.6433V41.8308H119.454V49.6287H118.337L118.276 49.0601C117.907 49.5068 117.415 49.7302 116.799 49.7302C116.156 49.7302 115.635 49.4713 115.235 48.9535C114.839 48.4357 114.641 47.7317 114.641 46.8416ZM115.875 46.9482C115.875 47.5066 115.982 47.9432 116.195 48.258C116.411 48.5693 116.718 48.725 117.114 48.725C117.618 48.725 117.987 48.5 118.22 48.0498V45.7044C117.994 45.2644 117.628 45.0444 117.124 45.0444C116.724 45.0444 116.416 45.2035 116.2 45.5216C115.983 45.8364 115.875 46.3119 115.875 46.9482Z" fill="white"/>
<path opacity="0.2" d="M151.717 149.411C151.793 144.285 156.01 140.192 161.135 140.268L328.186 142.75C333.311 142.826 337.405 147.043 337.329 152.168L336.088 235.694C336.012 240.819 331.795 244.912 326.669 244.836L159.618 242.354C154.493 242.278 150.4 238.062 150.476 232.936L151.717 149.411Z" fill="#26BDC5"/>
<path d="M142.057 138.993C142.365 133.876 146.763 129.978 151.88 130.286L318.647 140.335C323.763 140.644 327.661 145.042 327.353 150.158L322.329 233.542C322.02 238.659 317.622 242.557 312.506 242.248L145.739 232.199C140.622 231.891 136.724 227.493 137.032 222.376L142.057 138.993Z" fill="#12C7D0"/>
<path opacity="0.1" d="M214 188.5L262.5 164L318.173 140.607C323.289 140.915 327.188 145.313 326.879 150.43L321.855 233.814C321.546 238.93 317.148 242.829 312.032 242.52L145.265 232.471C140.148 232.163 136.25 227.765 136.558 222.648L214 188.5Z" fill="white"/>
<path opacity="0.3" d="M155.084 168.81C155.177 167.275 156.496 166.106 158.031 166.198L200.65 168.766C202.185 168.859 203.354 170.178 203.262 171.713V171.713C203.169 173.248 201.85 174.418 200.315 174.325L157.696 171.757C156.161 171.665 154.992 170.345 155.084 168.81V168.81Z" fill="white"/>
<g opacity="0.3">
<path d="M153.475 196.402C153.537 195.378 154.416 194.599 155.44 194.66L164.704 195.219C165.728 195.28 166.507 196.16 166.446 197.183L165.887 206.448C165.826 207.471 164.946 208.251 163.923 208.189L154.658 207.631C153.635 207.569 152.855 206.69 152.917 205.666L153.475 196.402Z" fill="white"/>
<path d="M172.931 197.574C172.993 196.551 173.872 195.771 174.896 195.833L184.161 196.391C185.184 196.453 185.964 197.332 185.902 198.356L185.344 207.62C185.282 208.644 184.402 209.423 183.379 209.362L174.114 208.803C173.091 208.742 172.311 207.862 172.373 206.839L172.931 197.574Z" fill="white"/>
<path d="M192.387 198.746C192.449 197.723 193.329 196.943 194.352 197.005L203.617 197.563C204.64 197.625 205.42 198.505 205.358 199.528L204.8 208.793C204.738 209.816 203.859 210.596 202.835 210.534L193.57 209.976C192.547 209.914 191.767 209.035 191.829 208.011L192.387 198.746Z" fill="white"/>
<path d="M211.79 199.916C211.852 198.892 212.732 198.113 213.755 198.174L223.02 198.733C224.043 198.794 224.823 199.674 224.761 200.697L224.203 209.962C224.141 210.985 223.262 211.765 222.238 211.703L212.973 211.145C211.95 211.083 211.171 210.204 211.232 209.18L211.79 199.916Z" fill="white"/>
</g>
<g opacity="0.3">
<path d="M154.526 178.075C154.588 177.052 155.467 176.272 156.491 176.334L237.095 181.191C238.118 181.252 238.898 182.132 238.836 183.155V183.155C238.774 184.179 237.895 184.958 236.871 184.897L156.267 180.04C155.244 179.978 154.464 179.098 154.526 178.075V178.075Z" fill="white"/>
<path d="M154.08 185.487C154.141 184.464 155.021 183.684 156.044 183.746L218.118 187.486C219.142 187.548 219.921 188.427 219.86 189.451V189.451C219.798 190.474 218.918 191.254 217.895 191.192L155.821 187.452C154.797 187.39 154.018 186.51 154.08 185.487V185.487Z" fill="white"/>
</g>
<path d="M251.666 155.811C251.696 155.307 252.135 154.925 252.647 154.955L311.015 158.474C311.527 158.505 311.917 158.938 311.887 159.441L308.426 216.841C308.396 217.345 307.957 217.728 307.445 217.697L249.077 214.178C248.565 214.147 248.175 213.714 248.205 213.211L251.666 155.811Z" fill="white"/>
<g clip-path="url(#clip1)">
<path d="M310.445 160.084L252.949 156.618L249.555 212.916L307.051 216.382L310.445 160.084Z" fill="white"/>
<path d="M266.807 162.162L266.738 163.306L267.906 163.377L267.975 162.232L266.807 162.162ZM269.075 163.447L270.244 163.518L270.313 162.373L269.144 162.303L269.075 163.447ZM271.481 162.444L270.313 162.373L270.244 163.518L271.412 163.588L271.481 162.444ZM274.918 163.799L276.087 163.87L276.156 162.726L274.987 162.655L274.918 163.799ZM276.156 162.726L276.087 163.87L277.255 163.94L277.324 162.796L276.156 162.726ZM278.493 162.866L278.424 164.011L279.593 164.081L279.662 162.937L278.493 162.866ZM281.999 163.078L281.93 164.222L283.099 164.293L283.168 163.148L281.999 163.078ZM287.773 164.574L288.942 164.645L289.011 163.501L287.842 163.43L287.773 164.574ZM290.179 163.571L289.011 163.501L288.942 164.645L290.11 164.715L290.179 163.571ZM291.348 163.641L291.279 164.786L292.448 164.856L292.517 163.712L291.348 163.641ZM294.854 163.853L294.785 164.997L295.954 165.068L296.022 163.923L294.854 163.853ZM267.837 164.521L269.006 164.591L269.075 163.447L267.906 163.377L267.837 164.521ZM270.244 163.518L269.075 163.447L269.006 164.591L270.175 164.662L270.244 163.518ZM271.343 164.732L272.512 164.803L272.581 163.658L271.412 163.588L271.343 164.732ZM272.581 163.658L272.512 164.803L273.681 164.873L273.75 163.729L272.581 163.658ZM273.75 163.729L273.681 164.873L274.849 164.944L274.918 163.799L273.75 163.729ZM274.918 163.799L274.849 164.944L276.018 165.014L276.087 163.87L274.918 163.799ZM277.255 163.94L276.087 163.87L276.018 165.014L277.186 165.085L277.255 163.94ZM279.524 165.225L279.593 164.081L278.424 164.011L278.355 165.155L279.524 165.225ZM280.692 165.296L281.861 165.366L281.93 164.222L280.761 164.152L280.692 165.296ZM281.93 164.222L281.861 165.366L283.03 165.437L283.099 164.293L281.93 164.222ZM284.267 164.363L283.099 164.293L283.03 165.437L284.198 165.507L284.267 164.363ZM286.535 165.648L287.704 165.719L287.773 164.574L286.604 164.504L286.535 165.648ZM287.773 164.574L287.704 165.719L288.873 165.789L288.942 164.645L287.773 164.574ZM290.11 164.715L290.041 165.86L291.21 165.93L291.279 164.786L290.11 164.715ZM295.885 166.212L295.954 165.068L294.785 164.997L294.716 166.141L295.885 166.212ZM270.106 165.806L271.274 165.877L271.343 164.732L270.175 164.662L270.106 165.806ZM271.343 164.732L271.274 165.877L272.443 165.947L272.512 164.803L271.343 164.732ZM272.512 164.803L272.443 165.947L273.612 166.018L273.681 164.873L272.512 164.803ZM273.681 164.873L273.612 166.018L274.78 166.088L274.849 164.944L273.681 164.873ZM276.018 165.014L274.849 164.944L274.78 166.088L275.949 166.158L276.018 165.014ZM277.186 165.085L277.117 166.229L278.286 166.299L278.355 165.155L277.186 165.085ZM279.524 165.225L279.455 166.37L280.623 166.44L280.692 165.296L279.524 165.225ZM281.861 165.366L281.792 166.511L282.961 166.581L283.03 165.437L281.861 165.366ZM284.129 166.652L285.298 166.722L285.367 165.578L284.198 165.507L284.129 166.652ZM285.367 165.578L285.298 166.722L286.467 166.792L286.535 165.648L285.367 165.578ZM286.535 165.648L286.467 166.792L287.635 166.863L287.704 165.719L286.535 165.648ZM287.704 165.719L287.635 166.863L288.804 166.933L288.873 165.789L287.704 165.719ZM290.041 165.86L288.873 165.789L288.804 166.933L289.972 167.004L290.041 165.86ZM292.379 166L292.31 167.145L293.478 167.215L293.547 166.071L292.379 166ZM267.699 166.81L268.868 166.88L268.937 165.736L267.768 165.665L267.699 166.81ZM268.937 165.736L268.868 166.88L270.037 166.95L270.106 165.806L268.937 165.736ZM270.106 165.806L270.037 166.95L271.205 167.021L271.274 165.877L270.106 165.806ZM271.274 165.877L271.205 167.021L272.374 167.091L272.443 165.947L271.274 165.877ZM272.443 165.947L272.374 167.091L273.543 167.162L273.612 166.018L272.443 165.947ZM274.78 166.088L273.612 166.018L273.543 167.162L274.711 167.232L274.78 166.088ZM277.117 166.229L277.049 167.373L278.217 167.444L278.286 166.299L277.117 166.229ZM280.554 167.585L280.623 166.44L279.455 166.37L279.386 167.514L280.554 167.585ZM280.623 166.44L280.554 167.585L281.723 167.655L281.792 166.511L280.623 166.44ZM281.792 166.511L281.723 167.655L282.892 167.725L282.961 166.581L281.792 166.511ZM282.961 166.581L282.892 167.725L284.06 167.796L284.129 166.652L282.961 166.581ZM285.298 166.722L285.229 167.866L286.398 167.937L286.467 166.792L285.298 166.722ZM291.072 168.219L292.241 168.289L292.31 167.145L291.141 167.074L291.072 168.219ZM292.31 167.145L292.241 168.289L293.409 168.359L293.478 167.215L292.31 167.145ZM293.478 167.215L293.409 168.359L294.578 168.43L294.647 167.286L293.478 167.215ZM266.462 167.883L267.63 167.954L267.699 166.81L266.531 166.739L266.462 167.883ZM267.699 166.81L267.63 167.954L268.799 168.024L268.868 166.88L267.699 166.81ZM271.136 168.165L271.205 167.021L270.037 166.95L269.968 168.095L271.136 168.165ZM273.474 168.306L273.543 167.162L272.374 167.091L272.305 168.236L273.474 168.306ZM274.642 168.377L275.811 168.447L275.88 167.303L274.711 167.232L274.642 168.377ZM275.88 167.303L275.811 168.447L276.98 168.517L277.049 167.373L275.88 167.303ZM277.049 167.373L276.98 168.517L278.148 168.588L278.217 167.444L277.049 167.373ZM282.823 168.87L282.892 167.725L281.723 167.655L281.654 168.799L282.823 168.87ZM284.06 167.796L282.892 167.725L282.823 168.87L283.991 168.94L284.06 167.796ZM286.329 169.081L286.398 167.937L285.229 167.866L285.16 169.011L286.329 169.081ZM287.566 168.007L286.398 167.937L286.329 169.081L287.497 169.152L287.566 168.007ZM289.903 168.148L289.834 169.292L291.003 169.363L291.072 168.219L289.903 168.148ZM292.241 168.289L292.172 169.433L293.34 169.504L293.409 168.359L292.241 168.289ZM293.409 168.359L293.34 169.504L294.509 169.574L294.578 168.43L293.409 168.359ZM294.578 168.43L294.509 169.574L295.678 169.645L295.747 168.5L294.578 168.43ZM268.73 169.169L268.799 168.024L267.63 167.954L267.562 169.098L268.73 169.169ZM273.405 169.45L274.573 169.521L274.642 168.377L273.474 168.306L273.405 169.45ZM275.811 168.447L274.642 168.377L274.573 169.521L275.742 169.591L275.811 168.447ZM278.079 169.732L278.148 168.588L276.98 168.517L276.911 169.662L278.079 169.732ZM278.148 168.588L278.079 169.732L279.248 169.803L279.317 168.658L278.148 168.588ZM280.485 168.729L280.416 169.873L281.585 169.944L281.654 168.799L280.485 168.729ZM287.497 169.152L287.428 170.296L288.597 170.366L288.666 169.222L287.497 169.152ZM290.934 170.507L292.103 170.578L292.172 169.433L291.003 169.363L290.934 170.507ZM292.172 169.433L292.103 170.578L293.271 170.648L293.34 169.504L292.172 169.433ZM293.34 169.504L293.271 170.648L294.44 170.719L294.509 169.574L293.34 169.504ZM294.509 169.574L294.44 170.719L295.609 170.789L295.678 169.645L294.509 169.574ZM266.393 169.028L266.324 170.172L267.493 170.242L267.562 169.098L266.393 169.028ZM268.73 169.169L268.661 170.313L269.83 170.383L269.899 169.239L268.73 169.169ZM271.067 169.309L270.998 170.454L272.167 170.524L272.236 169.38L271.067 169.309ZM274.504 170.665L274.573 169.521L273.405 169.45L273.336 170.595L274.504 170.665ZM275.742 169.591L275.673 170.736L276.842 170.806L276.911 169.662L275.742 169.591ZM278.079 169.732L278.01 170.876L279.179 170.947L279.248 169.803L278.079 169.732ZM280.416 169.873L280.347 171.017L281.516 171.088L281.585 169.944L280.416 169.873ZM282.754 170.014L282.685 171.158L283.853 171.229L283.922 170.084L282.754 170.014ZM285.091 170.155L285.022 171.299L286.191 171.37L286.26 170.225L285.091 170.155ZM287.428 170.296L287.359 171.44L288.528 171.511L288.597 170.366L287.428 170.296ZM289.765 170.437L289.696 171.581L290.865 171.651L290.934 170.507L289.765 170.437ZM292.103 170.578L292.034 171.722L293.202 171.792L293.271 170.648L292.103 170.578ZM294.44 170.719L294.371 171.863L295.54 171.933L295.609 170.789L294.44 170.719ZM266.324 170.172L266.255 171.316L267.424 171.387L267.493 170.242L266.324 170.172ZM268.661 170.313L267.493 170.242L267.424 171.387L268.592 171.457L268.661 170.313ZM269.761 171.528L270.929 171.598L270.998 170.454L269.83 170.383L269.761 171.528ZM270.998 170.454L270.929 171.598L272.098 171.668L272.167 170.524L270.998 170.454ZM273.336 170.595L272.167 170.524L272.098 171.668L273.267 171.739L273.336 170.595ZM278.01 170.876L277.941 172.021L279.11 172.091L279.179 170.947L278.01 170.876ZM281.447 172.232L281.516 171.088L280.347 171.017L280.278 172.162L281.447 172.232ZM286.122 172.514L287.29 172.584L287.359 171.44L286.191 171.37L286.122 172.514ZM287.359 171.44L287.29 172.584L288.459 172.655L288.528 171.511L287.359 171.44ZM289.696 171.581L289.627 172.725L290.796 172.796L290.865 171.651L289.696 171.581ZM290.865 171.651L290.796 172.796L291.965 172.866L292.034 171.722L290.865 171.651ZM292.034 171.722L291.965 172.866L293.133 172.937L293.202 171.792L292.034 171.722ZM293.202 171.792L293.133 172.937L294.302 173.007L294.371 171.863L293.202 171.792ZM294.371 171.863L294.302 173.007L295.471 173.078L295.54 171.933L294.371 171.863ZM256.906 170.753L256.837 171.897L258.006 171.967L258.075 170.823L256.906 170.753ZM260.343 172.108L261.511 172.179L261.58 171.034L260.412 170.964L260.343 172.108ZM261.58 171.034L261.511 172.179L262.68 172.249L262.749 171.105L261.58 171.034ZM262.749 171.105L262.68 172.249L263.849 172.32L263.918 171.175L262.749 171.105ZM263.918 171.175L263.849 172.32L265.017 172.39L265.086 171.246L263.918 171.175ZM265.086 171.246L265.017 172.39L266.186 172.46L266.255 171.316L265.086 171.246ZM266.255 171.316L266.186 172.46L267.355 172.531L267.424 171.387L266.255 171.316ZM268.523 172.601L269.692 172.672L269.761 171.528L268.592 171.457L268.523 172.601ZM270.929 171.598L269.761 171.528L269.692 172.672L270.86 172.742L270.929 171.598ZM273.198 172.883L274.366 172.954L274.435 171.809L273.267 171.739L273.198 172.883ZM274.435 171.809L274.366 172.954L275.535 173.024L275.604 171.88L274.435 171.809ZM275.604 171.88L275.535 173.024L276.704 173.095L276.773 171.95L275.604 171.88ZM277.941 172.021L277.872 173.165L279.041 173.235L279.11 172.091L277.941 172.021ZM279.11 172.091L279.041 173.235L280.209 173.306L280.278 172.162L279.11 172.091ZM282.616 172.303L282.547 173.447L283.715 173.517L283.784 172.373L282.616 172.303ZM286.122 172.514L286.053 173.658L287.221 173.729L287.29 172.584L286.122 172.514ZM288.459 172.655L287.29 172.584L287.221 173.729L288.39 173.799L288.459 172.655ZM289.627 172.725L289.558 173.87L290.727 173.94L290.796 172.796L289.627 172.725ZM293.133 172.937L293.064 174.081L294.233 174.151L294.302 173.007L293.133 172.937ZM294.302 173.007L294.233 174.151L295.402 174.222L295.471 173.078L294.302 173.007ZM295.471 173.078L295.402 174.222L296.57 174.292L296.639 173.148L295.471 173.078ZM296.639 173.148L296.57 174.292L297.739 174.363L297.808 173.218L296.639 173.148ZM298.976 173.289L298.908 174.433L300.076 174.504L300.145 173.359L298.976 173.289ZM303.651 173.571L303.582 174.715L304.751 174.785L304.82 173.641L303.651 173.571ZM257.937 173.112L258.006 171.967L256.837 171.897L256.768 173.041L257.937 173.112ZM258.006 171.967L257.937 173.112L259.105 173.182L259.174 172.038L258.006 171.967ZM261.442 173.323L261.511 172.179L260.343 172.108L260.274 173.253L261.442 173.323ZM261.511 172.179L261.442 173.323L262.611 173.393L262.68 172.249L261.511 172.179ZM263.849 172.32L262.68 172.249L262.611 173.393L263.78 173.464L263.849 172.32ZM266.117 173.605L266.186 172.46L265.017 172.39L264.948 173.534L266.117 173.605ZM267.355 172.531L266.186 172.46L266.117 173.605L267.286 173.675L267.355 172.531ZM270.791 173.887L271.96 173.957L272.029 172.813L270.86 172.742L270.791 173.887ZM272.029 172.813L271.96 173.957L273.129 174.027L273.198 172.883L272.029 172.813ZM273.198 172.883L273.129 174.027L274.297 174.098L274.366 172.954L273.198 172.883ZM274.366 172.954L274.297 174.098L275.466 174.168L275.535 173.024L274.366 172.954ZM275.535 173.024L275.466 174.168L276.635 174.239L276.704 173.095L275.535 173.024ZM276.704 173.095L276.635 174.239L277.803 174.309L277.872 173.165L276.704 173.095ZM277.872 173.165L277.803 174.309L278.972 174.38L279.041 173.235L277.872 173.165ZM279.041 173.235L278.972 174.38L280.14 174.45L280.209 173.306L279.041 173.235ZM283.646 174.662L283.715 173.517L282.547 173.447L282.478 174.591L283.646 174.662ZM284.884 173.588L283.715 173.517L283.646 174.662L284.815 174.732L284.884 173.588ZM287.152 174.873L287.221 173.729L286.053 173.658L285.984 174.802L287.152 174.873ZM290.658 175.084L290.727 173.94L289.558 173.87L289.49 175.014L290.658 175.084ZM291.827 175.155L292.995 175.225L293.064 174.081L291.896 174.01L291.827 175.155ZM293.064 174.081L292.995 175.225L294.164 175.296L294.233 174.151L293.064 174.081ZM295.402 174.222L295.333 175.366L296.501 175.437L296.57 174.292L295.402 174.222ZM297.739 174.363L296.57 174.292L296.501 175.437L297.67 175.507L297.739 174.363ZM300.007 175.648L300.076 174.504L298.908 174.433L298.839 175.577L300.007 175.648ZM300.076 174.504L300.007 175.648L301.176 175.718L301.245 174.574L300.076 174.504ZM301.245 174.574L301.176 175.718L302.344 175.789L302.413 174.645L301.245 174.574ZM259.036 174.326L259.105 173.182L257.937 173.112L257.868 174.256L259.036 174.326ZM259.105 173.182L259.036 174.326L260.205 174.397L260.274 173.253L259.105 173.182ZM261.442 173.323L261.373 174.467L262.542 174.538L262.611 173.393L261.442 173.323ZM263.78 173.464L263.711 174.608L264.879 174.679L264.948 173.534L263.78 173.464ZM267.217 174.82L268.385 174.89L268.454 173.746L267.286 173.675L267.217 174.82ZM268.454 173.746L268.385 174.89L269.554 174.96L269.623 173.816L268.454 173.746ZM270.791 173.887L269.623 173.816L269.554 174.96L270.722 175.031L270.791 173.887ZM273.129 174.027L273.06 175.172L274.228 175.242L274.297 174.098L273.129 174.027ZM276.635 174.239L276.566 175.383L277.734 175.454L277.803 174.309L276.635 174.239ZM277.803 174.309L277.734 175.454L278.903 175.524L278.972 174.38L277.803 174.309ZM278.972 174.38L278.903 175.524L280.071 175.594L280.14 174.45L278.972 174.38ZM280.14 174.45L280.071 175.594L281.24 175.665L281.309 174.521L280.14 174.45ZM288.321 174.943L288.252 176.088L289.421 176.158L289.49 175.014L288.321 174.943ZM292.995 175.225L292.926 176.369L294.095 176.44L294.164 175.296L292.995 175.225ZM296.432 176.581L296.501 175.437L295.333 175.366L295.264 176.51L296.432 176.581ZM301.176 175.718L301.107 176.863L302.275 176.933L302.344 175.789L301.176 175.718ZM303.513 175.859L302.344 175.789L302.275 176.933L303.444 177.004L303.513 175.859ZM259.036 174.326L258.967 175.471L260.136 175.541L260.205 174.397L259.036 174.326ZM262.473 175.682L262.542 174.538L261.373 174.467L261.304 175.612L262.473 175.682ZM268.316 176.034L268.385 174.89L267.217 174.82L267.148 175.964L268.316 176.034ZM271.822 176.246L272.991 176.316L273.06 175.172L271.891 175.101L271.822 176.246ZM273.06 175.172L272.991 176.316L274.159 176.387L274.228 175.242L273.06 175.172ZM274.228 175.242L274.159 176.387L275.328 176.457L275.397 175.313L274.228 175.242ZM275.397 175.313L275.328 176.457L276.497 176.527L276.566 175.383L275.397 175.313ZM276.566 175.383L276.497 176.527L277.665 176.598L277.734 175.454L276.566 175.383ZM277.734 175.454L277.665 176.598L278.834 176.668L278.903 175.524L277.734 175.454ZM280.071 175.594L280.003 176.739L281.171 176.809L281.24 175.665L280.071 175.594ZM282.409 175.735L281.24 175.665L281.171 176.809L282.34 176.88L282.409 175.735ZM283.577 175.806L283.508 176.95L284.677 177.021L284.746 175.876L283.577 175.806ZM290.589 176.229L290.52 177.373L291.689 177.443L291.758 176.299L290.589 176.229ZM294.026 177.584L294.095 176.44L292.926 176.369L292.857 177.514L294.026 177.584ZM296.432 176.581L296.363 177.725L297.532 177.796L297.601 176.651L296.432 176.581ZM299.869 177.936L301.038 178.007L301.107 176.863L299.938 176.792L299.869 177.936ZM301.107 176.863L301.038 178.007L302.206 178.077L302.275 176.933L301.107 176.863ZM256.63 175.33L256.561 176.474L257.73 176.544L257.799 175.4L256.63 175.33ZM260.067 176.685L260.136 175.541L258.967 175.471L258.898 176.615L260.067 176.685ZM263.573 176.897L264.741 176.967L264.81 175.823L263.642 175.752L263.573 176.897ZM265.979 175.893L264.81 175.823L264.741 176.967L265.91 177.038L265.979 175.893ZM272.922 177.46L272.991 176.316L271.822 176.246L271.753 177.39L272.922 177.46ZM278.765 177.813L278.834 176.668L277.665 176.598L277.596 177.742L278.765 177.813ZM278.834 176.668L278.765 177.813L279.934 177.883L280.003 176.739L278.834 176.668ZM281.171 176.809L280.003 176.739L279.934 177.883L281.102 177.953L281.171 176.809ZM284.608 178.165L285.777 178.235L285.846 177.091L284.677 177.021L284.608 178.165ZM287.014 177.161L285.846 177.091L285.777 178.235L286.945 178.306L287.014 177.161ZM289.283 178.447L290.451 178.517L290.52 177.373L289.352 177.302L289.283 178.447ZM290.52 177.373L290.451 178.517L291.62 178.588L291.689 177.443L290.52 177.373ZM292.857 177.514L291.689 177.443L291.62 178.588L292.788 178.658L292.857 177.514ZM293.957 178.728L295.126 178.799L295.195 177.655L294.026 177.584L293.957 178.728ZM295.195 177.655L295.126 178.799L296.294 178.869L296.363 177.725L295.195 177.655ZM298.632 179.01L299.8 179.081L299.869 177.936L298.701 177.866L298.632 179.01ZM299.869 177.936L299.8 179.081L300.969 179.151L301.038 178.007L299.869 177.936ZM301.038 178.007L300.969 179.151L302.137 179.222L302.206 178.077L301.038 178.007ZM302.206 178.077L302.137 179.222L303.306 179.292L303.375 178.148L302.206 178.077ZM304.544 178.218L303.375 178.148L303.306 179.292L304.475 179.363L304.544 178.218ZM256.561 176.474L256.492 177.618L257.661 177.689L257.73 176.544L256.561 176.474ZM258.898 176.615L257.73 176.544L257.661 177.689L258.829 177.759L258.898 176.615ZM268.247 177.179L268.178 178.323L269.347 178.393L269.416 177.249L268.247 177.179ZM272.853 178.605L274.021 178.675L274.09 177.531L272.922 177.46L272.853 178.605ZM274.09 177.531L274.021 178.675L275.19 178.746L275.259 177.601L274.09 177.531ZM276.428 177.672L276.359 178.816L277.527 178.886L277.596 177.742L276.428 177.672ZM279.865 179.027L279.934 177.883L278.765 177.813L278.696 178.957L279.865 179.027ZM281.033 179.098L282.202 179.168L282.271 178.024L281.102 177.953L281.033 179.098ZM282.271 178.024L282.202 179.168L283.37 179.239L283.439 178.094L282.271 178.024ZM284.608 178.165L283.439 178.094L283.37 179.239L284.539 179.309L284.608 178.165ZM286.945 178.306L286.876 179.45L288.045 179.52L288.114 178.376L286.945 178.306ZM289.283 178.447L289.214 179.591L290.382 179.661L290.451 178.517L289.283 178.447ZM290.451 178.517L290.382 179.661L291.551 179.732L291.62 178.588L290.451 178.517ZM292.719 179.802L293.888 179.873L293.957 178.728L292.788 178.658L292.719 179.802ZM293.957 178.728L293.888 179.873L295.057 179.943L295.126 178.799L293.957 178.728ZM296.294 178.869L295.126 178.799L295.057 179.943L296.225 180.014L296.294 178.869ZM297.463 178.94L297.394 180.084L298.563 180.155L298.632 179.01L297.463 178.94ZM300.9 180.295L300.969 179.151L299.8 179.081L299.731 180.225L300.9 180.295ZM302.137 179.222L300.969 179.151L300.9 180.295L302.068 180.366L302.137 179.222ZM257.592 178.833L257.661 177.689L256.492 177.618L256.423 178.763L257.592 178.833ZM258.76 178.903L259.929 178.974L259.998 177.83L258.829 177.759L258.76 178.903ZM261.166 177.9L259.998 177.83L259.929 178.974L261.098 179.044L261.166 177.9ZM262.266 179.115L263.435 179.185L263.504 178.041L262.335 177.971L262.266 179.115ZM263.504 178.041L263.435 179.185L264.603 179.256L264.672 178.111L263.504 178.041ZM264.672 178.111L264.603 179.256L265.772 179.326L265.841 178.182L264.672 178.111ZM265.841 178.182L265.772 179.326L266.941 179.397L267.01 178.252L265.841 178.182ZM268.178 178.323L267.01 178.252L266.941 179.397L268.109 179.467L268.178 178.323ZM270.447 179.608L271.615 179.678L271.684 178.534L270.516 178.464L270.447 179.608ZM272.853 178.605L271.684 178.534L271.615 179.678L272.784 179.749L272.853 178.605ZM274.021 178.675L273.952 179.819L275.121 179.89L275.19 178.746L274.021 178.675ZM277.458 180.031L277.527 178.886L276.359 178.816L276.29 179.96L277.458 180.031ZM277.527 178.886L277.458 180.031L278.627 180.101L278.696 178.957L277.527 178.886ZM282.202 179.168L282.133 180.313L283.301 180.383L283.37 179.239L282.202 179.168ZM284.47 180.453L285.639 180.524L285.708 179.38L284.539 179.309L284.47 180.453ZM285.708 179.38L285.639 180.524L286.807 180.594L286.876 179.45L285.708 179.38ZM286.876 179.45L286.807 180.594L287.976 180.665L288.045 179.52L286.876 179.45ZM290.313 180.806L290.382 179.661L289.214 179.591L289.145 180.735L290.313 180.806ZM291.551 179.732L290.382 179.661L290.313 180.806L291.482 180.876L291.551 179.732ZM293.819 181.017L293.888 179.873L292.719 179.802L292.65 180.947L293.819 181.017ZM298.494 181.299L298.563 180.155L297.394 180.084L297.325 181.228L298.494 181.299ZM299.731 180.225L298.563 180.155L298.494 181.299L299.662 181.369L299.731 180.225ZM301.999 181.51L303.168 181.581L303.237 180.436L302.068 180.366L301.999 181.51ZM303.237 180.436L303.168 181.581L304.337 181.651L304.406 180.507L303.237 180.436ZM259.86 180.118L259.929 178.974L258.76 178.903L258.691 180.048L259.86 180.118ZM262.266 179.115L262.197 180.259L263.366 180.33L263.435 179.185L262.266 179.115ZM265.703 180.47L265.772 179.326L264.603 179.256L264.534 180.4L265.703 180.47ZM265.772 179.326L265.703 180.47L266.872 180.541L266.941 179.397L265.772 179.326ZM271.546 180.823L271.615 179.678L270.447 179.608L270.378 180.752L271.546 180.823ZM273.952 179.819L273.883 180.964L275.052 181.034L275.121 179.89L273.952 179.819ZM278.558 181.245L278.627 180.101L277.458 180.031L277.389 181.175L278.558 181.245ZM279.796 180.172L278.627 180.101L278.558 181.245L279.727 181.316L279.796 180.172ZM283.232 181.527L283.301 180.383L282.133 180.313L282.064 181.457L283.232 181.527ZM283.301 180.383L283.232 181.527L284.401 181.598L284.47 180.453L283.301 180.383ZM284.47 180.453L284.401 181.598L285.57 181.668L285.639 180.524L284.47 180.453ZM287.907 181.809L287.976 180.665L286.807 180.594L286.738 181.739L287.907 181.809ZM291.482 180.876L291.413 182.02L292.581 182.091L292.65 180.947L291.482 180.876ZM299.593 182.514L300.762 182.584L300.831 181.44L299.662 181.369L299.593 182.514ZM300.831 181.44L300.762 182.584L301.93 182.654L301.999 181.51L300.831 181.44ZM301.999 181.51L301.93 182.654L303.099 182.725L303.168 181.581L301.999 181.51ZM303.168 181.581L303.099 182.725L304.268 182.795L304.337 181.651L303.168 181.581ZM256.354 179.907L256.285 181.051L257.454 181.122L257.523 179.977L256.354 179.907ZM260.96 181.333L262.128 181.403L262.197 180.259L261.029 180.189L260.96 181.333ZM262.197 180.259L262.128 181.403L263.297 181.474L263.366 180.33L262.197 180.259ZM264.534 180.4L263.366 180.33L263.297 181.474L264.465 181.544L264.534 180.4ZM266.803 181.685L266.872 180.541L265.703 180.47L265.634 181.615L266.803 181.685ZM266.872 180.541L266.803 181.685L267.971 181.756L268.04 180.611L266.872 180.541ZM268.04 180.611L267.971 181.756L269.14 181.826L269.209 180.682L268.04 180.611ZM271.477 181.967L272.646 182.037L272.715 180.893L271.546 180.823L271.477 181.967ZM272.715 180.893L272.646 182.037L273.814 182.108L273.883 180.964L272.715 180.893ZM273.883 180.964L273.814 182.108L274.983 182.178L275.052 181.034L273.883 180.964ZM275.052 181.034L274.983 182.178L276.152 182.249L276.221 181.105L275.052 181.034ZM279.727 181.316L279.658 182.46L280.826 182.531L280.895 181.386L279.727 181.316ZM283.232 181.527L283.163 182.672L284.332 182.742L284.401 181.598L283.232 181.527ZM284.401 181.598L284.332 182.742L285.501 182.812L285.57 181.668L284.401 181.598ZM286.738 181.739L285.57 181.668L285.501 182.812L286.669 182.883L286.738 181.739ZM287.907 181.809L287.838 182.953L289.007 183.024L289.076 181.88L287.907 181.809ZM290.175 183.094L291.344 183.165L291.413 182.02L290.244 181.95L290.175 183.094ZM291.413 182.02L291.344 183.165L292.512 183.235L292.581 182.091L291.413 182.02ZM293.75 182.161L293.681 183.306L294.85 183.376L294.919 182.232L293.75 182.161ZM297.187 183.517L298.356 183.587L298.425 182.443L297.256 182.373L297.187 183.517ZM299.593 182.514L298.425 182.443L298.356 183.587L299.524 183.658L299.593 182.514ZM303.03 183.869L303.099 182.725L301.93 182.654L301.862 183.799L303.03 183.869ZM304.268 182.795L303.099 182.725L303.03 183.869L304.199 183.94L304.268 182.795ZM257.385 182.266L257.454 181.122L256.285 181.051L256.216 182.195L257.385 182.266ZM257.454 181.122L257.385 182.266L258.553 182.336L258.622 181.192L257.454 181.122ZM258.622 181.192L258.553 182.336L259.722 182.407L259.791 181.262L258.622 181.192ZM260.96 181.333L259.791 181.262L259.722 182.407L260.891 182.477L260.96 181.333ZM264.465 181.544L264.396 182.689L265.565 182.759L265.634 181.615L264.465 181.544ZM266.803 181.685L266.734 182.829L267.902 182.9L267.971 181.756L266.803 181.685ZM267.971 181.756L267.902 182.9L269.071 182.97L269.14 181.826L267.971 181.756ZM269.14 181.826L269.071 182.97L270.24 183.041L270.309 181.897L269.14 181.826ZM271.477 181.967L270.309 181.897L270.24 183.041L271.408 183.111L271.477 181.967ZM272.646 182.037L272.577 183.182L273.745 183.252L273.814 182.108L272.646 182.037ZM273.814 182.108L273.745 183.252L274.914 183.323L274.983 182.178L273.814 182.108ZM274.983 182.178L274.914 183.323L276.083 183.393L276.152 182.249L274.983 182.178ZM277.251 183.464L278.42 183.534L278.489 182.39L277.32 182.319L277.251 183.464ZM279.658 182.46L278.489 182.39L278.42 183.534L279.589 183.604L279.658 182.46ZM280.757 183.675L281.926 183.745L281.995 182.601L280.826 182.531L280.757 183.675ZM281.995 182.601L281.926 183.745L283.094 183.816L283.163 182.672L281.995 182.601ZM283.163 182.672L283.094 183.816L284.263 183.886L284.332 182.742L283.163 182.672ZM286.6 184.027L287.769 184.098L287.838 182.953L286.669 182.883L286.6 184.027ZM287.838 182.953L287.769 184.098L288.938 184.168L289.007 183.024L287.838 182.953ZM292.444 184.379L292.512 183.235L291.344 183.165L291.275 184.309L292.444 184.379ZM292.512 183.235L292.444 184.379L293.612 184.45L293.681 183.306L292.512 183.235ZM293.681 183.306L293.612 184.45L294.781 184.52L294.85 183.376L293.681 183.306ZM296.018 183.447L294.85 183.376L294.781 184.52L295.949 184.591L296.018 183.447ZM299.524 183.658L299.455 184.802L300.624 184.873L300.693 183.728L299.524 183.658ZM257.385 182.266L257.316 183.41L258.484 183.481L258.553 182.336L257.385 182.266ZM260.822 183.621L261.99 183.692L262.059 182.548L260.891 182.477L260.822 183.621ZM262.059 182.548L261.99 183.692L263.159 183.762L263.228 182.618L262.059 182.548ZM264.396 182.689L263.228 182.618L263.159 183.762L264.327 183.833L264.396 182.689ZM265.496 183.903L266.665 183.974L266.734 182.829L265.565 182.759L265.496 183.903ZM266.734 182.829L266.665 183.974L267.833 184.044L267.902 182.9L266.734 182.829ZM267.902 182.9L267.833 184.044L269.002 184.115L269.071 182.97L267.902 182.9ZM269.071 182.97L269.002 184.115L270.171 184.185L270.24 183.041L269.071 182.97ZM271.339 184.256L272.508 184.326L272.577 183.182L271.408 183.111L271.339 184.256ZM273.745 183.252L272.577 183.182L272.508 184.326L273.676 184.396L273.745 183.252ZM276.014 184.537L276.083 183.393L274.914 183.323L274.845 184.467L276.014 184.537ZM279.52 184.749L280.688 184.819L280.757 183.675L279.589 183.604L279.52 184.749ZM280.757 183.675L280.688 184.819L281.857 184.89L281.926 183.745L280.757 183.675ZM281.926 183.745L281.857 184.89L283.025 184.96L283.094 183.816L281.926 183.745ZM283.094 183.816L283.025 184.96L284.194 185.031L284.263 183.886L283.094 183.816ZM284.263 183.886L284.194 185.031L285.363 185.101L285.432 183.957L284.263 183.886ZM285.432 183.957L285.363 185.101L286.531 185.171L286.6 184.027L285.432 183.957ZM286.6 184.027L286.531 185.171L287.7 185.242L287.769 184.098L286.6 184.027ZM288.938 184.168L287.769 184.098L287.7 185.242L288.869 185.312L288.938 184.168ZM290.106 184.239L290.037 185.383L291.206 185.453L291.275 184.309L290.106 184.239ZM293.543 185.594L293.612 184.45L292.444 184.379L292.375 185.524L293.543 185.594ZM293.612 184.45L293.543 185.594L294.712 185.665L294.781 184.52L293.612 184.45ZM295.949 184.591L295.88 185.735L297.049 185.806L297.118 184.661L295.949 184.591ZM300.555 186.017L300.624 184.873L299.455 184.802L299.386 185.946L300.555 186.017ZM300.624 184.873L300.555 186.017L301.724 186.087L301.793 184.943L300.624 184.873ZM301.793 184.943L301.724 186.087L302.892 186.158L302.961 185.014L301.793 184.943ZM302.961 185.014L302.892 186.158L304.061 186.228L304.13 185.084L302.961 185.014ZM256.078 184.484L257.247 184.554L257.316 183.41L256.147 183.34L256.078 184.484ZM257.316 183.41L257.247 184.554L258.415 184.625L258.484 183.481L257.316 183.41ZM261.921 184.836L261.99 183.692L260.822 183.621L260.753 184.766L261.921 184.836ZM261.99 183.692L261.921 184.836L263.09 184.907L263.159 183.762L261.99 183.692ZM264.327 183.833L264.258 184.977L265.427 185.048L265.496 183.903L264.327 183.833ZM269.002 184.115L268.933 185.259L270.102 185.329L270.171 184.185L269.002 184.115ZM271.339 184.256L271.27 185.4L272.439 185.47L272.508 184.326L271.339 184.256ZM279.52 184.749L279.451 185.893L280.619 185.963L280.688 184.819L279.52 184.749ZM284.194 185.031L284.125 186.175L285.294 186.245L285.363 185.101L284.194 185.031ZM288.8 186.457L289.968 186.527L290.037 185.383L288.869 185.312L288.8 186.457ZM290.037 185.383L289.968 186.527L291.137 186.598L291.206 185.453L290.037 185.383ZM294.643 186.809L294.712 185.665L293.543 185.594L293.474 186.738L294.643 186.809ZM302.823 187.302L302.892 186.158L301.724 186.087L301.655 187.232L302.823 187.302ZM304.061 186.228L302.892 186.158L302.823 187.302L303.992 187.373L304.061 186.228ZM257.247 184.554L257.178 185.699L258.346 185.769L258.415 184.625L257.247 184.554ZM258.415 184.625L258.346 185.769L259.515 185.84L259.584 184.695L258.415 184.625ZM261.921 184.836L261.852 185.981L263.021 186.051L263.09 184.907L261.921 184.836ZM263.09 184.907L263.021 186.051L264.189 186.121L264.258 184.977L263.09 184.907ZM264.258 184.977L264.189 186.121L265.358 186.192L265.427 185.048L264.258 184.977ZM266.596 185.118L266.527 186.262L267.695 186.333L267.764 185.188L266.596 185.118ZM268.933 185.259L268.864 186.403L270.033 186.474L270.102 185.329L268.933 185.259ZM270.102 185.329L270.033 186.474L271.201 186.544L271.27 185.4L270.102 185.329ZM271.27 185.4L271.201 186.544L272.37 186.615L272.439 185.47L271.27 185.4ZM272.439 185.47L272.37 186.615L273.538 186.685L273.607 185.541L272.439 185.47ZM273.607 185.541L273.538 186.685L274.707 186.755L274.776 185.611L273.607 185.541ZM275.876 186.826L277.044 186.896L277.113 185.752L275.945 185.682L275.876 186.826ZM277.113 185.752L277.044 186.896L278.213 186.967L278.282 185.823L277.113 185.752ZM280.55 187.108L280.619 185.963L279.451 185.893L279.382 187.037L280.55 187.108ZM281.788 186.034L281.719 187.178L282.888 187.249L282.957 186.104L281.788 186.034ZM284.125 186.175L284.056 187.319L285.225 187.39L285.294 186.245L284.125 186.175ZM286.462 186.316L285.294 186.245L285.225 187.39L286.393 187.46L286.462 186.316ZM287.562 187.53L288.731 187.601L288.8 186.457L287.631 186.386L287.562 187.53ZM288.8 186.457L288.731 187.601L289.899 187.671L289.968 186.527L288.8 186.457ZM291.137 186.598L289.968 186.527L289.899 187.671L291.068 187.742L291.137 186.598ZM292.306 186.668L292.237 187.812L293.405 187.883L293.474 186.738L292.306 186.668ZM294.574 187.953L295.742 188.024L295.811 186.879L294.643 186.809L294.574 187.953ZM295.811 186.879L295.742 188.024L296.911 188.094L296.98 186.95L295.811 186.879ZM296.98 186.95L296.911 188.094L298.08 188.165L298.149 187.02L296.98 186.95ZM299.317 187.091L298.149 187.02L298.08 188.165L299.248 188.235L299.317 187.091ZM300.486 187.161L300.417 188.305L301.586 188.376L301.655 187.232L300.486 187.161ZM258.277 186.913L258.346 185.769L257.178 185.699L257.109 186.843L258.277 186.913ZM258.346 185.769L258.277 186.913L259.446 186.984L259.515 185.84L258.346 185.769ZM259.515 185.84L259.446 186.984L260.615 187.054L260.684 185.91L259.515 185.84ZM260.684 185.91L260.615 187.054L261.783 187.125L261.852 185.981L260.684 185.91ZM261.852 185.981L261.783 187.125L262.952 187.195L263.021 186.051L261.852 185.981ZM265.289 187.336L265.358 186.192L264.189 186.121L264.12 187.266L265.289 187.336ZM267.626 187.477L267.695 186.333L266.527 186.262L266.458 187.407L267.626 187.477ZM269.964 187.618L270.033 186.474L268.864 186.403L268.795 187.548L269.964 187.618ZM272.37 186.615L272.301 187.759L273.47 187.829L273.538 186.685L272.37 186.615ZM273.538 186.685L273.47 187.829L274.638 187.9L274.707 186.755L273.538 186.685ZM275.876 186.826L274.707 186.755L274.638 187.9L275.807 187.97L275.876 186.826ZM277.044 186.896L276.975 188.041L278.144 188.111L278.213 186.967L277.044 186.896ZM279.382 187.037L278.213 186.967L278.144 188.111L279.313 188.182L279.382 187.037ZM280.55 187.108L280.481 188.252L281.65 188.322L281.719 187.178L280.55 187.108ZM282.819 188.393L283.987 188.463L284.056 187.319L282.888 187.249L282.819 188.393ZM285.225 187.39L284.056 187.319L283.987 188.463L285.156 188.534L285.225 187.39ZM288.662 188.745L288.731 187.601L287.562 187.53L287.493 188.675L288.662 188.745ZM288.731 187.601L288.662 188.745L289.83 188.816L289.899 187.671L288.731 187.601ZM290.999 188.886L292.168 188.957L292.237 187.812L291.068 187.742L290.999 188.886ZM292.237 187.812L292.168 188.957L293.336 189.027L293.405 187.883L292.237 187.812ZM294.574 187.953L293.405 187.883L293.336 189.027L294.505 189.097L294.574 187.953ZM296.911 188.094L296.842 189.238L298.011 189.309L298.08 188.165L296.911 188.094ZM299.248 188.235L299.179 189.379L300.348 189.45L300.417 188.305L299.248 188.235ZM301.517 189.52L302.685 189.591L302.754 188.446L301.586 188.376L301.517 189.52ZM303.923 188.517L302.754 188.446L302.685 189.591L303.854 189.661L303.923 188.517ZM255.94 186.773L255.871 187.917L257.04 187.987L257.109 186.843L255.94 186.773ZM262.883 188.34L262.952 187.195L261.783 187.125L261.714 188.269L262.883 188.34ZM264.12 187.266L262.952 187.195L262.883 188.34L264.052 188.41L264.12 187.266ZM265.289 187.336L265.22 188.48L266.389 188.551L266.458 187.407L265.289 187.336ZM267.626 187.477L267.557 188.621L268.726 188.692L268.795 187.548L267.626 187.477ZM269.895 188.762L271.063 188.833L271.132 187.688L269.964 187.618L269.895 188.762ZM271.132 187.688L271.063 188.833L272.232 188.903L272.301 187.759L271.132 187.688ZM272.301 187.759L272.232 188.903L273.401 188.974L273.47 187.829L272.301 187.759ZM274.638 187.9L273.47 187.829L273.401 188.974L274.569 189.044L274.638 187.9ZM275.738 189.115L276.906 189.185L276.975 188.041L275.807 187.97L275.738 189.115ZM276.975 188.041L276.906 189.185L278.075 189.255L278.144 188.111L276.975 188.041ZM279.244 189.326L280.412 189.396L280.481 188.252L279.313 188.182L279.244 189.326ZM280.481 188.252L280.412 189.396L281.581 189.467L281.65 188.322L280.481 188.252ZM283.918 189.608L283.987 188.463L282.819 188.393L282.75 189.537L283.918 189.608ZM285.087 189.678L286.255 189.749L286.324 188.604L285.156 188.534L285.087 189.678ZM286.324 188.604L286.255 189.749L287.424 189.819L287.493 188.675L286.324 188.604ZM289.761 189.96L289.83 188.816L288.662 188.745L288.593 189.889L289.761 189.96ZM293.267 190.171L293.336 189.027L292.168 188.957L292.099 190.101L293.267 190.171ZM295.604 190.312L296.773 190.383L296.842 189.238L295.673 189.168L295.604 190.312ZM296.842 189.238L296.773 190.383L297.942 190.453L298.011 189.309L296.842 189.238ZM299.179 189.379L298.011 189.309L297.942 190.453L299.11 190.524L299.179 189.379ZM300.279 190.594L301.448 190.664L301.517 189.52L300.348 189.45L300.279 190.594ZM302.685 189.591L301.517 189.52L301.448 190.664L302.616 190.735L302.685 189.591ZM255.871 187.917L255.802 189.061L256.971 189.132L257.04 187.987L255.871 187.917ZM258.208 188.058L258.139 189.202L259.308 189.272L259.377 188.128L258.208 188.058ZM260.546 188.199L260.477 189.343L261.645 189.413L261.714 188.269L260.546 188.199ZM265.22 188.48L265.151 189.625L266.32 189.695L266.389 188.551L265.22 188.48ZM267.557 188.621L267.488 189.766L268.657 189.836L268.726 188.692L267.557 188.621ZM268.726 188.692L268.657 189.836L269.826 189.907L269.895 188.762L268.726 188.692ZM269.895 188.762L269.826 189.907L270.994 189.977L271.063 188.833L269.895 188.762ZM273.332 190.118L273.401 188.974L272.232 188.903L272.163 190.047L273.332 190.118ZM275.738 189.115L275.669 190.259L276.837 190.329L276.906 189.185L275.738 189.115ZM276.906 189.185L276.837 190.329L278.006 190.4L278.075 189.255L276.906 189.185ZM279.244 189.326L278.075 189.255L278.006 190.4L279.175 190.47L279.244 189.326ZM280.412 189.396L280.343 190.541L281.512 190.611L281.581 189.467L280.412 189.396ZM282.75 189.537L281.581 189.467L281.512 190.611L282.681 190.682L282.75 189.537ZM283.918 189.608L283.849 190.752L285.018 190.822L285.087 189.678L283.918 189.608ZM286.255 189.749L286.186 190.893L287.355 190.963L287.424 189.819L286.255 189.749ZM290.93 190.03L290.861 191.175L292.03 191.245L292.099 190.101L290.93 190.03ZM293.198 191.316L294.367 191.386L294.436 190.242L293.267 190.171L293.198 191.316ZM294.436 190.242L294.367 191.386L295.535 191.456L295.604 190.312L294.436 190.242ZM296.773 190.383L295.604 190.312L295.535 191.456L296.704 191.527L296.773 190.383ZM301.379 191.809L301.448 190.664L300.279 190.594L300.21 191.738L301.379 191.809ZM302.616 190.735L302.547 191.879L303.716 191.95L303.785 190.805L302.616 190.735ZM255.802 189.061L255.733 190.205L256.902 190.276L256.971 189.132L255.802 189.061ZM259.239 190.417L259.308 189.272L258.139 189.202L258.07 190.346L259.239 190.417ZM259.308 189.272L259.239 190.417L260.408 190.487L260.477 189.343L259.308 189.272ZM260.477 189.343L260.408 190.487L261.576 190.558L261.645 189.413L260.477 189.343ZM261.645 189.413L261.576 190.558L262.745 190.628L262.814 189.484L261.645 189.413ZM263.983 189.554L262.814 189.484L262.745 190.628L263.914 190.699L263.983 189.554ZM265.151 189.625L265.082 190.769L266.251 190.839L266.32 189.695L265.151 189.625ZM268.588 190.98L268.657 189.836L267.488 189.766L267.419 190.91L268.588 190.98ZM269.826 189.907L269.757 191.051L270.925 191.121L270.994 189.977L269.826 189.907ZM273.263 191.262L274.431 191.333L274.5 190.188L273.332 190.118L273.263 191.262ZM274.5 190.188L274.431 191.333L275.6 191.403L275.669 190.259L274.5 190.188ZM275.669 190.259L275.6 191.403L276.768 191.474L276.837 190.329L275.669 190.259ZM276.837 190.329L276.768 191.474L277.937 191.544L278.006 190.4L276.837 190.329ZM280.343 190.541L280.274 191.685L281.443 191.755L281.512 190.611L280.343 190.541ZM282.612 191.826L283.78 191.896L283.849 190.752L282.681 190.682L282.612 191.826ZM283.849 190.752L283.78 191.896L284.949 191.967L285.018 190.822L283.849 190.752ZM287.286 192.108L287.355 190.963L286.186 190.893L286.117 192.037L287.286 192.108ZM294.367 191.386L294.298 192.53L295.466 192.601L295.535 191.456L294.367 191.386ZM297.873 191.597L297.804 192.742L298.972 192.812L299.041 191.668L297.873 191.597ZM256.833 191.42L256.902 190.276L255.733 190.205L255.664 191.35L256.833 191.42ZM258.07 190.346L256.902 190.276L256.833 191.42L258.001 191.491L258.07 190.346ZM260.408 190.487L260.339 191.631L261.507 191.702L261.576 190.558L260.408 190.487ZM266.182 191.984L266.251 190.839L265.082 190.769L265.013 191.913L266.182 191.984ZM266.251 190.839L266.182 191.984L267.35 192.054L267.419 190.91L266.251 190.839ZM269.757 191.051L269.688 192.195L270.856 192.266L270.925 191.121L269.757 191.051ZM270.925 191.121L270.856 192.266L272.025 192.336L272.094 191.192L270.925 191.121ZM273.263 191.262L272.094 191.192L272.025 192.336L273.194 192.406L273.263 191.262ZM276.768 191.474L276.699 192.618L277.868 192.688L277.937 191.544L276.768 191.474ZM279.037 192.759L280.205 192.829L280.274 191.685L279.106 191.614L279.037 192.759ZM280.274 191.685L280.205 192.829L281.374 192.9L281.443 191.755L280.274 191.685ZM284.88 193.111L284.949 191.967L283.78 191.896L283.711 193.041L284.88 193.111ZM288.386 193.322L289.554 193.393L289.623 192.249L288.455 192.178L288.386 193.322ZM289.623 192.249L289.554 193.393L290.723 193.463L290.792 192.319L289.623 192.249ZM295.398 193.745L295.466 192.601L294.298 192.53L294.229 193.675L295.398 193.745ZM298.903 193.956L300.072 194.027L300.141 192.883L298.972 192.812L298.903 193.956ZM301.31 192.953L300.141 192.883L300.072 194.027L301.241 194.097L301.31 192.953ZM302.478 193.023L302.409 194.168L303.578 194.238L303.647 193.094L302.478 193.023ZM257.932 192.635L259.101 192.705L259.17 191.561L258.001 191.491L257.932 192.635ZM259.17 191.561L259.101 192.705L260.27 192.776L260.339 191.631L259.17 191.561ZM260.339 191.631L260.27 192.776L261.438 192.846L261.507 191.702L260.339 191.631ZM262.676 191.772L262.607 192.917L263.776 192.987L263.845 191.843L262.676 191.772ZM267.281 193.198L267.35 192.054L266.182 191.984L266.113 193.128L267.281 193.198ZM267.35 192.054L267.281 193.198L268.45 193.269L268.519 192.125L267.35 192.054ZM268.519 192.125L268.45 193.269L269.619 193.339L269.688 192.195L268.519 192.125ZM269.688 192.195L269.619 193.339L270.787 193.41L270.856 192.266L269.688 192.195ZM272.025 192.336L270.856 192.266L270.787 193.41L271.956 193.48L272.025 192.336ZM274.362 192.477L274.293 193.621L275.462 193.692L275.531 192.547L274.362 192.477ZM276.699 192.618L276.63 193.762L277.799 193.833L277.868 192.688L276.699 192.618ZM281.305 194.044L281.374 192.9L280.205 192.829L280.136 193.973L281.305 194.044ZM281.374 192.9L281.305 194.044L282.474 194.114L282.543 192.97L281.374 192.9ZM282.543 192.97L282.474 194.114L283.642 194.185L283.711 193.041L282.543 192.97ZM285.979 194.326L287.148 194.396L287.217 193.252L286.048 193.181L285.979 194.326ZM287.217 193.252L287.148 194.396L288.317 194.467L288.386 193.322L287.217 193.252ZM288.386 193.322L288.317 194.467L289.485 194.537L289.554 193.393L288.386 193.322ZM290.723 193.463L289.554 193.393L289.485 194.537L290.654 194.608L290.723 193.463ZM293.06 193.604L292.991 194.748L294.16 194.819L294.229 193.675L293.06 193.604ZM295.398 193.745L295.329 194.889L296.497 194.96L296.566 193.815L295.398 193.745ZM297.735 193.886L297.666 195.03L298.834 195.101L298.903 193.956L297.735 193.886ZM255.595 192.494L255.526 193.638L256.695 193.709L256.764 192.564L255.595 192.494ZM260.27 192.776L260.201 193.92L261.369 193.99L261.438 192.846L260.27 192.776ZM263.707 194.131L264.875 194.202L264.944 193.058L263.776 192.987L263.707 194.131ZM264.944 193.058L264.875 194.202L266.044 194.272L266.113 193.128L264.944 193.058ZM267.281 193.198L267.212 194.343L268.381 194.413L268.45 193.269L267.281 193.198ZM270.718 194.554L270.787 193.41L269.619 193.339L269.55 194.484L270.718 194.554ZM271.956 193.48L271.887 194.625L273.056 194.695L273.125 193.551L271.956 193.48ZM274.293 193.621L274.224 194.765L275.393 194.836L275.462 193.692L274.293 193.621ZM275.462 193.692L275.393 194.836L276.561 194.906L276.63 193.762L275.462 193.692ZM276.63 193.762L276.561 194.906L277.73 194.977L277.799 193.833L276.63 193.762ZM281.305 194.044L281.236 195.188L282.405 195.259L282.474 194.114L281.305 194.044ZM283.642 194.185L282.474 194.114L282.405 195.259L283.573 195.329L283.642 194.185ZM287.079 195.54L287.148 194.396L285.979 194.326L285.911 195.47L287.079 195.54ZM287.148 194.396L287.079 195.54L288.248 195.611L288.317 194.467L287.148 194.396ZM289.485 194.537L288.317 194.467L288.248 195.611L289.416 195.681L289.485 194.537ZM290.585 195.752L291.754 195.822L291.823 194.678L290.654 194.608L290.585 195.752ZM291.823 194.678L291.754 195.822L292.922 195.893L292.991 194.748L291.823 194.678ZM292.991 194.748L292.922 195.893L294.091 195.963L294.16 194.819L292.991 194.748ZM296.428 196.104L296.497 194.96L295.329 194.889L295.26 196.034L296.428 196.104ZM297.666 195.03L296.497 194.96L296.428 196.104L297.597 196.175L297.666 195.03ZM298.765 196.245L299.934 196.315L300.003 195.171L298.834 195.101L298.765 196.245ZM300.003 195.171L299.934 196.315L301.103 196.386L301.172 195.242L300.003 195.171ZM302.34 195.312L302.271 196.456L303.44 196.527L303.509 195.382L302.34 195.312ZM257.794 194.923L258.963 194.994L259.032 193.85L257.863 193.779L257.794 194.923ZM259.032 193.85L258.963 194.994L260.132 195.064L260.201 193.92L259.032 193.85ZM260.201 193.92L260.132 195.064L261.3 195.135L261.369 193.99L260.201 193.92ZM261.369 193.99L261.3 195.135L262.469 195.205L262.538 194.061L261.369 193.99ZM263.707 194.131L262.538 194.061L262.469 195.205L263.638 195.276L263.707 194.131ZM265.975 195.417L266.044 194.272L264.875 194.202L264.806 195.346L265.975 195.417ZM266.044 194.272L265.975 195.417L267.143 195.487L267.212 194.343L266.044 194.272ZM267.212 194.343L267.143 195.487L268.312 195.557L268.381 194.413L267.212 194.343ZM268.381 194.413L268.312 195.557L269.481 195.628L269.55 194.484L268.381 194.413ZM270.649 195.698L271.818 195.769L271.887 194.625L270.718 194.554L270.649 195.698ZM271.887 194.625L271.818 195.769L272.987 195.839L273.056 194.695L271.887 194.625ZM273.056 194.695L272.987 195.839L274.155 195.91L274.224 194.765L273.056 194.695ZM275.393 194.836L274.224 194.765L274.155 195.91L275.324 195.98L275.393 194.836ZM276.561 194.906L276.493 196.051L277.661 196.121L277.73 194.977L276.561 194.906ZM279.998 196.262L281.167 196.332L281.236 195.188L280.067 195.118L279.998 196.262ZM282.405 195.259L281.236 195.188L281.167 196.332L282.336 196.403L282.405 195.259ZM294.022 197.107L294.091 195.963L292.922 195.893L292.853 197.037L294.022 197.107ZM294.091 195.963L294.022 197.107L295.191 197.178L295.26 196.034L294.091 195.963ZM299.865 197.46L299.934 196.315L298.765 196.245L298.696 197.389L299.865 197.46ZM299.934 196.315L299.865 197.46L301.034 197.53L301.103 196.386L299.934 196.315ZM258.894 196.138L258.963 194.994L257.794 194.923L257.725 196.068L258.894 196.138ZM263.638 195.276L263.569 196.42L264.737 196.49L264.806 195.346L263.638 195.276ZM269.412 196.772L269.481 195.628L268.312 195.557L268.243 196.702L269.412 196.772ZM269.481 195.628L269.412 196.772L270.58 196.843L270.649 195.698L269.481 195.628ZM270.649 195.698L270.58 196.843L271.749 196.913L271.818 195.769L270.649 195.698ZM274.086 197.054L274.155 195.91L272.987 195.839L272.918 196.984L274.086 197.054ZM277.592 197.265L277.661 196.121L276.493 196.051L276.424 197.195L277.592 197.265ZM278.83 196.192L277.661 196.121L277.592 197.265L278.761 197.336L278.83 196.192ZM282.336 196.403L282.267 197.547L283.435 197.618L283.504 196.473L282.336 196.403ZM284.604 197.688L285.773 197.759L285.842 196.614L284.673 196.544L284.604 197.688ZM285.842 196.614L285.773 197.759L286.941 197.829L287.01 196.685L285.842 196.614ZM287.01 196.685L286.941 197.829L288.11 197.899L288.179 196.755L287.01 196.685ZM289.347 196.826L288.179 196.755L288.11 197.899L289.278 197.97L289.347 196.826ZM291.685 196.967L291.616 198.111L292.784 198.181L292.853 197.037L291.685 196.967ZM294.022 197.107L293.953 198.252L295.122 198.322L295.191 197.178L294.022 197.107ZM296.359 197.248L296.29 198.393L297.459 198.463L297.528 197.319L296.359 197.248ZM299.865 197.46L299.796 198.604L300.965 198.674L301.034 197.53L299.865 197.46ZM302.202 197.601L301.034 197.53L300.965 198.674L302.133 198.745L302.202 197.601ZM255.319 197.071L256.488 197.142L256.557 195.997L255.388 195.927L255.319 197.071ZM256.557 195.997L256.488 197.142L257.656 197.212L257.725 196.068L256.557 195.997ZM261.162 197.423L262.331 197.494L262.4 196.349L261.231 196.279L261.162 197.423ZM262.4 196.349L262.331 197.494L263.5 197.564L263.569 196.42L262.4 196.349ZM264.737 196.49L263.569 196.42L263.5 197.564L264.668 197.635L264.737 196.49ZM267.074 196.631L267.006 197.776L268.174 197.846L268.243 196.702L267.074 196.631ZM271.68 198.057L271.749 196.913L270.58 196.843L270.511 197.987L271.68 198.057ZM284.604 197.688L284.535 198.832L285.704 198.903L285.773 197.759L284.604 197.688ZM286.941 197.829L286.872 198.973L288.041 199.044L288.11 197.899L286.941 197.829ZM289.278 197.97L289.209 199.114L290.378 199.185L290.447 198.04L289.278 197.97ZM295.053 199.466L295.122 198.322L293.953 198.252L293.884 199.396L295.053 199.466ZM297.39 199.607L298.558 199.678L298.627 198.534L297.459 198.463L297.39 199.607ZM298.627 198.534L298.558 199.678L299.727 199.748L299.796 198.604L298.627 198.534ZM300.965 198.674L299.796 198.604L299.727 199.748L300.896 199.819L300.965 198.674ZM302.133 198.745L302.064 199.889L303.233 199.96L303.302 198.815L302.133 198.745ZM255.319 197.071L255.25 198.215L256.419 198.286L256.488 197.142L255.319 197.071ZM257.656 197.212L256.488 197.142L256.419 198.286L257.587 198.356L257.656 197.212ZM258.756 198.427L259.925 198.497L259.994 197.353L258.825 197.282L258.756 198.427ZM259.994 197.353L259.925 198.497L261.093 198.568L261.162 197.423L259.994 197.353ZM262.331 197.494L261.162 197.423L261.093 198.568L262.262 198.638L262.331 197.494ZM264.599 198.779L265.768 198.849L265.837 197.705L264.668 197.635L264.599 198.779ZM267.006 197.776L265.837 197.705L265.768 198.849L266.937 198.92L267.006 197.776ZM268.105 198.99L269.274 199.061L269.343 197.916L268.174 197.846L268.105 198.99ZM270.511 197.987L269.343 197.916L269.274 199.061L270.442 199.131L270.511 197.987ZM273.948 199.343L275.117 199.413L275.186 198.269L274.017 198.198L273.948 199.343ZM275.186 198.269L275.117 199.413L276.286 199.483L276.355 198.339L275.186 198.269ZM277.523 198.41L277.454 199.554L278.623 199.624L278.692 198.48L277.523 198.41ZM285.635 200.047L285.704 198.903L284.535 198.832L284.466 199.977L285.635 200.047ZM286.872 198.973L286.803 200.118L287.972 200.188L288.041 199.044L286.872 198.973ZM289.209 199.114L288.041 199.044L287.972 200.188L289.14 200.258L289.209 199.114ZM291.547 199.255L291.478 200.399L292.646 200.47L292.715 199.326L291.547 199.255ZM295.053 199.466L294.984 200.611L296.152 200.681L296.221 199.537L295.053 199.466ZM297.39 199.607L297.321 200.752L298.489 200.822L298.558 199.678L297.39 199.607ZM256.35 199.43L256.419 198.286L255.25 198.215L255.181 199.36L256.35 199.43ZM257.587 198.356L257.519 199.501L258.687 199.571L258.756 198.427L257.587 198.356ZM262.193 199.782L263.362 199.853L263.431 198.709L262.262 198.638L262.193 199.782ZM263.431 198.709L263.362 199.853L264.53 199.923L264.599 198.779L263.431 198.709ZM264.599 198.779L264.53 199.923L265.699 199.994L265.768 198.849L264.599 198.779ZM266.937 198.92L266.868 200.064L268.036 200.135L268.105 198.99L266.937 198.92ZM270.373 200.276L271.542 200.346L271.611 199.202L270.442 199.131L270.373 200.276ZM272.78 199.272L271.611 199.202L271.542 200.346L272.711 200.416L272.78 199.272ZM275.048 200.557L275.117 199.413L273.948 199.343L273.879 200.487L275.048 200.557ZM275.117 199.413L275.048 200.557L276.217 200.628L276.286 199.483L275.117 199.413ZM276.286 199.483L276.217 200.628L277.385 200.698L277.454 199.554L276.286 199.483ZM278.623 199.624L278.554 200.769L279.722 200.839L279.791 199.695L278.623 199.624ZM280.891 200.91L282.06 200.98L282.129 199.836L280.96 199.765L280.891 200.91ZM282.129 199.836L282.06 200.98L283.228 201.05L283.297 199.906L282.129 199.836ZM284.466 199.977L283.297 199.906L283.228 201.05L284.397 201.121L284.466 199.977ZM287.903 201.332L287.972 200.188L286.803 200.118L286.734 201.262L287.903 201.332ZM289.14 200.258L289.071 201.403L290.24 201.473L290.309 200.329L289.14 200.258ZM291.478 200.399L291.409 201.544L292.577 201.614L292.646 200.47L291.478 200.399ZM292.646 200.47L292.577 201.614L293.746 201.685L293.815 200.54L292.646 200.47ZM293.815 200.54L293.746 201.685L294.915 201.755L294.984 200.611L293.815 200.54ZM294.984 200.611L294.915 201.755L296.083 201.825L296.152 200.681L294.984 200.611ZM296.152 200.681L296.083 201.825L297.252 201.896L297.321 200.752L296.152 200.681ZM297.321 200.752L297.252 201.896L298.42 201.966L298.489 200.822L297.321 200.752ZM299.658 200.893L299.589 202.037L300.758 202.107L300.827 200.963L299.658 200.893ZM301.995 201.033L301.926 202.178L303.095 202.248L303.164 201.104L301.995 201.033ZM264.53 199.923L264.461 201.068L265.63 201.138L265.699 199.994L264.53 199.923ZM265.699 199.994L265.63 201.138L266.799 201.208L266.868 200.064L265.699 199.994ZM268.036 200.135L267.967 201.279L269.136 201.349L269.205 200.205L268.036 200.135ZM270.373 200.276L270.304 201.42L271.473 201.49L271.542 200.346L270.373 200.276ZM272.711 200.416L272.642 201.561L273.81 201.631L273.879 200.487L272.711 200.416ZM275.048 200.557L274.979 201.702L276.148 201.772L276.217 200.628L275.048 200.557ZM276.217 200.628L276.148 201.772L277.316 201.843L277.385 200.698L276.217 200.628ZM279.653 201.983L279.722 200.839L278.554 200.769L278.485 201.913L279.653 201.983ZM281.991 202.124L282.06 200.98L280.891 200.91L280.822 202.054L281.991 202.124ZM284.328 202.265L285.497 202.336L285.566 201.191L284.397 201.121L284.328 202.265ZM286.734 201.262L285.566 201.191L285.497 202.336L286.665 202.406L286.734 201.262ZM290.171 202.617L291.34 202.688L291.409 201.544L290.24 201.473L290.171 202.617ZM291.409 201.544L291.34 202.688L292.508 202.758L292.577 201.614L291.409 201.544ZM292.577 201.614L292.508 202.758L293.677 202.829L293.746 201.685L292.577 201.614ZM297.252 201.896L297.183 203.04L298.352 203.111L298.42 201.966L297.252 201.896ZM299.589 202.037L298.42 201.966L298.352 203.111L299.52 203.181L299.589 202.037ZM264.461 201.068L264.392 202.212L265.561 202.282L265.63 201.138L264.461 201.068ZM265.63 201.138L265.561 202.282L266.73 202.353L266.799 201.208L265.63 201.138ZM266.799 201.208L266.73 202.353L267.898 202.423L267.967 201.279L266.799 201.208ZM269.136 201.349L267.967 201.279L267.898 202.423L269.067 202.494L269.136 201.349ZM270.304 201.42L270.235 202.564L271.404 202.635L271.473 201.49L270.304 201.42ZM274.979 201.702L274.91 202.846L276.079 202.916L276.148 201.772L274.979 201.702ZM276.148 201.772L276.079 202.916L277.247 202.987L277.316 201.843L276.148 201.772ZM277.316 201.843L277.247 202.987L278.416 203.057L278.485 201.913L277.316 201.843ZM279.653 201.983L279.584 203.128L280.753 203.198L280.822 202.054L279.653 201.983ZM284.328 202.265L284.259 203.41L285.428 203.48L285.497 202.336L284.328 202.265ZM286.665 202.406L286.596 203.55L287.765 203.621L287.834 202.477L286.665 202.406ZM289.002 202.547L288.934 203.691L290.102 203.762L290.171 202.617L289.002 202.547ZM292.508 202.758L292.439 203.903L293.608 203.973L293.677 202.829L292.508 202.758ZM294.846 202.899L294.777 204.044L295.945 204.114L296.014 202.97L294.846 202.899ZM297.183 203.04L297.114 204.184L298.283 204.255L298.352 203.111L297.183 203.04ZM299.52 203.181L299.451 204.325L300.62 204.396L300.689 203.252L299.52 203.181ZM301.857 203.322L301.788 204.466L302.957 204.537L303.026 203.392L301.857 203.322ZM264.392 202.212L264.323 203.356L265.492 203.427L265.561 202.282L264.392 202.212ZM270.235 202.564L270.166 203.708L271.335 203.779L271.404 202.635L270.235 202.564ZM272.573 202.705L272.504 203.849L273.672 203.92L273.741 202.775L272.573 202.705ZM274.91 202.846L274.841 203.99L276.01 204.061L276.079 202.916L274.91 202.846ZM277.247 202.987L277.178 204.131L278.347 204.202L278.416 203.057L277.247 202.987ZM279.584 203.128L278.416 203.057L278.347 204.202L279.515 204.272L279.584 203.128ZM280.684 204.342L281.853 204.413L281.922 203.269L280.753 203.198L280.684 204.342ZM281.922 203.269L281.853 204.413L283.021 204.483L283.09 203.339L281.922 203.269ZM284.259 203.41L284.19 204.554L285.359 204.624L285.428 203.48L284.259 203.41ZM288.934 203.691L288.865 204.836L290.033 204.906L290.102 203.762L288.934 203.691ZM291.202 204.977L292.37 205.047L292.439 203.903L291.271 203.832L291.202 204.977ZM292.439 203.903L292.37 205.047L293.539 205.117L293.608 203.973L292.439 203.903ZM297.114 204.184L297.045 205.329L298.214 205.399L298.283 204.255L297.114 204.184ZM301.788 204.466L301.719 205.611L302.888 205.681L302.957 204.537L301.788 204.466ZM264.323 203.356L264.254 204.5L265.423 204.571L265.492 203.427L264.323 203.356ZM265.492 203.427L265.423 204.571L266.592 204.641L266.661 203.497L265.492 203.427ZM271.266 204.923L271.335 203.779L270.166 203.708L270.097 204.853L271.266 204.923ZM272.504 203.849L271.335 203.779L271.266 204.923L272.435 204.994L272.504 203.849ZM273.603 205.064L274.772 205.134L274.841 203.99L273.672 203.92L273.603 205.064ZM276.01 204.061L274.841 203.99L274.772 205.134L275.941 205.205L276.01 204.061ZM277.178 204.131L277.109 205.275L278.278 205.346L278.347 204.202L277.178 204.131ZM279.447 205.416L280.615 205.487L280.684 204.342L279.515 204.272L279.447 205.416ZM280.684 204.342L280.615 205.487L281.784 205.557L281.853 204.413L280.684 204.342ZM283.021 204.483L281.853 204.413L281.784 205.557L282.952 205.628L283.021 204.483ZM285.29 205.769L285.359 204.624L284.19 204.554L284.121 205.698L285.29 205.769ZM286.527 204.695L286.458 205.839L287.627 205.909L287.696 204.765L286.527 204.695ZM288.865 204.836L288.796 205.98L289.964 206.05L290.033 204.906L288.865 204.836ZM291.202 204.977L290.033 204.906L289.964 206.05L291.133 206.121L291.202 204.977ZM293.47 206.262L293.539 205.117L292.37 205.047L292.301 206.191L293.47 206.262ZM293.539 205.117L293.47 206.262L294.639 206.332L294.708 205.188L293.539 205.117ZM294.708 205.188L294.639 206.332L295.807 206.403L295.876 205.258L294.708 205.188ZM295.876 205.258L295.807 206.403L296.976 206.473L297.045 205.329L295.876 205.258ZM297.045 205.329L296.976 206.473L298.145 206.544L298.214 205.399L297.045 205.329ZM298.214 205.399L298.145 206.544L299.313 206.614L299.382 205.47L298.214 205.399ZM300.482 206.684L301.65 206.755L301.719 205.611L300.551 205.54L300.482 206.684ZM302.888 205.681L301.719 205.611L301.65 206.755L302.819 206.825L302.888 205.681ZM265.354 205.715L265.423 204.571L264.254 204.5L264.185 205.645L265.354 205.715ZM265.423 204.571L265.354 205.715L266.523 205.786L266.592 204.641L265.423 204.571ZM267.691 205.856L268.86 205.926L268.929 204.782L267.76 204.712L267.691 205.856ZM268.929 204.782L268.86 205.926L270.028 205.997L270.097 204.853L268.929 204.782ZM278.209 206.49L278.278 205.346L277.109 205.275L277.04 206.42L278.209 206.49ZM279.447 205.416L278.278 205.346L278.209 206.49L279.378 206.561L279.447 205.416ZM285.221 206.913L286.389 206.983L286.458 205.839L285.29 205.769L285.221 206.913ZM286.458 205.839L286.389 206.983L287.558 207.054L287.627 205.909L286.458 205.839ZM287.627 205.909L287.558 207.054L288.727 207.124L288.796 205.98L287.627 205.909ZM289.964 206.05L288.796 205.98L288.727 207.124L289.895 207.195L289.964 206.05ZM291.133 206.121L291.064 207.265L292.232 207.336L292.301 206.191L291.133 206.121ZM296.907 207.617L296.976 206.473L295.807 206.403L295.738 207.547L296.907 207.617ZM296.976 206.473L296.907 207.617L298.076 207.688L298.145 206.544L296.976 206.473ZM299.313 206.614L298.145 206.544L298.076 207.688L299.244 207.758L299.313 206.614ZM265.354 205.715L265.285 206.859L266.454 206.93L266.523 205.786L265.354 205.715ZM266.523 205.786L266.454 206.93L267.622 207L267.691 205.856L266.523 205.786ZM269.96 207.141L270.028 205.997L268.86 205.926L268.791 207.071L269.96 207.141ZM271.197 206.067L271.128 207.212L272.297 207.282L272.366 206.138L271.197 206.067ZM275.872 206.349L275.803 207.493L276.971 207.564L277.04 206.42L275.872 206.349ZM279.378 206.561L279.309 207.705L280.477 207.775L280.546 206.631L279.378 206.561ZM284.052 206.842L283.983 207.987L285.152 208.057L285.221 206.913L284.052 206.842ZM288.658 208.268L288.727 207.124L287.558 207.054L287.489 208.198L288.658 208.268ZM289.895 207.195L289.826 208.339L290.995 208.409L291.064 207.265L289.895 207.195ZM292.163 208.48L293.332 208.55L293.401 207.406L292.232 207.336L292.163 208.48ZM294.57 207.476L293.401 207.406L293.332 208.55L294.501 208.621L294.57 207.476ZM298.007 208.832L298.076 207.688L296.907 207.617L296.838 208.762L298.007 208.832ZM265.285 206.859L265.216 208.004L266.385 208.074L266.454 206.93L265.285 206.859ZM266.454 206.93L266.385 208.074L267.553 208.145L267.622 207L266.454 206.93ZM268.791 207.071L267.622 207L267.553 208.145L268.722 208.215L268.791 207.071ZM276.902 208.708L278.071 208.779L278.14 207.634L276.971 207.564L276.902 208.708ZM279.309 207.705L278.14 207.634L278.071 208.779L279.24 208.849L279.309 207.705ZM281.646 207.846L281.577 208.99L282.745 209.06L282.814 207.916L281.646 207.846ZM283.983 207.987L283.914 209.131L285.083 209.201L285.152 208.057L283.983 207.987ZM285.152 208.057L285.083 209.201L286.251 209.272L286.32 208.128L285.152 208.057ZM287.489 208.198L286.32 208.128L286.251 209.272L287.42 209.342L287.489 208.198ZM290.926 209.554L292.094 209.624L292.163 208.48L290.995 208.409L290.926 209.554ZM293.332 208.55L292.163 208.48L292.094 209.624L293.263 209.695L293.332 208.55ZM295.669 208.691L295.6 209.835L296.769 209.906L296.838 208.762L295.669 208.691ZM300.275 210.117L301.443 210.188L301.512 209.043L300.344 208.973L300.275 210.117ZM302.681 209.114L301.512 209.043L301.443 210.188L302.612 210.258L302.681 209.114ZM263.978 209.078L265.147 209.148L265.216 208.004L264.047 207.933L263.978 209.078ZM265.216 208.004L265.147 209.148L266.316 209.218L266.385 208.074L265.216 208.004ZM267.553 208.145L266.385 208.074L266.316 209.218L267.484 209.289L267.553 208.145ZM268.653 209.359L269.822 209.43L269.891 208.285L268.722 208.215L268.653 209.359ZM269.891 208.285L269.822 209.43L270.99 209.5L271.059 208.356L269.891 208.285ZM271.059 208.356L270.99 209.5L272.159 209.571L272.228 208.426L271.059 208.356ZM272.228 208.426L272.159 209.571L273.327 209.641L273.396 208.497L272.228 208.426ZM274.565 208.567L273.396 208.497L273.327 209.641L274.496 209.712L274.565 208.567ZM275.734 208.638L275.665 209.782L276.833 209.852L276.902 208.708L275.734 208.638ZM280.339 210.064L281.508 210.134L281.577 208.99L280.408 208.92L280.339 210.064ZM281.577 208.99L281.508 210.134L282.676 210.205L282.745 209.06L281.577 208.99ZM282.745 209.06L282.676 210.205L283.845 210.275L283.914 209.131L282.745 209.06ZM283.914 209.131L283.845 210.275L285.014 210.346L285.083 209.201L283.914 209.131ZM286.251 209.272L285.083 209.201L285.014 210.346L286.182 210.416L286.251 209.272ZM288.52 210.557L289.688 210.627L289.757 209.483L288.589 209.413L288.52 210.557ZM290.926 209.554L289.757 209.483L289.688 210.627L290.857 210.698L290.926 209.554ZM294.432 209.765L294.363 210.909L295.531 210.98L295.6 209.835L294.432 209.765ZM296.7 211.05L297.869 211.121L297.938 209.976L296.769 209.906L296.7 211.05ZM297.938 209.976L297.869 211.121L299.037 211.191L299.106 210.047L297.938 209.976ZM299.106 210.047L299.037 211.191L300.206 211.262L300.275 210.117L299.106 210.047ZM301.443 210.188L300.275 210.117L300.206 211.262L301.375 211.332L301.443 210.188Z" fill="black"/>
<path d="M257.389 162.743L258.557 162.813L258.626 161.669L257.458 161.598L257.389 162.743ZM258.626 161.669L258.557 162.813L259.726 162.884L259.795 161.739L258.626 161.669ZM259.795 161.739L259.726 162.884L260.895 162.954L260.964 161.81L259.795 161.739ZM260.964 161.81L260.895 162.954L262.063 163.024L262.132 161.88L260.964 161.81ZM262.132 161.88L262.063 163.024L263.232 163.095L263.301 161.951L262.132 161.88ZM263.301 161.951L263.232 163.095L264.401 163.165L264.47 162.021L263.301 161.951ZM264.47 162.021L264.401 163.165L265.569 163.236L265.638 162.091L264.47 162.021ZM257.389 162.743L257.32 163.887L258.488 163.957L258.557 162.813L257.389 162.743ZM264.401 163.165L264.332 164.31L265.5 164.38L265.569 163.236L264.401 163.165ZM257.32 163.887L257.251 165.031L258.419 165.102L258.488 163.957L257.32 163.887ZM264.332 164.31L264.263 165.454L265.431 165.524L265.5 164.38L264.332 164.31ZM257.251 165.031L257.182 166.175L258.35 166.246L258.419 165.102L257.251 165.031ZM264.263 165.454L264.194 166.598L265.362 166.669L265.431 165.524L264.263 165.454ZM257.182 166.175L257.113 167.32L258.281 167.39L258.35 166.246L257.182 166.175ZM264.194 166.598L264.125 167.742L265.293 167.813L265.362 166.669L264.194 166.598ZM257.113 167.32L257.044 168.464L258.212 168.534L258.281 167.39L257.113 167.32ZM264.125 167.742L264.056 168.887L265.224 168.957L265.293 167.813L264.125 167.742ZM258.143 169.679L258.212 168.534L257.044 168.464L256.975 169.608L258.143 169.679ZM258.212 168.534L258.143 169.679L259.312 169.749L259.381 168.605L258.212 168.534ZM259.381 168.605L259.312 169.749L260.481 169.82L260.55 168.675L259.381 168.605ZM260.55 168.675L260.481 169.82L261.649 169.89L261.718 168.746L260.55 168.675ZM261.718 168.746L261.649 169.89L262.818 169.961L262.887 168.816L261.718 168.746ZM262.887 168.816L262.818 169.961L263.987 170.031L264.056 168.887L262.887 168.816ZM265.224 168.957L264.056 168.887L263.987 170.031L265.155 170.101L265.224 168.957Z" fill="black"/>
<path d="M255.043 201.648L256.212 201.719L256.281 200.574L255.112 200.504L255.043 201.648ZM256.281 200.574L256.212 201.719L257.381 201.789L257.45 200.645L256.281 200.574ZM257.45 200.645L257.381 201.789L258.549 201.86L258.618 200.715L257.45 200.645ZM258.618 200.715L258.549 201.86L259.718 201.93L259.787 200.786L258.618 200.715ZM259.787 200.786L259.718 201.93L260.886 202L260.955 200.856L259.787 200.786ZM260.955 200.856L260.886 202L262.055 202.071L262.124 200.927L260.955 200.856ZM262.124 200.927L262.055 202.071L263.224 202.141L263.293 200.997L262.124 200.927ZM255.043 201.648L254.974 202.792L256.143 202.863L256.212 201.719L255.043 201.648ZM262.055 202.071L261.986 203.215L263.155 203.286L263.224 202.141L262.055 202.071ZM254.974 202.792L254.905 203.937L256.074 204.007L256.143 202.863L254.974 202.792ZM261.986 203.215L261.917 204.359L263.086 204.43L263.155 203.286L261.986 203.215ZM254.905 203.937L254.836 205.081L256.005 205.151L256.074 204.007L254.905 203.937ZM261.917 204.359L261.848 205.504L263.017 205.574L263.086 204.43L261.917 204.359ZM254.836 205.081L254.767 206.225L255.936 206.296L256.005 205.151L254.836 205.081ZM261.848 205.504L261.779 206.648L262.948 206.718L263.017 205.574L261.848 205.504ZM254.767 206.225L254.698 207.37L255.867 207.44L255.936 206.296L254.767 206.225ZM261.779 206.648L261.71 207.792L262.879 207.863L262.948 206.718L261.779 206.648ZM255.798 208.584L255.867 207.44L254.698 207.37L254.629 208.514L255.798 208.584ZM255.867 207.44L255.798 208.584L256.967 208.655L257.036 207.51L255.867 207.44ZM257.036 207.51L256.967 208.655L258.135 208.725L258.204 207.581L257.036 207.51ZM258.204 207.581L258.135 208.725L259.304 208.796L259.373 207.651L258.204 207.581ZM259.373 207.651L259.304 208.796L260.473 208.866L260.542 207.722L259.373 207.651ZM260.542 207.722L260.473 208.866L261.641 208.937L261.71 207.792L260.542 207.722ZM262.879 207.863L261.71 207.792L261.641 208.937L262.81 209.007L262.879 207.863Z" fill="black"/>
<path d="M297.122 165.138L298.291 165.208L298.36 164.064L297.191 163.994L297.122 165.138ZM298.36 164.064L298.291 165.208L299.459 165.279L299.528 164.135L298.36 164.064ZM299.528 164.135L299.459 165.279L300.628 165.349L300.697 164.205L299.528 164.135ZM300.697 164.205L300.628 165.349L301.797 165.42L301.866 164.276L300.697 164.205ZM301.866 164.276L301.797 165.42L302.965 165.49L303.034 164.346L301.866 164.276ZM303.034 164.346L302.965 165.49L304.134 165.561L304.203 164.416L303.034 164.346ZM304.203 164.416L304.134 165.561L305.303 165.631L305.372 164.487L304.203 164.416ZM297.122 165.138L297.053 166.282L298.222 166.353L298.291 165.208L297.122 165.138ZM304.134 165.561L304.065 166.705L305.234 166.775L305.303 165.631L304.134 165.561ZM297.053 166.282L296.984 167.427L298.153 167.497L298.222 166.353L297.053 166.282ZM304.065 166.705L303.996 167.849L305.165 167.92L305.234 166.775L304.065 166.705ZM296.984 167.427L296.915 168.571L298.084 168.641L298.153 167.497L296.984 167.427ZM303.996 167.849L303.927 168.994L305.096 169.064L305.165 167.92L303.996 167.849ZM296.915 168.571L296.846 169.715L298.015 169.786L298.084 168.641L296.915 168.571ZM303.927 168.994L303.858 170.138L305.027 170.208L305.096 169.064L303.927 168.994ZM296.846 169.715L296.777 170.859L297.946 170.93L298.015 169.786L296.846 169.715ZM303.858 170.138L303.789 171.282L304.958 171.353L305.027 170.208L303.858 170.138ZM297.877 172.074L297.946 170.93L296.777 170.859L296.708 172.004L297.877 172.074ZM297.946 170.93L297.877 172.074L299.046 172.145L299.115 171L297.946 170.93ZM299.115 171L299.046 172.145L300.214 172.215L300.283 171.071L299.115 171ZM300.283 171.071L300.214 172.215L301.383 172.285L301.452 171.141L300.283 171.071ZM301.452 171.141L301.383 172.285L302.551 172.356L302.62 171.212L301.452 171.141ZM302.62 171.212L302.551 172.356L303.72 172.426L303.789 171.282L302.62 171.212ZM304.958 171.353L303.789 171.282L303.72 172.426L304.889 172.497L304.958 171.353Z" fill="black"/>
<path d="M259.588 165.172L260.757 165.243L260.826 164.098L259.657 164.028L259.588 165.172ZM260.826 164.098L260.757 165.243L261.925 165.313L261.994 164.169L260.826 164.098ZM261.994 164.169L261.925 165.313L263.094 165.383L263.163 164.239L261.994 164.169ZM259.588 165.172L259.519 166.316L260.688 166.387L260.757 165.243L259.588 165.172ZM260.757 165.243L260.688 166.387L261.856 166.457L261.925 165.313L260.757 165.243ZM261.925 165.313L261.856 166.457L263.025 166.528L263.094 165.383L261.925 165.313ZM260.619 167.531L260.688 166.387L259.519 166.316L259.45 167.461L260.619 167.531ZM260.688 166.387L260.619 167.531L261.787 167.602L261.856 166.457L260.688 166.387ZM263.025 166.528L261.856 166.457L261.787 167.602L262.956 167.672L263.025 166.528Z" fill="black"/>
<path d="M257.243 204.078L258.411 204.148L258.48 203.004L257.312 202.933L257.243 204.078ZM258.48 203.004L258.411 204.148L259.58 204.219L259.649 203.074L258.48 203.004ZM259.649 203.074L259.58 204.219L260.748 204.289L260.817 203.145L259.649 203.074ZM257.243 204.078L257.174 205.222L258.342 205.292L258.411 204.148L257.243 204.078ZM258.411 204.148L258.342 205.292L259.511 205.363L259.58 204.219L258.411 204.148ZM259.58 204.219L259.511 205.363L260.679 205.433L260.748 204.289L259.58 204.219ZM258.273 206.437L258.342 205.292L257.174 205.222L257.105 206.366L258.273 206.437ZM258.342 205.292L258.273 206.437L259.442 206.507L259.511 205.363L258.342 205.292ZM260.679 205.433L259.511 205.363L259.442 206.507L260.61 206.578L260.679 205.433Z" fill="black"/>
<path d="M299.321 167.567L300.49 167.638L300.559 166.494L299.39 166.423L299.321 167.567ZM300.559 166.494L300.49 167.638L301.659 167.708L301.728 166.564L300.559 166.494ZM301.728 166.564L301.659 167.708L302.827 167.779L302.896 166.635L301.728 166.564ZM299.321 167.567L299.252 168.712L300.421 168.782L300.49 167.638L299.321 167.567ZM300.49 167.638L300.421 168.782L301.59 168.853L301.659 167.708L300.49 167.638ZM301.659 167.708L301.59 168.853L302.758 168.923L302.827 167.779L301.659 167.708ZM300.352 169.927L300.421 168.782L299.252 168.712L299.183 169.856L300.352 169.927ZM300.421 168.782L300.352 169.927L301.521 169.997L301.59 168.853L300.421 168.782ZM302.758 168.923L301.59 168.853L301.521 169.997L302.689 170.067L302.758 168.923Z" fill="black"/>
</g>
<path d="M158.611 156.909L160.108 152.783L161.47 152.865L159.081 158.616L157.935 158.547L156.237 152.549L157.605 152.632L158.611 156.909Z" fill="white"/>
<path d="M168.258 156.586C168.128 157.425 167.777 158.065 167.205 158.506C166.634 158.944 165.898 159.135 164.997 159.081C164.367 159.043 163.821 158.861 163.357 158.536C162.897 158.206 162.554 157.759 162.326 157.193C162.099 156.627 162.002 155.98 162.035 155.252L162.079 154.514C162.124 153.769 162.296 153.12 162.594 152.567C162.893 152.015 163.297 151.6 163.808 151.322C164.322 151.044 164.904 150.925 165.551 150.964C166.424 151.016 167.111 151.296 167.615 151.802C168.118 152.308 168.387 152.996 168.422 153.866L167.054 153.784C167.023 153.212 166.881 152.793 166.629 152.527C166.38 152.258 165.998 152.108 165.484 152.077C164.887 152.041 164.414 152.232 164.066 152.651C163.721 153.066 163.52 153.695 163.462 154.537L163.42 155.238C163.368 156.092 163.481 156.752 163.758 157.219C164.038 157.687 164.474 157.938 165.064 157.974C165.603 158.006 166.015 157.909 166.301 157.683C166.588 157.457 166.784 157.064 166.89 156.504L168.258 156.586Z" fill="white"/>
<path d="M172.717 159.437C172.666 159.322 172.627 159.136 172.598 158.88C172.152 159.293 171.625 159.481 171.017 159.444C170.427 159.408 169.956 159.211 169.604 158.852C169.251 158.493 169.09 158.066 169.12 157.57C169.157 156.944 169.418 156.478 169.901 156.173C170.388 155.865 171.064 155.736 171.929 155.789L172.738 155.837L172.761 155.452C172.78 155.148 172.709 154.9 172.55 154.709C172.391 154.514 172.138 154.406 171.791 154.385C171.49 154.367 171.239 154.429 171.038 154.569C170.838 154.706 170.73 154.89 170.716 155.122L169.397 155.042C169.417 154.72 169.542 154.426 169.772 154.16C170.002 153.891 170.305 153.688 170.68 153.55C171.059 153.413 171.475 153.358 171.927 153.386C172.615 153.427 173.152 153.634 173.54 154.006C173.929 154.374 174.109 154.872 174.083 155.499L173.923 158.148C173.891 158.676 173.94 159.102 174.069 159.426L174.064 159.519L172.717 159.437ZM171.325 158.4C171.586 158.416 171.834 158.367 172.07 158.254C172.309 158.142 172.493 157.982 172.621 157.775L172.688 156.668L171.977 156.625C171.488 156.596 171.116 156.659 170.86 156.814C170.603 156.969 170.466 157.202 170.447 157.514C170.432 157.767 170.503 157.975 170.66 158.137C170.821 158.295 171.043 158.383 171.325 158.4Z" fill="white"/>
<path d="M178.579 155.105C178.407 155.066 178.229 155.04 178.045 155.029C177.44 154.993 177.019 155.2 176.781 155.651L176.539 159.668L175.22 159.588L175.574 153.714L176.833 153.79L176.826 154.449C177.176 153.958 177.632 153.73 178.197 153.764C178.385 153.775 178.539 153.81 178.659 153.868L178.579 155.105Z" fill="white"/>
<path d="M178.955 156.822C179.01 155.917 179.263 155.204 179.716 154.683C180.169 154.158 180.749 153.917 181.454 153.96C182.077 153.997 182.567 154.245 182.924 154.702L183.105 151.695L184.424 151.774L183.922 160.113L182.728 160.041L182.699 159.429C182.276 159.883 181.735 160.09 181.076 160.05C180.389 160.009 179.848 159.698 179.454 159.119C179.064 158.54 178.898 157.774 178.955 156.822ZM180.268 157.016C180.232 157.613 180.317 158.087 180.525 158.437C180.737 158.784 181.054 158.97 181.478 158.995C182.017 159.028 182.426 158.811 182.705 158.345L182.856 155.837C182.642 155.352 182.265 155.093 181.726 155.06C181.299 155.035 180.959 155.185 180.707 155.511C180.455 155.834 180.309 156.335 180.268 157.016Z" fill="white"/>
<defs>
<clipPath id="clip0">
<rect width="44" height="44" fill="white" transform="translate(179 47)"/>
</clipPath>
<clipPath id="clip1">
<rect width="48" height="47" fill="white" transform="translate(257.458 161.598) rotate(3.45)"/>
</clipPath>
</defs>
</svg>
