<svg width="1200" height="625" viewBox="0 0 1200 625" fill="none" xmlns="http://www.w3.org/2000/svg">
    <defs>
        <style>
            @import
            url('https://fonts.googleapis.com/css2?family=Poppins:ital,wght@0,100;0,200;0,300;0,400;0,500;0,600;0,700;0,800;0,900;1,100;1,200;1,300;1,400;1,500;1,600;1,700;1,800;1,900&amp;display=swap');
        </style>
    </defs>
    <rect width="1200" height="625" fill="#F6F6F6"/>
    <rect width="625" height="625" fill="white"/>
    <text fill="black" xml:space="preserve" style="white-space: pre" font-family="Poppins" font-size="70"
          font-weight="500" letter-spacing="0em"><tspan x="673" y="350.5"> </tspan>
        <tspan x="673" y="424.5"> </tspan>
        <tspan x="673" y="498.5"> </tspan>
        <tspan x="673" y="572.5"> </tspan></text>
    <g transform="translate(240 0)">
    <path d="M789.156 76.9852C787.53 76.9852 786.06 76.7067 784.746 76.1499C783.454 75.5931 782.43 74.7912 781.672 73.7444C780.915 72.6975 780.525 71.4613 780.503 70.0358H785.514C785.581 70.9936 785.915 71.7509 786.517 72.3077C787.14 72.8646 787.987 73.143 789.056 73.143C790.147 73.143 791.005 72.8868 791.629 72.3745C792.252 71.84 792.564 71.1495 792.564 70.3031C792.564 69.6126 792.352 69.0446 791.929 68.5992C791.506 68.1537 790.971 67.8085 790.326 67.5635C789.702 67.2962 788.833 67.0066 787.72 66.6948C786.205 66.2493 784.969 65.815 784.011 65.3918C783.076 64.9463 782.263 64.2892 781.572 63.4206C780.904 62.5296 780.57 61.3491 780.57 59.8791C780.57 58.4981 780.915 57.2954 781.605 56.2708C782.296 55.2462 783.265 54.4666 784.512 53.9321C785.759 53.3752 787.185 53.0968 788.789 53.0968C791.194 53.0968 793.143 53.687 794.635 54.8675C796.15 56.0258 796.985 57.6517 797.141 59.7454H791.996C791.952 58.9436 791.606 58.2865 790.96 57.7742C790.337 57.2397 789.501 56.9724 788.455 56.9724C787.541 56.9724 786.806 57.2063 786.249 57.674C785.715 58.1418 785.448 58.8211 785.448 59.712C785.448 60.3357 785.648 60.8591 786.049 61.2823C786.472 61.6832 786.985 62.0173 787.586 62.2846C788.21 62.5296 789.078 62.8192 790.192 63.1533C791.707 63.5988 792.943 64.0442 793.9 64.4897C794.858 64.9352 795.682 65.6034 796.373 66.4943C797.063 67.3853 797.409 68.5546 797.409 70.0024C797.409 71.2497 797.086 72.4079 796.44 73.4771C795.794 74.5462 794.847 75.4037 793.6 76.0497C792.352 76.6733 790.871 76.9852 789.156 76.9852Z"
          fill="#21252C"/>
    <path d="M800.261 67.4966C800.261 65.5811 800.651 63.9106 801.43 62.4851C802.21 61.0373 803.29 59.9236 804.671 59.1441C806.052 58.3422 807.633 57.9413 809.415 57.9413C811.71 57.9413 813.603 58.5204 815.095 59.6786C816.61 60.8146 817.623 62.4183 818.135 64.4897H813.09C812.823 63.6879 812.367 63.0642 811.721 62.6187C811.097 62.151 810.317 61.9171 809.382 61.9171C808.046 61.9171 806.988 62.4071 806.208 63.3872C805.428 64.3449 805.039 65.7148 805.039 67.4966C805.039 69.2562 805.428 70.6261 806.208 71.6061C806.988 72.5639 808.046 73.0427 809.382 73.0427C811.275 73.0427 812.511 72.1964 813.09 70.5036H818.135C817.623 72.5082 816.61 74.1007 815.095 75.2812C813.581 76.4617 811.687 77.052 809.415 77.052C807.633 77.052 806.052 76.6622 804.671 75.8826C803.29 75.0808 802.21 73.9671 801.43 72.5416C800.651 71.0938 800.261 69.4122 800.261 67.4966Z"
          fill="#21252C"/>
    <path d="M820.359 67.4298C820.359 65.5588 820.727 63.8995 821.462 62.4517C822.219 61.0039 823.233 59.8902 824.502 59.1107C825.794 58.3311 827.231 57.9413 828.812 57.9413C830.193 57.9413 831.396 58.2197 832.42 58.7765C833.467 59.3334 834.303 60.035 834.926 60.8814V58.242H839.637V76.7513H834.926V74.0451C834.325 74.9137 833.49 75.6376 832.42 76.2167C831.374 76.7736 830.16 77.052 828.779 77.052C827.22 77.052 825.794 76.6511 824.502 75.8492C823.233 75.0474 822.219 73.9225 821.462 72.4748C820.727 71.0047 820.359 69.3231 820.359 67.4298ZM834.926 67.4966C834.926 66.3607 834.703 65.3918 834.258 64.5899C833.813 63.7658 833.211 63.1422 832.454 62.719C831.697 62.2735 830.884 62.0508 830.015 62.0508C829.146 62.0508 828.344 62.2624 827.609 62.6856C826.874 63.1088 826.273 63.7324 825.805 64.5565C825.36 65.3584 825.137 66.3161 825.137 67.4298C825.137 68.5435 825.36 69.5235 825.805 70.3699C826.273 71.194 826.874 71.8288 827.609 72.2743C828.367 72.7198 829.168 72.9425 830.015 72.9425C830.884 72.9425 831.697 72.7309 832.454 72.3077C833.211 71.8622 833.813 71.2386 834.258 70.4367C834.703 69.6126 834.926 68.6326 834.926 67.4966Z"
          fill="#21252C"/>
    <path d="M854.462 57.9747C856.667 57.9747 858.449 58.6763 859.808 60.0796C861.167 61.4605 861.846 63.3983 861.846 65.8929V76.7513H857.169V66.5277C857.169 65.0577 856.801 63.9329 856.066 63.1533C855.331 62.3515 854.329 61.9505 853.059 61.9505C851.767 61.9505 850.743 62.3515 849.985 63.1533C849.25 63.9329 848.883 65.0577 848.883 66.5277V76.7513H844.205V58.242H848.883V60.5473C849.506 59.7454 850.297 59.1218 851.255 58.6763C852.235 58.2086 853.304 57.9747 854.462 57.9747Z"
          fill="#21252C"/>
    <path d="M795.504 89.0686V92.8439H785.782V98.8244H793.232V102.533H785.782V112.389H781.104V89.0686H795.504Z"
          fill="#21252C"/>
    <path d="M801.193 91.6746C800.369 91.6746 799.678 91.4184 799.122 90.9061C798.587 90.3715 798.32 89.7145 798.32 88.9349C798.32 88.1553 798.587 87.5094 799.122 86.9971C799.678 86.4625 800.369 86.1953 801.193 86.1953C802.017 86.1953 802.696 86.4625 803.231 86.9971C803.788 87.5094 804.066 88.1553 804.066 88.9349C804.066 89.7145 803.788 90.3715 803.231 90.9061C802.696 91.4184 802.017 91.6746 801.193 91.6746ZM803.498 93.8796V112.389H798.821V93.8796H803.498Z"
          fill="#21252C"/>
    <path d="M818.377 93.6123C820.582 93.6123 822.364 94.314 823.722 95.7172C825.081 97.0982 825.76 99.036 825.76 101.531V112.389H821.083V102.165C821.083 100.695 820.715 99.5705 819.98 98.7909C819.245 97.9891 818.243 97.5882 816.973 97.5882C815.682 97.5882 814.657 97.9891 813.9 98.7909C813.165 99.5705 812.797 100.695 812.797 102.165V112.389H808.12V93.8796H812.797V96.1849C813.421 95.3831 814.211 94.7594 815.169 94.314C816.149 93.8462 817.218 93.6123 818.377 93.6123Z"
          fill="#21252C"/>
    <path d="M829.006 103.067C829.006 101.196 829.373 99.5371 830.108 98.0893C830.865 96.6415 831.89 95.5279 833.182 94.7483C834.474 93.9687 835.91 93.5789 837.492 93.5789C838.695 93.5789 839.842 93.8462 840.933 94.3808C842.024 94.8931 842.893 95.5836 843.539 96.4522V87.6653H848.283V112.389H843.539V109.649C842.96 110.563 842.147 111.298 841.1 111.854C840.053 112.411 838.839 112.69 837.458 112.69C835.899 112.69 834.474 112.289 833.182 111.487C831.89 110.685 830.865 109.56 830.108 108.112C829.373 106.642 829.006 104.961 829.006 103.067ZM843.572 103.134C843.572 101.998 843.35 101.029 842.904 100.228C842.459 99.4035 841.857 98.7798 841.1 98.3566C840.343 97.9111 839.53 97.6884 838.661 97.6884C837.792 97.6884 836.991 97.9 836.256 98.3232C835.521 98.7464 834.919 99.3701 834.451 100.194C834.006 100.996 833.783 101.954 833.783 103.067C833.783 104.181 834.006 105.161 834.451 106.008C834.919 106.832 835.521 107.466 836.256 107.912C837.013 108.357 837.815 108.58 838.661 108.58C839.53 108.58 840.343 108.369 841.1 107.945C841.857 107.5 842.459 106.876 842.904 106.074C843.35 105.25 843.572 104.27 843.572 103.134Z"
          fill="#21252C"/>
    <path d="M891.169 53.4312V76.7515H886.491V61.5833L880.244 76.7515H876.702L870.421 61.5833V76.7515H865.744V53.4312H871.056L878.473 70.7711L885.89 53.4312H891.169Z"
          fill="#00ADB5"/>
    <path d="M913 67.096C913 67.7642 912.955 68.3656 912.866 68.9001H899.335C899.446 70.2365 899.914 71.2834 900.738 72.0407C901.562 72.798 902.576 73.1766 903.778 73.1766C905.516 73.1766 906.752 72.4305 907.487 70.9381H912.532C911.997 72.72 910.973 74.1901 909.458 75.3483C907.944 76.4843 906.084 77.0522 903.879 77.0522C902.097 77.0522 900.493 76.6624 899.068 75.8829C897.664 75.081 896.562 73.9562 895.76 72.5084C894.98 71.0606 894.591 69.3901 894.591 67.4969C894.591 65.5814 894.98 63.8997 895.76 62.4519C896.539 61.0042 897.631 59.8905 899.034 59.1109C900.437 58.3313 902.052 57.9415 903.879 57.9415C905.638 57.9415 907.209 58.3202 908.589 59.0775C909.993 59.8348 911.073 60.9151 911.83 62.3183C912.61 63.6992 913 65.2918 913 67.096ZM908.155 65.7595C908.133 64.5568 907.699 63.599 906.852 62.8863C906.006 62.1512 904.97 61.7837 903.745 61.7837C902.587 61.7837 901.607 62.1401 900.805 62.8529C900.025 63.5433 899.546 64.5122 899.368 65.7595H908.155Z"
          fill="#00ADB5"/>
    <path d="M878.919 89.0688V112.389H874.241V97.221L867.994 112.389H864.452L858.171 97.221V112.389H853.494V89.0688H858.806L866.223 106.409L873.64 89.0688H878.919Z"
          fill="#00ADB5"/>
    <path d="M900.75 102.734C900.75 103.402 900.705 104.003 900.616 104.538H887.085C887.196 105.874 887.664 106.921 888.488 107.678C889.312 108.436 890.326 108.814 891.528 108.814C893.266 108.814 894.502 108.068 895.237 106.576H900.282C899.747 108.358 898.723 109.828 897.208 110.986C895.694 112.122 893.834 112.69 891.629 112.69C889.847 112.69 888.243 112.3 886.818 111.521C885.414 110.719 884.312 109.594 883.51 108.146C882.73 106.698 882.341 105.028 882.341 103.135C882.341 101.219 882.73 99.5374 883.51 98.0896C884.289 96.6418 885.381 95.5282 886.784 94.7486C888.187 93.969 889.802 93.5792 891.629 93.5792C893.388 93.5792 894.959 93.9579 896.339 94.7152C897.743 95.4725 898.823 96.5528 899.58 97.956C900.36 99.3369 900.75 100.93 900.75 102.734ZM895.905 101.397C895.883 100.194 895.449 99.2367 894.602 98.524C893.756 97.7889 892.72 97.4214 891.495 97.4214C890.337 97.4214 889.357 97.7778 888.555 98.4905C887.775 99.181 887.296 100.15 887.118 101.397H895.905Z"
          fill="#00ADB5"/>
    <path fill-rule="evenodd" clip-rule="evenodd"
          d="M694.419 48.6758C694.14 47.7755 693.844 46.4878 693.815 45.0115C693.736 41.0441 694.372 40 694.372 40C694.372 40 684.905 43.341 678.223 56.7051C673.473 66.2068 672.915 74.9395 673.009 79.3364C673.003 79.5877 673 79.8397 673 80.0922C673 97.2319 687.222 111.631 706.461 115.696L706.41 115.73C706.54 115.742 706.669 115.754 706.796 115.766C708.611 116.137 710.471 116.417 712.367 116.598C722.989 118.921 719.929 123.897 718.344 126.473C718.259 126.612 718.178 126.743 718.104 126.867C745.12 122.814 757.208 103.834 760.845 88.7688C761.611 86.1578 762.039 83.438 762.089 80.6425L762.094 80.6492C762.094 80.6492 763.323 70.2993 756.526 56.7051C749.844 43.341 740.377 40 740.377 40C740.377 40 741.013 41.0441 740.934 45.0115C740.907 46.4081 740.64 47.6359 740.375 48.5266C733.699 45.2334 725.891 43.3409 717.547 43.3409C709.078 43.3409 701.161 45.2906 694.419 48.6758Z"
          fill="#00ADB5"/>
    <path d="M754.299 78.9787C754.299 94.9704 737.844 106.821 717.547 106.821C697.25 106.821 680.796 94.9704 680.796 78.9787C680.796 66.1714 688.035 58.3756 697.501 57.262C713.01 55.4375 717.547 70.0692 717.547 70.0692C717.547 70.0692 720.331 57.262 735.366 57.262C745.389 57.262 754.299 66.1714 754.299 78.9787Z"
          fill="white"/>
    <path d="M687.902 66.4102H710.176V88.6837C702.751 88.6695 695.327 88.6646 687.902 88.6688V66.4102ZM691.629 70.1797C691.615 75.1195 691.61 80.0606 691.615 85.0032H706.464C706.464 80.0635 706.459 75.1138 706.449 70.1542C701.505 70.1613 696.565 70.1698 691.629 70.1797Z"
          fill="#21252C"/>
    <path d="M703.812 72.774H694.266V82.3198H703.812V72.774Z" fill="#21252C"/>
    <path d="M724.918 66.4102H747.192V88.6837C739.767 88.6695 732.343 88.6646 724.918 88.6688V66.4102ZM728.646 70.1797C728.631 75.1195 728.626 80.0606 728.631 85.0032H743.48C743.48 80.0635 743.475 75.1138 743.465 70.1542C738.521 70.1613 733.581 70.1698 728.646 70.1797Z"
          fill="#21252C"/>
    <path d="M740.829 72.774H731.283V82.3198H740.829V72.774Z" fill="#21252C"/>
    <path d="M711.979 91.1722C714.039 90.0533 715.874 88.5622 717.391 86.7744C718.913 88.5643 720.751 90.0581 722.815 91.181C720.985 94.3415 719.175 97.5079 717.384 100.68C715.62 97.4909 713.785 94.3386 711.979 91.1722Z"
          fill="#00ADB5"/>

    </g>

    <text fill="#03949A" xml:space="preserve" style="white-space: pre" font-family="Poppins"
          font-size="25" font-weight="800" letter-spacing="0em">
        <tspan x="673" y="165"> </tspan></text>

    <defs>
        <clipPath id="clip0">
            <rect x="257.812" y="150.52" width="134.375" height="269.052" rx="4" fill="white"/>
        </clipPath>
        <clipPath id="clip1">
            <rect width="12.691" height="12.6969" fill="white" transform="translate(308.576 218.555)"/>
        </clipPath>
        <clipPath id="clip2">
            <rect width="12.691" height="12.6969" fill="white" transform="translate(328.732 218.555)"/>
        </clipPath>
        <clipPath id="clip3">
            <rect width="8.95833" height="8.96248" fill="white" transform="translate(371.962 355.818)"/>
        </clipPath>
    </defs>
</svg>
