<svg width="1200" height="625" viewBox="0 0 1200 625" fill="none" xmlns="http://www.w3.org/2000/svg" xmlns:xlink="http://www.w3.org/1999/xlink">
    <defs>
        <style>
            @import url('https://fonts.googleapis.com/css2?family=Poppins:ital,wght@0,100;0,200;0,300;0,400;0,500;0,600;0,700;0,800;0,900;1,100;1,200;1,300;1,400;1,500;1,600;1,700;1,800;1,900&amp;display=swap');
        </style>
    </defs>

    <rect width="1200" height="625" fill="white"/>
    <g transform="rotate(90 0 0) translate(2 -280)">
        <g transform="translate(0 0) scale(0.97)">
            <g transform="translate(0.000, 0.000) scale(19.394, 19.394)">
                <defs><path id="qrnodots_9288" d="M 9.1 0.9 L 9.9 0.9 L 9.9 0.1 L 9.1 0.1 L 9.1 0.9 Z M 10.1 0.1 L 10.1 0.9 L 10.9 0.9 L 10.9 0.1 L 10.1 0.1 Z M 16.1 0.9 L 16.9 0.9 L 16.9 0.1 L 16.1 0.1 L 16.1 0.9 Z M 17.1 0.1 L 17.1 0.9 L 17.9 0.9 L 17.9 0.1 L 17.1 0.1 Z M 18.1 0.1 L 18.1 0.9 L 18.9 0.9 L 18.9 0.1 L 18.1 0.1 Z M 19.9 0.1 L 19.1 0.1 L 19.1 0.9 L 19.9 0.9 L 19.9 0.1 Z M 21.1 0.9 L 21.9 0.9 L 21.9 0.1 L 21.1 0.1 L 21.1 0.9 Z M 22.1 0.1 L 22.1 0.9 L 22.9 0.9 L 22.9 0.1 L 22.1 0.1 Z M 23.1 0.1 L 23.1 0.9 L 23.9 0.9 L 23.9 0.1 L 23.1 0.1 Z M 24.9 0.1 L 24.1 0.1 L 24.1 0.9 L 24.9 0.9 L 24.9 0.1 Z M 10.1 1.1 L 10.1 1.9 L 10.9 1.9 L 10.9 1.1 L 10.1 1.1 Z M 11.1 1.1 L 11.1 1.9 L 11.9 1.9 L 11.9 1.1 L 11.1 1.1 Z M 13.1 1.9 L 13.9 1.9 L 13.9 1.1 L 13.1 1.1 L 13.1 1.9 Z M 14.1 1.1 L 14.1 1.9 L 14.9 1.9 L 14.9 1.1 L 14.1 1.1 Z M 15.1 1.1 L 15.1 1.9 L 15.9 1.9 L 15.9 1.1 L 15.1 1.1 Z M 17.9 1.9 L 17.9 1.1 L 17.1 1.1 L 17.1 1.9 L 17.9 1.9 Z M 18.9 1.1 L 18.1 1.1 L 18.1 1.9 L 18.9 1.9 L 18.9 1.1 Z M 20.1 1.9 L 20.9 1.9 L 20.9 1.1 L 20.1 1.1 L 20.1 1.9 Z M 21.1 1.1 L 21.1 1.9 L 21.9 1.9 L 21.9 1.1 L 21.1 1.1 Z M 8.1 2.1 L 8.1 2.9 L 8.9 2.9 L 8.9 2.1 L 8.1 2.1 Z M 10.1 2.1 L 10.1 2.9 L 10.9 2.9 L 10.9 2.1 L 10.1 2.1 Z M 11.1 2.1 L 11.1 2.9 L 11.9 2.9 L 11.9 2.1 L 11.1 2.1 Z M 15.9 2.9 L 15.9 2.1 L 15.1 2.1 L 15.1 2.9 L 15.9 2.9 Z M 16.9 2.1 L 16.1 2.1 L 16.1 2.9 L 16.9 2.9 L 16.9 2.1 Z M 20.9 2.9 L 20.9 2.1 L 20.1 2.1 L 20.1 2.9 L 20.9 2.9 Z M 21.1 2.1 L 21.1 2.9 L 21.9 2.9 L 21.9 2.1 L 21.1 2.1 Z M 8.1 3.1 L 8.1 3.9 L 8.9 3.9 L 8.9 3.1 L 8.1 3.1 Z M 9.1 3.1 L 9.1 3.9 L 9.9 3.9 L 9.9 3.1 L 9.1 3.1 Z M 10.1 3.1 L 10.1 3.9 L 10.9 3.9 L 10.9 3.1 L 10.1 3.1 Z M 11.1 3.1 L 11.1 3.9 L 11.9 3.9 L 11.9 3.1 L 11.1 3.1 Z M 13.1 3.1 L 13.1 3.9 L 13.9 3.9 L 13.9 3.1 L 13.1 3.1 Z M 21.1 3.1 L 21.1 3.9 L 21.9 3.9 L 21.9 3.1 L 21.1 3.1 Z M 22.1 3.1 L 22.1 3.9 L 22.9 3.9 L 22.9 3.1 L 22.1 3.1 Z M 24.1 3.1 L 24.1 3.9 L 24.9 3.9 L 24.9 3.1 L 24.1 3.1 Z M 8.9 4.9 L 8.9 4.1 L 8.1 4.1 L 8.1 4.9 L 8.9 4.9 Z M 11.1 4.1 L 11.1 4.9 L 11.9 4.9 L 11.9 4.1 L 11.1 4.1 Z M 13.9 4.9 L 13.9 4.1 L 13.1 4.1 L 13.1 4.9 L 13.9 4.9 Z M 14.9 4.1 L 14.1 4.1 L 14.1 4.9 L 14.9 4.9 L 14.9 4.1 Z M 16.1 4.9 L 16.9 4.9 L 16.9 4.1 L 16.1 4.1 L 16.1 4.9 Z M 17.1 4.1 L 17.1 4.9 L 17.9 4.9 L 17.9 4.1 L 17.1 4.1 Z M 21.9 4.9 L 21.9 4.1 L 21.1 4.1 L 21.1 4.9 L 21.9 4.9 Z M 22.1 4.1 L 22.1 4.9 L 22.9 4.9 L 22.9 4.1 L 22.1 4.1 Z M 24.1 4.1 L 24.1 4.9 L 24.9 4.9 L 24.9 4.1 L 24.1 4.1 Z M 9.1 5.9 L 9.9 5.9 L 9.9 5.1 L 9.1 5.1 L 9.1 5.9 Z M 10.1 5.1 L 10.1 5.9 L 10.9 5.9 L 10.9 5.1 L 10.1 5.1 Z M 11.1 5.1 L 11.1 5.9 L 11.9 5.9 L 11.9 5.1 L 11.1 5.1 Z M 12.1 5.1 L 12.1 5.9 L 12.9 5.9 L 12.9 5.1 L 12.1 5.1 Z M 17.9 5.9 L 17.9 5.1 L 17.1 5.1 L 17.1 5.9 L 17.9 5.9 Z M 18.1 5.1 L 18.1 5.9 L 18.9 5.9 L 18.9 5.1 L 18.1 5.1 Z M 22.1 5.1 L 22.1 5.9 L 22.9 5.9 L 22.9 5.1 L 22.1 5.1 Z M 23.1 5.1 L 23.1 5.9 L 23.9 5.9 L 23.9 5.1 L 23.1 5.1 Z M 24.1 5.1 L 24.1 5.9 L 24.9 5.9 L 24.9 5.1 L 24.1 5.1 Z M 10.9 6.9 L 10.9 6.1 L 10.1 6.1 L 10.1 6.9 L 10.9 6.9 Z M 12.1 6.1 L 12.1 6.9 L 12.9 6.9 L 12.9 6.1 L 12.1 6.1 Z M 16.1 6.1 L 16.1 6.9 L 16.9 6.9 L 16.9 6.1 L 16.1 6.1 Z M 18.9 6.9 L 18.9 6.1 L 18.1 6.1 L 18.1 6.9 L 18.9 6.9 Z M 22.1 6.1 L 22.1 6.9 L 22.9 6.9 L 22.9 6.1 L 22.1 6.1 Z M 24.9 6.9 L 24.9 6.1 L 24.1 6.1 L 24.1 6.9 L 24.9 6.9 Z M 11.1 7.9 L 11.9 7.9 L 11.9 7.1 L 11.1 7.1 L 11.1 7.9 Z M 12.1 7.1 L 12.1 7.9 L 12.9 7.9 L 12.9 7.1 L 12.1 7.1 Z M 13.1 7.1 L 13.1 7.9 L 13.9 7.9 L 13.9 7.1 L 13.1 7.1 Z M 15.1 7.9 L 15.9 7.9 L 15.9 7.1 L 15.1 7.1 L 15.1 7.9 Z M 16.1 7.1 L 16.1 7.9 L 16.9 7.9 L 16.9 7.1 L 16.1 7.1 Z M 17.1 7.1 L 17.1 7.9 L 17.9 7.9 L 17.9 7.1 L 17.1 7.1 Z M 19.1 7.1 L 19.1 7.9 L 19.9 7.9 L 19.9 7.1 L 19.1 7.1 Z M 22.1 7.1 L 22.1 7.9 L 22.9 7.9 L 22.9 7.1 L 22.1 7.1 Z M 23.1 7.1 L 23.1 7.9 L 23.9 7.9 L 23.9 7.1 L 23.1 7.1 Z M 0.1 8.9 L 0.9 8.9 L 0.9 8.1 L 0.1 8.1 L 0.1 8.9 Z M 1.1 8.1 L 1.1 8.9 L 1.9 8.9 L 1.9 8.1 L 1.1 8.1 Z M 2.9 8.1 L 2.1 8.1 L 2.1 8.9 L 2.9 8.9 L 2.9 8.1 Z M 5.1 8.9 L 5.9 8.9 L 5.9 8.1 L 5.1 8.1 L 5.1 8.9 Z M 6.1 8.1 L 6.1 8.9 L 6.9 8.9 L 6.9 8.1 L 6.1 8.1 Z M 7.1 8.1 L 7.1 8.9 L 7.9 8.9 L 7.9 8.1 L 7.1 8.1 Z M 8.9 8.1 L 8.1 8.1 L 8.1 8.9 L 8.9 8.9 L 8.9 8.1 Z M 10.1 8.9 L 10.9 8.9 L 10.9 8.1 L 10.1 8.1 L 10.1 8.9 Z M 11.1 8.1 L 11.1 8.9 L 11.9 8.9 L 11.9 8.1 L 11.1 8.1 Z M 12.1 8.1 L 12.1 8.9 L 12.9 8.9 L 12.9 8.1 L 12.1 8.1 Z M 13.1 8.1 L 13.1 8.9 L 13.9 8.9 L 13.9 8.1 L 13.1 8.1 Z M 14.1 8.1 L 14.1 8.9 L 14.9 8.9 L 14.9 8.1 L 14.1 8.1 Z M 15.9 8.1 L 15.1 8.1 L 15.1 8.9 L 15.9 8.9 L 15.9 8.1 Z M 17.1 8.1 L 17.1 8.9 L 17.9 8.9 L 17.9 8.1 L 17.1 8.1 Z M 18.1 8.1 L 18.1 8.9 L 18.9 8.9 L 18.9 8.1 L 18.1 8.1 Z M 19.1 8.1 L 19.1 8.9 L 19.9 8.9 L 19.9 8.1 L 19.1 8.1 Z M 20.1 8.1 L 20.1 8.9 L 20.9 8.9 L 20.9 8.1 L 20.1 8.1 Z M 21.1 8.1 L 21.1 8.9 L 21.9 8.9 L 21.9 8.1 L 21.1 8.1 Z M 22.1 8.1 L 22.1 8.9 L 22.9 8.9 L 22.9 8.1 L 22.1 8.1 Z M 23.1 8.1 L 23.1 8.9 L 23.9 8.9 L 23.9 8.1 L 23.1 8.1 Z M 24.1 8.1 L 24.1 8.9 L 24.9 8.9 L 24.9 8.1 L 24.1 8.1 Z M 25.9 8.1 L 25.1 8.1 L 25.1 8.9 L 25.9 8.9 L 25.9 8.1 Z M 28.1 8.9 L 28.9 8.9 L 28.9 8.1 L 28.1 8.1 L 28.1 8.9 Z M 29.1 8.1 L 29.1 8.9 L 29.9 8.9 L 29.9 8.1 L 29.1 8.1 Z M 30.1 8.1 L 30.1 8.9 L 30.9 8.9 L 30.9 8.1 L 30.1 8.1 Z M 1.9 9.9 L 1.9 9.1 L 1.1 9.1 L 1.1 9.9 L 1.9 9.9 Z M 3.1 9.9 L 3.9 9.9 L 3.9 9.1 L 3.1 9.1 L 3.1 9.9 Z M 4.1 9.1 L 4.1 9.9 L 4.9 9.9 L 4.9 9.1 L 4.1 9.1 Z M 5.1 9.1 L 5.1 9.9 L 5.9 9.9 L 5.9 9.1 L 5.1 9.1 Z M 7.1 9.1 L 7.1 9.9 L 7.9 9.9 L 7.9 9.1 L 7.1 9.1 Z M 10.1 9.1 L 10.1 9.9 L 10.9 9.9 L 10.9 9.1 L 10.1 9.1 Z M 11.1 9.1 L 11.1 9.9 L 11.9 9.9 L 11.9 9.1 L 11.1 9.1 Z M 17.1 9.1 L 17.1 9.9 L 17.9 9.9 L 17.9 9.1 L 17.1 9.1 Z M 18.1 9.1 L 18.1 9.9 L 18.9 9.9 L 18.9 9.1 L 18.1 9.1 Z M 19.1 9.1 L 19.1 9.9 L 19.9 9.9 L 19.9 9.1 L 19.1 9.1 Z M 20.1 9.1 L 20.1 9.9 L 20.9 9.9 L 20.9 9.1 L 20.1 9.1 Z M 21.1 9.1 L 21.1 9.9 L 21.9 9.9 L 21.9 9.1 L 21.1 9.1 Z M 22.1 9.1 L 22.1 9.9 L 22.9 9.9 L 22.9 9.1 L 22.1 9.1 Z M 24.9 9.9 L 24.9 9.1 L 24.1 9.1 L 24.1 9.9 L 24.9 9.9 Z M 26.1 9.1 L 26.1 9.9 L 26.9 9.9 L 26.9 9.1 L 26.1 9.1 Z M 30.9 9.9 L 30.9 9.1 L 30.1 9.1 L 30.1 9.9 L 30.9 9.9 Z M 4.1 10.1 L 4.1 10.9 L 4.9 10.9 L 4.9 10.1 L 4.1 10.1 Z M 5.1 10.1 L 5.1 10.9 L 5.9 10.9 L 5.9 10.1 L 5.1 10.1 Z M 6.1 10.1 L 6.1 10.9 L 6.9 10.9 L 6.9 10.1 L 6.1 10.1 Z M 7.1 10.1 L 7.1 10.9 L 7.9 10.9 L 7.9 10.1 L 7.1 10.1 Z M 9.1 10.9 L 9.9 10.9 L 9.9 10.1 L 9.1 10.1 L 9.1 10.9 Z M 10.1 10.1 L 10.1 10.9 L 10.9 10.9 L 10.9 10.1 L 10.1 10.1 Z M 11.1 10.1 L 11.1 10.9 L 11.9 10.9 L 11.9 10.1 L 11.1 10.1 Z M 12.1 10.1 L 12.1 10.9 L 12.9 10.9 L 12.9 10.1 L 12.1 10.1 Z M 13.1 10.1 L 13.1 10.9 L 13.9 10.9 L 13.9 10.1 L 13.1 10.1 Z M 14.1 10.1 L 14.1 10.9 L 14.9 10.9 L 14.9 10.1 L 14.1 10.1 Z M 15.1 10.1 L 15.1 10.9 L 15.9 10.9 L 15.9 10.1 L 15.1 10.1 Z M 17.1 10.1 L 17.1 10.9 L 17.9 10.9 L 17.9 10.1 L 17.1 10.1 Z M 19.9 10.9 L 19.9 10.1 L 19.1 10.1 L 19.1 10.9 L 19.9 10.9 Z M 21.1 10.1 L 21.1 10.9 L 21.9 10.9 L 21.9 10.1 L 21.1 10.1 Z M 22.1 10.1 L 22.1 10.9 L 22.9 10.9 L 22.9 10.1 L 22.1 10.1 Z M 23.1 10.1 L 23.1 10.9 L 23.9 10.9 L 23.9 10.1 L 23.1 10.1 Z M 26.9 10.9 L 26.9 10.1 L 26.1 10.1 L 26.1 10.9 L 26.9 10.9 Z M 27.1 10.1 L 27.1 10.9 L 27.9 10.9 L 27.9 10.1 L 27.1 10.1 Z M 28.1 10.1 L 28.1 10.9 L 28.9 10.9 L 28.9 10.1 L 28.1 10.1 Z M 29.9 10.1 L 29.1 10.1 L 29.1 10.9 L 29.9 10.9 L 29.9 10.1 Z M 32.1 10.1 L 32.1 10.9 L 32.9 10.9 L 32.9 10.1 L 32.1 10.1 Z M 4.1 11.1 L 4.1 11.9 L 4.9 11.9 L 4.9 11.1 L 4.1 11.1 Z M 7.9 11.9 L 7.9 11.1 L 7.1 11.1 L 7.1 11.9 L 7.9 11.9 Z M 11.1 11.1 L 11.1 11.9 L 11.9 11.9 L 11.9 11.1 L 11.1 11.1 Z M 14.9 11.9 L 14.9 11.1 L 14.1 11.1 L 14.1 11.9 L 14.9 11.9 Z M 15.1 11.1 L 15.1 11.9 L 15.9 11.9 L 15.9 11.1 L 15.1 11.1 Z M 17.1 11.1 L 17.1 11.9 L 17.9 11.9 L 17.9 11.1 L 17.1 11.1 Z M 21.1 11.1 L 21.1 11.9 L 21.9 11.9 L 21.9 11.1 L 21.1 11.1 Z M 22.1 11.1 L 22.1 11.9 L 22.9 11.9 L 22.9 11.1 L 22.1 11.1 Z M 23.9 11.1 L 23.1 11.1 L 23.1 11.9 L 23.9 11.9 L 23.9 11.1 Z M 27.1 11.1 L 27.1 11.9 L 27.9 11.9 L 27.9 11.1 L 27.1 11.1 Z M 28.9 11.1 L 28.1 11.1 L 28.1 11.9 L 28.9 11.9 L 28.9 11.1 Z M 31.1 11.9 L 31.9 11.9 L 31.9 11.1 L 31.1 11.1 L 31.1 11.9 Z M 32.1 11.1 L 32.1 11.9 L 32.9 11.9 L 32.9 11.1 L 32.1 11.1 Z M 1.1 12.9 L 1.9 12.9 L 1.9 12.1 L 1.1 12.1 L 1.1 12.9 Z M 2.1 12.1 L 2.1 12.9 L 2.9 12.9 L 2.9 12.1 L 2.1 12.1 Z M 3.1 12.1 L 3.1 12.9 L 3.9 12.9 L 3.9 12.1 L 3.1 12.1 Z M 4.1 12.1 L 4.1 12.9 L 4.9 12.9 L 4.9 12.1 L 4.1 12.1 Z M 5.1 12.1 L 5.1 12.9 L 5.9 12.9 L 5.9 12.1 L 5.1 12.1 Z M 6.9 12.1 L 6.1 12.1 L 6.1 12.9 L 6.9 12.9 L 6.9 12.1 Z M 9.1 12.9 L 9.9 12.9 L 9.9 12.1 L 9.1 12.1 L 9.1 12.9 Z M 10.1 12.1 L 10.1 12.9 L 10.9 12.9 L 10.9 12.1 L 10.1 12.1 Z M 11.1 12.1 L 11.1 12.9 L 11.9 12.9 L 11.9 12.1 L 11.1 12.1 Z M 12.1 12.1 L 12.1 12.9 L 12.9 12.9 L 12.9 12.1 L 12.1 12.1 Z M 15.9 12.9 L 15.9 12.1 L 15.1 12.1 L 15.1 12.9 L 15.9 12.9 Z M 17.9 12.9 L 17.9 12.1 L 17.1 12.1 L 17.1 12.9 L 17.9 12.9 Z M 18.1 12.1 L 18.1 12.9 L 18.9 12.9 L 18.9 12.1 L 18.1 12.1 Z M 19.1 12.1 L 19.1 12.9 L 19.9 12.9 L 19.9 12.1 L 19.1 12.1 Z M 21.9 12.9 L 21.9 12.1 L 21.1 12.1 L 21.1 12.9 L 21.9 12.9 Z M 22.9 12.1 L 22.1 12.1 L 22.1 12.9 L 22.9 12.9 L 22.9 12.1 Z M 26.1 12.9 L 26.9 12.9 L 26.9 12.1 L 26.1 12.1 L 26.1 12.9 Z M 27.9 12.1 L 27.1 12.1 L 27.1 12.9 L 27.9 12.9 L 27.9 12.1 Z M 31.1 12.1 L 31.1 12.9 L 31.9 12.9 L 31.9 12.1 L 31.1 12.1 Z M 32.9 12.1 L 32.1 12.1 L 32.1 12.9 L 32.9 12.9 L 32.9 12.1 Z M 2.9 13.9 L 2.9 13.1 L 2.1 13.1 L 2.1 13.9 L 2.9 13.9 Z M 4.9 13.9 L 4.9 13.1 L 4.1 13.1 L 4.1 13.9 L 4.9 13.9 Z M 9.9 13.9 L 9.9 13.1 L 9.1 13.1 L 9.1 13.9 L 9.9 13.9 Z M 12.1 13.1 L 12.1 13.9 L 12.9 13.9 L 12.9 13.1 L 12.1 13.1 Z M 18.9 13.9 L 18.9 13.1 L 18.1 13.1 L 18.1 13.9 L 18.9 13.9 Z M 19.1 13.1 L 19.1 13.9 L 19.9 13.9 L 19.9 13.1 L 19.1 13.1 Z M 24.1 13.9 L 24.9 13.9 L 24.9 13.1 L 24.1 13.1 L 24.1 13.9 Z M 25.1 13.1 L 25.1 13.9 L 25.9 13.9 L 25.9 13.1 L 25.1 13.1 Z M 31.1 13.1 L 31.1 13.9 L 31.9 13.9 L 31.9 13.1 L 31.1 13.1 Z M 5.1 14.9 L 5.9 14.9 L 5.9 14.1 L 5.1 14.1 L 5.1 14.9 Z M 6.9 14.1 L 6.1 14.1 L 6.1 14.9 L 6.9 14.9 L 6.9 14.1 Z M 10.1 14.9 L 10.9 14.9 L 10.9 14.1 L 10.1 14.1 L 10.1 14.9 Z M 11.1 14.1 L 11.1 14.9 L 11.9 14.9 L 11.9 14.1 L 11.1 14.1 Z M 12.1 14.1 L 12.1 14.9 L 12.9 14.9 L 12.9 14.1 L 12.1 14.1 Z M 13.9 14.1 L 13.1 14.1 L 13.1 14.9 L 13.9 14.9 L 13.9 14.1 Z M 19.9 14.9 L 19.9 14.1 L 19.1 14.1 L 19.1 14.9 L 19.9 14.9 Z M 21.1 14.9 L 21.9 14.9 L 21.9 14.1 L 21.1 14.1 L 21.1 14.9 Z M 22.1 14.1 L 22.1 14.9 L 22.9 14.9 L 22.9 14.1 L 22.1 14.1 Z M 23.9 14.1 L 23.1 14.1 L 23.1 14.9 L 23.9 14.9 L 23.9 14.1 Z M 25.1 14.1 L 25.1 14.9 L 25.9 14.9 L 25.9 14.1 L 25.1 14.1 Z M 28.1 14.9 L 28.9 14.9 L 28.9 14.1 L 28.1 14.1 L 28.1 14.9 Z M 29.1 14.1 L 29.1 14.9 L 29.9 14.9 L 29.9 14.1 L 29.1 14.1 Z M 30.1 14.1 L 30.1 14.9 L 30.9 14.9 L 30.9 14.1 L 30.1 14.1 Z M 31.9 14.1 L 31.1 14.1 L 31.1 14.9 L 31.9 14.9 L 31.9 14.1 Z M 0.1 15.1 L 0.1 15.9 L 0.9 15.9 L 0.9 15.1 L 0.1 15.1 Z M 2.1 15.9 L 2.9 15.9 L 2.9 15.1 L 2.1 15.1 L 2.1 15.9 Z M 3.9 15.1 L 3.1 15.1 L 3.1 15.9 L 3.9 15.9 L 3.9 15.1 Z M 11.1 15.1 L 11.1 15.9 L 11.9 15.9 L 11.9 15.1 L 11.1 15.1 Z M 14.1 15.1 L 14.1 15.9 L 14.9 15.9 L 14.9 15.1 L 14.1 15.1 Z M 16.1 15.1 L 16.1 15.9 L 16.9 15.9 L 16.9 15.1 L 16.1 15.1 Z M 18.1 15.1 L 18.1 15.9 L 18.9 15.9 L 18.9 15.1 L 18.1 15.1 Z M 20.1 15.9 L 20.9 15.9 L 20.9 15.1 L 20.1 15.1 L 20.1 15.9 Z M 21.1 15.1 L 21.1 15.9 L 21.9 15.9 L 21.9 15.1 L 21.1 15.1 Z M 22.1 15.1 L 22.1 15.9 L 22.9 15.9 L 22.9 15.1 L 22.1 15.1 Z M 25.9 15.9 L 25.9 15.1 L 25.1 15.1 L 25.1 15.9 L 25.9 15.9 Z M 27.1 15.9 L 27.9 15.9 L 27.9 15.1 L 27.1 15.1 L 27.1 15.9 Z M 28.1 15.1 L 28.1 15.9 L 28.9 15.9 L 28.9 15.1 L 28.1 15.1 Z M 29.1 15.1 L 29.1 15.9 L 29.9 15.9 L 29.9 15.1 L 29.1 15.1 Z M 30.9 15.1 L 30.1 15.1 L 30.1 15.9 L 30.9 15.9 L 30.9 15.1 Z M 0.9 16.9 L 0.9 16.1 L 0.1 16.1 L 0.1 16.9 L 0.9 16.9 Z M 1.1 16.1 L 1.1 16.9 L 1.9 16.9 L 1.9 16.1 L 1.1 16.1 Z M 2.9 16.1 L 2.1 16.1 L 2.1 16.9 L 2.9 16.9 L 2.9 16.1 Z M 4.1 16.9 L 4.9 16.9 L 4.9 16.1 L 4.1 16.1 L 4.1 16.9 Z M 5.1 16.1 L 5.1 16.9 L 5.9 16.9 L 5.9 16.1 L 5.1 16.1 Z M 6.9 16.1 L 6.1 16.1 L 6.1 16.9 L 6.9 16.9 L 6.9 16.1 Z M 11.1 16.1 L 11.1 16.9 L 11.9 16.9 L 11.9 16.1 L 11.1 16.1 Z M 14.9 16.9 L 14.9 16.1 L 14.1 16.1 L 14.1 16.9 L 14.9 16.9 Z M 16.9 16.9 L 16.9 16.1 L 16.1 16.1 L 16.1 16.9 L 16.9 16.9 Z M 18.9 16.9 L 18.9 16.1 L 18.1 16.1 L 18.1 16.9 L 18.9 16.9 Z M 19.1 16.1 L 19.1 16.9 L 19.9 16.9 L 19.9 16.1 L 19.1 16.1 Z M 20.1 16.1 L 20.1 16.9 L 20.9 16.9 L 20.9 16.1 L 20.1 16.1 Z M 22.1 16.1 L 22.1 16.9 L 22.9 16.9 L 22.9 16.1 L 22.1 16.1 Z M 23.1 16.1 L 23.1 16.9 L 23.9 16.9 L 23.9 16.1 L 23.1 16.1 Z M 24.1 16.1 L 24.1 16.9 L 24.9 16.9 L 24.9 16.1 L 24.1 16.1 Z M 28.1 16.1 L 28.1 16.9 L 28.9 16.9 L 28.9 16.1 L 28.1 16.1 Z M 1.1 17.1 L 1.1 17.9 L 1.9 17.9 L 1.9 17.1 L 1.1 17.1 Z M 5.9 17.9 L 5.9 17.1 L 5.1 17.1 L 5.1 17.9 L 5.9 17.9 Z M 7.1 17.9 L 7.9 17.9 L 7.9 17.1 L 7.1 17.1 L 7.1 17.9 Z M 8.1 17.1 L 8.1 17.9 L 8.9 17.9 L 8.9 17.1 L 8.1 17.1 Z M 9.1 17.1 L 9.1 17.9 L 9.9 17.9 L 9.9 17.1 L 9.1 17.1 Z M 11.1 17.1 L 11.1 17.9 L 11.9 17.9 L 11.9 17.1 L 11.1 17.1 Z M 12.1 17.1 L 12.1 17.9 L 12.9 17.9 L 12.9 17.1 L 12.1 17.1 Z M 13.1 17.1 L 13.1 17.9 L 13.9 17.9 L 13.9 17.1 L 13.1 17.1 Z M 15.1 17.1 L 15.1 17.9 L 15.9 17.9 L 15.9 17.1 L 15.1 17.1 Z M 19.1 17.1 L 19.1 17.9 L 19.9 17.9 L 19.9 17.1 L 19.1 17.1 Z M 20.1 17.1 L 20.1 17.9 L 20.9 17.9 L 20.9 17.1 L 20.1 17.1 Z M 21.1 17.1 L 21.1 17.9 L 21.9 17.9 L 21.9 17.1 L 21.1 17.1 Z M 22.1 17.1 L 22.1 17.9 L 22.9 17.9 L 22.9 17.1 L 22.1 17.1 Z M 24.9 17.9 L 24.9 17.1 L 24.1 17.1 L 24.1 17.9 L 24.9 17.9 Z M 25.1 17.1 L 25.1 17.9 L 25.9 17.9 L 25.9 17.1 L 25.1 17.1 Z M 26.1 17.1 L 26.1 17.9 L 26.9 17.9 L 26.9 17.1 L 26.1 17.1 Z M 27.1 17.1 L 27.1 17.9 L 27.9 17.9 L 27.9 17.1 L 27.1 17.1 Z M 28.1 17.1 L 28.1 17.9 L 28.9 17.9 L 28.9 17.1 L 28.1 17.1 Z M 29.1 17.1 L 29.1 17.9 L 29.9 17.9 L 29.9 17.1 L 29.1 17.1 Z M 30.9 17.1 L 30.1 17.1 L 30.1 17.9 L 30.9 17.9 L 30.9 17.1 Z M 32.1 17.1 L 32.1 17.9 L 32.9 17.9 L 32.9 17.1 L 32.1 17.1 Z M 1.9 18.9 L 1.9 18.1 L 1.1 18.1 L 1.1 18.9 L 1.9 18.9 Z M 4.1 18.1 L 4.1 18.9 L 4.9 18.9 L 4.9 18.1 L 4.1 18.1 Z M 6.1 18.9 L 6.9 18.9 L 6.9 18.1 L 6.1 18.1 L 6.1 18.9 Z M 7.9 18.1 L 7.1 18.1 L 7.1 18.9 L 7.9 18.9 L 7.9 18.1 Z M 9.9 18.9 L 9.9 18.1 L 9.1 18.1 L 9.1 18.9 L 9.9 18.9 Z M 11.1 18.1 L 11.1 18.9 L 11.9 18.9 L 11.9 18.1 L 11.1 18.1 Z M 12.1 18.1 L 12.1 18.9 L 12.9 18.9 L 12.9 18.1 L 12.1 18.1 Z M 13.1 18.1 L 13.1 18.9 L 13.9 18.9 L 13.9 18.1 L 13.1 18.1 Z M 14.1 18.1 L 14.1 18.9 L 14.9 18.9 L 14.9 18.1 L 14.1 18.1 Z M 15.1 18.1 L 15.1 18.9 L 15.9 18.9 L 15.9 18.1 L 15.1 18.1 Z M 16.1 18.1 L 16.1 18.9 L 16.9 18.9 L 16.9 18.1 L 16.1 18.1 Z M 19.1 18.1 L 19.1 18.9 L 19.9 18.9 L 19.9 18.1 L 19.1 18.1 Z M 21.1 18.1 L 21.1 18.9 L 21.9 18.9 L 21.9 18.1 L 21.1 18.1 Z M 22.1 18.1 L 22.1 18.9 L 22.9 18.9 L 22.9 18.1 L 22.1 18.1 Z M 26.1 18.1 L 26.1 18.9 L 26.9 18.9 L 26.9 18.1 L 26.1 18.1 Z M 28.1 18.1 L 28.1 18.9 L 28.9 18.9 L 28.9 18.1 L 28.1 18.1 Z M 29.1 18.1 L 29.1 18.9 L 29.9 18.9 L 29.9 18.1 L 29.1 18.1 Z M 32.9 18.9 L 32.9 18.1 L 32.1 18.1 L 32.1 18.9 L 32.9 18.9 Z M 3.1 19.9 L 3.9 19.9 L 3.9 19.1 L 3.1 19.1 L 3.1 19.9 Z M 4.1 19.1 L 4.1 19.9 L 4.9 19.9 L 4.9 19.1 L 4.1 19.1 Z M 5.9 19.1 L 5.1 19.1 L 5.1 19.9 L 5.9 19.9 L 5.9 19.1 Z M 10.1 19.9 L 10.9 19.9 L 10.9 19.1 L 10.1 19.1 L 10.1 19.9 Z M 11.9 19.1 L 11.1 19.1 L 11.1 19.9 L 11.9 19.9 L 11.9 19.1 Z M 14.1 19.1 L 14.1 19.9 L 14.9 19.9 L 14.9 19.1 L 14.1 19.1 Z M 15.1 19.1 L 15.1 19.9 L 15.9 19.9 L 15.9 19.1 L 15.1 19.1 Z M 16.1 19.1 L 16.1 19.9 L 16.9 19.9 L 16.9 19.1 L 16.1 19.1 Z M 17.1 19.1 L 17.1 19.9 L 17.9 19.9 L 17.9 19.1 L 17.1 19.1 Z M 19.9 19.9 L 19.9 19.1 L 19.1 19.1 L 19.1 19.9 L 19.9 19.9 Z M 21.1 19.1 L 21.1 19.9 L 21.9 19.9 L 21.9 19.1 L 21.1 19.1 Z M 22.9 19.1 L 22.1 19.1 L 22.1 19.9 L 22.9 19.9 L 22.9 19.1 Z M 24.1 19.1 L 24.1 19.9 L 24.9 19.9 L 24.9 19.1 L 24.1 19.1 Z M 26.9 19.9 L 26.9 19.1 L 26.1 19.1 L 26.1 19.9 L 26.9 19.9 Z M 27.1 19.1 L 27.1 19.9 L 27.9 19.9 L 27.9 19.1 L 27.1 19.1 Z M 28.1 19.1 L 28.1 19.9 L 28.9 19.9 L 28.9 19.1 L 28.1 19.1 Z M 29.1 19.1 L 29.1 19.9 L 29.9 19.9 L 29.9 19.1 L 29.1 19.1 Z M 30.1 19.1 L 30.1 19.9 L 30.9 19.9 L 30.9 19.1 L 30.1 19.1 Z M 31.9 19.1 L 31.1 19.1 L 31.1 19.9 L 31.9 19.9 L 31.9 19.1 Z M 12.1 20.9 L 12.9 20.9 L 12.9 20.1 L 12.1 20.1 L 12.1 20.9 Z M 13.1 20.1 L 13.1 20.9 L 13.9 20.9 L 13.9 20.1 L 13.1 20.1 Z M 14.9 20.1 L 14.1 20.1 L 14.1 20.9 L 14.9 20.9 L 14.9 20.1 Z M 17.9 20.9 L 17.9 20.1 L 17.1 20.1 L 17.1 20.9 L 17.9 20.9 Z M 20.1 20.9 L 20.9 20.9 L 20.9 20.1 L 20.1 20.1 L 20.1 20.9 Z M 21.9 20.1 L 21.1 20.1 L 21.1 20.9 L 21.9 20.9 L 21.9 20.1 Z M 23.1 20.9 L 23.9 20.9 L 23.9 20.1 L 23.1 20.1 L 23.1 20.9 Z M 24.1 20.1 L 24.1 20.9 L 24.9 20.9 L 24.9 20.1 L 24.1 20.1 Z M 27.1 20.1 L 27.1 20.9 L 27.9 20.9 L 27.9 20.1 L 27.1 20.1 Z M 30.1 20.1 L 30.1 20.9 L 30.9 20.9 L 30.9 20.1 L 30.1 20.1 Z M 32.1 20.1 L 32.1 20.9 L 32.9 20.9 L 32.9 20.1 L 32.1 20.1 Z M 5.1 21.1 L 5.1 21.9 L 5.9 21.9 L 5.9 21.1 L 5.1 21.1 Z M 7.1 21.1 L 7.1 21.9 L 7.9 21.9 L 7.9 21.1 L 7.1 21.1 Z M 12.1 21.1 L 12.1 21.9 L 12.9 21.9 L 12.9 21.1 L 12.1 21.1 Z M 15.1 21.1 L 15.1 21.9 L 15.9 21.9 L 15.9 21.1 L 15.1 21.1 Z M 18.1 21.9 L 18.9 21.9 L 18.9 21.1 L 18.1 21.1 L 18.1 21.9 Z M 19.1 21.1 L 19.1 21.9 L 19.9 21.9 L 19.9 21.1 L 19.1 21.1 Z M 23.1 21.1 L 23.1 21.9 L 23.9 21.9 L 23.9 21.1 L 23.1 21.1 Z M 24.1 21.1 L 24.1 21.9 L 24.9 21.9 L 24.9 21.1 L 24.1 21.1 Z M 25.1 21.1 L 25.1 21.9 L 25.9 21.9 L 25.9 21.1 L 25.1 21.1 Z M 26.1 21.1 L 26.1 21.9 L 26.9 21.9 L 26.9 21.1 L 26.1 21.1 Z M 27.1 21.1 L 27.1 21.9 L 27.9 21.9 L 27.9 21.1 L 27.1 21.1 Z M 28.9 21.1 L 28.1 21.1 L 28.1 21.9 L 28.9 21.9 L 28.9 21.1 Z M 30.1 21.1 L 30.1 21.9 L 30.9 21.9 L 30.9 21.1 L 30.1 21.1 Z M 31.1 21.1 L 31.1 21.9 L 31.9 21.9 L 31.9 21.1 L 31.1 21.1 Z M 32.9 21.1 L 32.1 21.1 L 32.1 21.9 L 32.9 21.9 L 32.9 21.1 Z M 3.1 22.1 L 3.1 22.9 L 3.9 22.9 L 3.9 22.1 L 3.1 22.1 Z M 5.9 22.9 L 5.9 22.1 L 5.1 22.1 L 5.1 22.9 L 5.9 22.9 Z M 6.1 22.1 L 6.1 22.9 L 6.9 22.9 L 6.9 22.1 L 6.1 22.1 Z M 7.9 22.1 L 7.1 22.1 L 7.1 22.9 L 7.9 22.9 L 7.9 22.1 Z M 12.1 22.1 L 12.1 22.9 L 12.9 22.9 L 12.9 22.1 L 12.1 22.1 Z M 14.1 22.9 L 14.9 22.9 L 14.9 22.1 L 14.1 22.1 L 14.1 22.9 Z M 15.9 22.1 L 15.1 22.1 L 15.1 22.9 L 15.9 22.9 L 15.9 22.1 Z M 19.1 22.1 L 19.1 22.9 L 19.9 22.9 L 19.9 22.1 L 19.1 22.1 Z M 20.9 22.1 L 20.1 22.1 L 20.1 22.9 L 20.9 22.9 L 20.9 22.1 Z M 22.1 22.9 L 22.9 22.9 L 22.9 22.1 L 22.1 22.1 L 22.1 22.9 Z M 23.1 22.1 L 23.1 22.9 L 23.9 22.9 L 23.9 22.1 L 23.1 22.1 Z M 27.1 22.1 L 27.1 22.9 L 27.9 22.9 L 27.9 22.1 L 27.1 22.1 Z M 29.1 22.9 L 29.9 22.9 L 29.9 22.1 L 29.1 22.1 L 29.1 22.9 Z M 30.9 22.1 L 30.1 22.1 L 30.1 22.9 L 30.9 22.9 L 30.9 22.1 Z M 0.1 23.1 L 0.1 23.9 L 0.9 23.9 L 0.9 23.1 L 0.1 23.1 Z M 2.1 23.9 L 2.9 23.9 L 2.9 23.1 L 2.1 23.1 L 2.1 23.9 Z M 3.9 23.1 L 3.1 23.1 L 3.1 23.9 L 3.9 23.9 L 3.9 23.1 Z M 11.1 23.9 L 11.9 23.9 L 11.9 23.1 L 11.1 23.1 L 11.1 23.9 Z M 12.1 23.1 L 12.1 23.9 L 12.9 23.9 L 12.9 23.1 L 12.1 23.1 Z M 13.9 23.1 L 13.1 23.1 L 13.1 23.9 L 13.9 23.9 L 13.9 23.1 Z M 17.1 23.1 L 17.1 23.9 L 17.9 23.9 L 17.9 23.1 L 17.1 23.1 Z M 19.1 23.1 L 19.1 23.9 L 19.9 23.9 L 19.9 23.1 L 19.1 23.1 Z M 22.1 23.1 L 22.1 23.9 L 22.9 23.9 L 22.9 23.1 L 22.1 23.1 Z M 23.1 23.1 L 23.1 23.9 L 23.9 23.9 L 23.9 23.1 L 23.1 23.1 Z M 24.1 23.1 L 24.1 23.9 L 24.9 23.9 L 24.9 23.1 L 24.1 23.1 Z M 26.1 23.9 L 26.9 23.9 L 26.9 23.1 L 26.1 23.1 L 26.1 23.9 Z M 27.1 23.1 L 27.1 23.9 L 27.9 23.9 L 27.9 23.1 L 27.1 23.1 Z M 29.9 23.9 L 29.9 23.1 L 29.1 23.1 L 29.1 23.9 L 29.9 23.9 Z M 32.1 23.1 L 32.1 23.9 L 32.9 23.9 L 32.9 23.1 L 32.1 23.1 Z M 0.9 24.9 L 0.9 24.1 L 0.1 24.1 L 0.1 24.9 L 0.9 24.9 Z M 1.1 24.1 L 1.1 24.9 L 1.9 24.9 L 1.9 24.1 L 1.1 24.1 Z M 2.9 24.1 L 2.1 24.1 L 2.1 24.9 L 2.9 24.9 L 2.9 24.1 Z M 6.1 24.9 L 6.9 24.9 L 6.9 24.1 L 6.1 24.1 L 6.1 24.9 Z M 7.1 24.1 L 7.1 24.9 L 7.9 24.9 L 7.9 24.1 L 7.1 24.1 Z M 8.1 24.1 L 8.1 24.9 L 8.9 24.9 L 8.9 24.1 L 8.1 24.1 Z M 12.1 24.1 L 12.1 24.9 L 12.9 24.9 L 12.9 24.1 L 12.1 24.1 Z M 17.9 24.9 L 17.9 24.1 L 17.1 24.1 L 17.1 24.9 L 17.9 24.9 Z M 19.1 24.1 L 19.1 24.9 L 19.9 24.9 L 19.9 24.1 L 19.1 24.1 Z M 20.9 24.1 L 20.1 24.1 L 20.1 24.9 L 20.9 24.9 L 20.9 24.1 Z M 22.9 24.9 L 22.9 24.1 L 22.1 24.1 L 22.1 24.9 L 22.9 24.9 Z M 24.1 24.1 L 24.1 24.9 L 24.9 24.9 L 24.9 24.1 L 24.1 24.1 Z M 25.1 24.1 L 25.1 24.9 L 25.9 24.9 L 25.9 24.1 L 25.1 24.1 Z M 26.1 24.1 L 26.1 24.9 L 26.9 24.9 L 26.9 24.1 L 26.1 24.1 Z M 27.1 24.1 L 27.1 24.9 L 27.9 24.9 L 27.9 24.1 L 27.1 24.1 Z M 28.1 24.1 L 28.1 24.9 L 28.9 24.9 L 28.9 24.1 L 28.1 24.1 Z M 30.1 24.1 L 30.1 24.9 L 30.9 24.9 L 30.9 24.1 L 30.1 24.1 Z M 32.1 24.1 L 32.1 24.9 L 32.9 24.9 L 32.9 24.1 L 32.1 24.1 Z M 8.1 25.1 L 8.1 25.9 L 8.9 25.9 L 8.9 25.1 L 8.1 25.1 Z M 9.1 25.1 L 9.1 25.9 L 9.9 25.9 L 9.9 25.1 L 9.1 25.1 Z M 10.1 25.1 L 10.1 25.9 L 10.9 25.9 L 10.9 25.1 L 10.1 25.1 Z M 12.9 25.9 L 12.9 25.1 L 12.1 25.1 L 12.1 25.9 L 12.9 25.9 Z M 14.1 25.1 L 14.1 25.9 L 14.9 25.9 L 14.9 25.1 L 14.1 25.1 Z M 19.9 25.9 L 19.9 25.1 L 19.1 25.1 L 19.1 25.9 L 19.9 25.9 Z M 24.1 25.1 L 24.1 25.9 L 24.9 25.9 L 24.9 25.1 L 24.1 25.1 Z M 28.1 25.1 L 28.1 25.9 L 28.9 25.9 L 28.9 25.1 L 28.1 25.1 Z M 29.1 25.1 L 29.1 25.9 L 29.9 25.9 L 29.9 25.1 L 29.1 25.1 Z M 30.1 25.1 L 30.1 25.9 L 30.9 25.9 L 30.9 25.1 L 30.1 25.1 Z M 31.1 25.1 L 31.1 25.9 L 31.9 25.9 L 31.9 25.1 L 31.1 25.1 Z M 32.9 25.1 L 32.1 25.1 L 32.1 25.9 L 32.9 25.9 L 32.9 25.1 Z M 8.1 26.1 L 8.1 26.9 L 8.9 26.9 L 8.9 26.1 L 8.1 26.1 Z M 9.1 26.1 L 9.1 26.9 L 9.9 26.9 L 9.9 26.1 L 9.1 26.1 Z M 10.1 26.1 L 10.1 26.9 L 10.9 26.9 L 10.9 26.1 L 10.1 26.1 Z M 11.9 26.1 L 11.1 26.1 L 11.1 26.9 L 11.9 26.9 L 11.9 26.1 Z M 13.1 26.9 L 13.9 26.9 L 13.9 26.1 L 13.1 26.1 L 13.1 26.9 Z M 14.1 26.1 L 14.1 26.9 L 14.9 26.9 L 14.9 26.1 L 14.1 26.1 Z M 15.9 26.1 L 15.1 26.1 L 15.1 26.9 L 15.9 26.9 L 15.9 26.1 Z M 17.1 26.1 L 17.1 26.9 L 17.9 26.9 L 17.9 26.1 L 17.1 26.1 Z M 24.1 26.1 L 24.1 26.9 L 24.9 26.9 L 24.9 26.1 L 24.1 26.1 Z M 28.1 26.1 L 28.1 26.9 L 28.9 26.9 L 28.9 26.1 L 28.1 26.1 Z M 30.9 26.9 L 30.9 26.1 L 30.1 26.1 L 30.1 26.9 L 30.9 26.9 Z M 31.1 26.1 L 31.1 26.9 L 31.9 26.9 L 31.9 26.1 L 31.1 26.1 Z M 8.9 27.9 L 8.9 27.1 L 8.1 27.1 L 8.1 27.9 L 8.9 27.9 Z M 10.9 27.9 L 10.9 27.1 L 10.1 27.1 L 10.1 27.9 L 10.9 27.9 Z M 14.1 27.1 L 14.1 27.9 L 14.9 27.9 L 14.9 27.1 L 14.1 27.1 Z M 16.1 27.9 L 16.9 27.9 L 16.9 27.1 L 16.1 27.1 L 16.1 27.9 Z M 17.9 27.1 L 17.1 27.1 L 17.1 27.9 L 17.9 27.9 L 17.9 27.1 Z M 20.1 27.1 L 20.1 27.9 L 20.9 27.9 L 20.9 27.1 L 20.1 27.1 Z M 23.1 27.9 L 23.9 27.9 L 23.9 27.1 L 23.1 27.1 L 23.1 27.9 Z M 24.1 27.1 L 24.1 27.9 L 24.9 27.9 L 24.9 27.1 L 24.1 27.1 Z M 28.1 27.1 L 28.1 27.9 L 28.9 27.9 L 28.9 27.1 L 28.1 27.1 Z M 31.9 27.9 L 31.9 27.1 L 31.1 27.1 L 31.1 27.9 L 31.9 27.9 Z M 13.1 28.9 L 13.9 28.9 L 13.9 28.1 L 13.1 28.1 L 13.1 28.9 Z M 14.1 28.1 L 14.1 28.9 L 14.9 28.9 L 14.9 28.1 L 14.1 28.1 Z M 15.1 28.1 L 15.1 28.9 L 15.9 28.9 L 15.9 28.1 L 15.1 28.1 Z M 16.9 28.1 L 16.1 28.1 L 16.1 28.9 L 16.9 28.9 L 16.9 28.1 Z M 20.1 28.1 L 20.1 28.9 L 20.9 28.9 L 20.9 28.1 L 20.1 28.1 Z M 24.9 28.9 L 24.9 28.1 L 24.1 28.1 L 24.1 28.9 L 24.9 28.9 Z M 25.1 28.1 L 25.1 28.9 L 25.9 28.9 L 25.9 28.1 L 25.1 28.1 Z M 26.1 28.1 L 26.1 28.9 L 26.9 28.9 L 26.9 28.1 L 26.1 28.1 Z M 27.1 28.1 L 27.1 28.9 L 27.9 28.9 L 27.9 28.1 L 27.1 28.1 Z M 28.1 28.1 L 28.1 28.9 L 28.9 28.9 L 28.9 28.1 L 28.1 28.1 Z M 29.9 28.1 L 29.1 28.1 L 29.1 28.9 L 29.9 28.9 L 29.9 28.1 Z M 9.1 29.1 L 9.1 29.9 L 9.9 29.9 L 9.9 29.1 L 9.1 29.1 Z M 11.1 29.1 L 11.1 29.9 L 11.9 29.9 L 11.9 29.1 L 11.1 29.1 Z M 13.9 29.9 L 13.9 29.1 L 13.1 29.1 L 13.1 29.9 L 13.9 29.9 Z M 15.9 29.9 L 15.9 29.1 L 15.1 29.1 L 15.1 29.9 L 15.9 29.9 Z M 19.1 29.9 L 19.9 29.9 L 19.9 29.1 L 19.1 29.1 L 19.1 29.9 Z M 20.9 29.1 L 20.1 29.1 L 20.1 29.9 L 20.9 29.9 L 20.9 29.1 Z M 22.1 29.9 L 22.9 29.9 L 22.9 29.1 L 22.1 29.1 L 22.1 29.9 Z M 23.1 29.1 L 23.1 29.9 L 23.9 29.9 L 23.9 29.1 L 23.1 29.1 Z M 25.9 29.9 L 25.9 29.1 L 25.1 29.1 L 25.1 29.9 L 25.9 29.9 Z M 26.1 29.1 L 26.1 29.9 L 26.9 29.9 L 26.9 29.1 L 26.1 29.1 Z M 27.1 29.1 L 27.1 29.9 L 27.9 29.9 L 27.9 29.1 L 27.1 29.1 Z M 30.1 29.1 L 30.1 29.9 L 30.9 29.9 L 30.9 29.1 L 30.1 29.1 Z M 32.1 29.1 L 32.1 29.9 L 32.9 29.9 L 32.9 29.1 L 32.1 29.1 Z M 8.1 30.9 L 8.9 30.9 L 8.9 30.1 L 8.1 30.1 L 8.1 30.9 Z M 9.1 30.1 L 9.1 30.9 L 9.9 30.9 L 9.9 30.1 L 9.1 30.1 Z M 10.1 30.1 L 10.1 30.9 L 10.9 30.9 L 10.9 30.1 L 10.1 30.1 Z M 11.1 30.1 L 11.1 30.9 L 11.9 30.9 L 11.9 30.1 L 11.1 30.1 Z M 18.1 30.9 L 18.9 30.9 L 18.9 30.1 L 18.1 30.1 L 18.1 30.9 Z M 19.9 30.1 L 19.1 30.1 L 19.1 30.9 L 19.9 30.9 L 19.9 30.1 Z M 23.9 30.9 L 23.9 30.1 L 23.1 30.1 L 23.1 30.9 L 23.9 30.9 Z M 26.1 30.1 L 26.1 30.9 L 26.9 30.9 L 26.9 30.1 L 26.1 30.1 Z M 27.1 30.1 L 27.1 30.9 L 27.9 30.9 L 27.9 30.1 L 27.1 30.1 Z M 29.1 30.9 L 29.9 30.9 L 29.9 30.1 L 29.1 30.1 L 29.1 30.9 Z M 30.1 30.1 L 30.1 30.9 L 30.9 30.9 L 30.9 30.1 L 30.1 30.1 Z M 31.1 30.1 L 31.1 30.9 L 31.9 30.9 L 31.9 30.1 L 31.1 30.1 Z M 32.1 30.1 L 32.1 30.9 L 32.9 30.9 L 32.9 30.1 L 32.1 30.1 Z M 8.1 31.1 L 8.1 31.9 L 8.9 31.9 L 8.9 31.1 L 8.1 31.1 Z M 10.9 31.9 L 10.9 31.1 L 10.1 31.1 L 10.1 31.9 L 10.9 31.9 Z M 11.1 31.1 L 11.1 31.9 L 11.9 31.9 L 11.9 31.1 L 11.1 31.1 Z M 14.1 31.9 L 14.9 31.9 L 14.9 31.1 L 14.1 31.1 L 14.1 31.9 Z M 15.9 31.1 L 15.1 31.1 L 15.1 31.9 L 15.9 31.9 L 15.9 31.1 Z M 24.1 31.9 L 24.9 31.9 L 24.9 31.1 L 24.1 31.1 L 24.1 31.9 Z M 25.1 31.1 L 25.1 31.9 L 25.9 31.9 L 25.9 31.1 L 25.1 31.1 Z M 26.1 31.1 L 26.1 31.9 L 26.9 31.9 L 26.9 31.1 L 26.1 31.1 Z M 27.1 31.1 L 27.1 31.9 L 27.9 31.9 L 27.9 31.1 L 27.1 31.1 Z M 28.1 31.1 L 28.1 31.9 L 28.9 31.9 L 28.9 31.1 L 28.1 31.1 Z M 29.9 31.1 L 29.1 31.1 L 29.1 31.9 L 29.9 31.9 L 29.9 31.1 Z M 32.9 31.9 L 32.9 31.1 L 32.1 31.1 L 32.1 31.9 L 32.9 31.9 Z M 8.9 32.9 L 8.9 32.1 L 8.1 32.1 L 8.1 32.9 L 8.9 32.9 Z M 9.9 32.1 L 9.1 32.1 L 9.1 32.9 L 9.9 32.9 L 9.9 32.1 Z M 11.9 32.9 L 11.9 32.1 L 11.1 32.1 L 11.1 32.9 L 11.9 32.9 Z M 23.1 32.9 L 23.9 32.9 L 23.9 32.1 L 23.1 32.1 L 23.1 32.9 Z M 24.1 32.1 L 24.1 32.9 L 24.9 32.9 L 24.9 32.1 L 24.1 32.1 Z M 25.9 32.1 L 25.1 32.1 L 25.1 32.9 L 25.9 32.9 L 25.9 32.1 Z M 27.9 32.9 L 27.9 32.1 L 27.1 32.1 L 27.1 32.9 L 27.9 32.9 Z M 28.9 32.1 L 28.1 32.1 L 28.1 32.9 L 28.9 32.9 L 28.9 32.1 Z"/><path id="qrdots_1380" d="M 12.1 0.1 L 12.1 0.9 L 12.9 0.9 L 12.9 0.1 L 12.1 0.1 Z M 18.1 3.1 L 18.1 3.9 L 18.9 3.9 L 18.9 3.1 L 18.1 3.1 Z M 19.1 4.1 L 19.1 4.9 L 19.9 4.9 L 19.9 4.1 L 19.1 4.1 Z M 8.1 6.1 L 8.1 6.9 L 8.9 6.9 L 8.9 6.1 L 8.1 6.1 Z M 14.1 6.1 L 14.1 6.9 L 14.9 6.9 L 14.9 6.1 L 14.1 6.1 Z M 20.1 6.1 L 20.1 6.9 L 20.9 6.9 L 20.9 6.1 L 20.1 6.1 Z M 0.1 10.1 L 0.1 10.9 L 0.9 10.9 L 0.9 10.1 L 0.1 10.1 Z M 25.1 11.1 L 25.1 11.9 L 25.9 11.9 L 25.9 11.1 L 25.1 11.1 Z M 7.1 13.1 L 7.1 13.9 L 7.9 13.9 L 7.9 13.1 L 7.1 13.1 Z M 16.1 13.1 L 16.1 13.9 L 16.9 13.9 L 16.9 13.1 L 16.1 13.1 Z M 1.1 14.1 L 1.1 14.9 L 1.9 14.9 L 1.9 14.1 L 1.1 14.1 Z M 8.1 14.1 L 8.1 14.9 L 8.9 14.9 L 8.9 14.1 L 8.1 14.1 Z M 17.1 14.1 L 17.1 14.9 L 17.9 14.9 L 17.9 14.1 L 17.1 14.1 Z M 7.1 15.1 L 7.1 15.9 L 7.9 15.9 L 7.9 15.1 L 7.1 15.1 Z M 31.1 16.1 L 31.1 16.9 L 31.9 16.9 L 31.9 16.1 L 31.1 16.1 Z M 3.1 17.1 L 3.1 17.9 L 3.9 17.9 L 3.9 17.1 L 3.1 17.1 Z M 6.1 20.1 L 6.1 20.9 L 6.9 20.9 L 6.9 20.1 L 6.1 20.1 Z M 0.1 21.1 L 0.1 21.9 L 0.9 21.9 L 0.9 21.1 L 0.1 21.1 Z M 2.1 21.1 L 2.1 21.9 L 2.9 21.9 L 2.9 21.1 L 2.1 21.1 Z M 1.1 22.1 L 1.1 22.9 L 1.9 22.9 L 1.9 22.1 L 1.1 22.1 Z M 10.1 22.1 L 10.1 22.9 L 10.9 22.9 L 10.9 22.1 L 10.1 22.1 Z M 9.1 23.1 L 9.1 23.9 L 9.9 23.9 L 9.9 23.1 L 9.1 23.1 Z M 4.1 24.1 L 4.1 24.9 L 4.9 24.9 L 4.9 24.1 L 4.1 24.1 Z M 16.1 25.1 L 16.1 25.9 L 16.9 25.9 L 16.9 25.1 L 16.1 25.1 Z M 21.1 25.1 L 21.1 25.9 L 21.9 25.9 L 21.9 25.1 L 21.1 25.1 Z M 26.1 26.1 L 26.1 26.9 L 26.9 26.9 L 26.9 26.1 L 26.1 26.1 Z M 12.1 27.1 L 12.1 27.9 L 12.9 27.9 L 12.9 27.1 L 12.1 27.1 Z M 16.1 30.1 L 16.1 30.9 L 16.9 30.9 L 16.9 30.1 L 16.1 30.1 Z M 21.1 30.1 L 21.1 30.9 L 21.9 30.9 L 21.9 30.1 L 21.1 30.1 Z M 22.1 31.1 L 22.1 31.9 L 22.9 31.9 L 22.9 31.1 L 22.1 31.1 Z M 13.1 32.1 L 13.1 32.9 L 13.9 32.9 L 13.9 32.1 L 13.1 32.1 Z M 16.1 32.1 L 16.1 32.9 L 16.9 32.9 L 16.9 32.1 L 16.1 32.1 Z M 21.1 32.1 L 21.1 32.9 L 21.9 32.9 L 21.9 32.1 L 21.1 32.1 Z"/><path id="qroutline_eyetopleft_8045" d="M 0 1 L 1 1 L 1 0 L 0 0 L 0 1 Z M 1 0 L 1 1 L 2 1 L 2 0 L 1 0 Z M 2 0 L 2 1 L 3 1 L 3 0 L 2 0 Z M 3 0 L 3 1 L 4 1 L 4 0 L 3 0 Z M 4 0 L 4 1 L 5 1 L 5 0 L 4 0 Z M 5 0 L 5 1 L 6 1 L 6 0 L 5 0 Z M 6 0 L 6 1 L 7 1 L 7 0 L 6 0 Z M 0 1 L 0 2 L 1 2 L 1 1 L 0 1 Z M 6 1 L 6 2 L 7 2 L 7 1 L 6 1 Z M 0 2 L 0 3 L 1 3 L 1 2 L 0 2 Z M 6 2 L 6 3 L 7 3 L 7 2 L 6 2 Z M 0 3 L 0 4 L 1 4 L 1 3 L 0 3 Z M 6 3 L 6 4 L 7 4 L 7 3 L 6 3 Z M 0 4 L 0 5 L 1 5 L 1 4 L 0 4 Z M 6 4 L 6 5 L 7 5 L 7 4 L 6 4 Z M 0 5 L 0 6 L 1 6 L 1 5 L 0 5 Z M 6 5 L 6 6 L 7 6 L 7 5 L 6 5 Z M 1 7 L 1 6 L 0 6 L 0 7 L 1 7 Z M 1 6 L 1 7 L 2 7 L 2 6 L 1 6 Z M 2 6 L 2 7 L 3 7 L 3 6 L 2 6 Z M 3 6 L 3 7 L 4 7 L 4 6 L 3 6 Z M 4 6 L 4 7 L 5 7 L 5 6 L 4 6 Z M 5 6 L 5 7 L 6 7 L 6 6 L 5 6 Z M 7 6 L 6 6 L 6 7 L 7 7 L 7 6 Z"/><path id="qroutline_eyebottomleft_2852" d="M 0 27 L 1 27 L 1 26 L 0 26 L 0 27 Z M 1 26 L 1 27 L 2 27 L 2 26 L 1 26 Z M 2 26 L 2 27 L 3 27 L 3 26 L 2 26 Z M 3 26 L 3 27 L 4 27 L 4 26 L 3 26 Z M 4 26 L 4 27 L 5 27 L 5 26 L 4 26 Z M 5 26 L 5 27 L 6 27 L 6 26 L 5 26 Z M 6 26 L 6 27 L 7 27 L 7 26 L 6 26 Z M 0 27 L 0 28 L 1 28 L 1 27 L 0 27 Z M 6 27 L 6 28 L 7 28 L 7 27 L 6 27 Z M 0 28 L 0 29 L 1 29 L 1 28 L 0 28 Z M 6 28 L 6 29 L 7 29 L 7 28 L 6 28 Z M 0 29 L 0 30 L 1 30 L 1 29 L 0 29 Z M 6 29 L 6 30 L 7 30 L 7 29 L 6 29 Z M 0 30 L 0 31 L 1 31 L 1 30 L 0 30 Z M 6 30 L 6 31 L 7 31 L 7 30 L 6 30 Z M 0 31 L 0 32 L 1 32 L 1 31 L 0 31 Z M 6 31 L 6 32 L 7 32 L 7 31 L 6 31 Z M 1 33 L 1 32 L 0 32 L 0 33 L 1 33 Z M 1 32 L 1 33 L 2 33 L 2 32 L 1 32 Z M 2 32 L 2 33 L 3 33 L 3 32 L 2 32 Z M 3 32 L 3 33 L 4 33 L 4 32 L 3 32 Z M 4 32 L 4 33 L 5 33 L 5 32 L 4 32 Z M 5 32 L 5 33 L 6 33 L 6 32 L 5 32 Z M 7 32 L 6 32 L 6 33 L 7 33 L 7 32 Z"/><path id="qroutline_eyetopright_2455" d="M 26 1 L 27 1 L 27 0 L 26 0 L 26 1 Z M 27 0 L 27 1 L 28 1 L 28 0 L 27 0 Z M 28 0 L 28 1 L 29 1 L 29 0 L 28 0 Z M 29 0 L 29 1 L 30 1 L 30 0 L 29 0 Z M 30 0 L 30 1 L 31 1 L 31 0 L 30 0 Z M 31 0 L 31 1 L 32 1 L 32 0 L 31 0 Z M 32 0 L 32 1 L 33 1 L 33 0 L 32 0 Z M 26 1 L 26 2 L 27 2 L 27 1 L 26 1 Z M 32 1 L 32 2 L 33 2 L 33 1 L 32 1 Z M 26 2 L 26 3 L 27 3 L 27 2 L 26 2 Z M 32 2 L 32 3 L 33 3 L 33 2 L 32 2 Z M 26 3 L 26 4 L 27 4 L 27 3 L 26 3 Z M 32 3 L 32 4 L 33 4 L 33 3 L 32 3 Z M 26 4 L 26 5 L 27 5 L 27 4 L 26 4 Z M 32 4 L 32 5 L 33 5 L 33 4 L 32 4 Z M 26 5 L 26 6 L 27 6 L 27 5 L 26 5 Z M 32 5 L 32 6 L 33 6 L 33 5 L 32 5 Z M 27 7 L 27 6 L 26 6 L 26 7 L 27 7 Z M 27 6 L 27 7 L 28 7 L 28 6 L 27 6 Z M 28 6 L 28 7 L 29 7 L 29 6 L 28 6 Z M 29 6 L 29 7 L 30 7 L 30 6 L 29 6 Z M 30 6 L 30 7 L 31 7 L 31 6 L 30 6 Z M 31 6 L 31 7 L 32 7 L 32 6 L 31 6 Z M 33 6 L 32 6 L 32 7 L 33 7 L 33 6 Z"/><path id="qrball_eyetopleft_2129" d="M 2 3 L 3 3 L 3 2 L 2 2 L 2 3 Z M 3 2 L 3 3 L 4 3 L 4 2 L 3 2 Z M 4 2 L 4 3 L 5 3 L 5 2 L 4 2 Z M 2 3 L 2 4 L 3 4 L 3 3 L 2 3 Z M 3 3 L 3 4 L 4 4 L 4 3 L 3 3 Z M 4 3 L 4 4 L 5 4 L 5 3 L 4 3 Z M 3 5 L 3 4 L 2 4 L 2 5 L 3 5 Z M 3 4 L 3 5 L 4 5 L 4 4 L 3 4 Z M 5 4 L 4 4 L 4 5 L 5 5 L 5 4 Z"/><path id="qrball_eyebottomleft_7436" d="M 2 29 L 3 29 L 3 28 L 2 28 L 2 29 Z M 3 28 L 3 29 L 4 29 L 4 28 L 3 28 Z M 4 28 L 4 29 L 5 29 L 5 28 L 4 28 Z M 2 29 L 2 30 L 3 30 L 3 29 L 2 29 Z M 3 29 L 3 30 L 4 30 L 4 29 L 3 29 Z M 4 29 L 4 30 L 5 30 L 5 29 L 4 29 Z M 3 31 L 3 30 L 2 30 L 2 31 L 3 31 Z M 3 30 L 3 31 L 4 31 L 4 30 L 3 30 Z M 5 30 L 4 30 L 4 31 L 5 31 L 5 30 Z"/><path id="qrball_eyetopright_8376" d="M 28 3 L 29 3 L 29 2 L 28 2 L 28 3 Z M 29 2 L 29 3 L 30 3 L 30 2 L 29 2 Z M 30 2 L 30 3 L 31 3 L 31 2 L 30 2 Z M 28 3 L 28 4 L 29 4 L 29 3 L 28 3 Z M 29 3 L 29 4 L 30 4 L 30 3 L 29 3 Z M 30 3 L 30 4 L 31 4 L 31 3 L 30 3 Z M 29 5 L 29 4 L 28 4 L 28 5 L 29 5 Z M 29 4 L 29 5 L 30 5 L 30 4 L 29 4 Z M 31 4 L 30 4 L 30 5 L 31 5 L 31 4 Z"/></defs><use xlink:href="#qrnodots_9288" style="fill: #000000" stroke="transparent"/><use xlink:href="#qrdots_1380" style="fill: #03949A" stroke="transparent"/><use xlink:href="#qroutline_eyetopleft_8045" style="fill: #000000" stroke="transparent"/><use xlink:href="#qroutline_eyebottomleft_2852" style="fill: #000000" stroke="transparent"/><use xlink:href="#qroutline_eyetopright_2455" style="fill: #000000" stroke="transparent"/><use xlink:href="#qrball_eyetopleft_2129" style="fill: #000000" stroke="transparent"/><use xlink:href="#qrball_eyebottomleft_7436" style="fill: #000000" stroke="transparent"/><use xlink:href="#qrball_eyetopright_8376" style="fill: #000000" stroke="transparent"/>
            </g>
        </g>
    </g>

    <g transform="translate(340 110) scale(2.3)">
        <g>
            <path d="M 159.231 50.701 C 157.002 50.701 154.987 50.319 153.186 49.556 C 151.415 48.792 150.01 47.693 148.972 46.258 C 147.934 44.823 147.399 43.128 147.369 41.174 L 154.239 41.174 C 154.331 42.487 154.789 43.525 155.613 44.289 C 156.468 45.052 157.628 45.434 159.094 45.434 C 160.59 45.434 161.765 45.082 162.62 44.38 C 163.475 43.647 163.903 42.701 163.903 41.541 C 163.903 40.594 163.613 39.815 163.033 39.205 C 162.452 38.594 161.72 38.121 160.834 37.785 C 159.979 37.419 158.788 37.022 157.262 36.594 C 155.185 35.984 153.491 35.388 152.178 34.808 C 150.896 34.197 149.781 33.297 148.835 32.106 C 147.919 30.884 147.461 29.266 147.461 27.251 C 147.461 25.358 147.934 23.709 148.88 22.305 C 149.827 20.9 151.155 19.831 152.865 19.099 C 154.575 18.335 156.529 17.954 158.727 17.954 C 162.025 17.954 164.697 18.763 166.742 20.381 C 168.819 21.969 169.964 24.198 170.177 27.068 L 163.124 27.068 C 163.063 25.969 162.59 25.068 161.704 24.366 C 160.849 23.633 159.704 23.266 158.269 23.266 C 157.017 23.266 156.01 23.587 155.247 24.228 C 154.514 24.869 154.147 25.801 154.147 27.022 C 154.147 27.877 154.422 28.594 154.972 29.175 C 155.552 29.724 156.254 30.182 157.079 30.549 C 157.933 30.884 159.124 31.281 160.651 31.739 C 162.727 32.35 164.422 32.961 165.735 33.571 C 167.048 34.182 168.177 35.098 169.124 36.319 C 170.07 37.541 170.544 39.144 170.544 41.128 C 170.544 42.838 170.101 44.426 169.216 45.892 C 168.33 47.357 167.032 48.533 165.323 49.418 C 163.613 50.273 161.582 50.701 159.231 50.701 Z" fill="#21252C"></path>
            <path d="M 174.454 37.693 C 174.454 35.068 174.988 32.778 176.057 30.823 C 177.126 28.839 178.606 27.312 180.499 26.243 C 182.393 25.144 184.56 24.595 187.003 24.595 C 190.148 24.595 192.743 25.388 194.789 26.976 C 196.865 28.533 198.255 30.732 198.957 33.571 L 192.041 33.571 C 191.675 32.472 191.049 31.617 190.163 31.007 C 189.308 30.365 188.24 30.045 186.957 30.045 C 185.125 30.045 183.675 30.717 182.606 32.06 C 181.538 33.373 181.003 35.251 181.003 37.693 C 181.003 40.106 181.538 41.983 182.606 43.327 C 183.675 44.64 185.125 45.296 186.957 45.296 C 189.553 45.296 191.247 44.136 192.041 41.815 L 198.957 41.815 C 198.255 44.563 196.865 46.747 194.789 48.365 C 192.713 49.983 190.117 50.792 187.003 50.792 C 184.56 50.792 182.393 50.258 180.499 49.189 C 178.606 48.09 177.126 46.563 176.057 44.609 C 174.988 42.625 174.454 40.319 174.454 37.693 Z" fill="#21252C"></path>
            <path d="M 202.005 37.602 C 202.005 35.037 202.509 32.762 203.517 30.778 C 204.555 28.793 205.944 27.266 207.685 26.198 C 209.456 25.129 211.425 24.595 213.593 24.595 C 215.486 24.595 217.135 24.976 218.539 25.74 C 219.974 26.503 221.119 27.465 221.974 28.625 L 221.974 25.007 L 228.432 25.007 L 228.432 50.38 L 221.974 50.38 L 221.974 46.67 C 221.15 47.861 220.005 48.853 218.539 49.647 C 217.104 50.411 215.44 50.792 213.547 50.792 C 211.41 50.792 209.456 50.243 207.685 49.143 C 205.944 48.044 204.555 46.502 203.517 44.518 C 202.509 42.502 202.005 40.197 202.005 37.602 Z M 221.974 37.693 C 221.974 36.136 221.669 34.808 221.058 33.709 C 220.448 32.579 219.623 31.724 218.585 31.144 C 217.547 30.533 216.432 30.228 215.242 30.228 C 214.051 30.228 212.952 30.518 211.944 31.098 C 210.936 31.678 210.112 32.533 209.471 33.663 C 208.86 34.762 208.555 36.075 208.555 37.602 C 208.555 39.128 208.86 40.472 209.471 41.632 C 210.112 42.762 210.936 43.632 211.944 44.243 C 212.982 44.853 214.081 45.159 215.242 45.159 C 216.432 45.159 217.547 44.869 218.585 44.289 C 219.623 43.678 220.448 42.823 221.058 41.724 C 221.669 40.594 221.974 39.251 221.974 37.693 Z" fill="#21252C"></path>
            <path d="M 248.755 24.64 C 251.778 24.64 254.22 25.602 256.083 27.526 C 257.946 29.419 258.877 32.075 258.877 35.495 L 258.877 50.38 L 252.465 50.38 L 252.465 36.365 C 252.465 34.35 251.961 32.808 250.953 31.739 C 249.946 30.64 248.572 30.091 246.831 30.091 C 245.06 30.091 243.656 30.64 242.618 31.739 C 241.61 32.808 241.106 34.35 241.106 36.365 L 241.106 50.38 L 234.694 50.38 L 234.694 25.007 L 241.106 25.007 L 241.106 28.167 C 241.961 27.068 243.045 26.213 244.358 25.602 C 245.702 24.961 247.167 24.64 248.755 24.64 Z" fill="#21252C"></path>
            <path d="M 167.933 67.265 L 167.933 72.44 L 154.605 72.44 L 154.605 80.638 L 164.819 80.638 L 164.819 85.722 L 154.605 85.722 L 154.605 99.233 L 148.193 99.233 L 148.193 67.265 L 167.933 67.265 Z" fill="#21252C"></path>
            <path d="M 175.732 70.837 C 174.602 70.837 173.655 70.486 172.892 69.784 C 172.159 69.051 171.793 68.15 171.793 67.082 C 171.793 66.013 172.159 65.128 172.892 64.425 C 173.655 63.692 174.602 63.326 175.732 63.326 C 176.861 63.326 177.793 63.692 178.525 64.425 C 179.289 65.128 179.67 66.013 179.67 67.082 C 179.67 68.15 179.289 69.051 178.525 69.784 C 177.793 70.486 176.861 70.837 175.732 70.837 Z M 178.892 73.86 L 178.892 99.233 L 172.48 99.233 L 172.48 73.86 L 178.892 73.86 Z" fill="#21252C"></path>
            <path d="M 199.287 73.494 C 202.31 73.494 204.753 74.455 206.615 76.379 C 208.478 78.272 209.409 80.929 209.409 84.348 L 209.409 99.233 L 202.997 99.233 L 202.997 85.218 C 202.997 83.203 202.493 81.661 201.486 80.593 C 200.478 79.493 199.104 78.944 197.364 78.944 C 195.593 78.944 194.188 79.493 193.15 80.593 C 192.143 81.661 191.639 83.203 191.639 85.218 L 191.639 99.233 L 185.227 99.233 L 185.227 73.86 L 191.639 73.86 L 191.639 77.02 C 192.494 75.921 193.578 75.066 194.891 74.455 C 196.234 73.814 197.7 73.494 199.287 73.494 Z" fill="#21252C"></path>
            <path d="M 213.858 86.455 C 213.858 83.89 214.362 81.616 215.369 79.631 C 216.407 77.646 217.812 76.12 219.583 75.051 C 221.354 73.982 223.323 73.448 225.491 73.448 C 227.14 73.448 228.712 73.814 230.209 74.547 C 231.705 75.249 232.895 76.196 233.781 77.387 L 233.781 65.341 L 240.285 65.341 L 240.285 99.233 L 233.781 99.233 L 233.781 95.478 C 232.987 96.73 231.873 97.737 230.438 98.5 C 229.002 99.264 227.338 99.645 225.445 99.645 C 223.308 99.645 221.354 99.096 219.583 97.997 C 217.812 96.897 216.407 95.356 215.369 93.371 C 214.362 91.356 213.858 89.05 213.858 86.455 Z M 233.827 86.547 C 233.827 84.989 233.521 83.661 232.911 82.562 C 232.3 81.432 231.476 80.577 230.438 79.997 C 229.399 79.387 228.285 79.081 227.094 79.081 C 225.903 79.081 224.804 79.371 223.797 79.951 C 222.789 80.532 221.965 81.387 221.323 82.516 C 220.713 83.615 220.407 84.928 220.407 86.455 C 220.407 87.982 220.713 89.325 221.323 90.485 C 221.965 91.615 222.789 92.485 223.797 93.096 C 224.835 93.707 225.934 94.012 227.094 94.012 C 228.285 94.012 229.399 93.722 230.438 93.142 C 231.476 92.531 232.3 91.676 232.911 90.577 C 233.521 89.447 233.827 88.104 233.827 86.547 Z" fill="#21252C"></path>
            <path d="M 299.074 18.412 L 299.074 50.38 L 292.662 50.38 L 292.662 29.587 L 284.097 50.38 L 279.242 50.38 L 270.632 29.587 L 270.632 50.38 L 264.22 50.38 L 264.22 18.412 L 271.502 18.412 L 281.67 42.182 L 291.837 18.412 L 299.074 18.412 Z" fill="#00ADB5"></path>
            <path d="M 329 37.144 C 329 38.06 328.939 38.884 328.817 39.617 L 310.268 39.617 C 310.42 41.449 311.062 42.884 312.191 43.922 C 313.321 44.96 314.71 45.479 316.359 45.479 C 318.741 45.479 320.435 44.457 321.443 42.411 L 328.359 42.411 C 327.626 44.853 326.221 46.869 324.145 48.456 C 322.069 50.014 319.519 50.792 316.497 50.792 C 314.054 50.792 311.856 50.258 309.901 49.189 C 307.978 48.09 306.466 46.548 305.367 44.563 C 304.299 42.579 303.764 40.289 303.764 37.693 C 303.764 35.068 304.299 32.762 305.367 30.778 C 306.436 28.793 307.932 27.266 309.856 26.198 C 311.779 25.129 313.993 24.595 316.497 24.595 C 318.909 24.595 321.061 25.114 322.954 26.152 C 324.878 27.19 326.359 28.671 327.397 30.594 C 328.466 32.487 329 34.671 329 37.144 Z M 322.359 35.312 C 322.328 33.663 321.733 32.35 320.573 31.373 C 319.413 30.365 317.993 29.862 316.313 29.862 C 314.726 29.862 313.382 30.35 312.283 31.327 C 311.214 32.274 310.558 33.602 310.314 35.312 L 322.359 35.312 Z" fill="#00ADB5"></path>
            <path d="M 282.28 67.265 L 282.28 99.233 L 275.868 99.233 L 275.868 78.44 L 267.304 99.233 L 262.449 99.233 L 253.839 78.44 L 253.839 99.233 L 247.427 99.233 L 247.427 67.265 L 254.709 67.265 L 264.876 91.035 L 275.044 67.265 L 282.28 67.265 Z" fill="#00ADB5"></path>
            <path d="M 312.207 85.997 C 312.207 86.913 312.146 87.737 312.023 88.47 L 293.474 88.47 C 293.627 90.302 294.268 91.737 295.398 92.775 C 296.528 93.814 297.917 94.333 299.566 94.333 C 301.947 94.333 303.642 93.31 304.65 91.264 L 311.565 91.264 C 310.833 93.707 309.428 95.722 307.352 97.31 C 305.276 98.867 302.726 99.645 299.703 99.645 C 297.261 99.645 295.062 99.111 293.108 98.042 C 291.185 96.943 289.673 95.401 288.574 93.417 C 287.505 91.432 286.971 89.142 286.971 86.547 C 286.971 83.921 287.505 81.616 288.574 79.631 C 289.643 77.646 291.139 76.12 293.062 75.051 C 294.986 73.982 297.2 73.448 299.703 73.448 C 302.115 73.448 304.268 73.967 306.161 75.005 C 308.085 76.043 309.566 77.524 310.604 79.448 C 311.672 81.341 312.207 83.524 312.207 85.997 Z M 305.566 84.165 C 305.535 82.516 304.94 81.203 303.779 80.226 C 302.619 79.219 301.199 78.715 299.52 78.715 C 297.932 78.715 296.589 79.203 295.49 80.18 C 294.421 81.127 293.765 82.455 293.52 84.165 L 305.566 84.165 Z" fill="#00ADB5"></path>
            <path fill-rule="evenodd" clip-rule="evenodd" d="M 29.362 11.893 C 28.979 10.659 28.574 8.894 28.534 6.87 C 28.426 1.431 29.297 0 29.297 0 C 29.297 0 16.32 4.58 7.16 22.9 C 0.648 35.925 -0.117 47.896 0.013 53.924 C 0.004 54.268 0 54.614 0 54.96 C 0 78.456 19.496 98.195 45.869 103.767 L 45.8 103.813 C 45.977 103.829 46.153 103.846 46.327 103.863 C 48.817 104.372 51.367 104.755 53.967 105.003 C 68.527 108.187 64.331 115.009 62.159 118.541 C 62.042 118.73 61.932 118.91 61.83 119.08 C 98.866 113.524 115.436 87.504 120.422 66.851 C 121.472 63.273 122.058 59.545 122.126 55.714 L 122.133 55.723 C 122.133 55.723 123.817 41.535 114.5 22.9 C 105.34 4.58 92.363 0 92.363 0 C 92.363 0 93.234 1.431 93.127 6.87 C 93.089 8.785 92.724 10.468 92.36 11.689 C 83.208 7.174 72.505 4.58 61.067 4.58 C 49.457 4.58 38.604 7.253 29.362 11.893 Z" fill="#00ADB5"></path>
            <path d="M 111.447 53.433 C 111.447 75.355 88.891 91.6 61.067 91.6 C 33.243 91.6 10.687 75.355 10.687 53.433 C 10.687 35.877 20.61 25.19 33.587 23.663 C 54.846 21.162 61.067 41.22 61.067 41.22 C 61.067 41.22 64.883 23.663 85.493 23.663 C 99.233 23.663 111.447 35.877 111.447 53.433 Z" fill="white"></path>
            <path d="M 20.428 36.204 L 50.962 36.204 L 50.962 66.737 C 40.784 66.718 30.606 66.711 20.428 66.717 L 20.428 36.204 Z M 25.537 41.371 C 25.518 48.143 25.511 54.916 25.517 61.692 L 45.873 61.692 C 45.873 54.92 45.866 48.135 45.852 41.336 C 39.075 41.346 32.303 41.358 25.537 41.371 Z" fill="#21252C"></path>
            <path d="M 42.238 44.928 L 29.152 44.928 L 29.152 58.013 L 42.238 58.013 L 42.238 44.928 Z" fill="#21252C"></path>
            <path d="M 71.172 36.204 L 101.705 36.204 L 101.705 66.737 C 91.527 66.718 81.349 66.711 71.172 66.717 L 71.172 36.204 Z M 76.281 41.371 C 76.262 48.143 76.255 54.916 76.261 61.692 L 96.616 61.692 C 96.616 54.92 96.609 48.135 96.596 41.336 C 89.818 41.346 83.047 41.358 76.281 41.371 Z" fill="#21252C"></path>
            <path d="M 92.981 44.928 L 79.895 44.928 L 79.895 58.013 L 92.981 58.013 L 92.981 44.928 Z" fill="#21252C"></path>
            <path d="M 53.433 70.148 C 56.258 68.615 58.774 66.571 60.853 64.12 C 62.939 66.573 65.459 68.621 68.288 70.161 C 65.78 74.493 63.298 78.834 60.844 83.182 C 58.425 78.81 55.91 74.489 53.433 70.148 Z" fill="#00ADB5"></path>
        </g>
    </g>

<!--    <g transform="translate(380 250) scale(1.5)">-->

<!--        <rect width="44" height="44" rx="8" fill="#12c7d0"/>-->
<!--        <g transform="translate(10 10)" fill="white">-->
<!--            <path d="M 22 3 H 2 C 0.91 3.04 0.04 3.91 0 5 V 19 C 0.04 20.09 0.91 20.96 2 21 H 22 C 23.09 20.96 23.96 20.09 24 19 V 5 C 23.96 3.91 23.09 3.04 22 3 M 22 19 H 2 V 5 H 22 V 19 M 14 17 V 15.75 C 14 14.09 10.66 13.25 9 13.25 C 7.34 13.25 4 14.09 4 15.75 V 17 H 14 M 9 7 A 2.5 2.5 0 0 0 6.5 9.5 A 2.5 2.5 0 0 0 9 12 A 2.5 2.5 0 0 0 11.5 9.5 A 2.5 2.5 0 0 0 9 7 M 14 7 V 8 H 20 V 7 H 14 M 14 9 V 10 H 20 V 9 H 14 M 14 11 V 12 H 18 V 11 H 14"></path>-->
<!--        </g>-->
<!--    </g>-->
</svg>