<svg xmlns="http://www.w3.org/2000/svg" viewBox="0 0 392 248"><defs><style>.cls-1{isolation:isolate;}.cls-2{fill:#cde4e7;}.cls-2,.cls-6,.cls-8{opacity:0.39;mix-blend-mode:multiply;}.cls-3,.cls-8{fill:#009a9b;}.cls-4{fill:#fff;}.cls-5{fill:#085e5c;}.cls-6{fill:#b4e1e8;}.cls-7{fill:#1e2433;}.cls-9{fill:#fafafa;}.cls-10{fill:#1a2e35;}.cls-11{fill:#ececec;}.cls-12{fill:#fbc7ba;}.cls-13{fill:#ffbf9d;}.cls-14{fill:#e1e1e1;}.cls-15{fill:#333c54;}</style></defs><g class="cls-1"><g id="Layer_1" data-name="Layer 1"><path class="cls-2" d="M69.91,144.33c2.73,7.34,9.66,9.26,11.53,13.8,6.32,7.09,10.45,19.81,19.12,20C113,178.5,114.89,152.7,136.9,144c10.52-4.18,24.49-4,32.81,2.47,4.91,3.82,8.2,10.09,9.56,18a156.62,156.62,0,0,0-7.05-39.1C163.86,98.83,146.77,69.69,136.94,72c-9.39,2.21-3.06,31-22.93,45.16-2.69,1.92-11.66,8.32-20.82,6-6.6-1.67-8-6.54-12.35-6-7.28.92-15,16.36-10.93,27.17"/><rect class="cls-3" x="118.12" y="31.32" width="153.82" height="101.39"/><rect class="cls-4" x="123.29" y="35.16" width="143.49" height="91.75"/><rect class="cls-5" x="167.56" y="40.73" width="56.29" height="6.35"/><rect class="cls-6" x="148.71" y="53.42" width="93.59" height="0.88"/><rect class="cls-6" x="148.71" y="50.81" width="93.59" height="0.88"/><polygon class="cls-5" points="174.38 101.28 174.94 101.28 174.94 106.68 180.34 106.68 180.34 107.24 174.38 107.24 174.38 101.28"/><polygon class="cls-5" points="208.99 107.24 208.99 106.68 214.39 106.68 214.39 101.28 214.94 101.28 214.94 107.24 208.99 107.24"/><polygon class="cls-5" points="194.19 85.99 193.5 85.99 184.01 85.99 184.01 85.99 184.01 84.33 184.01 82.67 182.35 82.67 182.35 84.33 180.69 84.33 180.69 85.99 182.35 85.99 182.35 85.99 180.69 85.99 180.69 87.66 180.69 89.32 180.69 90.98 180.69 90.98 182.35 90.98 182.35 90.98 184.1 90.98 184.1 89.32 182.35 89.32 182.35 87.66 184.01 87.66 193.5 87.66 193.5 98.89 195.17 98.89 195.17 85.99 194.19 85.99"/><rect class="cls-5" x="177.36" y="82.66" width="3.33" height="1.66"/><rect class="cls-5" x="190.18" y="84.33" width="3.33" height="1.66"/><rect class="cls-5" x="186.85" y="82.66" width="3.33" height="1.66"/><rect class="cls-5" x="190.18" y="73.46" width="1.66" height="2.97"/><rect class="cls-5" x="193.32" y="71.76" width="1.66" height="3.36"/><rect class="cls-5" x="195.17" y="84.33" width="1.66" height="1.66"/><rect class="cls-5" x="198.46" y="85.83" width="1.66" height="4.39"/><rect class="cls-5" x="193.5" y="82.66" width="1.66" height="1.66"/><polygon class="cls-5" points="198.49 82.67 198.49 81 196.83 81 195.17 81 195.17 82.67 196.83 82.67 198.49 82.67"/><polygon class="cls-5" points="201.68 90.98 198.47 90.98 198.47 90.22 196.8 90.22 196.8 94.66 198.47 94.66 198.47 92.64 200.04 92.64 200.04 94.31 201.7 94.31 201.7 92.67 203.34 92.67 203.34 89.15 201.68 89.15 201.68 90.98"/><rect class="cls-5" x="205.01" y="100.55" width="1.66" height="1.66"/><polygon class="cls-5" points="191.78 97.46 190.12 97.46 190.12 98.89 190.12 100.55 190.12 104.11 191.78 104.11 191.78 100.55 193.5 100.55 193.5 98.89 191.78 98.89 191.78 97.46"/><path class="cls-5" d="M187,92.58h-9.63v11.3h11.3v-1.67h0v-8h0V92.58H187Zm0,9.63h-8v-8h8Z"/><rect class="cls-5" x="206.67" y="102.21" width="3.33" height="1.66"/><polygon class="cls-5" points="200.35 102.23 200.35 103.89 202.01 103.89 202.01 102.23 202.01 100.57 200.35 100.57 200.35 102.23"/><rect class="cls-5" x="193.5" y="102.21" width="5.29" height="1.66"/><rect class="cls-5" x="203.35" y="87.49" width="1.66" height="1.66"/><rect class="cls-5" x="205.01" y="85.83" width="1.66" height="1.66"/><rect class="cls-5" x="206.32" y="82.5" width="3.39" height="1.66"/><polygon class="cls-5" points="211.31 89.34 211.31 87.68 211.31 86.02 209.64 86.02 209.64 87.68 207.98 87.68 207.98 89.34 209.64 89.34 211.31 89.34"/><rect class="cls-5" x="206.32" y="89.35" width="1.66" height="1.66"/><rect class="cls-5" x="207.98" y="91.01" width="1.66" height="1.66"/><polygon class="cls-5" points="209.64 97.66 209.64 100.55 211.31 100.55 211.31 95.66 209.64 95.66 209.64 94.33 207.98 94.33 207.98 97.66 209.64 97.66"/><polygon class="cls-5" points="203.34 97.22 198.79 97.22 198.79 98.89 203.34 98.89 203.34 100.55 205.01 100.55 205.01 98.89 205.01 94.33 207.98 94.33 207.98 92.67 203.34 92.67 203.34 94.33 203.34 97.22"/><rect class="cls-5" x="195.17" y="98.89" width="3.63" height="1.66"/><polygon class="cls-5" points="188.38 89.25 188.38 90.98 190.12 90.98 190.12 94.31 191.78 94.31 191.78 90.98 190.12 90.98 190.12 89.25 188.38 89.25"/><rect class="cls-5" x="180.57" y="95.74" width="4.98" height="4.98"/><path class="cls-5" d="M187,81h1.67V79.34h0v-8h0V69.7h-11.3V81H187Zm-8-9.64h8v8h-8Z"/><rect class="cls-5" x="180.57" y="72.86" width="4.98" height="4.98"/><path class="cls-5" d="M211.49,71.36V69.7h-11.3v3.76h-3.62v1.66H195v2.62H193.5V76.43h-1.66v1.31h-1.66v4.92h1.66V79.4h4.81V75.12h3.54V81h3.16v3.17h-3.21v1.66H205V81h6.48V79.34h0v-8Zm-1.68,8h-8v-8h8Z"/><rect class="cls-5" x="203.35" y="72.86" width="4.98" height="4.98"/><polygon class="cls-5" points="198.59 62.12 198.39 62.12 199.01 60.87 199.21 60.87 198.59 62.12"/><rect class="cls-5" x="192.07" y="62.01" width="9.82" height="0.16"/><rect class="cls-5" x="192.07" y="62.51" width="5.25" height="0.9"/><rect class="cls-5" x="198.39" y="60.38" width="2.73" height="0.5"/><rect class="cls-5" x="198.39" y="60.15" width="2.73" height="0.09"/><polygon class="cls-5" points="214.94 72.51 214.39 72.51 214.39 67.11 208.99 67.11 208.99 66.56 214.94 66.56 214.94 72.51"/><polygon class="cls-5" points="180.34 66.56 180.34 67.11 174.94 67.11 174.94 72.51 174.38 72.51 174.38 66.56 180.34 66.56"/><polygon class="cls-5" points="218.56 84.33 218.33 84.33 218.33 63.83 203.5 63.83 203.5 66.09 186.6 66.09 186.6 65.86 203.27 65.86 203.27 63.6 218.56 63.6 218.56 84.33"/><polygon class="cls-5" points="157.56 89.15 157.33 89.15 157.33 80.89 171.93 80.89 171.93 75.35 172.15 75.35 172.15 81.11 157.56 81.11 157.56 89.15"/><rect class="cls-5" x="164.02" y="76.44" width="4.39" height="0.31"/><rect class="cls-5" x="164.02" y="77.02" width="4.39" height="1.3"/><rect class="cls-5" x="167.89" y="78.75" width="2.59" height="0.19"/><rect class="cls-5" x="167.89" y="79.03" width="2.59" height="0.52"/><rect class="cls-5" x="168.32" y="74.69" width="0.19" height="3.63"/><path class="cls-7" d="M134.82,101.85s6.09-.22,1.65-8.31-7.08-7.2-8-14.47.05-12.33-3.24-12.64-6.65-2.14-8.79,5.19-3.12,13.68-2.32,19.3-2.14,5.89-3,8.08-3.36,6.94,2.56,6.76,21.13-3.91,21.13-3.91"/><path class="cls-6" d="M166,218.38c19.46-30.55,17.59-61.14,3.68-72-8.32-6.48-22.29-6.65-32.81-2.47-22,8.75-23.92,34.55-36.34,34.22-12-.32-15.33-24.72-27.87-24.69-9.22,0-16.81,13.22-19.4,22.22-6.08,21.11,6.68,40.8,9.45,40.66,33.14-1.78,69.59-2.52,102.78,2.57"/><path class="cls-8" d="M34.8,221.88c0,3.8,30.75,6.87,68.68,6.87s68.69-3.07,68.69-6.87S141.42,215,103.48,215s-68.68,3.07-68.68,6.86"/><rect class="cls-9" x="78.16" y="162.91" width="89.35" height="50.77"/><path class="cls-10" d="M167.51,213.68s0-.31,0-.91,0-1.49,0-2.65c0-2.33,0-5.76,0-10.15,0-8.8,0-21.48-.05-37.06l.09.08-89.35,0h0l.11-.11c0,18,0,35.13,0,50.77l-.1-.1,64.27,0,18.46,0h4.94l-4.9,0-18.43,0-64.34.05h-.11v-51h.11l89.35,0h.08v.09c0,15.6,0,28.3,0,37.11,0,4.39,0,7.81,0,10.13v3.53Z"/><path class="cls-11" d="M114.41,171.19c0,.06-6.07.11-13.56.11s-13.56-.05-13.56-.11,6.07-.11,13.56-.11S114.41,171.13,114.41,171.19Z"/><path class="cls-11" d="M128.6,176.06c0,.06-6.07.11-13.56.11s-13.56,0-13.56-.11S107.55,176,115,176,128.6,176,128.6,176.06Z"/><path class="cls-11" d="M158.14,171.19c0,.06-6.07.11-13.56.11s-13.56-.05-13.56-.11,6.07-.11,13.56-.11S158.14,171.13,158.14,171.19Z"/><path class="cls-11" d="M125.93,171.19a30.75,30.75,0,0,1-3.66.11,30.75,30.75,0,0,1-3.66-.11,30.75,30.75,0,0,1,3.66-.11A30.75,30.75,0,0,1,125.93,171.19Z"/><path class="cls-11" d="M95.41,176.06a30.75,30.75,0,0,1-3.66.11,30.61,30.61,0,0,1-3.66-.11,30.61,30.61,0,0,1,3.66-.11A30.75,30.75,0,0,1,95.41,176.06Z"/><path class="cls-11" d="M139.16,175.85a28.59,28.59,0,0,1-3.53.11,28.49,28.49,0,0,1-3.52-.11,28.49,28.49,0,0,1,3.52-.11A28.59,28.59,0,0,1,139.16,175.85Z"/><path class="cls-11" d="M114.41,182.33c0,.07-6.07.11-13.56.11s-13.56,0-13.56-.11,6.07-.11,13.56-.11S114.41,182.27,114.41,182.33Z"/><path class="cls-11" d="M128.6,187.2c0,.06-6.07.11-13.56.11s-13.56-.05-13.56-.11,6.07-.11,13.56-.11S128.6,187.14,128.6,187.2Z"/><path class="cls-11" d="M158.14,182.33c0,.07-6.07.11-13.56.11s-13.56,0-13.56-.11,6.07-.11,13.56-.11S158.14,182.27,158.14,182.33Z"/><path class="cls-11" d="M125.93,182.33a30.75,30.75,0,0,1-3.66.11,30.75,30.75,0,0,1-3.66-.11,30.75,30.75,0,0,1,3.66-.11A30.75,30.75,0,0,1,125.93,182.33Z"/><path class="cls-11" d="M95.41,187.2a30.75,30.75,0,0,1-3.66.11,30.61,30.61,0,0,1-3.66-.11,30.61,30.61,0,0,1,3.66-.11A30.75,30.75,0,0,1,95.41,187.2Z"/><path class="cls-11" d="M139.16,187a25.35,25.35,0,0,1-3.53.12,25.26,25.26,0,0,1-3.52-.12,28.49,28.49,0,0,1,3.52-.11A28.59,28.59,0,0,1,139.16,187Z"/><path class="cls-11" d="M114.66,201.65c0,.06-6.07.11-13.56.11s-13.56,0-13.56-.11,6.07-.11,13.56-.11S114.66,201.59,114.66,201.65Z"/><path class="cls-11" d="M128.85,206.52c0,.06-6.07.11-13.55.11s-13.56,0-13.56-.11,6.07-.11,13.56-.11S128.85,206.46,128.85,206.52Z"/><path class="cls-11" d="M158.39,201.65c0,.06-6.07.11-13.56.11s-13.56,0-13.56-.11,6.07-.11,13.56-.11S158.39,201.59,158.39,201.65Z"/><path class="cls-11" d="M126.18,201.65a30.75,30.75,0,0,1-3.66.11,30.75,30.75,0,0,1-3.66-.11,30.75,30.75,0,0,1,3.66-.11A30.75,30.75,0,0,1,126.18,201.65Z"/><path class="cls-11" d="M95.66,206.52a30.75,30.75,0,0,1-3.66.11,30.75,30.75,0,0,1-3.66-.11,30.75,30.75,0,0,1,3.66-.11A30.75,30.75,0,0,1,95.66,206.52Z"/><path class="cls-11" d="M139.41,206.31a26.41,26.41,0,0,1-3.53.11,26.31,26.31,0,0,1-3.52-.11,28.49,28.49,0,0,1,3.52-.11A28.59,28.59,0,0,1,139.41,206.31Z"/><path class="cls-11" d="M114.41,192.81c0,.06-6.07.11-13.56.11s-13.56,0-13.56-.11,6.07-.11,13.56-.11S114.41,192.75,114.41,192.81Z"/><path class="cls-11" d="M128.6,197.68c0,.06-6.07.11-13.56.11s-13.56,0-13.56-.11,6.07-.11,13.56-.11S128.6,197.62,128.6,197.68Z"/><path class="cls-11" d="M158.14,192.81c0,.06-6.07.11-13.56.11s-13.56,0-13.56-.11,6.07-.11,13.56-.11S158.14,192.75,158.14,192.81Z"/><path class="cls-11" d="M125.93,192.81a30.75,30.75,0,0,1-3.66.11,30.75,30.75,0,0,1-3.66-.11,30.75,30.75,0,0,1,3.66-.11A30.75,30.75,0,0,1,125.93,192.81Z"/><path class="cls-11" d="M95.41,197.68a30.75,30.75,0,0,1-3.66.11,30.61,30.61,0,0,1-3.66-.11,30.61,30.61,0,0,1,3.66-.11A30.75,30.75,0,0,1,95.41,197.68Z"/><path class="cls-11" d="M139.16,197.47a28.59,28.59,0,0,1-3.53.11,28.49,28.49,0,0,1-3.52-.11,28.49,28.49,0,0,1,3.52-.11A28.59,28.59,0,0,1,139.16,197.47Z"/><path class="cls-12" d="M164.08,96l-9.7,13.07a1.34,1.34,0,0,1-1.92.36c-4.31-3.18-17.76-13.69-17.76-13.69l-2.67,13s17.3,8,22.06,7a4.32,4.32,0,0,0,2.86-1.29c3.8-4.89,11.88-17,11.88-17Z"/><path class="cls-12" d="M169.45,84.82c-.74.3-3.35,4.71-3.35,4.71l-.66,0a2.08,2.08,0,0,0-2,2.33c.22,1.84.6,4.11.6,4.11l3.67,1.67,1.08-.23c1,0,2-2.1,2.62-3.55s-.4-1.73-.4-1.73c0-1.44-1.22-1.16-1.22-1.16a1.25,1.25,0,0,0-1.31-1.24,38.82,38.82,0,0,0,1.95-4C170.78,84.7,170.18,84.52,169.45,84.82Z"/><path class="cls-12" d="M169.76,91a6.58,6.58,0,0,1-.38.92,3.28,3.28,0,0,1-.23.46,1.84,1.84,0,0,1-.4.44,1.39,1.39,0,0,1-.59.31.92.92,0,0,1-.71-.17.61.61,0,0,1-.21-.33.73.73,0,0,1,0-.36,5.21,5.21,0,0,1,.18-.63,8.54,8.54,0,0,1,.46-1,4.65,4.65,0,0,1,.38-.63,1.06,1.06,0,0,1,.17-.21s-.19.33-.46.89a8.94,8.94,0,0,0-.42,1,3.78,3.78,0,0,0-.17.6.58.58,0,0,0,.17.56.77.77,0,0,0,.59.14,1.52,1.52,0,0,0,.54-.27,1.84,1.84,0,0,0,.38-.41,4.63,4.63,0,0,0,.24-.43A5.42,5.42,0,0,1,169.76,91Z"/><path class="cls-12" d="M171,92a.8.8,0,0,1-.06.25,5.73,5.73,0,0,1-.24.66,3.25,3.25,0,0,1-.56.91,1.36,1.36,0,0,1-.51.39.71.71,0,0,1-.7-.07.7.7,0,0,1-.21-.67,3.62,3.62,0,0,1,.16-.61c.14-.37.27-.7.4-1s.24-.48.33-.63.13-.22.14-.21-.15.33-.38.88c-.11.27-.24.6-.36,1a2.74,2.74,0,0,0-.15.58A.58.58,0,0,0,169,94a.58.58,0,0,0,.56,0,1.44,1.44,0,0,0,.46-.35,3.15,3.15,0,0,0,.56-.86A9.43,9.43,0,0,1,171,92Z"/><path class="cls-12" d="M171.66,93a1.88,1.88,0,0,1-.15.68,3.84,3.84,0,0,1-.33.69,1.83,1.83,0,0,1-.29.36.56.56,0,0,1-.49.17.49.49,0,0,1-.35-.4,1.19,1.19,0,0,1,0-.47,2.85,2.85,0,0,1,.27-.72c.2-.38.31-.62.32-.61a2.52,2.52,0,0,1-.23.66,3.48,3.48,0,0,0-.23.69,1,1,0,0,0,0,.42.32.32,0,0,0,.24.28.43.43,0,0,0,.37-.12,2.18,2.18,0,0,0,.26-.34,3.94,3.94,0,0,0,.36-.65A6.55,6.55,0,0,1,171.66,93Z"/><path class="cls-12" d="M165.44,89.57a31.75,31.75,0,0,1,3.24,0A1.2,1.2,0,0,1,168,91a3.29,3.29,0,0,1-1.65.23,2.14,2.14,0,0,1,.67,1.58,2.09,2.09,0,0,1-.72,1.56"/><path class="cls-12" d="M166.33,94.37a2.86,2.86,0,0,0,.53-.82,2.07,2.07,0,0,0,.11-1.08,2.13,2.13,0,0,0-.64-1.19l-.13-.12h.18a3.44,3.44,0,0,0,1.48-.17,1.13,1.13,0,0,0,.75-1.37l.06,0c-.94-.07-1.75-.07-2.32-.08h-.67a.87.87,0,0,1-.24,0,.75.75,0,0,1,.24,0l.67,0c.57,0,1.38,0,2.33,0h0l0,0a1,1,0,0,1-.09.91,1.41,1.41,0,0,1-.73.65,3.62,3.62,0,0,1-1.54.17l.05-.12a2.24,2.24,0,0,1,.66,1.28,2.08,2.08,0,0,1-.15,1.12,2,2,0,0,1-.4.62C166.42,94.32,166.34,94.38,166.33,94.37Z"/><polygon class="cls-12" points="149.72 192.76 144.55 203.97 136.21 200.11 141.56 186.25 149.72 192.76"/><path class="cls-3" d="M149.84,196.61,163,163.84s-.31-5.82-1.38-7.66-33.54-12.55-33.54-12.55-8.27-2-13.78,0-9.65,8.88-8.88,12.71a13.58,13.58,0,0,0,4,6.64l23.87.71,13,4.74-8.76,25.12A12.93,12.93,0,0,0,149.84,196.61Z"/><polygon class="cls-12" points="161.5 174.64 161.81 186.98 152.62 187.2 151.3 172.4 161.5 174.64"/><path class="cls-3" d="M156.14,140.39a5.71,5.71,0,0,1,6.11,5.53c.62,6,1.22,33.85,1.22,33.85l-12.87,1.07-2-28.49-20.52-8.72S152.46,139.62,156.14,140.39Z"/><path class="cls-5" d="M133.45,132.33s3.34,9.37,2.7,10.41-9.23,5.34-9.23,5.34l-21.49,8.26a18,18,0,0,1-2.21-8.91c0-5.4,7.48-15.1,7.48-15.1Z"/><path class="cls-3" d="M110,144.08a2.5,2.5,0,0,0,.6-.16l1.62-.52a34.41,34.41,0,0,1,5.42-1.37,16,16,0,0,1,5.54.07c1.4.29,2.21.69,2.23.64a3.23,3.23,0,0,0-.56-.28,10.4,10.4,0,0,0-1.63-.53,15,15,0,0,0-5.62-.14,29.89,29.89,0,0,0-5.43,1.45c-.68.24-1.22.44-1.6.59A4,4,0,0,0,110,144.08Z"/><path class="cls-3" d="M113,139.15a16.5,16.5,0,0,1,1.88,0c.58,0,1.27.13,2,.21s1.61.2,2.48.36a11.31,11.31,0,0,1,4.21,1.57,14.14,14.14,0,0,1,1.46,1.17,1.88,1.88,0,0,0-.31-.4,6.19,6.19,0,0,0-1-.91,10.67,10.67,0,0,0-4.27-1.66c-.88-.17-1.72-.27-2.49-.35s-1.47-.14-2-.16a7.76,7.76,0,0,0-1.39.06A1.44,1.44,0,0,0,113,139.15Z"/><path class="cls-13" d="M134,95.43a6.92,6.92,0,0,1,3.57,3.1,5.48,5.48,0,0,1,.63,5c-.35,1.4-1,4.19-1,4S134,95.43,134,95.43Z"/><polygon class="cls-12" points="133.83 95.43 131 94.84 115.12 93.33 120.47 110.89 130.15 116.98 135.88 114.11 136.46 107.73 133.83 95.43"/><path class="cls-5" d="M134,95.43s3.65,11.72,3.57,15.07-2.23,12.73-2.38,14.61c-.29,3.47-.79,6.89-1.72,7.22-2.16.76-22.75,0-22.75,0s-5.14-1.42-5.36-4.51,4-29.49,4-29.49,2.9-4.39,4.78-4.79,5.37-1.17,6.63,2.72,1.67,5.89,4.35,8.57,6.51,5.7,6.51,5.7,3.09-2.58,3.22-6.07a45.85,45.85,0,0,0-1.17-9.15Z"/><path class="cls-5" d="M103.22,111.18l11.46,5.37s4.68-10.34,5.08-11.75,1.66-3.65.37-6.6-4.55-4.59-6.71-3.83C108.36,96.15,103.22,111.18,103.22,111.18Z"/><path class="cls-5" d="M136.46,111.14c.53,0,6.68,3.21,6.68,3.21l3.5-11.59c-5.23-3.48-10.57-7.1-13.62-7.92l2.65,9.22Z"/><path class="cls-12" d="M113.56,115.82c-2.17,3.57-3.69,5.62-3.69,5.62l19.47,11.86-2.26,5.27-25.26-10.4s-2.49-2.56-1.61-5.41l4-11.12Z"/><path class="cls-12" d="M105.14,123.25a16.5,16.5,0,0,1,2.33-1.21,16.64,16.64,0,0,1,2.55-.6,6.31,6.31,0,0,0-4.88,1.81Z"/><path class="cls-3" d="M103.22,111.18a.88.88,0,0,1,.23.08l.63.27,2.32,1L114,116l.93.43-.15,0c1.32-2.72,2.48-5.16,3.3-6.92.4-.87.73-1.57,1-2.09l.26-.56a1.55,1.55,0,0,1,.1-.19s0,.07-.06.21-.12.33-.22.58c-.2.5-.51,1.22-.9,2.11-.79,1.78-1.92,4.23-3.24,7l0,.1-.1,0-.92-.43-7.59-3.52-2.28-1.1-.62-.3Z"/><path class="cls-3" d="M135.75,100.65a4,4,0,0,1,.27.55,12.4,12.4,0,0,1,.52,1.57,29,29,0,0,1,.78,5.39,36.78,36.78,0,0,1,0,5.45c-.06.7-.14,1.26-.21,1.64a4,4,0,0,1-.13.6,2.52,2.52,0,0,1,0-.61c0-.38.1-.94.13-1.64a46.49,46.49,0,0,0,0-5.42,33.51,33.51,0,0,0-.71-5.37c-.16-.68-.33-1.21-.45-1.58A2.9,2.9,0,0,1,135.75,100.65Z"/><path class="cls-12" d="M144.45,136.91l-4.86-2.32-9.47-.76-.78-.53-2.26,5.27a15.5,15.5,0,0,0,3.78,1.29l8-.24,4.16.44Z"/><path class="cls-14" d="M171.77,118.2l-27.32.22a1.72,1.72,0,0,0-1.87,1.31l-3,19.91H125.53a.82.82,0,0,0,0,1.64h44.94l3.07-21A1.79,1.79,0,0,0,171.77,118.2Z"/><path class="cls-10" d="M171.77,118.2a1.4,1.4,0,0,1,.43,0,1.85,1.85,0,0,1,1,.7,1.75,1.75,0,0,1,.34.87,5,5,0,0,1-.1,1.12c-.11.81-.25,1.73-.39,2.77-.61,4.18-1.47,10.2-2.54,17.59v.07h-.07l-43.6,0h-1.18a1.08,1.08,0,0,1-.62-.12.92.92,0,0,1-.42-.49.94.94,0,0,1,.43-1.14,1.11,1.11,0,0,1,.61-.11H139.6l-.11.09c1.08-7.13,2.08-13.78,3-19.75a1.54,1.54,0,0,1,.5-1,2.11,2.11,0,0,1,1.05-.46,8.21,8.21,0,0,1,1.1,0h1.07l4.12,0,7.31,0,10.4,0h3.51l-.72,0-2.79,0-10.4.12-7.31.07-4.12,0h-1.07a7.54,7.54,0,0,0-1.07,0,1.81,1.81,0,0,0-1,.42,1.37,1.37,0,0,0-.44.93c-.89,6-1.88,12.62-3,19.75v.1h-14a.87.87,0,0,0-.51.09.7.7,0,0,0-.32.86.71.71,0,0,0,.32.38.93.93,0,0,0,.51.09h1.18l43.6,0-.08.07c1.09-7.39,2-13.41,2.6-17.58.16-1,.3-2,.42-2.77a5,5,0,0,0,.11-1.11,1.78,1.78,0,0,0-.32-.85,1.76,1.76,0,0,0-1-.69A3.12,3.12,0,0,0,171.77,118.2Z"/><circle class="cls-4" cx="156.95" cy="129.49" r="1.71"/><path class="cls-10" d="M140.7,141.1s.91-5.07,2-11.33,1.84-11.34,1.8-11.35-.91,5.07-1.94,11.33S140.67,141.09,140.7,141.1Z"/><path class="cls-12" d="M126.58,86s4.82,11.21,4,13-.37,3.4-3.18,1.14-4.58-3.54-4.58-3.54.49-8.12.37-9.71,3.42-.92,3.42-.92"/><path class="cls-12" d="M129.57,69.49s5.92,5.25,2.81,15-11.54-.37-11.91-1-4.4-11.6,1.4-13.37,6.23-1.47,7.7-.67"/><path class="cls-7" d="M135.49,73.88c.08.3-1.77,3.54-4.58,0-2.87,4.09-7.62,8.25-12.14,7.45s0-12.46,1.52-12.94,12-7.39,15.2,5.49"/><path class="cls-15" d="M142.26,212.31s3.09-1.32,3.09-4,.68-8,0-7.82-4.84-4.77-6.46-4.24-3.9,5.79-4.44,8,5.11,7.78,7.81,8"/><path class="cls-15" d="M170.76,194.2s-8.57-10.24-11.38-10.5-5.54.49-6.63,1.66-1.17,2.39-1.42,4.46,1,2.42,3.71,2.78,16.76,2.81,15.72,1.6"/></g></g></svg>