<svg width="400" height="280" viewBox="0 0 400 280" fill="none" xmlns="http://www.w3.org/2000/svg">
<path d="M314.6 252.91C352.7 202.01 349.1 151.11 321.8 133.11C305.5 122.31 278.1 122.01 257.5 129.01C214.4 143.61 210.6 186.51 186.3 186.01C162.7 185.51 156.3 144.81 131.7 144.91C113.6 144.91 98.8 166.91 93.7 181.91C81.8 217.01 106.8 251.91 112.2 251.61C177.5 247.51 249.1 246.11 315 252.41" fill="#EBF3FE"/>
<path d="M126.2 129.61C131.6 141.81 145.1 145.01 148.8 152.61C161.2 164.41 169.3 185.61 186.3 186.01C210.6 186.51 214.4 143.61 257.5 129.01C278.1 122.01 305.5 122.31 321.8 133.11C331.4 139.51 338.1 149.91 341 163.01C336.9 144.61 335.7 122.01 326.7 97.9099C310.3 53.9099 276.8 5.40988 257.6 9.20988C239.2 12.9099 251.6 60.8099 212.7 84.4099C207.4 87.6099 189.9 98.2099 171.9 94.4099C159 91.6099 156.1 83.5099 147.7 84.4099C133.4 85.9099 118.4 111.61 126.2 129.61Z" fill="#EBF3FE"/>
<path d="M102 259.5C102 265.855 151.685 271 213 271C274.315 271 324 265.855 324 259.5C324 253.145 274.315 248 213 248C151.685 248 102 253.145 102 259.5Z" fill="#393E46"/>
<rect opacity="0.7" x="65.5" y="56.5" width="299" height="179" fill="white" stroke="#085E5C"/>
<rect x="95.7999" y="57" width="0.993333" height="177" fill="#EEEEEE"/>
<rect x="66" y="85.8372" width="298" height="0.994382" fill="#EEEEEE"/>
<rect x="66" y="115.668" width="298" height="0.994382" fill="#EEEEEE"/>
<rect x="66" y="145.5" width="298" height="0.994382" fill="#EEEEEE"/>
<rect x="66" y="175.332" width="298" height="0.994382" fill="#EEEEEE"/>
<rect x="66" y="205.163" width="298" height="0.994382" fill="#EEEEEE"/>
<rect x="125.6" y="57" width="0.993333" height="177" fill="#EEEEEE"/>
<rect x="155.4" y="57" width="0.993333" height="177" fill="#EEEEEE"/>
<rect x="185.2" y="57" width="0.993333" height="177" fill="#EEEEEE"/>
<rect x="215" y="57" width="0.993333" height="177" fill="#EEEEEE"/>
<rect x="244.8" y="57" width="0.993333" height="177" fill="#EEEEEE"/>
<rect x="274.6" y="57" width="0.993333" height="177" fill="#EEEEEE"/>
<rect x="304.4" y="57" width="0.993333" height="177" fill="#EEEEEE"/>
<rect x="334.2" y="57" width="0.993333" height="177" fill="#EEEEEE"/>
<path d="M87 164C87 161.791 88.7909 160 91 160H103C105.209 160 107 161.791 107 164V235H87V164Z" fill="url(#paint0_linear)"/>
<path d="M117 121C117 118.791 118.791 117 121 117H133C135.209 117 137 118.791 137 121V235H117V121Z" fill="url(#paint1_linear)"/>
<path d="M147 186C147 183.791 148.791 182 151 182H163C165.209 182 167 183.791 167 186V235H147V186Z" fill="url(#paint2_linear)"/>
<path d="M177 198C177 195.791 178.791 194 181 194H193C195.209 194 197 195.791 197 198V235H177V198Z" fill="url(#paint3_linear)"/>
<path d="M207 159C207 156.791 208.791 155 211 155H223C225.209 155 227 156.791 227 159V235H207V159Z" fill="url(#paint4_linear)"/>
<path d="M237 171C237 168.791 238.791 167 241 167H253C255.209 167 257 168.791 257 171V235H237V171Z" fill="url(#paint5_linear)"/>
<path d="M267 72C267 69.7909 268.791 68 271 68H283C285.209 68 287 69.7909 287 72V235H267V72Z" fill="url(#paint6_linear)"/>
<path d="M297 116C297 113.791 298.791 112 301 112H313C315.209 112 317 113.791 317 116V235H297V116Z" fill="url(#paint7_linear)"/>
<mask id="path-27-inside-1" fill="white">
<path d="M131 66C131 92.5097 109.51 114 83 114C56.4903 114 35 92.5097 35 66C35 39.4903 56.4903 18 83 18C109.51 18 131 39.4903 131 66ZM54.2 66C54.2 81.9058 67.0942 94.8 83 94.8C98.9058 94.8 111.8 81.9058 111.8 66C111.8 50.0942 98.9058 37.2 83 37.2C67.0942 37.2 54.2 50.0942 54.2 66Z"/>
</mask>
<path d="M131 66C131 92.5097 109.51 114 83 114C56.4903 114 35 92.5097 35 66C35 39.4903 56.4903 18 83 18C109.51 18 131 39.4903 131 66ZM54.2 66C54.2 81.9058 67.0942 94.8 83 94.8C98.9058 94.8 111.8 81.9058 111.8 66C111.8 50.0942 98.9058 37.2 83 37.2C67.0942 37.2 54.2 50.0942 54.2 66Z" fill="#12C7D0" stroke="white" stroke-width="2" mask="url(#path-27-inside-1)"/>
<mask id="path-28-inside-2" fill="white">
<path d="M83 18C92.4935 18 101.774 20.8152 109.667 26.0895C117.561 31.3638 123.713 38.8603 127.346 47.6312C130.979 56.402 131.93 66.0532 130.078 75.3643C128.226 84.6754 123.654 93.2282 116.941 99.9411C110.228 106.654 101.675 111.226 92.3643 113.078C83.0532 114.93 73.402 113.979 64.6312 110.346C55.8603 106.713 48.3638 100.561 43.0895 92.6674C37.8152 84.7738 35 75.4935 35 66L54.2 66C54.2 71.6961 55.8891 77.2643 59.0537 82.0004C62.2183 86.7366 66.7162 90.4279 71.9787 92.6077C77.2412 94.7875 83.0319 95.3579 88.6186 94.2466C94.2053 93.1354 99.3369 90.3924 103.365 86.3647C107.392 82.3369 110.135 77.2053 111.247 71.6186C112.358 66.0319 111.788 60.2412 109.608 54.9787C107.428 49.7162 103.737 45.2183 99.0004 42.0537C94.2643 38.8891 88.6961 37.2 83 37.2L83 18Z"/>
</mask>
<path d="M83 18C92.4935 18 101.774 20.8152 109.667 26.0895C117.561 31.3638 123.713 38.8603 127.346 47.6312C130.979 56.402 131.93 66.0532 130.078 75.3643C128.226 84.6754 123.654 93.2282 116.941 99.9411C110.228 106.654 101.675 111.226 92.3643 113.078C83.0532 114.93 73.402 113.979 64.6312 110.346C55.8603 106.713 48.3638 100.561 43.0895 92.6674C37.8152 84.7738 35 75.4935 35 66L54.2 66C54.2 71.6961 55.8891 77.2643 59.0537 82.0004C62.2183 86.7366 66.7162 90.4279 71.9787 92.6077C77.2412 94.7875 83.0319 95.3579 88.6186 94.2466C94.2053 93.1354 99.3369 90.3924 103.365 86.3647C107.392 82.3369 110.135 77.2053 111.247 71.6186C112.358 66.0319 111.788 60.2412 109.608 54.9787C107.428 49.7162 103.737 45.2183 99.0004 42.0537C94.2643 38.8891 88.6961 37.2 83 37.2L83 18Z" fill="#085E5C" stroke="white" stroke-width="2" mask="url(#path-28-inside-2)"/>
<mask id="path-29-inside-3" fill="white">
<path d="M83 18C91.8523 18 100.532 20.448 108.08 25.0733C115.628 29.6986 121.749 36.321 125.768 44.2085C129.787 52.0959 131.547 60.9411 130.852 69.766C130.157 78.591 127.036 87.0521 121.833 94.2137L106.3 82.9282C109.422 78.6312 111.294 73.5546 111.711 68.2596C112.128 62.9646 111.072 57.6575 108.661 52.9251C106.25 48.1926 102.577 44.2191 98.048 41.444C93.5193 38.6688 88.3114 37.2 83 37.2L83 18Z"/>
</mask>
<path d="M83 18C91.8523 18 100.532 20.448 108.08 25.0733C115.628 29.6986 121.749 36.321 125.768 44.2085C129.787 52.0959 131.547 60.9411 130.852 69.766C130.157 78.591 127.036 87.0521 121.833 94.2137L106.3 82.9282C109.422 78.6312 111.294 73.5546 111.711 68.2596C112.128 62.9646 111.072 57.6575 108.661 52.9251C106.25 48.1926 102.577 44.2191 98.048 41.444C93.5193 38.6688 88.3114 37.2 83 37.2L83 18Z" fill="#03949A" stroke="white" stroke-width="2" mask="url(#path-29-inside-3)"/>
<mask id="path-30-inside-4" fill="white">
<path d="M83 18C90.5749 18 98.0423 19.7928 104.792 23.2317C111.541 26.6706 117.38 31.6581 121.833 37.7863C126.285 43.9145 129.224 51.0095 130.409 58.4911C131.594 65.9728 130.991 73.6287 128.651 80.8328L110.39 74.8997C111.795 70.5772 112.156 65.9837 111.445 61.4947C110.734 57.0057 108.971 52.7487 106.3 49.0718C103.628 45.3948 100.124 42.4024 96.0749 40.339C92.0254 38.2757 87.5449 37.2 83 37.2L83 18Z"/>
</mask>
<path d="M83 18C90.5749 18 98.0423 19.7928 104.792 23.2317C111.541 26.6706 117.38 31.6581 121.833 37.7863C126.285 43.9145 129.224 51.0095 130.409 58.4911C131.594 65.9728 130.991 73.6287 128.651 80.8328L110.39 74.8997C111.795 70.5772 112.156 65.9837 111.445 61.4947C110.734 57.0057 108.971 52.7487 106.3 49.0718C103.628 45.3948 100.124 42.4024 96.0749 40.339C92.0254 38.2757 87.5449 37.2 83 37.2L83 18Z" fill="#393E46" stroke="white" stroke-width="2" mask="url(#path-30-inside-4)"/>
<mask id="path-31-inside-5" fill="white">
<path d="M83 18C93.1366 18 103.013 21.209 111.214 27.1672L99.9282 42.7003C95.0078 39.1254 89.082 37.2 83 37.2L83 18Z"/>
</mask>
<path d="M83 18C93.1366 18 103.013 21.209 111.214 27.1672L99.9282 42.7003C95.0078 39.1254 89.082 37.2 83 37.2L83 18Z" fill="#909295" stroke="white" stroke-width="2" mask="url(#path-31-inside-5)"/>
<defs>
<linearGradient id="paint0_linear" x1="97" y1="160" x2="97" y2="235" gradientUnits="userSpaceOnUse">
<stop offset="0.506411" stop-color="#41D2D9"/>
<stop offset="0.506511" stop-color="#12C7D0"/>
</linearGradient>
<linearGradient id="paint1_linear" x1="127" y1="117" x2="127" y2="235" gradientUnits="userSpaceOnUse">
<stop offset="0.17818" stop-color="#12C7D0"/>
<stop offset="0.17828" stop-color="#41D2D9"/>
</linearGradient>
<linearGradient id="paint2_linear" x1="157" y1="182" x2="157" y2="235" gradientUnits="userSpaceOnUse">
<stop offset="0.506411" stop-color="#41D2D9"/>
<stop offset="0.506511" stop-color="#12C7D0"/>
</linearGradient>
<linearGradient id="paint3_linear" x1="187" y1="194" x2="187" y2="235" gradientUnits="userSpaceOnUse">
<stop offset="0.506411" stop-color="#41D2D9"/>
<stop offset="0.506511" stop-color="#12C7D0"/>
</linearGradient>
<linearGradient id="paint4_linear" x1="217" y1="155" x2="217" y2="235" gradientUnits="userSpaceOnUse">
<stop offset="0.506411" stop-color="#41D2D9"/>
<stop offset="0.506511" stop-color="#12C7D0"/>
</linearGradient>
<linearGradient id="paint5_linear" x1="247" y1="167" x2="247" y2="235" gradientUnits="userSpaceOnUse">
<stop offset="0.506411" stop-color="#41D2D9"/>
<stop offset="0.506511" stop-color="#12C7D0"/>
</linearGradient>
<linearGradient id="paint6_linear" x1="277" y1="68" x2="277" y2="235" gradientUnits="userSpaceOnUse">
<stop offset="0.579229" stop-color="#41D2D9"/>
<stop offset="0.579329" stop-color="#12C7D0"/>
</linearGradient>
<linearGradient id="paint7_linear" x1="307" y1="112" x2="307" y2="235" gradientUnits="userSpaceOnUse">
<stop offset="0.506411" stop-color="#41D2D9"/>
<stop offset="0.506511" stop-color="#12C7D0"/>
</linearGradient>
</defs>
</svg>
