<svg width="400" height="280" viewBox="0 0 400 280" fill="none" xmlns="http://www.w3.org/2000/svg">
<g clip-path="url(#clip0)">
<g style="mix-blend-mode:multiply">
<path d="M352.76 243.665C381.842 198.008 379.079 152.302 358.276 136.157C345.81 126.471 324.929 126.22 309.196 132.467C276.237 145.532 273.406 184.099 254.833 183.606C236.831 183.131 231.907 146.656 213.149 146.695C199.355 146.695 187.994 166.462 184.126 179.915C175.043 211.461 194.149 242.744 198.279 242.444C248.096 238.803 302.75 237.505 353.109 243.151" fill="#EBF3FE"/>
</g>
<g style="mix-blend-mode:multiply">
<path d="M208.98 132.999C213.071 143.973 223.434 146.879 226.225 153.658C235.687 164.254 241.862 183.276 254.842 183.615C273.406 184.109 276.265 145.542 309.195 132.476C324.928 126.229 345.819 126.481 358.266 136.166C365.604 141.861 370.742 151.247 372.952 162.995C369.84 146.53 368.881 126.191 362.027 104.563C349.512 64.9983 323.959 21.4528 309.234 24.9105C295.178 28.2035 304.649 71.2066 274.927 92.3982C270.914 95.3039 257.478 104.825 243.791 101.357C233.922 98.8584 231.761 91.5847 225.372 92.3982C214.476 93.7639 202.989 116.854 209.009 132.999" fill="#EBF3FE"/>
</g>
<g style="mix-blend-mode:multiply">
<path d="M169.875 249.544C169.875 255.21 215.863 259.8 272.63 259.8C329.397 259.8 375.385 255.21 375.385 249.544C375.385 243.878 329.397 239.277 272.63 239.277C215.863 239.277 169.875 243.868 169.875 249.544Z" fill="#393E46"/>
</g>
<g style="mix-blend-mode:multiply">
<path d="M123.714 74.4028C124.85 74.0924 126.012 73.8817 127.185 73.7733C150.847 73.7733 174.51 73.7733 198.173 73.7733C198.173 91.6718 198.173 109.609 198.173 127.469H126.991C126.186 127.469 125.275 127.663 124.567 127.169C120.598 124.692 116.128 123.124 111.48 122.578C111.48 106.674 111.48 90.7711 111.48 74.8677C115.533 74.7708 119.662 75.2067 123.714 74.4028Z" fill="#12C7D0"/>
</g>
<path d="M187.684 100.321H188.547V97.8505H187.684V100.321Z" fill="#21252C"/>
<path d="M186.831 95.178H187.693V92.572H186.831V95.178Z" fill="#21252C"/>
<path d="M186.84 96.9213H187.703V94.3153H186.84V96.9213Z" fill="#21252C"/>
<path d="M188.547 93.4348V92.5726H184.253V93.4348H188.547Z" fill="#21252C"/>
<path d="M183.389 93.4348V92.5726H179.094V93.4348H183.389Z" fill="#21252C"/>
<path d="M182.525 94.2871V93.4249H179.927V94.2871H182.525Z" fill="#21252C"/>
<path d="M181.664 95.1491V94.2869H179.939V95.1491H181.664Z" fill="#21252C"/>
<path d="M185.123 100.302V94.2869H184.27V100.302H185.123Z" fill="#21252C"/>
<path d="M174.801 107.188V101.173H173.948V107.188H174.801Z" fill="#21252C"/>
<path d="M185.115 95.1588V94.2869H182.508V95.1588H185.115Z" fill="#21252C"/>
<path d="M186.84 100.302V99.4977H184.261V100.302H186.84Z" fill="#21252C"/>
<path d="M183.398 100.302V99.4976H180.82V100.302H183.398Z" fill="#065F5D"/>
<path d="M177.359 100.301V102.897H179.114V100.301H177.359Z" fill="#21252C"/>
<path d="M178.252 102.898V99.4977H177.36V102.898H178.252Z" fill="#21252C"/>
<path d="M178.252 102.045V101.173H175.664V102.045H178.252Z" fill="#21252C"/>
<path d="M185.105 98.5874V97.7833H179.095V98.5874H185.105Z" fill="#21252C"/>
<path d="M177.379 98.5874V97.7543H173.075V98.5874H177.379Z" fill="#21252C"/>
<path d="M172.211 98.5777V97.7446H169.632V98.5777H172.211Z" fill="#21252C"/>
<path d="M172.211 98.5877V96.7954H171.348V98.5877H172.211Z" fill="#21252C"/>
<path d="M170.477 99.4305V96.7954H169.614V99.4305H170.477Z" fill="#21252C"/>
<path d="M185.947 99.4292V102.035H186.781V99.4292H185.947Z" fill="#21252C"/>
<path d="M185.947 101.163V102.035H188.506V101.163H185.947Z" fill="#21252C"/>
<path d="M185.957 103.749V104.621H188.516V103.749H185.957Z" fill="#21252C"/>
<path d="M167.908 99.4303V97.7252H167.045V99.4303H167.908Z" fill="#21252C"/>
<path d="M188.527 107.207V102.897H187.665V107.207H188.527Z" fill="#21252C"/>
<path d="M187.664 107.207V106.336H183.36V107.207H187.664Z" fill="#21252C"/>
<path d="M184.213 105.493V102.888H183.35V105.493H184.213Z" fill="#21252C"/>
<path d="M183.35 105.502V106.336H185.938V105.502H183.35Z" fill="#21252C"/>
<path d="M178.213 105.502V106.336H179.929V105.502H178.213Z" fill="#065F5D"/>
<path d="M174.791 105.502V106.336H176.507V105.502H174.791Z" fill="#21252C"/>
<path d="M179.094 105.502V107.188H179.927V105.502H179.094Z" fill="#065F5D"/>
<path d="M179.074 105.503V104.65H176.496V105.503H179.074Z" fill="#21252C"/>
<path d="M168.77 98.5975V96.0109H167.907V98.5975H168.77Z" fill="#21252C"/>
<path d="M171.35 98.5773V99.4298H173.075V98.5773H171.35Z" fill="#21252C"/>
<path d="M183.389 96.8053V96.0012H179.947V96.8053H183.389Z" fill="#21252C"/>
<path d="M173.938 96.8053V96.0012H172.202V96.8053H173.938Z" fill="#21252C"/>
<path d="M168.76 96.8053V96.0012H167.025V96.8053H168.76Z" fill="#21252C"/>
<path d="M169.623 97.5995V96.7954H167.907V97.5995H169.623Z" fill="#21252C"/>
<path d="M179.938 98.578V96.8051H179.084V98.578H179.938Z" fill="#21252C"/>
<path d="M178.213 94.3153V96.8148H179.095V94.3153H178.213Z" fill="#21252C"/>
<path d="M174.791 94.3056V96.8051H175.673V94.3056H174.791Z" fill="#21252C"/>
<path d="M172.191 95.1485V96.8148H173.074V95.1485H172.191Z" fill="#21252C"/>
<path d="M170.477 95.1388V96.8051H171.359V95.1388H170.477Z" fill="#21252C"/>
<path d="M170.477 95.1491V94.3063H169.633V95.1491H170.477Z" fill="#21252C"/>
<path d="M173.918 93.4444V92.6016H173.075V93.4444H173.918Z" fill="#21252C"/>
<path d="M176.516 93.4444V92.6016H175.672V93.4444H176.516Z" fill="#21252C"/>
<path d="M177.379 92.6019V91.7397H176.516V92.6019H177.379Z" fill="#21252C"/>
<path d="M176.516 91.7304V90.006H175.672V91.7304H176.516Z" fill="#21252C"/>
<path d="M173.928 90.8675V92.6016H174.81V90.8675H173.928Z" fill="#21252C"/>
<path d="M177.369 90.8682V89.9962H174.8V90.8682H177.369Z" fill="#21252C"/>
<path d="M177.369 90.8673V93.4539H178.213V90.8673H177.369Z" fill="#21252C"/>
<path d="M173.928 89.1438V89.9963H174.8V89.1438H173.928Z" fill="#21252C"/>
<path d="M176.516 89.1341V89.9866H178.231V89.1341H176.516Z" fill="#21252C"/>
<path d="M179.094 89.1349V86.558H178.241V89.1349H179.094Z" fill="#21252C"/>
<path d="M181.674 91.7207V89.9963H180.821V91.7207H181.674Z" fill="#21252C"/>
<path d="M179.957 91.7306V89.144H179.085V91.7306H179.957Z" fill="#21252C"/>
<path d="M180.811 87.4301V85.725H179.957V87.4301H180.811Z" fill="#21252C"/>
<path d="M179.094 87.4299V86.558H176.554V87.4299H179.094Z" fill="#21252C"/>
<path d="M175.672 87.4395V86.5676H173.937V87.4395H175.672Z" fill="#21252C"/>
<path d="M175.662 87.4398V85.725H174.809V87.4398H175.662Z" fill="#21252C"/>
<path d="M179.947 87.4294V88.282H180.81V87.4294H179.947Z" fill="#21252C"/>
<path d="M179.967 86.5771V87.4296H181.692V86.5771H179.967Z" fill="#21252C"/>
<path d="M179.957 88.2914V89.144H181.683V88.2914H179.957Z" fill="#21252C"/>
<path d="M174.811 88.2914V89.144H175.683V88.2914H174.811Z" fill="#21252C"/>
<path d="M175.682 87.4391V88.2917H176.554V87.4391H175.682Z" fill="#21252C"/>
<path d="M177.389 85.7151V86.5676H178.261V85.7151H177.389Z" fill="#21252C"/>
<path d="M171.35 92.5913V95.1586H172.232V92.5913H171.35Z" fill="#21252C"/>
<path d="M167.045 92.5913V95.1586H167.927V92.5913H167.045Z" fill="#21252C"/>
<path d="M168.779 96.8832V94.3063H167.917V96.8832H168.779Z" fill="#21252C"/>
<path d="M178.213 97.7545V96.8148H175.654V97.7545H178.213Z" fill="#21252C"/>
<path d="M174.781 97.7448V96.8051H173.928V97.7448H174.781Z" fill="#21252C"/>
<path d="M177.389 94.3061V95.1392H179.095V94.3061H177.389Z" fill="#21252C"/>
<path d="M177.379 98.5868V100.302H178.261V98.5868H177.379Z" fill="#21252C"/>
<path d="M176.555 98.587V99.4202H178.261V98.587H176.555Z" fill="#21252C"/>
<path d="M185.086 100.292V99.4202H179.018V100.292H185.086Z" fill="#21252C"/>
<path d="M185.086 100.291V103.769H185.949V100.291H185.086Z" fill="#21252C"/>
<path d="M180.781 100.291V103.769H181.644V100.291H180.781Z" fill="#21252C"/>
<path d="M184.223 100.301V103.779H185.085V100.301H184.223Z" fill="#21252C"/>
<path d="M179.918 102.887V103.769H185.094V102.887H179.918Z" fill="#21252C"/>
<path d="M176.516 104.641V103.769H173.956V104.641H176.516Z" fill="#21252C"/>
<path d="M173.064 94.3158V95.1489H175.643V94.3158H173.064Z" fill="#21252C"/>
<path d="M181.664 98.5781V96.0012H180.811V98.5781H181.664Z" fill="#21252C"/>
<path d="M179.967 107.188V102.888H179.114V107.188H179.967Z" fill="#21252C"/>
<path d="M179.967 106.345V105.474H177.379V106.345H179.967Z" fill="#21252C"/>
<path d="M178.223 107.198V104.612H177.37V107.198H178.223Z" fill="#21252C"/>
<path d="M185.957 99.4978V98.6937H184.251V99.4978H185.957Z" fill="#21252C"/>
<path d="M185.123 96.0014V95.1392H183.388V96.0014H185.123Z" fill="#21252C"/>
<path d="M180.811 96.0111V95.1489H178.222V96.0111H180.811Z" fill="#21252C"/>
<path d="M176.525 96.0014V95.1392H173.937V96.0014H176.525Z" fill="#21252C"/>
<path d="M188.547 95.1878V94.3256H185.978V95.1878H188.547Z" fill="#21252C"/>
<path d="M167.888 85.7153H167.025V91.7203H167.888V85.7153Z" fill="#21252C"/>
<path d="M173.046 85.7153H172.184V91.7203H173.046V85.7153Z" fill="#21252C"/>
<path d="M173.035 86.5872V85.725H167.025V86.5872H173.035Z" fill="#21252C"/>
<path d="M173.045 91.7398V90.8776H167.035V91.7398H173.045Z" fill="#21252C"/>
<path d="M171.321 87.4103H168.732V89.9969H171.321V87.4103Z" fill="#21252C"/>
<path d="M167.888 101.193H167.025V107.198H167.888V101.193Z" fill="#21252C"/>
<path d="M173.046 101.193H172.184V107.198H173.046V101.193Z" fill="#21252C"/>
<path d="M173.035 102.055V101.193H167.025V102.055H173.035Z" fill="#21252C"/>
<path d="M173.035 107.207V106.345H167.025V107.207H173.035Z" fill="#21252C"/>
<path d="M171.321 102.878H168.732V105.464H171.321V102.878Z" fill="#21252C"/>
<path d="M183.351 85.7153H182.488V91.7203H183.351V85.7153Z" fill="#21252C"/>
<path d="M188.507 85.7153H187.645V91.7203H188.507V85.7153Z" fill="#21252C"/>
<path d="M188.498 86.5775V85.7153H182.488V86.5775H188.498Z" fill="#21252C"/>
<path d="M188.508 91.7302V90.868H182.498V91.7302H188.508Z" fill="#21252C"/>
<path d="M186.782 87.4103H184.193V89.9969H186.782V87.4103Z" fill="#21252C"/>
<path d="M174.791 102.897V102.055H173.948V102.897H174.791Z" fill="#21252C"/>
<path d="M183.34 102.035V101.193H182.496V102.035H183.34Z" fill="#21252C"/>
<path d="M185.938 105.503V104.66H185.094V105.503H185.938Z" fill="#21252C"/>
<path d="M78.5205 114.917C76.2374 112.312 73.4976 110.146 70.4358 108.524C70.5505 107.227 71.1049 106.007 72.0073 105.067C72.9097 104.126 74.1061 103.521 75.399 103.352C78.7994 102.838 82.1132 101.86 85.248 100.447C86.3919 99.8947 87.6327 100.582 88.8347 100.447C88.8347 99.6332 87.8072 99.8657 87.2546 99.6623C88.1327 99.3752 88.9801 99.0021 89.7848 98.5485C90.1919 98.471 89.7072 97.9092 89.4842 98.0932C85.2286 99.7494 81.0506 101.745 76.5235 102.568C74.9455 102.962 73.2898 102.919 71.7347 102.442C72.0804 101.497 72.3462 100.525 72.5296 99.5364C72.6169 98.4129 73.722 97.8511 74.323 97.0085C76.6011 94.1997 77.0858 90.4224 77.2312 86.926C78.8307 86.3158 80.4592 85.7541 82.0781 85.0761C82.5434 84.9114 83.0475 84.5821 83.5613 84.8824C87.0497 86.4408 90.3831 88.3249 93.5169 90.5096C94.6511 91.2651 95.9307 92.1464 96.1633 93.5895C96.6286 96.1271 95.0679 98.3644 94.1276 100.582C92.5148 104.836 90.4271 108.894 87.9041 112.679C85.5672 115.943 82.8681 118.933 79.8582 121.59C83.8099 122.178 87.7965 122.502 91.7914 122.559C96.9776 122.559 102.174 122.559 107.36 122.839C109.749 122.938 112.128 123.216 114.475 123.672C116.907 124.223 119.266 125.059 121.503 126.161C124.211 127.426 126.685 129.139 128.822 131.227C125.972 130.946 123.132 130.578 120.272 130.52C118.587 130.428 116.91 130.803 115.425 131.605C114.989 131.818 114.921 132.321 114.824 132.738C114.337 134.832 114.19 136.99 114.388 139.13C114.382 139.482 114.458 139.83 114.61 140.147C114.761 140.465 114.984 140.743 115.26 140.961C116.772 141.929 118.634 141.929 120.34 142.278C116.142 142.385 111.974 141.929 107.738 141.842C101.408 141.619 95.0776 141.532 88.7475 141.745C84.5016 141.978 80.12 142.046 76.1455 143.605C69.0786 146.239 63.0393 151.034 55.924 153.561C53.4712 154.333 50.9672 154.931 48.4307 155.353C39.4347 157.242 30.3904 159.082 21.6465 161.959C18.2398 163.03 14.9601 164.468 11.8654 166.249C8.06535 168.429 0.484742 170.772 -3.16016 173.203V128.031C-1.39587 127.062 4.17811 125.9 5.72913 124.592C9.61036 121.147 13.1787 117.364 16.3924 113.29C25.6888 102.374 32.4455 89.6766 40.0745 77.628C41.0432 75.9842 42.336 74.5541 43.8745 73.4246C45.7571 72.0517 48.0991 71.4615 50.4082 71.7781C51.7266 71.9524 52.7832 72.8725 54.0628 73.1631C55.8267 73.4767 57.6449 73.2045 59.2393 72.3882C61.9439 71.1776 64.7067 70.0831 67.4501 68.9596C73.9643 66.3736 80.4786 63.7586 87.0899 61.4244C88.8948 60.8829 90.7876 60.6954 92.6638 60.8723C95.8434 60.9692 99.023 61.1919 102.183 61.4631C108.164 62.0539 114.194 62.2476 120.107 63.4002C121.076 63.719 122.022 64.1041 122.938 64.5528C124.913 65.3283 126.945 65.95 129.016 66.4123C130.489 66.732 131.817 65.8603 133.175 65.4438C133.379 66.1369 133.405 66.8702 133.251 67.5761C133.097 68.282 132.767 68.9377 132.292 69.4826C130.436 71.4364 128.063 72.8236 125.449 73.4827C120.534 74.8096 115.386 74.2478 110.365 74.2866C109.33 74.3913 108.312 74.6189 107.331 74.9645C105.355 75.4332 103.332 75.6768 101.301 75.691C99.023 75.7781 96.6965 75.5554 94.5154 76.1849C93.0314 76.731 91.6538 77.5307 90.4439 78.5481C88.5052 79.9428 86.5664 81.386 84.5791 82.8C83.7687 83.4723 82.8801 84.0446 81.9327 84.5047C80.1781 85.202 78.4138 85.88 76.6205 86.4417C75.8413 86.648 75.0821 86.9235 74.3521 87.265C74.3521 87.3812 74.4878 87.6137 74.5266 87.7299C75.2593 87.5643 75.9813 87.354 76.6883 87.1003C76.4944 90.0737 76.1261 93.2118 74.5072 95.8172C72.6563 98.1644 70.4484 100.207 67.9638 101.871C67.2853 100.302 66.6261 98.7228 65.9475 97.1538C65.1817 95.3813 65.4822 93.3958 65.1041 91.5459L64.6485 91.6137C64.5545 93.3832 64.731 95.1566 65.172 96.8729C66.6648 100.553 68.3419 104.176 69.5924 107.953C69.7766 108.457 69.8929 109.076 70.4455 109.299C72.4444 110.346 74.2985 111.649 75.9613 113.173L78.5205 114.917ZM45.9103 76.3689C43.3663 77.6497 41.2136 79.5898 39.6771 81.9865C38.9899 82.8895 38.4017 83.8636 37.9225 84.8921C39.3244 83.0168 40.8463 81.2342 42.4786 79.5554C45.096 76.9597 48.7506 75.9428 51.9495 74.2866C49.8083 74.6823 47.7416 75.4076 45.823 76.4367L45.9103 76.3689ZM74.0904 116.476C74.5209 117.637 75.2192 118.681 76.1287 119.522C77.0381 120.364 78.1332 120.979 79.3251 121.319C78.3557 120.35 77.1924 119.653 76.2424 118.704C75.4766 118.026 74.9046 117.125 74.0904 116.476Z" fill="#FFBDAD"/>
<g style="mix-blend-mode:multiply">
<path d="M45.8224 76.4367C47.7415 75.411 49.8083 74.6889 51.9489 74.2963C48.7499 75.9525 45.0953 76.9694 42.478 79.5651C40.846 81.2408 39.3241 83.0202 37.9219 84.8921C38.4011 83.8637 38.9893 82.8895 39.6765 81.9865C41.1982 79.6264 43.3189 77.7115 45.8224 76.4367Z" fill="#C08E84"/>
</g>
<g style="mix-blend-mode:multiply">
<path d="M74.0898 116.476C74.9041 117.125 75.4761 118.026 76.2419 118.733C77.2113 119.701 78.3648 120.389 79.3245 121.348C78.1296 121.005 77.0325 120.385 76.1229 119.539C75.2132 118.692 74.5166 117.643 74.0898 116.476Z" fill="#C08E84"/>
</g>
<path d="M118.469 62.6157C120.442 62.6322 122.413 62.755 124.372 62.9838C125.94 63.0685 127.49 63.3517 128.987 63.8267C128.023 64.3359 126.987 64.6922 125.914 64.8826C125.063 64.7848 124.222 64.6097 123.403 64.3595C121.716 63.9063 120.066 63.3233 118.469 62.6157Z" fill="#FAC6BA"/>
<path d="M68.1484 102.471C69.4571 101.503 70.727 100.534 71.9388 99.5073C71.6001 101.61 70.6725 103.575 69.2632 105.173C68.8852 104.263 68.5362 103.362 68.1484 102.471Z" fill="#FAC6BA"/>
<path d="M71.5119 102.984C71.9966 103.159 72.4813 103.304 72.9951 103.449C71.622 104.33 70.5764 105.636 70.0191 107.168C69.8446 106.684 69.6022 106.2 69.4277 105.764C70.3118 104.996 71.0222 104.048 71.5119 102.984Z" fill="#FAC6BA"/>
<path d="M117.771 131.382C119.097 131.14 120.451 131.081 121.794 131.208C124.246 131.372 126.641 131.624 129.142 131.905C129.869 131.905 130.286 132.631 130.78 133.077C132.04 134.346 133.107 136.089 132.719 137.92C132.577 139.022 132.048 140.038 131.226 140.787C130.404 141.535 129.342 141.968 128.231 142.007C125.199 141.997 122.17 141.823 119.157 141.484C117.946 141.368 116.765 141.04 115.667 140.515C114.95 140.147 114.998 139.227 114.901 138.578C114.78 136.429 115.023 134.274 115.619 132.205C116.27 131.783 117.004 131.502 117.771 131.382Z" fill="#FAC6BA"/>
<path d="M190.349 123.721H146.378C146.062 123.721 145.758 123.596 145.535 123.372C145.311 123.149 145.186 122.846 145.186 122.53C145.188 122.215 145.315 121.915 145.538 121.693C145.762 121.472 146.063 121.348 146.378 121.348H190.388C190.702 121.348 191.003 121.472 191.224 121.694C191.446 121.916 191.571 122.216 191.571 122.53C191.571 122.689 191.539 122.846 191.477 122.993C191.416 123.139 191.325 123.272 191.211 123.383C191.097 123.494 190.963 123.581 190.815 123.639C190.667 123.697 190.508 123.725 190.349 123.721Z" fill="#00ADB5"/>
<path d="M122.677 120.099H118.179C117.864 120.096 117.563 119.97 117.342 119.747C117.12 119.523 116.996 119.222 116.996 118.907C116.996 118.594 117.121 118.293 117.342 118.072C117.564 117.85 117.865 117.726 118.179 117.726H122.677C122.991 117.726 123.293 117.85 123.516 118.071C123.74 118.292 123.866 118.593 123.869 118.907C123.869 119.223 123.743 119.527 123.52 119.75C123.296 119.973 122.993 120.099 122.677 120.099Z" fill="#00ADB5"/>
<path d="M116.095 88.7662H135.017C135.331 88.7662 135.632 88.8908 135.853 89.1124C136.075 89.3341 136.2 89.6347 136.2 89.9481C136.2 90.2625 136.075 90.5641 135.854 90.7873C135.632 91.0105 135.332 91.1372 135.017 91.1397H116.095C115.779 91.1372 115.477 91.0108 115.254 90.7879C115.031 90.565 114.905 90.2634 114.902 89.9481C114.905 89.6338 115.032 89.3332 115.255 89.1118C115.478 88.8904 115.78 88.7662 116.095 88.7662Z" fill="#00ADB5"/>
<path d="M116.095 93.144H135.017C135.331 93.144 135.632 93.2685 135.854 93.4902C136.075 93.7118 136.2 94.0125 136.2 94.3259C136.204 94.484 136.176 94.6413 136.119 94.7886C136.061 94.9359 135.975 95.0703 135.865 95.1839C135.754 95.2975 135.623 95.3881 135.477 95.4504C135.332 95.5126 135.176 95.5453 135.017 95.5466H116.095C115.779 95.544 115.478 95.4177 115.255 95.1948C115.031 94.9718 114.905 94.6702 114.903 94.355C114.9 94.1969 114.929 94.0398 114.988 93.893C115.046 93.7462 115.134 93.6126 115.245 93.4998C115.356 93.3871 115.488 93.2976 115.634 93.2365C115.78 93.1754 115.937 93.144 116.095 93.144Z" fill="#00ADB5"/>
<path d="M116.095 97.4831H135.017C135.332 97.4856 135.632 97.6123 135.854 97.8355C136.075 98.0587 136.2 98.3603 136.2 98.6747C136.2 98.9881 136.075 99.2887 135.853 99.5104C135.632 99.732 135.331 99.8566 135.017 99.8566H116.095C115.78 99.8566 115.478 99.7324 115.255 99.511C115.032 99.2896 114.905 98.989 114.902 98.6747C114.905 98.3594 115.031 98.0578 115.254 97.8349C115.477 97.6119 115.779 97.4856 116.095 97.4831Z" fill="#00ADB5"/>
<path d="M188.885 120.099H175.314C174.999 120.096 174.698 119.97 174.477 119.747C174.255 119.523 174.131 119.222 174.131 118.907C174.131 118.594 174.255 118.293 174.477 118.072C174.699 117.85 175 117.726 175.314 117.726H188.885C189.199 117.726 189.499 117.85 189.721 118.072C189.943 118.293 190.068 118.594 190.068 118.907C190.068 119.222 189.943 119.523 189.722 119.747C189.5 119.97 189.2 120.096 188.885 120.099Z" fill="#00ADB5"/>
<path d="M178.948 81.328C178.948 81.4821 178.887 81.63 178.778 81.739C178.669 81.848 178.521 81.9093 178.367 81.9093C178.249 81.9112 178.133 81.8779 178.034 81.8137C177.936 81.7495 177.858 81.6573 177.812 81.549C177.767 81.4406 177.754 81.321 177.777 81.2054C177.799 81.0899 177.856 80.9837 177.939 80.9005C178.022 80.8173 178.128 80.7608 178.244 80.7383C178.36 80.7158 178.479 80.7283 178.588 80.7743C178.696 80.8202 178.788 80.8974 178.853 80.9961C178.917 81.0947 178.95 81.2103 178.948 81.328Z" fill="#065F5D"/>
<path d="M180.499 81.7108C180.499 82.7595 179.649 83.6096 178.599 83.6096C177.55 83.6096 176.699 82.7595 176.699 81.7108C176.699 80.6622 177.55 79.812 178.599 79.812C179.649 79.812 180.499 80.6622 180.499 81.7108Z" fill="#03949A"/>
<path d="M295.586 180.497H295.46V180.38V180.497H295.334H295.46V180.622V180.497H295.586Z" fill="white"/>
<path fill-rule="evenodd" clip-rule="evenodd" d="M185.998 81.6184C185.998 81.4218 186.158 81.2625 186.354 81.2625H193.13C193.327 81.2625 193.487 81.4218 193.487 81.6184V88.2916C193.487 88.4882 193.327 88.6476 193.13 88.6476C192.934 88.6476 192.774 88.4882 192.774 88.2916V81.9744H186.354C186.158 81.9744 185.998 81.815 185.998 81.6184Z" fill="white"/>
<path fill-rule="evenodd" clip-rule="evenodd" d="M161.764 81.6184C161.764 81.4218 161.923 81.2625 162.12 81.2625H168.896C169.093 81.2625 169.252 81.4218 169.252 81.6184C169.252 81.815 169.093 81.9744 168.896 81.9744H162.476V88.2916C162.476 88.4882 162.317 88.6476 162.12 88.6476C161.923 88.6476 161.764 88.4882 161.764 88.2916V81.6184Z" fill="white"/>
<path fill-rule="evenodd" clip-rule="evenodd" d="M162.12 104.653C162.317 104.653 162.476 104.812 162.476 105.009V111.316H168.896C169.093 111.316 169.252 111.476 169.252 111.672C169.252 111.869 169.093 112.028 168.896 112.028H162.12C161.923 112.028 161.764 111.869 161.764 111.672V105.009C161.764 104.812 161.923 104.653 162.12 104.653Z" fill="white"/>
<path fill-rule="evenodd" clip-rule="evenodd" d="M193.13 104.653C193.327 104.653 193.487 104.812 193.487 105.009V111.672C193.487 111.869 193.327 112.028 193.13 112.028H186.354C186.158 112.028 185.998 111.869 185.998 111.672C185.998 111.476 186.158 111.316 186.354 111.316H192.774V105.009C192.774 104.812 192.934 104.653 193.13 104.653Z" fill="white"/>
<path d="M297.294 109.222H249.469C242.106 109.222 239.4 111.929 239.4 119.299V237.376C239.4 244.746 242.106 247.453 249.469 247.453H297.294C304.657 247.453 307.363 244.746 307.363 237.376V119.299C307.363 111.929 304.657 109.222 297.294 109.222Z" fill="#21252C"/>
<path d="M299.379 112.717H283.37C282.083 112.715 280.817 113.041 279.692 113.666C278.566 114.29 277.619 115.192 276.94 116.286C276.566 116.836 276.063 117.287 275.474 117.599C274.886 117.91 274.231 118.073 273.566 118.073C272.9 118.073 272.245 117.91 271.657 117.599C271.069 117.287 270.566 116.836 270.192 116.286C269.515 115.192 268.569 114.289 267.445 113.665C266.321 113.04 265.056 112.714 263.77 112.717H247.752C246.545 112.717 245.387 113.197 244.533 114.052C243.679 114.906 243.199 116.065 243.199 117.274V239.393C243.199 240.602 243.679 241.761 244.533 242.615C245.387 243.47 246.545 243.95 247.752 243.95H299.379C299.978 243.951 300.57 243.834 301.124 243.605C301.677 243.377 302.18 243.041 302.604 242.618C303.027 242.195 303.363 241.692 303.593 241.139C303.822 240.585 303.94 239.992 303.94 239.393V117.274C303.94 116.675 303.822 116.081 303.593 115.528C303.363 114.975 303.027 114.472 302.604 114.049C302.18 113.625 301.677 113.29 301.124 113.061C300.57 112.833 299.978 112.716 299.379 112.717Z" fill="white"/>
<path d="M297.486 205.175H297.36V205.059V205.175H297.234H297.36V205.301V205.175H297.486Z" fill="white"/>
<path d="M302.76 198.202C302.76 198.26 289.596 198.308 273.359 198.308C257.121 198.308 243.967 198.308 243.967 198.202C243.967 198.095 257.121 198.085 273.359 198.085C289.596 198.085 302.76 198.134 302.76 198.202Z" fill="#CCE3E6"/>
<path d="M296.518 194.763C297.669 194.763 298.602 193.831 298.602 192.681C298.602 191.531 297.669 190.598 296.518 190.598C295.367 190.598 294.434 191.531 294.434 192.681C294.434 193.831 295.367 194.763 296.518 194.763Z" fill="#B4E1E8"/>
<path d="M295.48 193.349C295.51 193.317 295.542 193.288 295.577 193.262L295.926 193.03C295.934 193.018 295.945 193.008 295.958 193.001C295.971 192.994 295.985 192.991 295.999 192.991C296.013 192.991 296.028 192.994 296.04 193.001C296.053 193.008 296.064 193.018 296.072 193.03L296.285 193.214C296.285 193.214 296.334 193.214 296.382 193.214C296.526 193.119 296.656 193.005 296.77 192.875C296.87 192.748 296.951 192.608 297.012 192.458C297.012 192.41 297.012 192.39 297.012 192.371L296.886 192.264V192.206C296.875 192.189 296.869 192.169 296.869 192.148C296.869 192.128 296.875 192.107 296.886 192.09C296.886 192.09 296.983 191.693 296.993 191.664C297.002 191.635 297.061 191.548 297.099 191.538C297.138 191.528 297.313 191.538 297.39 191.538C297.46 191.586 297.518 191.648 297.563 191.72C297.608 191.791 297.638 191.871 297.652 191.954C297.662 192.019 297.662 192.084 297.652 192.148C297.629 192.293 297.583 192.434 297.516 192.565C297.516 192.565 297.41 192.788 297.351 192.875C297.195 193.146 296.976 193.375 296.712 193.543C296.557 193.656 296.383 193.738 296.198 193.785H296.072C295.989 193.786 295.906 193.768 295.831 193.733C295.755 193.698 295.689 193.646 295.636 193.582C295.557 193.526 295.501 193.444 295.48 193.349Z" fill="white"/>
<g style="mix-blend-mode:multiply" opacity="0.39">
<path d="M250.462 191.489H269.384C269.7 191.492 270.002 191.618 270.225 191.841C270.448 192.064 270.574 192.366 270.577 192.681C270.574 192.995 270.447 193.296 270.224 193.517C270.001 193.739 269.699 193.863 269.384 193.863H250.462C250.148 193.863 249.847 193.738 249.626 193.517C249.404 193.295 249.279 192.994 249.279 192.681C249.279 192.367 249.404 192.065 249.625 191.842C249.847 191.619 250.147 191.492 250.462 191.489Z" fill="#AFC9CB"/>
</g>
<path d="M302.76 209.795C302.76 209.853 289.596 209.901 273.359 209.901C257.121 209.901 243.967 209.901 243.967 209.795C243.967 209.688 257.121 209.679 273.359 209.679C289.596 209.679 302.76 209.727 302.76 209.795Z" fill="#CCE3E6"/>
<path d="M296.42 206.221C297.571 206.221 298.504 205.289 298.504 204.139C298.504 202.989 297.571 202.056 296.42 202.056C295.269 202.056 294.336 202.989 294.336 204.139C294.336 205.289 295.269 206.221 296.42 206.221Z" fill="#B4E1E8"/>
<path d="M297.109 203.993H296.595V203.422C296.595 203.383 296.579 203.346 296.552 203.319C296.525 203.292 296.488 203.276 296.449 203.276C296.411 203.276 296.374 203.292 296.347 203.319C296.319 203.346 296.304 203.383 296.304 203.422V203.955H295.771C295.732 203.955 295.695 203.97 295.668 203.997C295.641 204.024 295.625 204.061 295.625 204.1C295.624 204.119 295.627 204.139 295.633 204.157C295.64 204.176 295.651 204.192 295.665 204.206C295.679 204.22 295.695 204.23 295.713 204.237C295.732 204.244 295.751 204.247 295.771 204.245H296.304V204.788C296.304 204.826 296.319 204.863 296.347 204.891C296.374 204.918 296.411 204.933 296.449 204.933C296.488 204.933 296.525 204.918 296.552 204.891C296.579 204.863 296.595 204.826 296.595 204.788V204.245H297.138C297.156 204.245 297.175 204.242 297.192 204.234C297.209 204.227 297.224 204.216 297.237 204.202C297.25 204.189 297.26 204.172 297.266 204.155C297.272 204.137 297.275 204.119 297.273 204.1C297.264 204.065 297.242 204.034 297.212 204.015C297.181 203.995 297.144 203.987 297.109 203.993Z" fill="white"/>
<g style="mix-blend-mode:multiply" opacity="0.39">
<path d="M250.462 203.286H269.384C269.699 203.286 270.001 203.41 270.224 203.632C270.447 203.853 270.574 204.154 270.577 204.468C270.577 204.784 270.451 205.087 270.228 205.311C270.004 205.534 269.701 205.66 269.384 205.66H250.462C250.147 205.657 249.847 205.53 249.625 205.307C249.404 205.084 249.279 204.782 249.279 204.468C249.279 204.155 249.404 203.854 249.626 203.632C249.847 203.411 250.148 203.286 250.462 203.286Z" fill="#AFC9CB"/>
</g>
<path d="M302.76 219.403C302.76 219.461 289.596 219.519 273.359 219.519C257.121 219.519 243.967 219.461 243.967 219.403C243.967 219.345 257.121 219.287 273.359 219.287C289.596 219.287 302.76 219.345 302.76 219.403Z" fill="#CCE3E6"/>
<path d="M296.528 216.681C297.679 216.681 298.612 215.749 298.612 214.599C298.612 213.449 297.679 212.516 296.528 212.516C295.376 212.516 294.443 213.449 294.443 214.599C294.443 215.749 295.376 216.681 296.528 216.681Z" fill="#B4E1E8"/>
<path d="M296.925 214.626C296.816 214.733 296.67 214.793 296.517 214.793C296.402 214.793 296.289 214.758 296.193 214.694C296.097 214.63 296.023 214.538 295.979 214.432C295.935 214.325 295.924 214.207 295.947 214.094C295.971 213.981 296.027 213.878 296.109 213.797C296.192 213.716 296.296 213.662 296.41 213.64C296.523 213.619 296.64 213.632 296.746 213.677C296.853 213.723 296.943 213.799 297.005 213.896C297.068 213.992 297.101 214.106 297.099 214.221C297.096 214.374 297.034 214.519 296.925 214.626Z" fill="white"/>
<path d="M297.107 214.967H295.935C295.882 214.966 295.83 214.976 295.782 214.996C295.734 215.016 295.69 215.046 295.653 215.083C295.578 215.173 295.537 215.286 295.537 215.403H297.427C297.433 215.304 297.404 215.207 297.345 215.128C297.287 215.048 297.203 214.991 297.107 214.967Z" fill="white"/>
<g style="mix-blend-mode:multiply" opacity="0.39">
<path d="M250.462 213.737H269.384C269.699 213.737 270.001 213.861 270.224 214.082C270.447 214.304 270.574 214.604 270.577 214.919C270.574 215.234 270.448 215.536 270.225 215.758C270.002 215.981 269.7 216.108 269.384 216.11H250.462C250.147 216.108 249.847 215.981 249.625 215.758C249.404 215.535 249.279 215.233 249.279 214.919C249.279 214.605 249.404 214.305 249.626 214.083C249.847 213.861 250.148 213.737 250.462 213.737Z" fill="#AFC9CB"/>
</g>
<path d="M296.547 226.948C297.698 226.948 298.631 226.015 298.631 224.865C298.631 223.715 297.698 222.783 296.547 222.783C295.396 222.783 294.463 223.715 294.463 224.865C294.463 226.015 295.396 226.948 296.547 226.948Z" fill="#B4E1E8"/>
<path d="M296.594 225.766C296.494 225.776 296.394 225.776 296.294 225.766C296.121 225.735 295.958 225.66 295.823 225.548C295.687 225.436 295.582 225.291 295.518 225.127C295.415 224.871 295.416 224.585 295.521 224.329C295.626 224.074 295.827 223.87 296.081 223.761C296.205 223.704 296.341 223.674 296.478 223.674H296.846C297.078 223.69 297.298 223.781 297.472 223.933C297.647 224.085 297.768 224.29 297.816 224.517C297.852 224.692 297.841 224.874 297.785 225.044C297.729 225.213 297.629 225.366 297.496 225.485C297.419 225.561 297.331 225.623 297.234 225.669L296.905 225.999C296.886 226.015 296.862 226.023 296.837 226.023C296.812 226.023 296.788 226.015 296.769 225.999C296.769 225.999 296.701 225.941 296.701 225.873V225.708L296.594 225.766ZM296.798 225.766L296.982 225.573L297.069 225.514C297.138 225.478 297.202 225.436 297.263 225.389C297.354 225.312 297.427 225.217 297.479 225.11C297.531 225.003 297.56 224.887 297.564 224.769C297.574 224.655 297.559 224.541 297.521 224.434C297.482 224.327 297.421 224.23 297.341 224.149C297.197 223.985 296.996 223.884 296.779 223.868H296.43C296.369 223.858 296.307 223.858 296.245 223.868C296.09 223.901 295.947 223.977 295.833 224.089C295.72 224.201 295.641 224.342 295.606 224.497C295.561 224.652 295.562 224.816 295.611 224.97C295.659 225.123 295.752 225.259 295.877 225.359C295.952 225.433 296.042 225.49 296.14 225.527C296.239 225.564 296.344 225.579 296.449 225.573H296.594C296.629 225.575 296.661 225.59 296.684 225.616C296.708 225.641 296.721 225.674 296.72 225.708L296.798 225.766Z" fill="white"/>
<path d="M296.702 224.333C296.694 224.473 296.671 224.613 296.635 224.749V224.875C296.635 224.875 296.635 224.933 296.586 224.933C296.572 224.933 296.559 224.929 296.548 224.92C296.537 224.911 296.53 224.898 296.528 224.885C296.477 224.724 296.445 224.559 296.431 224.391C296.421 224.349 296.421 224.306 296.431 224.265C296.433 224.225 296.451 224.188 296.48 224.161C296.509 224.134 296.547 224.119 296.586 224.119C296.628 224.122 296.668 224.14 296.696 224.171C296.725 224.202 296.741 224.242 296.741 224.284L296.702 224.333Z" fill="white"/>
<path d="M296.411 225.166C296.409 225.147 296.412 225.129 296.418 225.112C296.424 225.095 296.434 225.079 296.447 225.066C296.46 225.054 296.476 225.044 296.493 225.037C296.51 225.031 296.528 225.028 296.546 225.03C296.563 225.028 296.58 225.031 296.596 225.036C296.612 225.042 296.627 225.052 296.639 225.064C296.651 225.076 296.66 225.09 296.666 225.106C296.672 225.122 296.674 225.139 296.672 225.156C296.675 225.174 296.674 225.192 296.669 225.21C296.664 225.228 296.655 225.244 296.643 225.258C296.631 225.272 296.616 225.283 296.599 225.29C296.583 225.298 296.565 225.301 296.546 225.301C296.51 225.301 296.476 225.287 296.45 225.261C296.425 225.236 296.411 225.202 296.411 225.166Z" fill="white"/>
<g style="mix-blend-mode:multiply" opacity="0.39">
<path d="M250.462 223.839H269.384C269.701 223.839 270.004 223.964 270.228 224.188C270.451 224.411 270.577 224.714 270.577 225.03C270.574 225.345 270.447 225.645 270.224 225.867C270.001 226.088 269.699 226.212 269.384 226.212H250.462C250.148 226.212 249.847 226.088 249.626 225.866C249.404 225.644 249.279 225.344 249.279 225.03C249.279 224.716 249.404 224.414 249.625 224.191C249.847 223.968 250.147 223.841 250.462 223.839Z" fill="#AFC9CB"/>
</g>
<path d="M253.65 164.308C253.65 163.784 254.076 163.359 254.6 163.359H292.6C293.125 163.359 293.55 163.784 293.55 164.308C293.55 164.833 293.125 165.258 292.6 165.258H254.6C254.076 165.258 253.65 164.833 253.65 164.308Z" fill="#00ADB5"/>
<path d="M264.1 169.055C264.1 168.531 264.525 168.106 265.05 168.106H282.15C282.674 168.106 283.1 168.531 283.1 169.055C283.1 169.58 282.674 170.005 282.15 170.005H265.05C264.525 170.005 264.1 169.58 264.1 169.055Z" fill="#00ADB5"/>
<path d="M264.1 238.361C264.1 237.837 264.525 237.412 265.05 237.412H282.15C282.674 237.412 283.1 237.837 283.1 238.361C283.1 238.886 282.674 239.311 282.15 239.311H265.05C264.525 239.311 264.1 238.886 264.1 238.361Z" fill="#00ADB5"/>
<path fill-rule="evenodd" clip-rule="evenodd" d="M304.001 187.094L243.201 187.094L243.201 186.904L304.001 186.904L304.001 187.094Z" fill="#C7C8CA"/>
<path fill-rule="evenodd" clip-rule="evenodd" d="M304.001 175.701L243.201 175.701L243.201 175.511L304.001 175.511L304.001 175.701Z" fill="#C7C8CA"/>
<g style="mix-blend-mode:multiply">
<path d="M255.047 181.862C254.974 181.809 254.896 181.763 254.814 181.727C254.737 181.727 254.174 181.407 254.058 181.368C253.942 181.329 253.864 181.3 253.777 181.436C253.69 181.572 253.496 181.785 253.428 181.862C253.36 181.94 253.341 181.93 253.234 181.862C252.917 181.727 252.62 181.547 252.352 181.329C252.115 181.109 251.913 180.854 251.751 180.574C251.703 180.497 251.751 180.458 251.751 180.4L251.964 180.148C251.99 180.108 252.013 180.066 252.032 180.022C252.052 179.986 252.062 179.946 252.062 179.906C252.062 179.865 252.052 179.825 252.032 179.789C252.032 179.789 251.722 179.053 251.693 178.986C251.664 178.918 251.528 178.773 251.441 178.782C251.248 178.776 251.057 178.823 250.888 178.918C250.765 179.035 250.667 179.176 250.602 179.333C250.537 179.49 250.506 179.658 250.51 179.828C250.512 179.956 250.532 180.083 250.568 180.206C250.654 180.486 250.788 180.748 250.966 180.981C250.966 180.981 251.257 181.378 251.392 181.543C251.792 182.016 252.296 182.391 252.866 182.637C253.208 182.798 253.575 182.903 253.952 182.947C254.035 182.954 254.12 182.954 254.204 182.947C254.363 182.916 254.513 182.852 254.645 182.759C254.777 182.665 254.888 182.544 254.969 182.405C255.047 182.235 255.074 182.047 255.047 181.862Z" fill="#03949A"/>
</g>
<g style="mix-blend-mode:multiply">
<path d="M267.795 179.247H265.41C265.27 179.247 265.131 179.275 265.002 179.328C264.873 179.382 264.755 179.46 264.656 179.559C264.557 179.658 264.478 179.775 264.425 179.905C264.371 180.034 264.344 180.173 264.344 180.313V181.388C264.344 181.528 264.371 181.666 264.425 181.796C264.478 181.925 264.557 182.043 264.656 182.141C264.755 182.24 264.873 182.319 265.002 182.372C265.131 182.426 265.27 182.454 265.41 182.454H267.194L267.523 182.899C267.537 182.921 267.557 182.939 267.58 182.952C267.602 182.964 267.628 182.971 267.654 182.971C267.68 182.971 267.706 182.964 267.729 182.952C267.752 182.939 267.771 182.921 267.785 182.899L267.979 182.473C268.226 182.428 268.45 182.297 268.611 182.104C268.772 181.911 268.861 181.668 268.861 181.417V180.293C268.856 180.014 268.741 179.748 268.542 179.552C268.343 179.357 268.074 179.247 267.795 179.247ZM265.41 181.184C265.35 181.186 265.291 181.17 265.241 181.139C265.19 181.107 265.15 181.061 265.126 181.006C265.101 180.951 265.094 180.891 265.105 180.832C265.115 180.773 265.143 180.718 265.184 180.675C265.226 180.632 265.28 180.603 265.338 180.591C265.397 180.578 265.458 180.583 265.513 180.606C265.569 180.628 265.616 180.667 265.649 180.716C265.683 180.766 265.701 180.824 265.701 180.884C265.702 180.923 265.696 180.962 265.682 180.998C265.668 181.035 265.646 181.068 265.619 181.096C265.592 181.124 265.56 181.146 265.524 181.161C265.488 181.177 265.449 181.185 265.41 181.184ZM266.612 181.184C266.569 181.192 266.524 181.191 266.482 181.179C266.439 181.168 266.4 181.148 266.366 181.12C266.332 181.091 266.305 181.056 266.286 181.016C266.268 180.976 266.258 180.933 266.258 180.889C266.258 180.845 266.268 180.802 266.286 180.762C266.305 180.722 266.332 180.687 266.366 180.658C266.4 180.63 266.439 180.61 266.482 180.599C266.524 180.587 266.569 180.586 266.612 180.594C266.681 180.606 266.744 180.643 266.789 180.697C266.834 180.751 266.859 180.819 266.859 180.889C266.859 180.959 266.834 181.027 266.789 181.081C266.744 181.135 266.681 181.172 266.612 181.184ZM267.804 181.184C267.745 181.186 267.686 181.17 267.635 181.139C267.584 181.107 267.544 181.061 267.52 181.006C267.496 180.951 267.488 180.891 267.499 180.832C267.509 180.773 267.537 180.718 267.579 180.675C267.62 180.632 267.674 180.603 267.732 180.591C267.791 180.578 267.852 180.583 267.907 180.606C267.963 180.628 268.01 180.667 268.044 180.716C268.077 180.766 268.095 180.824 268.095 180.884C268.097 180.923 268.09 180.962 268.076 180.998C268.062 181.035 268.041 181.068 268.014 181.096C267.986 181.124 267.954 181.146 267.918 181.161C267.882 181.177 267.843 181.185 267.804 181.184Z" fill="#03949A"/>
</g>
<g style="mix-blend-mode:multiply">
<path d="M282.703 179.528H279.048C278.966 179.528 278.887 179.561 278.829 179.619C278.771 179.677 278.738 179.756 278.738 179.838V181.96C278.738 182.042 278.771 182.121 278.829 182.179C278.887 182.237 278.966 182.27 279.048 182.27H282.703C282.785 182.27 282.864 182.237 282.922 182.179C282.981 182.121 283.013 182.042 283.013 181.96V179.838C283.013 179.756 282.981 179.677 282.922 179.619C282.864 179.561 282.785 179.528 282.703 179.528ZM282.761 179.887L280.919 180.855H280.832L278.99 179.887C278.982 179.882 278.975 179.876 278.969 179.869C278.963 179.861 278.958 179.853 278.956 179.844C278.953 179.835 278.952 179.826 278.953 179.816C278.954 179.807 278.957 179.798 278.961 179.79C278.966 179.781 278.972 179.774 278.979 179.768C278.986 179.762 278.995 179.758 279.004 179.755C279.013 179.752 279.022 179.751 279.031 179.752C279.041 179.753 279.05 179.756 279.058 179.761L280.881 180.729L282.693 179.761C282.71 179.752 282.73 179.75 282.748 179.755C282.766 179.76 282.781 179.773 282.79 179.79C282.799 179.806 282.801 179.826 282.796 179.844C282.79 179.862 282.778 179.878 282.761 179.887Z" fill="#03949A"/>
</g>
<g style="mix-blend-mode:multiply">
<g style="mix-blend-mode:multiply">
<path d="M296.856 180.981C296.856 180.441 296.641 179.924 296.26 179.543C295.878 179.161 295.36 178.947 294.82 178.947C294.28 178.947 293.763 179.161 293.381 179.543C292.999 179.924 292.785 180.441 292.785 180.981V181.068C292.785 181.426 292.882 181.777 293.066 182.085L292.707 183.15L293.812 182.792C294.122 182.954 294.468 183.035 294.817 183.025C295.167 183.016 295.508 182.917 295.809 182.738C296.109 182.559 296.359 182.307 296.534 182.004C296.708 181.702 296.803 181.359 296.807 181.01L296.856 180.981ZM293.444 181.949C293.26 181.681 293.162 181.364 293.163 181.039C293.163 180.981 293.163 180.932 293.163 180.874C293.207 180.468 293.399 180.093 293.704 179.82C294.008 179.548 294.402 179.397 294.811 179.397C295.219 179.397 295.613 179.548 295.918 179.82C296.222 180.093 296.414 180.468 296.458 180.874V181C296.456 181.435 296.281 181.851 295.972 182.158C295.664 182.465 295.246 182.637 294.811 182.637C294.569 182.64 294.33 182.587 294.113 182.482L293.899 182.366L293.347 182.54L293.521 182.007L293.444 181.949Z" fill="#03949A"/>
</g>
<g style="mix-blend-mode:multiply">
<path d="M295.79 181.475L295.683 181.417L295.354 181.253C295.305 181.253 295.266 181.253 295.218 181.253C295.169 181.253 295.092 181.408 295.063 181.446C295.034 181.485 295.063 181.446 294.976 181.446C294.838 181.38 294.708 181.299 294.588 181.204C294.483 181.107 294.391 180.996 294.316 180.875C294.31 180.87 294.305 180.864 294.302 180.858C294.299 180.851 294.297 180.843 294.297 180.836C294.297 180.828 294.299 180.821 294.302 180.814C294.305 180.808 294.31 180.802 294.316 180.797L294.413 180.681V180.623C294.421 180.608 294.425 180.591 294.425 180.574C294.425 180.558 294.421 180.541 294.413 180.526L294.258 180.158C294.258 180.071 294.181 180.071 294.142 180.071C294.103 180.071 293.948 180.071 293.9 180.129C293.822 180.201 293.767 180.295 293.741 180.398C293.715 180.501 293.72 180.609 293.754 180.71C293.792 180.834 293.855 180.95 293.938 181.049C293.994 181.137 294.056 181.221 294.123 181.301C294.299 181.517 294.525 181.686 294.782 181.795C294.934 181.869 295.098 181.915 295.266 181.931H295.373C295.516 181.898 295.641 181.811 295.722 181.689C295.759 181.623 295.783 181.55 295.79 181.475Z" fill="#03949A"/>
</g>
</g>
<path d="M285.563 128.205H262.201V159.208H285.563V128.205Z" fill="#F0F2F2"/>
<g style="mix-blend-mode:multiply" opacity="0.39">
<g style="mix-blend-mode:multiply" opacity="0.39">
<path d="M284.468 129.3H263.287V158.114H284.468V129.3Z" fill="#B4E1E8"/>
</g>
<g style="mix-blend-mode:multiply" opacity="0.4">
<path d="M284.468 129.3H263.287V158.114H284.468V129.3Z" fill="#B4E1E8"/>
</g>
</g>
<path d="M284.467 151.721V158.152H282.8C282.342 157.72 281.838 157.34 281.297 157.019C281.041 156.861 280.763 156.741 280.473 156.661C278.001 155.992 281.549 149.368 281.549 149.368C282.689 149.919 283.687 150.724 284.467 151.721Z" fill="#065F5D"/>
<path opacity="0.6" d="M284.467 151.721V158.152H282.8C282.342 157.72 281.838 157.34 281.297 157.019C281.041 156.861 280.763 156.741 280.473 156.661C278.001 155.992 281.549 149.368 281.549 149.368C282.689 149.919 283.687 150.724 284.467 151.721Z" fill="#065F5D"/>
<path opacity="0.2" d="M284.469 158.094H282.801C282.344 157.662 281.84 157.282 281.299 156.961L281.793 153.92C282.268 154.311 282.689 154.764 283.044 155.266C283.683 156.117 284.165 157.074 284.469 158.094Z" fill="black"/>
<path d="M279.892 149.077C279.844 149.339 279.795 149.6 279.737 149.862C279.679 150.123 279.601 150.482 279.524 150.83C278.729 154.026 277.42 156.816 275.54 158.152H269.113C267.251 157.184 266.893 155.595 266.951 153.939C266.951 152.806 267.222 151.653 267.31 150.666C267.338 150.327 267.338 149.987 267.31 149.649C267.261 149.126 267.164 148.506 267.048 147.818C266.486 144.651 265.4 140.07 265.943 137.726C266.079 136.948 266.399 136.213 266.876 135.583C267.353 134.953 267.974 134.446 268.686 134.104C268.686 134.104 269.394 134.104 270.48 134.104C271.274 134.104 272.283 134.104 273.388 134.249H273.465C274.664 134.352 275.851 134.559 277.013 134.869L277.275 134.946L277.954 135.169L278.39 135.334C278.575 135.409 278.74 135.525 278.874 135.673C280.551 137.271 280.978 143.479 279.892 149.077Z" fill="#192E35"/>
<path fill-rule="evenodd" clip-rule="evenodd" d="M278.725 135.787C278.547 135.706 278.353 135.701 278.122 135.81C278.003 135.866 277.862 135.815 277.806 135.696C277.75 135.577 277.801 135.436 277.92 135.38C278.266 135.218 278.607 135.211 278.923 135.356C279.227 135.495 279.483 135.763 279.698 136.103C280.129 136.781 280.45 137.828 280.67 139.051C281.109 141.505 281.153 144.773 280.737 147.515C280.718 147.644 280.597 147.733 280.467 147.714C280.337 147.694 280.248 147.573 280.268 147.443C280.676 144.751 280.632 141.535 280.202 139.134C279.986 137.93 279.677 136.956 279.297 136.357C279.107 136.058 278.913 135.873 278.725 135.787Z" fill="#192E35"/>
<path d="M283.246 158.114H266.631C266.563 157.804 266.495 157.494 266.418 157.145C266.012 155.334 265.467 153.556 264.789 151.828C265.47 151.427 266.179 151.077 266.912 150.782L267.348 150.598C267.92 150.375 268.599 150.133 269.345 149.91L269.588 149.842C270.15 149.678 270.761 149.523 271.41 149.387C272.761 149.109 274.132 148.938 275.511 148.874C276.563 148.807 277.618 148.807 278.671 148.874C279.078 148.874 279.504 148.942 279.921 149C280.338 149.058 281.007 149.145 281.569 149.251C281.637 149.358 282.645 150.966 283.062 155.208C283.159 156.128 283.227 157.068 283.246 158.114Z" fill="#065F5D"/>
<path d="M269.443 153.184C269.443 153.184 267.504 148.506 273.476 147.983C279.447 147.46 280.581 151.15 280.581 151.15L277.828 150.181L276.355 156.893C275.429 154.335 273.589 152.21 271.188 150.927L269.443 153.184Z" fill="#00999A"/>
<path opacity="0.6" d="M269.443 153.184C269.443 153.184 267.504 148.506 273.476 147.983C279.447 147.46 280.581 151.15 280.581 151.15L277.828 150.181L276.355 156.893C275.429 154.335 273.589 152.21 271.188 150.927L269.443 153.184Z" fill="#00999A"/>
<path d="M276.132 153.93C274.602 152.353 272.867 150.988 270.975 149.871C272.4 148.67 272.254 146.772 271.944 145.59C271.863 145.212 271.746 144.842 271.595 144.486L275.54 145.455C275.42 146.004 275.339 146.56 275.298 147.121C275.261 147.534 275.277 147.951 275.347 148.36C275.55 149.561 276.229 149.62 276.229 149.62C276.878 150.937 276.132 153.93 276.132 153.93Z" fill="#FAC6BA"/>
<path opacity="0.2" d="M275.318 147.102C275.281 147.516 275.297 147.932 275.367 148.342C274.642 148.139 273.966 147.79 273.381 147.317C272.796 146.844 272.314 146.257 271.964 145.591C271.883 145.212 271.766 144.842 271.615 144.486L275.561 145.455C275.441 145.998 275.36 146.548 275.318 147.102Z" fill="black"/>
<path d="M274.076 134.142C278.37 134.142 278.729 136.215 278.981 139.789C279.282 144.254 278.283 147.421 273.95 146.452C268.056 145.145 268.308 134.142 274.076 134.142Z" fill="#FAC6BA"/>
<path d="M270.334 140.176C270.334 140.176 271.962 137.338 271.72 135.14C271.72 135.14 274.163 132.612 277.459 135.14C278.217 136.432 278.714 137.86 278.922 139.343C278.922 139.343 279.611 133.154 273.649 133.009C267.687 132.864 267.687 141.571 270.741 144.176C270.76 144.147 269.326 141.958 270.334 140.176Z" fill="#192E35"/>
<path d="M270.896 140.913C270.881 140.71 270.826 140.513 270.734 140.332C270.641 140.152 270.513 139.992 270.358 139.862C270.202 139.731 270.022 139.634 269.828 139.575C269.634 139.516 269.43 139.496 269.228 139.517C268.152 139.634 267.629 141.843 270.304 142.375C270.731 142.453 270.944 142.036 270.896 140.913Z" fill="#FAC6BA"/>
<path d="M271.72 135.14C271.72 135.14 275.685 133.377 278.312 135.701C278.312 135.701 279.339 132.641 275.821 131.595C272.302 130.549 268.734 134.074 268.734 134.074L271.72 135.14Z" fill="#192E35"/>
<path d="M271.721 135.14C271.721 135.14 269.404 137.416 269.782 141.919C270.163 145.372 269.833 148.866 268.813 152.186C268.659 152.523 268.574 152.888 268.565 153.259C268.555 153.629 268.621 153.998 268.757 154.343C268.894 154.687 269.099 155.001 269.36 155.265C269.621 155.528 269.933 155.736 270.277 155.876C269.915 155.97 269.538 155.986 269.17 155.922C268.802 155.858 268.452 155.716 268.144 155.506C267.835 155.296 267.575 155.022 267.381 154.704C267.187 154.385 267.064 154.028 267.019 153.658C266.661 151.721 267.523 147.673 267.087 142.791C266.651 137.91 268.318 134.5 271.721 135.14Z" fill="#192E35"/>
<path opacity="0.2" d="M267.397 158.114H266.631C266.563 157.804 266.496 157.494 266.418 157.145L267 156.641C267.166 157.123 267.299 157.615 267.397 158.114Z" fill="black"/>
<path d="M267 158.114H263.287V153.009C263.749 152.578 264.253 152.192 264.79 151.857C265.324 152.082 265.791 152.441 266.146 152.899C266.501 153.357 266.731 153.899 266.816 154.472C266.923 155.2 266.984 155.935 267 156.671C267.01 157.194 267.01 157.687 267 158.114Z" fill="#065F5D"/>
<path opacity="0.6" d="M267 158.114H263.287V153.009C263.749 152.578 264.253 152.192 264.79 151.857C265.324 152.082 265.791 152.441 266.146 152.899C266.501 153.357 266.731 153.899 266.816 154.472C266.923 155.2 266.984 155.935 267 156.671C267.01 157.194 267.01 157.687 267 158.114Z" fill="#065F5D"/>
<path d="M285.281 118.956H261.479C260.181 118.956 258.936 118.44 258.018 117.521C257.099 116.602 256.584 115.356 256.584 114.056V111.606H290.145V114.056C290.145 115.356 289.629 116.602 288.711 117.521C287.792 118.44 286.547 118.956 285.249 118.956H285.281Z" fill="#21252C"/>
<path fill-rule="evenodd" clip-rule="evenodd" d="M178.125 54.1783H275.025V111.142H274.075V55.1277H179.075V80.7614H178.125V54.1783Z" fill="#03949A"/>
<path d="M276.45 112.092C276.45 113.14 275.6 113.99 274.55 113.99C273.501 113.99 272.65 113.14 272.65 112.092C272.65 111.043 273.501 110.193 274.55 110.193C275.6 110.193 276.45 111.043 276.45 112.092Z" fill="#03949A"/>
</g>
<defs>
<clipPath id="clip0">
<rect width="400" height="280" fill="white"/>
</clipPath>
</defs>
</svg>
