<svg width="400" height="280" viewBox="0 0 400 280" fill="none" xmlns="http://www.w3.org/2000/svg">
<path d="M297.6 252.91C335.7 202.01 332.1 151.11 304.8 133.11C288.5 122.31 261.1 122.01 240.5 129.01C197.4 143.61 193.6 186.51 169.3 186.01C145.7 185.51 139.3 144.81 114.7 144.91C96.6 144.91 81.8 166.91 76.7 181.91C64.8 217.01 89.8 251.91 95.2 251.61C160.5 247.51 232.1 246.11 298 252.41" fill="#EBF3FE"/>
<path d="M109.2 129.61C114.6 141.81 128.1 145.01 131.8 152.61C144.2 164.41 152.3 185.61 169.3 186.01C193.6 186.51 197.4 143.61 240.5 129.01C261.1 122.01 288.5 122.31 304.8 133.11C314.4 139.51 321.1 149.91 324 163.01C319.9 144.61 318.7 122.01 309.7 97.9099C293.3 53.9099 259.8 5.40988 240.6 9.20988C222.2 12.9099 234.6 60.8099 195.7 84.4099C190.4 87.6099 172.9 98.2099 154.9 94.4099C142 91.6099 139.1 83.5099 130.7 84.4099C116.4 85.9099 101.4 111.61 109.2 129.61Z" fill="#EBF3FE"/>
<path d="M58 259.41C58 265.71 116.1 270.81 187.8 270.81C259.5 270.81 317.6 265.71 317.6 259.41C317.6 253.11 259.5 248.01 187.8 248.01C116.1 248.01 58 253.11 58 259.41Z" fill="#393E46"/>
<path d="M202.538 189.485L113.077 199.46C105.429 200.313 98.4725 194.746 97.6187 187.089L81.5523 42.998C80.6985 35.341 86.2577 28.3784 93.9059 27.5256L183.367 17.5505C191.016 16.6977 197.972 22.2648 198.826 29.9218L214.892 174.013C215.746 181.67 210.187 188.632 202.538 189.485Z" fill="#12C7D0"/>
<path d="M95.3613 58.5554C95.2389 57.4577 96.0296 56.4685 97.1274 56.3461L186.573 46.3727C187.671 46.2503 188.66 47.041 188.782 48.1388L200.861 156.467C200.984 157.565 200.193 158.554 199.095 158.677L109.65 168.65C108.552 168.773 107.563 167.982 107.44 166.884L95.3613 58.5554Z" fill="white"/>
<path fill-rule="evenodd" clip-rule="evenodd" d="M186.684 47.3666L97.2382 57.34C96.6893 57.4012 96.294 57.8957 96.3552 58.4446L108.434 166.773C108.495 167.322 108.99 167.718 109.539 167.656L198.984 157.683C199.533 157.622 199.929 157.127 199.867 156.578L187.789 48.2496C187.727 47.7007 187.233 47.3054 186.684 47.3666ZM97.1274 56.3461C96.0296 56.4685 95.2389 57.4577 95.3613 58.5554L107.44 166.884C107.563 167.982 108.552 168.773 109.65 168.65L199.095 158.677C200.193 158.554 200.984 157.565 200.861 156.467L188.782 48.1388C188.66 47.041 187.671 46.2503 186.573 46.3727L97.1274 56.3461Z" fill="#21252C"/>
<path d="M133.05 88.3792L132.751 85.7006L130.071 85.9995L130.369 88.6781L133.05 88.3792Z" fill="#21252C"/>
<path d="M141.324 87.4566L141.025 84.778L138.344 85.0769L138.643 87.7555L141.324 87.4566Z" fill="#21252C"/>
<path d="M143.779 84.4827L143.471 81.723L140.721 82.0297L141.028 84.7894L143.779 84.4827Z" fill="#21252C"/>
<path d="M140.718 82.0183L140.104 76.5104L137.423 76.8094L138.037 82.3172L140.718 82.0183Z" fill="#21252C"/>
<path d="M132.146 80.1447L132.765 85.6989L135.585 85.3845L134.966 79.8303L132.146 80.1447Z" fill="#21252C"/>
<path d="M143.147 78.9299L142.837 76.1469L134.644 77.0605L134.954 79.8435L143.147 78.9299Z" fill="#21252C"/>
<path d="M143.146 78.9183L144.067 87.1742L146.771 86.8727L145.85 78.6168L143.146 78.9183Z" fill="#21252C"/>
<path d="M131.542 74.6358L131.845 77.3608L134.631 77.0503L134.327 74.3253L131.542 74.6358Z" fill="#21252C"/>
<path d="M148.011 72.8112L147.093 64.5785L144.377 64.8813L145.295 73.1141L148.011 72.8112Z" fill="#21252C"/>
<path d="M157.207 80.1561L156.592 74.6367L153.876 74.9395L154.492 80.4589L157.207 80.1561Z" fill="#21252C"/>
<path d="M151.729 80.767L150.807 72.4995L148.022 72.81L148.944 81.0776L151.729 80.767Z" fill="#21252C"/>
<path d="M152.917 66.7583L152.31 61.3201L149.595 61.6229L150.201 67.0611L152.917 66.7583Z" fill="#21252C"/>
<path d="M147.392 67.3743L147.081 64.5798L138.98 65.4831L139.292 68.2776L147.392 67.3743Z" fill="#21252C"/>
<path d="M136.52 68.5983L136.209 65.8038L130.661 66.4223L130.973 69.2168L136.52 68.5983Z" fill="#21252C"/>
<path d="M136.498 68.6007L135.888 63.1276L133.149 63.433L133.759 68.9061L136.498 68.6007Z" fill="#21252C"/>
<path d="M150.156 67.0778L150.458 69.7795L153.208 69.4729L152.907 66.7711L150.156 67.0778Z" fill="#21252C"/>
<path d="M149.889 64.3606L150.191 67.0623L155.692 66.4489L155.39 63.7472L149.889 64.3606Z" fill="#21252C"/>
<path d="M150.493 69.7756L150.797 72.5005L156.298 71.8872L155.994 69.1622L150.493 69.7756Z" fill="#21252C"/>
<path d="M134.038 71.6221L134.342 74.3471L137.127 74.0365L136.823 71.3116L134.038 71.6221Z" fill="#21252C"/>
<path d="M136.519 68.5866L136.823 71.3115L139.608 71.001L139.304 68.276L136.519 68.5866Z" fill="#21252C"/>
<path d="M141.35 62.4834L141.654 65.2084L144.439 64.8978L144.135 62.1729L141.35 62.4834Z" fill="#21252C"/>
<path d="M124.519 86.5831L125.432 94.7695L128.241 94.4564L127.328 86.27L124.519 86.5831Z" fill="#21252C"/>
<path d="M139.807 73.726L140.111 76.4509L145.589 75.8401L145.285 73.1152L139.807 73.726Z" fill="#21252C"/>
<path d="M111.027 65.8918L108.288 66.1972L110.427 85.3761L113.165 85.0707L111.027 65.8918Z" fill="#21252C"/>
<path d="M127.483 64.0531L124.744 64.3585L126.882 83.5375L129.621 83.2321L127.483 64.0531Z" fill="#21252C"/>
<path d="M127.788 66.7897L127.483 64.0531L108.287 66.1934L108.593 68.93L127.788 66.7897Z" fill="#21252C"/>
<path d="M129.621 83.232L129.316 80.4954L110.121 82.6358L110.426 85.3723L129.621 83.232Z" fill="#21252C"/>
<path d="M122.607 70.0557L114.332 70.9783L115.254 79.2459L123.529 78.3233L122.607 70.0557Z" fill="#21252C"/>
<path d="M160.395 60.3834L157.656 60.6888L159.795 79.8677L162.534 79.5623L160.395 60.3834Z" fill="#21252C"/>
<path d="M176.852 58.5484L174.113 58.8538L176.252 78.0327L178.991 77.7273L176.852 58.5484Z" fill="#21252C"/>
<path d="M177.158 61.2849L176.853 58.5483L157.657 60.6886L157.963 63.4252L177.158 61.2849Z" fill="#21252C"/>
<path d="M178.991 77.7272L178.686 74.9907L159.491 77.131L159.796 79.8675L178.991 77.7272Z" fill="#21252C"/>
<path d="M171.965 64.5521L163.69 65.4748L164.612 73.7424L172.887 72.8197L171.965 64.5521Z" fill="#21252C"/>
<path d="M179.449 105.429L182.188 105.123L181.31 97.2499L178.571 97.5553L179.449 105.429Z" fill="#21252C"/>
<path d="M174.881 89.3381L177.62 89.0327L176.693 80.7188L173.954 81.0242L174.881 89.3381Z" fill="#21252C"/>
<path d="M175.512 94.891L178.251 94.5856L177.324 86.2716L174.585 86.577L175.512 94.891Z" fill="#21252C"/>
<path d="M179.738 83.1499L179.433 80.4134L165.727 81.9417L166.032 84.6781L179.738 83.1499Z" fill="#21252C"/>
<path d="M163.283 84.9847L162.978 82.2482L149.272 83.7764L149.577 86.5129L163.283 84.9847Z" fill="#21252C"/>
<path d="M160.834 88.0164L160.529 85.2799L152.231 86.2051L152.536 88.9417L160.834 88.0164Z" fill="#21252C"/>
<path d="M158.366 91.074L158.06 88.3375L152.548 88.9521L152.853 91.6886L158.366 91.074Z" fill="#21252C"/>
<path d="M171.24 106.297L169.1 87.1065L166.373 87.4106L168.512 106.601L171.24 106.297Z" fill="#21252C"/>
<path d="M169.409 89.8778L169.1 87.1065L160.79 88.033L161.099 90.8043L169.409 89.8778Z" fill="#21252C"/>
<path d="M176.727 105.685L176.44 103.111L168.212 104.028L168.499 106.603L176.727 105.685Z" fill="#21252C"/>
<path d="M170.592 100.816L170.305 98.2422L151.109 100.383L151.396 102.957L170.592 100.816Z" fill="#21252C"/>
<path d="M145.906 103.557L145.609 100.89L131.868 102.422L132.165 105.089L145.906 103.557Z" fill="#21252C"/>
<path d="M129.413 105.396L129.116 102.729L120.888 103.647L121.185 106.314L129.413 105.396Z" fill="#21252C"/>
<path d="M129.415 105.408L128.777 99.6912L126.015 99.9992L126.653 105.716L129.415 105.408Z" fill="#21252C"/>
<path d="M124.202 108.713L123.265 100.306L120.503 100.614L121.44 109.021L124.202 108.713Z" fill="#21252C"/>
<path d="M173.584 103.206L174.512 111.532L177.17 111.236L176.242 102.91L173.584 103.206Z" fill="#21252C"/>
<path d="M175.123 117.005L175.432 119.776L183.59 118.867L183.281 116.095L175.123 117.005Z" fill="#21252C"/>
<path d="M115.998 109.627L115.393 104.201L112.631 104.509L113.236 109.935L115.998 109.627Z" fill="#21252C"/>
<path d="M184.558 127.117L183.025 113.365L180.263 113.673L181.796 127.425L184.558 127.117Z" fill="#21252C"/>
<path d="M170.212 123.211L169.284 114.886L166.521 115.194L167.45 123.519L170.212 123.211Z" fill="#21252C"/>
<path d="M118.453 106.677L117.533 98.421L114.771 98.7289L115.691 106.985L118.453 106.677Z" fill="#21252C"/>
<path d="M126.665 105.714L126.968 108.428L132.469 107.814L132.166 105.101L126.665 105.714Z" fill="#21252C"/>
<path d="M164.46 95.7712L164.173 93.197L153.194 94.4212L153.481 96.9954L164.46 95.7712Z" fill="#21252C"/>
<path d="M134.309 99.1331L134.022 96.5589L128.486 97.1762L128.773 99.7504L134.309 99.1331Z" fill="#21252C"/>
<path d="M117.771 100.977L117.484 98.4029L111.948 99.0202L112.235 101.594L117.771 100.977Z" fill="#21252C"/>
<path d="M120.825 103.172L120.538 100.598L115.06 101.209L115.347 103.783L120.825 103.172Z" fill="#21252C"/>
<path d="M154.112 102.654L153.479 96.9838L150.764 97.2866L151.396 102.957L154.112 102.654Z" fill="#21252C"/>
<path d="M147.065 89.6104L147.955 97.5881L150.763 97.275L149.874 89.2973L147.065 89.6104Z" fill="#21252C"/>
<path d="M136.121 90.8424L137.01 98.8201L139.819 98.507L138.929 90.5293L136.121 90.8424Z" fill="#21252C"/>
<path d="M128.144 94.4203L128.736 99.7311L131.544 99.4179L130.952 94.1071L128.144 94.4203Z" fill="#21252C"/>
<path d="M122.666 95.0428L123.259 100.354L126.067 100.04L125.475 94.7296L122.666 95.0428Z" fill="#21252C"/>
<path d="M122.666 95.0427L122.368 92.3642L119.687 92.6631L119.986 95.3417L122.666 95.0427Z" fill="#21252C"/>
<path d="M110.802 88.1126L111.715 96.299L114.524 95.9859L113.611 87.7995L110.802 88.1126Z" fill="#21252C"/>
<path d="M117.842 101.192L116.925 92.9711L114.175 93.2778L115.091 101.499L117.842 101.192Z" fill="#21252C"/>
<path d="M148.291 100.603L147.955 97.5881L139.796 98.4978L140.132 101.513L148.291 100.603Z" fill="#21252C"/>
<path d="M137.345 101.823L137.009 98.8086L134.282 99.1127L134.618 102.127L137.345 101.823Z" fill="#21252C"/>
<path d="M144.431 89.9158L144.728 92.5828L150.16 91.9772L149.862 89.3102L144.431 89.9158Z" fill="#21252C"/>
<path d="M143.284 103.861L143.581 106.528L149.012 105.923L148.715 103.256L143.284 103.861Z" fill="#21252C"/>
<path d="M171.155 106.283L170.843 103.489L151.462 105.65L151.774 108.444L171.155 106.283Z" fill="#21252C"/>
<path d="M171.155 106.283L172.392 117.38L175.143 117.073L173.905 105.976L171.155 106.283Z" fill="#21252C"/>
<path d="M157.39 107.818L158.627 118.915L161.378 118.608L160.141 107.511L157.39 107.818Z" fill="#21252C"/>
<path d="M168.392 106.591L169.63 117.688L172.38 117.381L171.143 106.284L168.392 106.591Z" fill="#21252C"/>
<path d="M155.54 116.418L155.853 119.224L172.391 117.38L172.078 114.574L155.54 116.418Z" fill="#21252C"/>
<path d="M130.646 91.4648L130.943 94.1317L139.171 93.2142L138.874 90.5473L130.646 91.4648Z" fill="#21252C"/>
<path d="M159.589 102.043L158.671 93.8105L155.955 94.1134L156.873 102.346L159.589 102.043Z" fill="#21252C"/>
<path d="M173.658 103.445L173.371 100.87L167.94 101.476L168.227 104.05L173.658 103.445Z" fill="#21252C"/>
<path d="M169.697 92.5811L169.392 89.8445L163.845 90.4631L164.15 93.1997L169.697 92.5811Z" fill="#21252C"/>
<path d="M155.945 94.1145L155.64 91.3779L147.365 92.3006L147.671 95.0371L155.945 94.1145Z" fill="#21252C"/>
<path d="M142.261 95.6285L141.956 92.8919L133.681 93.8146L133.986 96.5511L142.261 95.6285Z" fill="#21252C"/>
<path d="M180.361 88.7388L180.056 86.0023L171.863 86.9159L172.168 89.6524L180.361 88.7388Z" fill="#21252C"/>
<path d="M166.202 112.447L165.903 109.768L163.223 110.067L163.521 112.746L166.202 112.447Z" fill="#21252C"/>
<path d="M175.723 122.585L175.424 119.906L172.743 120.205L173.042 122.884L175.723 122.585Z" fill="#21252C"/>
<path d="M140.75 131.932L138.61 112.741L135.883 113.045L138.022 132.236L140.75 131.932Z" fill="#21252C"/>
<path d="M165.749 106.909L165.462 104.335L157.234 105.253L157.521 107.827L165.749 106.909Z" fill="#21252C"/>
<path d="M146.482 109.046L147.405 117.325L153.011 116.7L152.088 108.421L146.482 109.046Z" fill="#21252C"/>
<path d="M150.25 117.02L149.039 106.166L146.196 106.483L147.406 117.337L150.25 117.02Z" fill="#21252C"/>
<path d="M149.934 114.296L149.624 111.513L141.361 112.434L141.671 115.217L149.934 114.296Z" fill="#21252C"/>
<path d="M174.215 108.759L174.524 111.531L182.683 110.621L182.374 107.85L174.215 108.759Z" fill="#21252C"/>
<path d="M181.806 127.424L181.495 124.641L167.754 126.173L168.065 128.956L181.806 127.424Z" fill="#21252C"/>
<path d="M167.46 123.53L167.755 126.173L176.018 125.252L175.723 122.608L167.46 123.53Z" fill="#21252C"/>
<path d="M140.128 126.566L140.423 129.209L145.901 128.599L145.606 125.955L140.128 126.566Z" fill="#21252C"/>
<path d="M153.777 125.044L153.473 122.319L145.257 123.235L145.56 125.96L153.777 125.044Z" fill="#21252C"/>
<path d="M145.907 103.569L146.519 109.054L149.327 108.74L148.716 103.256L145.907 103.569Z" fill="#21252C"/>
<path d="M145.327 123.227L145.015 120.432L136.833 121.345L137.145 124.139L145.327 123.227Z" fill="#21252C"/>
<path d="M157.257 130.126L155.726 116.397L153.011 116.7L154.542 130.429L157.257 130.126Z" fill="#21252C"/>
<path d="M156.941 127.391L156.632 124.62L148.369 125.541L148.678 128.312L156.941 127.391Z" fill="#21252C"/>
<path d="M151.665 130.762L150.744 122.506L148.028 122.808L148.949 131.064L151.665 130.762Z" fill="#21252C"/>
<path d="M116.533 115.273L113.794 115.579L115.932 134.758L118.671 134.452L116.533 115.273Z" fill="#21252C"/>
<path d="M132.989 113.438L130.25 113.744L132.389 132.923L135.128 132.617L132.989 113.438Z" fill="#21252C"/>
<path d="M133.306 116.173L133.001 113.437L113.806 115.577L114.111 118.314L133.306 116.173Z" fill="#21252C"/>
<path d="M135.14 132.616L134.835 129.879L115.639 132.02L115.944 134.756L135.14 132.616Z" fill="#21252C"/>
<path d="M128.113 119.441L119.839 120.364L120.76 128.631L129.035 127.709L128.113 119.441Z" fill="#21252C"/>
<path d="M151.051 125.359L151.346 128.003L156.824 127.392L156.529 124.748L151.051 125.359Z" fill="#21252C"/>
<path d="M153.849 125.047L154.45 130.439L157.108 130.143L156.506 124.751L153.849 125.047Z" fill="#21252C"/>
<path d="M139.214 118.25L138.915 115.572L136.235 115.87L136.533 118.549L139.214 118.25Z" fill="#21252C"/>
<path d="M127.593 151.174C127.548 150.77 127.371 150.475 127.06 150.288C126.754 150.101 126.219 149.937 125.453 149.796C124.688 149.656 124.072 149.474 123.604 149.249C122.708 148.817 122.214 148.178 122.119 147.332C122.037 146.592 122.27 145.949 122.817 145.402C123.37 144.855 124.127 144.528 125.09 144.421C125.73 144.349 126.313 144.404 126.839 144.583C127.366 144.763 127.797 145.056 128.132 145.461C128.466 145.862 128.663 146.328 128.722 146.858L127.132 147.035C127.078 146.556 126.885 146.198 126.553 145.963C126.223 145.723 125.779 145.634 125.22 145.696C124.698 145.755 124.305 145.911 124.04 146.167C123.778 146.421 123.67 146.748 123.715 147.148C123.752 147.484 123.939 147.749 124.276 147.941C124.612 148.13 125.149 148.291 125.888 148.426C126.627 148.556 127.228 148.734 127.691 148.959C128.155 149.18 128.507 149.456 128.748 149.787C128.989 150.113 129.136 150.512 129.188 150.983C129.273 151.749 129.047 152.391 128.509 152.911C127.974 153.426 127.205 153.74 126.199 153.852C125.535 153.926 124.909 153.872 124.323 153.691C123.74 153.505 123.269 153.212 122.909 152.814C122.554 152.415 122.344 151.927 122.28 151.351L123.876 151.173C123.934 151.695 124.152 152.079 124.528 152.327C124.905 152.574 125.415 152.662 126.059 152.59C126.614 152.528 127.018 152.37 127.271 152.117C127.527 151.858 127.635 151.544 127.593 151.174Z" fill="#21252C"/>
<path d="M138.046 149.376C138.063 150.366 137.786 151.172 137.217 151.793C136.647 152.41 135.838 152.777 134.791 152.894C134.059 152.976 133.395 152.875 132.797 152.593C132.203 152.305 131.719 151.859 131.345 151.254C130.97 150.648 130.73 149.923 130.623 149.079L130.527 148.221C130.431 147.355 130.499 146.575 130.733 145.88C130.966 145.186 131.349 144.628 131.881 144.206C132.417 143.785 133.062 143.532 133.815 143.448C134.828 143.335 135.675 143.519 136.354 144.001C137.034 144.483 137.48 145.221 137.694 146.215L136.104 146.393C135.954 145.741 135.708 145.287 135.364 145.032C135.025 144.771 134.556 144.675 133.959 144.741C133.265 144.819 132.759 145.133 132.442 145.683C132.128 146.229 132.021 146.993 132.122 147.973L132.213 148.787C132.323 149.78 132.585 150.517 132.996 150.999C133.412 151.481 133.962 151.683 134.648 151.607C135.274 151.537 135.73 151.344 136.014 151.027C136.298 150.71 136.445 150.219 136.456 149.553L138.046 149.376Z" fill="#21252C"/>
<path d="M145.231 149.437L141.673 149.834L141.167 152.055L139.508 152.24L141.954 142.668L143.386 142.508L147.886 151.306L146.22 151.492L145.231 149.437ZM141.978 148.497L144.64 148.2L142.884 144.538L141.978 148.497Z" fill="#21252C"/>
<path d="M156.736 150.319L155.14 150.497L150.319 144.437L151.046 150.954L149.45 151.132L148.426 141.946L150.022 141.769L154.858 147.853L154.129 141.311L155.712 141.134L156.736 150.319Z" fill="#21252C"/>
<path d="M163.918 140.219L167.353 146.964L169.211 139.629L171.274 139.399L172.298 148.584L170.709 148.761L170.371 145.733L170.077 141.666L168.154 149.046L167.012 149.174L163.517 142.403L164.126 146.43L164.463 149.458L162.873 149.635L161.849 140.45L163.918 140.219Z" fill="#21252C"/>
<path d="M179.619 143.616L175.847 144.037L176.162 146.863L180.571 146.371L180.714 147.646L174.708 148.315L173.684 139.13L179.645 138.465L179.789 139.752L175.423 140.239L175.706 142.775L179.478 142.355L179.619 143.616Z" fill="#21252C"/>
<path opacity="0.2" d="M202.538 189.485L113.077 199.46C105.429 200.313 98.4725 194.746 97.6187 187.089L121.5 135.5L159.5 60.5L183.367 17.5505C191.016 16.6977 197.972 22.2648 198.826 29.9218L214.892 174.013C215.746 181.67 210.187 188.632 202.538 189.485Z" fill="white"/>
<path opacity="0.2" d="M175.444 155.998C175.557 150.476 180.126 146.092 185.648 146.206L324.618 149.072C330.14 149.186 334.524 153.755 334.41 159.276L333.173 219.264C333.059 224.785 328.49 229.169 322.968 229.055L183.998 226.189C178.476 226.075 174.092 221.507 174.206 215.985L175.444 155.998Z" fill="#12C7D0"/>
<path d="M182.443 152.998C182.557 147.476 187.126 143.092 192.648 143.206L331.618 146.072C337.14 146.186 341.524 150.755 341.41 156.276L340.172 216.264C340.059 221.785 335.49 226.169 329.968 226.055L190.998 223.189C185.476 223.075 181.092 218.507 181.206 212.985L182.443 152.998Z" fill="#12C7D0"/>
<path d="M203.315 159.43C203.338 158.325 204.252 157.448 205.356 157.471L320.332 159.843C321.436 159.865 322.313 160.779 322.29 161.883L321.321 208.873C321.298 209.978 320.384 210.854 319.28 210.832L204.305 208.46C203.2 208.438 202.323 207.524 202.346 206.42L203.315 159.43Z" fill="white"/>
<path fill-rule="evenodd" clip-rule="evenodd" d="M320.311 160.842L205.336 158.471C204.783 158.46 204.327 158.898 204.315 159.45L203.346 206.44C203.335 206.992 203.773 207.449 204.325 207.461L319.301 209.832C319.853 209.843 320.31 209.405 320.321 208.853L321.29 161.863C321.302 161.311 320.863 160.854 320.311 160.842ZM205.356 157.471C204.252 157.448 203.338 158.325 203.315 159.43L202.346 206.42C202.323 207.524 203.2 208.438 204.305 208.46L319.28 210.832C320.384 210.854 321.298 209.978 321.321 208.873L322.29 161.883C322.313 160.779 321.436 159.865 320.332 159.843L205.356 157.471Z" fill="#21252C"/>
<path d="M223.184 178.454L223.212 177.085L221.842 177.057L221.813 178.426L223.184 178.454Z" fill="#21252C"/>
<path d="M227.414 178.541L227.442 177.172L226.072 177.144L226.043 178.513L227.414 178.541Z" fill="#21252C"/>
<path d="M228.848 177.207L228.878 175.796L227.471 175.767L227.442 177.178L228.848 177.207Z" fill="#21252C"/>
<path d="M227.471 175.761L227.529 172.946L226.159 172.917L226.101 175.733L227.471 175.761Z" fill="#21252C"/>
<path d="M223.277 174.245L223.219 177.085L224.661 177.114L224.719 174.275L223.277 174.245Z" fill="#21252C"/>
<path d="M228.901 174.368L228.93 172.945L224.742 172.858L224.712 174.281L228.901 174.368Z" fill="#21252C"/>
<path d="M228.901 174.362L228.814 178.582L230.196 178.61L230.283 174.39L228.901 174.362Z" fill="#21252C"/>
<path d="M223.341 171.43L223.312 172.823L224.736 172.852L224.765 171.459L223.341 171.43Z" fill="#21252C"/>
<path d="M231.759 171.61L231.846 167.401L230.458 167.372L230.371 171.581L231.759 171.61Z" fill="#21252C"/>
<path d="M235.902 175.923L235.96 173.102L234.572 173.073L234.514 175.895L235.902 175.923Z" fill="#21252C"/>
<path d="M233.102 175.865L233.189 171.639L231.765 171.61L231.678 175.836L233.102 175.865Z" fill="#21252C"/>
<path d="M234.634 168.888L234.692 166.108L233.304 166.079L233.246 168.859L234.634 168.888Z" fill="#21252C"/>
<path d="M231.81 168.83L231.84 167.401L227.699 167.316L227.669 168.744L231.81 168.83Z" fill="#21252C"/>
<path d="M226.252 168.721L226.281 167.292L223.446 167.234L223.416 168.662L226.252 168.721Z" fill="#21252C"/>
<path d="M226.241 168.721L226.298 165.923L224.898 165.894L224.84 168.692L226.241 168.721Z" fill="#21252C"/>
<path d="M233.222 168.864L233.194 170.246L234.6 170.275L234.629 168.893L233.222 168.864Z" fill="#21252C"/>
<path d="M233.269 167.478L233.241 168.859L236.053 168.917L236.082 167.536L233.269 167.478Z" fill="#21252C"/>
<path d="M233.212 170.246L233.184 171.639L235.996 171.697L236.024 170.304L233.212 170.246Z" fill="#21252C"/>
<path d="M224.8 170.078L224.771 171.471L226.195 171.501L226.223 170.108L224.8 170.078Z" fill="#21252C"/>
<path d="M226.252 168.715L226.223 170.108L227.647 170.137L227.676 168.744L226.252 168.715Z" fill="#21252C"/>
<path d="M229.093 165.962L229.064 167.355L230.488 167.385L230.517 165.992L229.093 165.962Z" fill="#21252C"/>
<path d="M219.006 176.98L218.92 181.165L220.356 181.195L220.442 177.01L219.006 176.98Z" fill="#21252C"/>
<path d="M227.566 171.523L227.537 172.916L230.337 172.974L230.366 171.581L227.566 171.523Z" fill="#21252C"/>
<path d="M213.59 165.658L212.19 165.629L211.987 175.433L213.388 175.462L213.59 165.658Z" fill="#21252C"/>
<path d="M222.002 165.828L220.602 165.799L220.4 175.603L221.8 175.632L222.002 165.828Z" fill="#21252C"/>
<path d="M221.973 167.227L222.002 165.828L212.189 165.626L212.161 167.025L221.973 167.227Z" fill="#21252C"/>
<path d="M221.8 175.632L221.829 174.233L212.016 174.031L211.987 175.43L221.8 175.632Z" fill="#21252C"/>
<path d="M219.145 168.527L214.915 168.44L214.828 172.666L219.058 172.753L219.145 168.527Z" fill="#21252C"/>
<path d="M238.827 166.175L237.427 166.146L237.225 175.95L238.625 175.979L238.827 166.175Z" fill="#21252C"/>
<path d="M247.24 166.349L245.84 166.32L245.638 176.124L247.038 176.153L247.24 166.349Z" fill="#21252C"/>
<path d="M247.212 167.748L247.24 166.349L237.428 166.146L237.399 167.545L247.212 167.748Z" fill="#21252C"/>
<path d="M247.038 176.153L247.067 174.754L237.254 174.552L237.225 175.951L247.038 176.153Z" fill="#21252C"/>
<path d="M244.378 169.047L240.147 168.96L240.06 173.186L244.29 173.274L244.378 169.047Z" fill="#21252C"/>
<path d="M245.421 190.138L246.821 190.167L246.904 186.142L245.504 186.114L245.421 190.138Z" fill="#21252C"/>
<path d="M244.193 181.728L245.593 181.757L245.681 177.507L244.28 177.478L244.193 181.728Z" fill="#21252C"/>
<path d="M244.14 184.567L245.54 184.596L245.628 180.346L244.228 180.317L244.14 184.567Z" fill="#21252C"/>
<path d="M247.053 178.934L247.081 177.536L240.075 177.391L240.046 178.79L247.053 178.934Z" fill="#21252C"/>
<path d="M238.64 178.761L238.669 177.362L231.663 177.218L231.634 178.617L238.64 178.761Z" fill="#21252C"/>
<path d="M237.205 180.125L237.234 178.726L232.992 178.639L232.963 180.037L237.205 180.125Z" fill="#21252C"/>
<path d="M235.757 181.501L235.786 180.102L232.968 180.044L232.939 181.442L235.757 181.501Z" fill="#21252C"/>
<path d="M241.227 190.028L241.43 180.218L240.035 180.189L239.833 189.999L241.227 190.028Z" fill="#21252C"/>
<path d="M241.4 181.635L241.43 180.218L237.182 180.13L237.153 181.547L241.4 181.635Z" fill="#21252C"/>
<path d="M244.032 190.086L244.059 188.77L239.853 188.683L239.826 189.999L244.032 190.086Z" fill="#21252C"/>
<path d="M241.266 187.224L241.293 185.908L231.481 185.706L231.453 187.022L241.266 187.224Z" fill="#21252C"/>
<path d="M228.648 186.958L228.676 185.595L221.652 185.45L221.623 186.813L228.648 186.958Z" fill="#21252C"/>
<path d="M220.217 186.784L220.245 185.421L216.038 185.334L216.01 186.697L220.217 186.784Z" fill="#21252C"/>
<path d="M220.216 186.79L220.277 183.867L218.865 183.838L218.804 186.761L220.216 186.79Z" fill="#21252C"/>
<path d="M217.37 188.107L217.459 183.809L216.047 183.78L215.958 188.078L217.37 188.107Z" fill="#21252C"/>
<path d="M242.614 188.628L242.526 192.884L243.885 192.912L243.973 188.656L242.614 188.628Z" fill="#21252C"/>
<path d="M242.469 195.681L242.439 197.098L246.61 197.184L246.639 195.768L242.469 195.681Z" fill="#21252C"/>
<path d="M213.176 188.021L213.233 185.246L211.821 185.217L211.764 187.991L213.176 188.021Z" fill="#21252C"/>
<path d="M246.548 201.405L246.693 194.375L245.281 194.346L245.136 201.376L246.548 201.405Z" fill="#21252C"/>
<path d="M239.581 198.48L239.669 194.224L238.257 194.195L238.169 198.451L239.581 198.48Z" fill="#21252C"/>
<path d="M214.61 186.698L214.697 182.478L213.285 182.448L213.198 186.669L214.61 186.698Z" fill="#21252C"/>
<path d="M218.811 186.761L218.783 188.148L221.595 188.206L221.623 186.819L218.811 186.761Z" fill="#21252C"/>
<path d="M238.514 184.273L238.541 182.957L232.928 182.842L232.901 184.158L238.514 184.273Z" fill="#21252C"/>
<path d="M223.101 183.955L223.128 182.639L220.298 182.581L220.271 183.897L223.101 183.955Z" fill="#21252C"/>
<path d="M214.647 183.781L214.674 182.465L211.844 182.407L211.817 183.723L214.647 183.781Z" fill="#21252C"/>
<path d="M216.038 185.091L216.065 183.775L213.265 183.717L213.238 185.033L216.038 185.091Z" fill="#21252C"/>
<path d="M232.842 187.05L232.901 184.152L231.513 184.123L231.453 187.022L232.842 187.05Z" fill="#21252C"/>
<path d="M230.162 180.009L230.078 184.088L231.514 184.117L231.598 180.039L230.162 180.009Z" fill="#21252C"/>
<path d="M224.567 179.9L224.482 183.978L225.918 184.008L226.002 179.929L224.567 179.9Z" fill="#21252C"/>
<path d="M220.309 181.17L220.253 183.885L221.689 183.914L221.745 181.2L220.309 181.17Z" fill="#21252C"/>
<path d="M217.508 181.118L217.452 183.833L218.888 183.863L218.944 181.148L217.508 181.118Z" fill="#21252C"/>
<path d="M217.508 181.118L217.536 179.749L216.166 179.721L216.138 181.09L217.508 181.118Z" fill="#21252C"/>
<path d="M211.994 176.835L211.908 181.02L213.344 181.05L213.43 176.865L211.994 176.835Z" fill="#21252C"/>
<path d="M214.668 183.894L214.754 179.691L213.348 179.662L213.262 183.865L214.668 183.894Z" fill="#21252C"/>
<path d="M230.046 185.629L230.078 184.088L225.907 184.002L225.875 185.543L230.046 185.629Z" fill="#21252C"/>
<path d="M224.451 185.513L224.483 183.972L223.088 183.943L223.057 185.485L224.451 185.513Z" fill="#21252C"/>
<path d="M228.815 179.987L228.786 181.351L231.563 181.408L231.591 180.045L228.815 179.987Z" fill="#21252C"/>
<path d="M227.306 186.936L227.278 188.299L230.055 188.357L230.083 186.993L227.306 186.936Z" fill="#21252C"/>
<path d="M241.186 190.015L241.215 188.587L231.307 188.383L231.278 189.811L241.186 190.015Z" fill="#21252C"/>
<path d="M241.186 190.015L241.069 195.688L242.475 195.717L242.592 190.044L241.186 190.015Z" fill="#21252C"/>
<path d="M234.149 189.87L234.032 195.543L235.438 195.572L235.555 189.899L234.149 189.87Z" fill="#21252C"/>
<path d="M239.773 189.986L239.656 195.659L241.062 195.688L241.179 190.015L239.773 189.986Z" fill="#21252C"/>
<path d="M232.643 194.079L232.614 195.514L241.068 195.688L241.097 194.254L232.643 194.079Z" fill="#21252C"/>
<path d="M221.767 179.848L221.739 181.211L225.945 181.298L225.973 179.935L221.767 179.848Z" fill="#21252C"/>
<path d="M235.641 187.108L235.728 182.899L234.34 182.871L234.253 187.079L235.641 187.108Z" fill="#21252C"/>
<path d="M242.636 188.753L242.663 187.437L239.886 187.379L239.859 188.695L242.636 188.753Z" fill="#21252C"/>
<path d="M241.365 183.016L241.394 181.617L238.558 181.558L238.529 182.957L241.365 183.016Z" fill="#21252C"/>
<path d="M234.335 182.871L234.364 181.472L230.134 181.385L230.105 182.783L234.335 182.871Z" fill="#21252C"/>
<path d="M227.34 182.72L227.369 181.322L223.139 181.234L223.11 182.633L227.34 182.72Z" fill="#21252C"/>
<path d="M246.994 181.792L247.022 180.393L242.834 180.306L242.805 181.705L246.994 181.792Z" fill="#21252C"/>
<path d="M238.279 192.79L238.307 191.421L236.937 191.393L236.909 192.762L238.279 192.79Z" fill="#21252C"/>
<path d="M242.399 198.532L242.427 197.163L241.057 197.135L241.028 198.504L242.399 198.532Z" fill="#21252C"/>
<path d="M224.157 200.908L224.359 191.098L222.965 191.069L222.763 200.879L224.157 200.908Z" fill="#21252C"/>
<path d="M238.42 189.97L238.447 188.654L234.241 188.568L234.214 189.884L238.42 189.97Z" fill="#21252C"/>
<path d="M228.572 189.761L228.485 193.994L231.35 194.053L231.437 189.82L228.572 189.761Z" fill="#21252C"/>
<path d="M229.938 194.029L230.052 188.481L228.599 188.451L228.484 193.999L229.938 194.029Z" fill="#21252C"/>
<path d="M229.96 192.636L229.99 191.214L225.766 191.127L225.736 192.549L229.96 192.636Z" fill="#21252C"/>
<path d="M242.562 191.467L242.532 192.884L246.703 192.97L246.732 191.553L242.562 191.467Z" fill="#21252C"/>
<path d="M245.14 201.376L245.17 199.954L238.145 199.809L238.116 201.231L245.14 201.376Z" fill="#21252C"/>
<path d="M238.174 198.457L238.146 199.809L242.37 199.896L242.398 198.544L238.174 198.457Z" fill="#21252C"/>
<path d="M224.202 198.163L224.174 199.515L226.975 199.572L227.002 198.221L224.202 198.163Z" fill="#21252C"/>
<path d="M231.18 198.307L231.208 196.914L227.008 196.827L226.979 198.22L231.18 198.307Z" fill="#21252C"/>
<path d="M228.647 186.964L228.589 189.768L230.025 189.797L230.083 186.993L228.647 186.964Z" fill="#21252C"/>
<path d="M227.044 196.828L227.073 195.4L222.891 195.313L222.861 196.742L227.044 196.828Z" fill="#21252C"/>
<path d="M232.594 201.1L232.738 194.081L231.35 194.053L231.205 201.071L232.594 201.1Z" fill="#21252C"/>
<path d="M232.617 199.701L232.646 198.284L228.422 198.197L228.392 199.613L232.617 199.701Z" fill="#21252C"/>
<path d="M229.734 201.047L229.821 196.826L228.433 196.797L228.345 201.018L229.734 201.047Z" fill="#21252C"/>
<path d="M213.069 190.9L211.669 190.871L211.467 200.676L212.867 200.705L213.069 190.9Z" fill="#21252C"/>
<path d="M221.482 191.074L220.081 191.045L219.879 200.849L221.279 200.878L221.482 191.074Z" fill="#21252C"/>
<path d="M221.459 192.473L221.488 191.074L211.675 190.872L211.646 192.271L221.459 192.473Z" fill="#21252C"/>
<path d="M221.285 200.878L221.314 199.479L211.502 199.277L211.473 200.676L221.285 200.878Z" fill="#21252C"/>
<path d="M218.625 193.772L214.395 193.685L214.307 197.912L218.538 197.999L218.625 193.772Z" fill="#21252C"/>
<path d="M229.785 198.284L229.757 199.636L232.557 199.693L232.585 198.342L229.785 198.284Z" fill="#21252C"/>
<path d="M231.215 198.314L231.158 201.07L232.517 201.098L232.574 198.342L231.215 198.314Z" fill="#21252C"/>
<path d="M224.296 193.913L224.324 192.544L222.954 192.516L222.926 193.885L224.296 193.913Z" fill="#21252C"/>
<path d="M258.518 174.462L259.983 174.492L259.881 179.413C259.872 179.865 259.763 180.263 259.554 180.607C259.348 180.948 259.061 181.209 258.693 181.391C258.324 181.572 257.911 181.658 257.452 181.648C256.7 181.633 256.118 181.43 255.706 181.041C255.294 180.648 255.095 180.102 255.11 179.402L256.584 179.433C256.577 179.781 256.645 180.039 256.788 180.208C256.931 180.377 257.16 180.465 257.476 180.472C257.756 180.478 257.981 180.386 258.151 180.198C258.321 180.009 258.409 179.737 258.417 179.383L258.518 174.462Z" fill="#21252C"/>
<path d="M267.399 178.361C267.385 179.061 267.248 179.672 266.99 180.194C266.732 180.716 266.369 181.116 265.901 181.393C265.436 181.67 264.906 181.802 264.31 181.79C263.721 181.778 263.198 181.625 262.742 181.332C262.286 181.04 261.936 180.629 261.693 180.1C261.45 179.567 261.334 178.959 261.345 178.276L261.352 177.924C261.367 177.224 261.505 176.612 261.766 176.087C262.031 175.558 262.396 175.157 262.86 174.883C263.329 174.606 263.859 174.474 264.451 174.486C265.043 174.499 265.566 174.653 266.019 174.949C266.475 175.241 266.823 175.657 267.063 176.196C267.306 176.732 267.42 177.348 267.406 178.044L267.399 178.361ZM265.922 178.009C265.937 177.263 265.815 176.694 265.556 176.302C265.298 175.909 264.921 175.707 264.426 175.697C263.935 175.687 263.552 175.871 263.277 176.25C263.002 176.625 262.855 177.182 262.837 177.921L262.83 178.267C262.815 178.993 262.937 179.559 263.195 179.965C263.454 180.37 263.834 180.578 264.335 180.589C264.826 180.599 265.208 180.415 265.479 180.036C265.751 179.654 265.896 179.094 265.915 178.355L265.922 178.009Z" fill="#21252C"/>
<path d="M274.578 181.904L273.114 181.874L273.176 178.827L270.321 178.768L270.258 181.815L268.793 181.785L268.94 174.677L270.404 174.707L270.345 177.587L273.201 177.646L273.26 174.766L274.725 174.796L274.578 181.904Z" fill="#21252C"/>
<path d="M282.042 182.058L280.577 182.028L277.823 177.292L277.727 181.969L276.262 181.939L276.409 174.831L277.873 174.861L280.632 179.606L280.729 174.92L282.189 174.95L282.042 182.058Z" fill="#21252C"/>
<path d="M286.611 182.152L286.757 175.044L288.944 175.089C289.569 175.102 290.124 175.255 290.61 175.548C291.099 175.839 291.476 176.247 291.742 176.773C292.008 177.296 292.134 177.888 292.121 178.549L292.114 178.876C292.1 179.537 291.951 180.121 291.667 180.63C291.387 181.139 290.996 181.529 290.496 181.802C289.995 182.075 289.434 182.207 288.812 182.197L286.611 182.152ZM288.197 176.261L288.099 181.006L288.807 181.02C289.38 181.032 289.822 180.854 290.132 180.486C290.442 180.118 290.608 179.586 290.629 178.889L290.637 178.514C290.652 177.791 290.513 177.241 290.221 176.864C289.93 176.484 289.496 176.287 288.92 176.275L288.197 176.261Z" fill="#21252C"/>
<path d="M299.422 179.022C299.407 179.722 299.271 180.333 299.013 180.855C298.754 181.377 298.391 181.776 297.923 182.053C297.458 182.33 296.928 182.462 296.333 182.45C295.744 182.438 295.221 182.286 294.765 181.993C294.308 181.7 293.959 181.289 293.716 180.76C293.473 180.228 293.357 179.62 293.367 178.936L293.375 178.585C293.389 177.885 293.527 177.272 293.789 176.747C294.053 176.219 294.418 175.817 294.883 175.544C295.351 175.267 295.881 175.135 296.474 175.147C297.066 175.159 297.588 175.313 298.041 175.609C298.498 175.902 298.846 176.317 299.085 176.856C299.328 177.392 299.442 178.008 299.428 178.705L299.422 179.022ZM297.944 178.669C297.96 177.924 297.838 177.355 297.579 176.962C297.32 176.569 296.943 176.368 296.449 176.358C295.957 176.347 295.574 176.532 295.299 176.91C295.024 177.285 294.878 177.842 294.859 178.581L294.852 178.928C294.837 179.653 294.959 180.219 295.218 180.625C295.476 181.031 295.856 181.239 296.357 181.249C296.849 181.259 297.23 181.075 297.502 180.697C297.773 180.315 297.919 179.754 297.937 179.016L297.944 178.669Z" fill="#21252C"/>
<path d="M305.156 179.453L302.344 179.395L302.305 181.299L305.605 181.367L305.58 182.543L300.816 182.445L300.962 175.337L305.717 175.435L305.693 176.621L302.402 176.554L302.367 178.248L305.179 178.306L305.156 179.453Z" fill="#21252C"/>
<path d="M257.303 190.499L258.889 190.531L258.875 191.215L257.289 191.182L257.252 192.979L256.526 192.964L256.563 191.167L254.977 191.134L254.991 190.451L256.577 190.484L256.611 188.824L257.338 188.839L257.303 190.499Z" fill="#21252C"/>
<path d="M260.751 190.425L261.294 190.436C261.635 190.438 261.905 190.354 262.104 190.184C262.303 190.013 262.405 189.779 262.411 189.483C262.425 188.816 262.1 188.476 261.436 188.462C261.124 188.456 260.872 188.541 260.681 188.716C260.492 188.89 260.395 189.123 260.389 189.418L259.666 189.403C259.676 188.952 259.847 188.582 260.182 188.292C260.518 187.999 260.941 187.858 261.448 187.869C261.985 187.88 262.402 188.03 262.701 188.32C263 188.61 263.144 189.008 263.134 189.513C263.128 189.761 263.043 189.998 262.877 190.227C262.713 190.455 262.492 190.624 262.214 190.733C262.524 190.838 262.762 191.007 262.926 191.24C263.093 191.472 263.173 191.754 263.166 192.085C263.156 192.595 262.981 192.996 262.642 193.289C262.302 193.582 261.865 193.722 261.332 193.711C260.798 193.7 260.366 193.547 260.036 193.251C259.709 192.955 259.55 192.57 259.56 192.096L260.286 192.111C260.28 192.411 260.373 192.652 260.564 192.836C260.756 193.02 261.016 193.115 261.344 193.122C261.693 193.129 261.962 193.043 262.15 192.865C262.339 192.686 262.437 192.427 262.444 192.085C262.45 191.755 262.354 191.499 262.155 191.318C261.955 191.136 261.664 191.039 261.282 191.026L260.739 191.015L260.751 190.425Z" fill="#21252C"/>
<path d="M267.741 191.339C267.724 192.185 267.566 192.811 267.269 193.216C266.972 193.622 266.516 193.818 265.901 193.806C265.294 193.793 264.849 193.583 264.566 193.176C264.283 192.767 264.144 192.162 264.15 191.363L264.17 190.398C264.187 189.562 264.345 188.944 264.642 188.544C264.94 188.144 265.397 187.95 266.014 187.963C266.626 187.975 267.072 188.181 267.353 188.58C267.634 188.977 267.77 189.584 267.761 190.402L267.741 191.339ZM267.039 190.336C267.052 189.724 266.975 189.277 266.809 188.995C266.643 188.71 266.374 188.564 266.002 188.556C265.632 188.549 265.359 188.683 265.184 188.958C265.01 189.233 264.913 189.659 264.896 190.237L264.872 191.393C264.86 192.008 264.939 192.464 265.11 192.762C265.284 193.057 265.551 193.208 265.913 193.216C266.27 193.223 266.537 193.091 266.715 192.818C266.895 192.546 266.995 192.113 267.015 191.519L267.039 190.336Z" fill="#21252C"/>
<path d="M274.327 193.901L270.601 193.824L270.612 193.305L272.625 191.158C272.923 190.834 273.13 190.57 273.243 190.366C273.359 190.16 273.42 189.947 273.424 189.725C273.43 189.429 273.346 189.183 273.17 188.99C272.994 188.796 272.757 188.696 272.457 188.69C272.098 188.682 271.816 188.779 271.611 188.981C271.409 189.18 271.304 189.462 271.297 189.826L270.574 189.811C270.585 189.288 270.762 188.868 271.104 188.552C271.449 188.236 271.904 188.084 272.469 188.096C272.998 188.107 273.413 188.255 273.714 188.54C274.016 188.822 274.162 189.194 274.153 189.654C274.141 190.214 273.771 190.873 273.041 191.632L271.484 193.253L274.339 193.311L274.327 193.901Z" fill="#21252C"/>
<path d="M276.209 190.744L276.751 190.755C277.093 190.757 277.363 190.673 277.562 190.502C277.76 190.332 277.863 190.098 277.869 189.801C277.883 189.135 277.558 188.795 276.894 188.781C276.581 188.775 276.33 188.859 276.138 189.035C275.95 189.208 275.853 189.442 275.846 189.736L275.124 189.721C275.133 189.271 275.305 188.901 275.639 188.611C275.976 188.318 276.398 188.177 276.906 188.188C277.442 188.199 277.86 188.349 278.159 188.639C278.457 188.929 278.602 189.327 278.591 189.832C278.586 190.079 278.5 190.317 278.334 190.546C278.171 190.774 277.95 190.943 277.671 191.052C277.982 191.157 278.219 191.326 278.384 191.559C278.551 191.791 278.631 192.073 278.624 192.404C278.614 192.914 278.439 193.315 278.099 193.608C277.76 193.9 277.323 194.041 276.789 194.03C276.256 194.019 275.824 193.866 275.494 193.57C275.167 193.274 275.008 192.889 275.018 192.415L275.744 192.43C275.738 192.73 275.831 192.971 276.022 193.155C276.214 193.338 276.474 193.434 276.802 193.44C277.15 193.448 277.419 193.362 277.608 193.184C277.796 193.005 277.894 192.745 277.901 192.404C277.908 192.074 277.812 191.818 277.612 191.636C277.413 191.455 277.122 191.358 276.739 191.345L276.196 191.334L276.209 190.744Z" fill="#21252C"/>
<path d="M282.673 192.163L283.462 192.179L283.45 192.769L282.661 192.752L282.634 194.072L281.907 194.058L281.934 192.737L279.345 192.684L279.354 192.258L281.981 188.37L282.751 188.386L282.673 192.163ZM280.177 192.111L281.947 192.148L282.004 189.359L281.915 189.514L280.177 192.111Z" fill="#21252C"/>
<path d="M289.148 192.296L289.937 192.313L289.925 192.902L289.136 192.886L289.109 194.206L288.382 194.191L288.41 192.871L285.82 192.818L285.829 192.392L288.457 188.504L289.226 188.52L289.148 192.296ZM286.653 192.245L288.422 192.281L288.479 189.493L288.39 189.647L286.653 192.245Z" fill="#21252C"/>
<path d="M293.639 192.389L294.428 192.405L294.416 192.995L293.627 192.979L293.6 194.299L292.874 194.284L292.901 192.964L290.311 192.91L290.32 192.485L292.948 188.597L293.717 188.612L293.639 192.389ZM291.144 192.337L292.913 192.374L292.97 189.585L292.881 189.74L291.144 192.337Z" fill="#21252C"/>
<path d="M297.416 191.525L297.763 188.696L300.677 188.756L300.663 189.424L298.363 189.376L298.159 190.923C298.441 190.765 298.759 190.689 299.113 190.697C299.631 190.707 300.039 190.888 300.336 191.238C300.634 191.585 300.777 192.05 300.765 192.634C300.753 193.219 300.584 193.678 300.26 194.01C299.938 194.34 299.493 194.498 298.925 194.487C298.423 194.476 298.016 194.329 297.704 194.043C297.392 193.758 297.219 193.369 297.185 192.876L297.868 192.89C297.906 193.217 298.017 193.465 298.201 193.636C298.385 193.803 298.63 193.891 298.937 193.897C299.273 193.904 299.539 193.795 299.733 193.57C299.931 193.344 300.034 193.03 300.042 192.626C300.05 192.246 299.952 191.94 299.748 191.706C299.548 191.47 299.275 191.349 298.932 191.342C298.617 191.335 298.368 191.399 298.185 191.533L297.991 191.686L297.416 191.525Z" fill="#21252C"/>
<path d="M301.907 191.618L302.254 188.788L305.168 188.849L305.154 189.516L302.854 189.469L302.65 191.016C302.932 190.858 303.25 190.782 303.604 190.789C304.122 190.8 304.53 190.98 304.828 191.33C305.125 191.678 305.268 192.143 305.256 192.726C305.244 193.312 305.076 193.771 304.751 194.103C304.429 194.432 303.984 194.591 303.417 194.579C302.914 194.569 302.507 194.421 302.195 194.136C301.883 193.851 301.71 193.462 301.676 192.969L302.359 192.983C302.397 193.309 302.508 193.558 302.692 193.728C302.876 193.896 303.121 193.983 303.429 193.99C303.765 193.996 304.03 193.887 304.225 193.662C304.422 193.437 304.525 193.123 304.533 192.719C304.541 192.339 304.443 192.032 304.24 191.799C304.039 191.563 303.766 191.441 303.423 191.434C303.108 191.428 302.859 191.492 302.677 191.626L302.482 191.778L301.907 191.618Z" fill="#21252C"/>
<path opacity="0.2" d="M242 189L289 167.5L331.618 146.072C337.14 146.186 341.524 150.755 341.41 156.276L340.172 216.264C340.059 221.785 335.49 226.169 329.968 226.055L190.998 223.189C185.476 223.075 181.092 218.507 181.206 212.985L242 189Z" fill="white"/>
</svg>
