<svg width="80" height="80" viewBox="0 0 80 80" fill="none" xmlns="http://www.w3.org/2000/svg">
<path d="M80 0H0V80H80V0Z" fill="white"/>
<path d="M29.92 6.88H28.48C27.328 6.88 27.04 6.592 27.04 5.44C27.04 4.288 27.328 4 28.48 4H29.92V6.88ZM29.92 4V6.88H32.8V5.44C32.8 4.288 32.512 4 31.36 4H29.92ZM34.24 6.88C33.088 6.88 32.8 6.592 32.8 5.44V6.88H34.24ZM38.56 5.44C38.56 6.592 38.272 6.88 37.12 6.88H38.56V5.44ZM38.56 6.88H41.44V4H40C38.848 4 38.56 4.288 38.56 5.44V6.88ZM41.44 4V6.88H44.32V4H41.44ZM44.32 4V6.88H47.2V4H44.32ZM47.2 4V6.88H50.08V4H47.2ZM50.08 4H51.52C52.672 4 52.96 4.288 52.96 5.44C52.96 6.592 52.672 6.88 51.52 6.88H50.08V4ZM28.48 6.88C29.632 6.88 29.92 7.168 29.92 8.32V6.88H28.48ZM32.8 9.76V6.88H29.92V8.32C29.92 9.472 30.208 9.76 31.36 9.76H32.8ZM32.8 6.88V9.76H35.68V6.88H32.8ZM35.68 6.88V9.76H38.56V6.88H35.68ZM38.56 6.88V9.76H41.44V6.88H38.56ZM44.32 6.88H41.44V9.76H42.88C44.032 9.76 44.32 9.472 44.32 8.32V6.88ZM44.32 8.32C44.32 7.168 44.608 6.88 45.76 6.88H44.32V8.32ZM34.24 9.76C35.392 9.76 35.68 10.048 35.68 11.2V9.76H34.24ZM38.56 9.76V11.2C38.56 12.352 38.272 12.64 37.12 12.64C35.968 12.64 35.68 12.352 35.68 11.2V9.76H38.56ZM38.56 11.2C38.56 10.048 38.848 9.76 40 9.76H38.56V11.2ZM44.32 12.64H47.2V9.76H45.76C44.608 9.76 44.32 10.048 44.32 11.2V12.64ZM47.2 9.76V12.64H50.08V11.2C50.08 10.048 49.792 9.76 48.64 9.76H47.2ZM51.52 12.64C50.368 12.64 50.08 12.352 50.08 11.2V12.64H51.52ZM29.92 15.52H32.8V12.64H31.36C30.208 12.64 29.92 12.928 29.92 14.08V15.52ZM32.8 12.64V15.52H35.68V14.08C35.68 12.928 35.392 12.64 34.24 12.64H32.8ZM38.56 15.52V14.08C38.56 12.928 38.848 12.64 40 12.64C41.152 12.64 41.44 12.928 41.44 14.08V15.52H38.56ZM47.2 15.52V12.64H44.32V14.08C44.32 15.232 44.608 15.52 45.76 15.52H47.2ZM47.2 12.64V15.52H50.08V12.64H47.2ZM50.08 12.64V15.52H52.96V14.08C52.96 12.928 52.672 12.64 51.52 12.64H50.08ZM32.8 18.4V15.52H29.92V16.96C29.92 18.112 30.208 18.4 31.36 18.4H32.8ZM32.8 15.52V18.4H35.68V15.52H32.8ZM41.44 15.52V16.96C41.44 18.112 41.152 18.4 40 18.4C38.848 18.4 38.56 18.112 38.56 16.96V15.52H41.44ZM45.76 15.52C46.912 15.52 47.2 15.808 47.2 16.96V15.52H45.76ZM50.08 18.4V15.52H47.2V16.96C47.2 18.112 47.488 18.4 48.64 18.4H50.08ZM50.08 15.52V18.4H52.96V15.52H50.08ZM31.36 18.4C32.512 18.4 32.8 18.688 32.8 19.84V18.4H31.36ZM32.8 18.4V21.28H35.68V18.4H32.8ZM41.44 19.84C41.44 18.688 41.728 18.4 42.88 18.4C44.032 18.4 44.32 18.688 44.32 19.84C44.32 20.992 44.032 21.28 42.88 21.28C41.728 21.28 41.44 20.992 41.44 19.84ZM48.64 18.4C49.792 18.4 50.08 18.688 50.08 19.84V18.4H48.64ZM50.08 18.4V21.28H52.96V18.4H50.08ZM27.04 22.72C27.04 21.568 27.328 21.28 28.48 21.28C29.632 21.28 29.92 21.568 29.92 22.72C29.92 23.872 29.632 24.16 28.48 24.16C27.328 24.16 27.04 23.872 27.04 22.72ZM35.68 21.28V22.72C35.68 23.872 35.392 24.16 34.24 24.16C33.088 24.16 32.8 23.872 32.8 22.72V21.28H35.68ZM38.56 24.16V22.72C38.56 21.568 38.848 21.28 40 21.28C41.152 21.28 41.44 21.568 41.44 22.72V24.16H38.56ZM44.32 22.72C44.32 23.872 44.032 24.16 42.88 24.16H44.32V22.72ZM42.88 24.16C41.728 24.16 41.44 23.872 41.44 22.72V24.16H42.88ZM44.32 24.16V22.72C44.32 21.568 44.608 21.28 45.76 21.28C46.912 21.28 47.2 21.568 47.2 22.72V24.16H44.32ZM50.08 22.72C50.08 23.872 49.792 24.16 48.64 24.16H50.08V22.72ZM48.64 24.16C47.488 24.16 47.2 23.872 47.2 22.72V24.16H48.64ZM50.08 21.28V24.16H52.96V21.28H50.08ZM29.92 25.6C29.92 24.448 30.208 24.16 31.36 24.16C32.512 24.16 32.8 24.448 32.8 25.6C32.8 26.752 32.512 27.04 31.36 27.04C30.208 27.04 29.92 26.752 29.92 25.6ZM38.56 24.16V27.04H41.44V24.16H38.56ZM41.44 24.16V27.04H44.32V24.16H41.44ZM44.32 24.16V27.04H47.2V24.16H44.32ZM47.2 24.16V27.04H50.08V24.16H47.2ZM50.08 24.16V27.04H52.96V24.16H50.08ZM54.4 27.04C53.248 27.04 52.96 26.752 52.96 25.6V27.04H54.4ZM6.88 29.92H9.76V27.04H8.32C7.168 27.04 6.88 27.328 6.88 28.48V29.92ZM9.76 27.04V29.92H12.64V27.04H9.76ZM12.64 27.04H14.08C15.232 27.04 15.52 27.328 15.52 28.48C15.52 29.632 15.232 29.92 14.08 29.92H12.64V27.04ZM24.16 29.92H22.72C21.568 29.92 21.28 29.632 21.28 28.48C21.28 27.328 21.568 27.04 22.72 27.04H24.16V29.92ZM24.16 27.04V29.92H27.04V27.04H24.16ZM27.04 27.04V29.92H29.92V28.48C29.92 27.328 29.632 27.04 28.48 27.04H27.04ZM41.44 27.04V28.48C41.44 29.632 41.152 29.92 40 29.92C38.848 29.92 38.56 29.632 38.56 28.48V27.04H41.44ZM41.44 28.48C41.44 27.328 41.728 27.04 42.88 27.04H41.44V28.48ZM42.88 27.04C44.032 27.04 44.32 27.328 44.32 28.48V27.04H42.88ZM47.2 29.92V27.04H44.32V28.48C44.32 29.632 44.608 29.92 45.76 29.92H47.2ZM47.2 27.04V29.92H50.08V27.04H47.2ZM50.08 27.04V29.92H52.96V27.04H50.08ZM52.96 27.04H54.4C55.552 27.04 55.84 27.328 55.84 28.48C55.84 29.632 55.552 29.92 54.4 29.92H52.96V27.04ZM73.12 28.48C73.12 27.328 73.408 27.04 74.56 27.04C75.712 27.04 76 27.328 76 28.48C76 29.632 75.712 29.92 74.56 29.92C73.408 29.92 73.12 29.632 73.12 28.48ZM9.76 32.8V29.92H6.88V31.36C6.88 32.512 7.168 32.8 8.32 32.8H9.76ZM9.76 29.92V32.8H12.64V29.92H9.76ZM12.64 31.36C12.64 30.208 12.928 29.92 14.08 29.92H12.64V31.36ZM22.72 29.92C23.872 29.92 24.16 30.208 24.16 31.36V29.92H22.72ZM27.04 32.8V29.92H24.16V31.36C24.16 32.512 24.448 32.8 25.6 32.8H27.04ZM27.04 29.92V32.8H29.92V29.92H27.04ZM32.8 32.8V31.36C32.8 30.208 33.088 29.92 34.24 29.92C35.392 29.92 35.68 30.208 35.68 31.36V32.8H32.8ZM37.12 32.8C35.968 32.8 35.68 32.512 35.68 31.36V32.8H37.12ZM41.44 31.36C41.44 30.208 41.728 29.92 42.88 29.92C44.032 29.92 44.32 30.208 44.32 31.36C44.32 32.512 44.032 32.8 42.88 32.8C41.728 32.8 41.44 32.512 41.44 31.36ZM45.76 29.92C46.912 29.92 47.2 30.208 47.2 31.36V29.92H45.76ZM50.08 32.8V29.92H47.2V31.36C47.2 32.512 47.488 32.8 48.64 32.8H50.08ZM52.96 29.92H50.08V32.8H51.52C52.672 32.8 52.96 32.512 52.96 31.36V29.92ZM52.96 31.36C52.96 30.208 53.248 29.92 54.4 29.92H52.96V31.36ZM55.84 31.36C55.84 30.208 56.128 29.92 57.28 29.92C58.432 29.92 58.72 30.208 58.72 31.36C58.72 32.512 58.432 32.8 57.28 32.8C56.128 32.8 55.84 32.512 55.84 31.36ZM61.6 32.8H64.48V29.92H63.04C61.888 29.92 61.6 30.208 61.6 31.36V32.8ZM64.48 29.92V32.8H67.36V29.92H64.48ZM67.36 29.92V32.8H70.24V31.36C70.24 30.208 69.952 29.92 68.8 29.92H67.36ZM71.68 32.8C70.528 32.8 70.24 32.512 70.24 31.36V32.8H71.68ZM8.32 32.8C9.472 32.8 9.76 33.088 9.76 34.24V32.8H8.32ZM9.76 34.24C9.76 35.392 9.472 35.68 8.32 35.68H9.76V34.24ZM9.76 32.8V35.68H12.64V32.8H9.76ZM15.52 35.68H18.4V32.8H16.96C15.808 32.8 15.52 33.088 15.52 34.24V35.68ZM18.4 32.8V35.68H21.28V32.8H18.4ZM21.28 32.8H22.72C23.872 32.8 24.16 33.088 24.16 34.24C24.16 35.392 23.872 35.68 22.72 35.68H21.28V32.8ZM25.6 32.8C26.752 32.8 27.04 33.088 27.04 34.24V32.8H25.6ZM27.04 34.24C27.04 35.392 26.752 35.68 25.6 35.68H27.04V34.24ZM27.04 32.8V35.68H29.92V32.8H27.04ZM31.36 35.68C30.208 35.68 29.92 35.392 29.92 34.24V35.68H31.36ZM35.68 35.68V32.8H32.8V34.24C32.8 35.392 33.088 35.68 34.24 35.68H35.68ZM35.68 32.8V35.68H38.56V34.24C38.56 33.088 38.272 32.8 37.12 32.8H35.68ZM40 35.68C38.848 35.68 38.56 35.392 38.56 34.24V35.68H40ZM52.96 34.24C52.96 33.088 53.248 32.8 54.4 32.8C55.552 32.8 55.84 33.088 55.84 34.24C55.84 35.392 55.552 35.68 54.4 35.68C53.248 35.68 52.96 35.392 52.96 34.24ZM64.48 32.8V34.24C64.48 35.392 64.192 35.68 63.04 35.68C61.888 35.68 61.6 35.392 61.6 34.24V32.8H64.48ZM64.48 34.24C64.48 33.088 64.768 32.8 65.92 32.8H64.48V34.24ZM65.92 32.8C67.072 32.8 67.36 33.088 67.36 34.24V32.8H65.92ZM67.36 32.8V35.68H70.24V32.8H67.36ZM70.24 32.8V35.68H73.12V32.8H70.24ZM73.12 32.8H74.56C75.712 32.8 76 33.088 76 34.24C76 35.392 75.712 35.68 74.56 35.68H73.12V32.8ZM4 38.56H6.88V35.68H5.44C4.288 35.68 4 35.968 4 37.12V38.56ZM6.88 35.68V38.56H9.76V35.68H6.88ZM9.76 35.68V38.56H12.64V35.68H9.76ZM14.08 38.56C12.928 38.56 12.64 38.272 12.64 37.12V38.56H14.08ZM18.4 35.68V37.12C18.4 38.272 18.112 38.56 16.96 38.56C15.808 38.56 15.52 38.272 15.52 37.12V35.68H18.4ZM18.4 37.12C18.4 35.968 18.688 35.68 19.84 35.68H18.4V37.12ZM27.04 38.56H25.6C24.448 38.56 24.16 38.272 24.16 37.12C24.16 35.968 24.448 35.68 25.6 35.68H27.04V38.56ZM27.04 35.68V38.56H29.92V35.68H27.04ZM29.92 35.68H31.36C32.512 35.68 32.8 35.968 32.8 37.12C32.8 38.272 32.512 38.56 31.36 38.56H29.92V35.68ZM34.24 35.68C35.392 35.68 35.68 35.968 35.68 37.12V35.68H34.24ZM38.56 38.56V35.68H35.68V37.12C35.68 38.272 35.968 38.56 37.12 38.56H38.56ZM38.56 35.68V38.56H41.44V37.12C41.44 35.968 41.152 35.68 40 35.68H38.56ZM44.32 38.56H47.2V35.68H45.76C44.608 35.68 44.32 35.968 44.32 37.12V38.56ZM47.2 35.68V38.56H50.08V35.68H47.2ZM50.08 35.68H51.52C52.672 35.68 52.96 35.968 52.96 37.12C52.96 38.272 52.672 38.56 51.52 38.56H50.08V35.68ZM55.84 37.12C55.84 35.968 56.128 35.68 57.28 35.68C58.432 35.68 58.72 35.968 58.72 37.12C58.72 38.272 58.432 38.56 57.28 38.56C56.128 38.56 55.84 38.272 55.84 37.12ZM67.36 35.68V38.56H70.24V35.68H67.36ZM73.12 35.68H70.24V38.56H71.68C72.832 38.56 73.12 38.272 73.12 37.12V35.68ZM73.12 37.12C73.12 35.968 73.408 35.68 74.56 35.68H73.12V37.12ZM6.88 38.56V40C6.88 41.152 6.592 41.44 5.44 41.44C4.288 41.44 4 41.152 4 40V38.56H6.88ZM6.88 40C6.88 38.848 7.168 38.56 8.32 38.56H6.88V40ZM8.32 38.56C9.472 38.56 9.76 38.848 9.76 40V38.56H8.32ZM12.64 41.44V38.56H9.76V40C9.76 41.152 10.048 41.44 11.2 41.44H12.64ZM12.64 38.56V41.44H15.52V40C15.52 38.848 15.232 38.56 14.08 38.56H12.64ZM21.28 40C21.28 38.848 21.568 38.56 22.72 38.56C23.872 38.56 24.16 38.848 24.16 40C24.16 41.152 23.872 41.44 22.72 41.44C21.568 41.44 21.28 41.152 21.28 40ZM25.6 38.56C26.752 38.56 27.04 38.848 27.04 40V38.56H25.6ZM27.04 38.56V41.44H29.92V38.56H27.04ZM29.92 40C29.92 38.848 30.208 38.56 31.36 38.56H29.92V40ZM31.36 41.44C30.208 41.44 29.92 41.152 29.92 40V41.44H31.36ZM32.8 40C32.8 38.848 33.088 38.56 34.24 38.56C35.392 38.56 35.68 38.848 35.68 40C35.68 41.152 35.392 41.44 34.24 41.44C33.088 41.44 32.8 41.152 32.8 40ZM37.12 38.56C38.272 38.56 38.56 38.848 38.56 40V38.56H37.12ZM41.44 38.56V40C41.44 41.152 41.152 41.44 40 41.44C38.848 41.44 38.56 41.152 38.56 40V38.56H41.44ZM47.2 38.56V40C47.2 41.152 46.912 41.44 45.76 41.44C44.608 41.44 44.32 41.152 44.32 40V38.56H47.2ZM47.2 40C47.2 38.848 47.488 38.56 48.64 38.56H47.2V40ZM52.96 40C52.96 38.848 53.248 38.56 54.4 38.56C55.552 38.56 55.84 38.848 55.84 40C55.84 41.152 55.552 41.44 54.4 41.44C53.248 41.44 52.96 41.152 52.96 40ZM61.6 41.44H60.16C59.008 41.44 58.72 41.152 58.72 40C58.72 38.848 59.008 38.56 60.16 38.56H61.6V41.44ZM61.6 38.56H63.04C64.192 38.56 64.48 38.848 64.48 40C64.48 41.152 64.192 41.44 63.04 41.44H61.6V38.56ZM70.24 38.56V40C70.24 41.152 69.952 41.44 68.8 41.44C67.648 41.44 67.36 41.152 67.36 40V38.56H70.24ZM70.24 40C70.24 38.848 70.528 38.56 71.68 38.56H70.24V40ZM73.12 41.44V40C73.12 38.848 73.408 38.56 74.56 38.56C75.712 38.56 76 38.848 76 40V41.44H73.12ZM11.2 41.44C12.352 41.44 12.64 41.728 12.64 42.88V41.44H11.2ZM15.52 41.44V42.88C15.52 44.032 15.232 44.32 14.08 44.32C12.928 44.32 12.64 44.032 12.64 42.88V41.44H15.52ZM27.04 41.44V44.32H29.92V41.44H27.04ZM29.92 41.44V44.32H32.8V42.88C32.8 41.728 32.512 41.44 31.36 41.44H29.92ZM34.24 44.32C33.088 44.32 32.8 44.032 32.8 42.88V44.32H34.24ZM50.08 42.88C50.08 41.728 50.368 41.44 51.52 41.44C52.672 41.44 52.96 41.728 52.96 42.88C52.96 44.032 52.672 44.32 51.52 44.32C50.368 44.32 50.08 44.032 50.08 42.88ZM55.84 42.88C55.84 44.032 55.552 44.32 54.4 44.32H55.84V42.88ZM55.84 44.32V42.88C55.84 41.728 56.128 41.44 57.28 41.44C58.432 41.44 58.72 41.728 58.72 42.88V44.32H55.84ZM60.16 44.32C59.008 44.32 58.72 44.032 58.72 42.88V44.32H60.16ZM73.12 41.44V44.32H76V41.44H73.12ZM6.88 47.2H5.44C4.288 47.2 4 46.912 4 45.76C4 44.608 4.288 44.32 5.44 44.32H6.88V47.2ZM6.88 44.32V47.2H9.76V44.32H6.88ZM9.76 44.32V47.2H12.64V45.76C12.64 44.608 12.352 44.32 11.2 44.32H9.76ZM15.52 45.76C15.52 44.608 15.808 44.32 16.96 44.32C18.112 44.32 18.4 44.608 18.4 45.76C18.4 46.912 18.112 47.2 16.96 47.2C15.808 47.2 15.52 46.912 15.52 45.76ZM21.28 45.76C21.28 44.608 21.568 44.32 22.72 44.32C23.872 44.32 24.16 44.608 24.16 45.76C24.16 46.912 23.872 47.2 22.72 47.2C21.568 47.2 21.28 46.912 21.28 45.76ZM29.92 47.2V44.32H27.04V45.76C27.04 46.912 27.328 47.2 28.48 47.2H29.92ZM29.92 44.32V47.2H32.8V44.32H29.92ZM32.8 44.32V47.2H35.68V45.76C35.68 44.608 35.392 44.32 34.24 44.32H32.8ZM44.32 45.76C44.32 46.912 44.032 47.2 42.88 47.2H44.32V45.76ZM44.32 47.2V45.76C44.32 44.608 44.608 44.32 45.76 44.32C46.912 44.32 47.2 44.608 47.2 45.76V47.2H44.32ZM48.64 47.2C47.488 47.2 47.2 46.912 47.2 45.76V47.2H48.64ZM55.84 47.2H54.4C53.248 47.2 52.96 46.912 52.96 45.76C52.96 44.608 53.248 44.32 54.4 44.32H55.84V47.2ZM55.84 44.32V47.2H58.72V44.32H55.84ZM58.72 44.32H60.16C61.312 44.32 61.6 44.608 61.6 45.76C61.6 46.912 61.312 47.2 60.16 47.2H58.72V44.32ZM64.48 45.76C64.48 46.912 64.192 47.2 63.04 47.2H64.48V45.76ZM64.48 47.2V45.76C64.48 44.608 64.768 44.32 65.92 44.32C67.072 44.32 67.36 44.608 67.36 45.76V47.2H64.48ZM76 44.32V45.76C76 46.912 75.712 47.2 74.56 47.2C73.408 47.2 73.12 46.912 73.12 45.76V44.32H76ZM8.32 47.2C9.472 47.2 9.76 47.488 9.76 48.64V47.2H8.32ZM12.64 47.2V48.64C12.64 49.792 12.352 50.08 11.2 50.08C10.048 50.08 9.76 49.792 9.76 48.64V47.2H12.64ZM28.48 47.2C29.632 47.2 29.92 47.488 29.92 48.64V47.2H28.48ZM32.8 50.08V47.2H29.92V48.64C29.92 49.792 30.208 50.08 31.36 50.08H32.8ZM32.8 47.2V50.08H35.68V47.2H32.8ZM38.56 48.64C38.56 49.792 38.272 50.08 37.12 50.08H38.56V48.64ZM37.12 50.08C35.968 50.08 35.68 49.792 35.68 48.64V50.08H37.12ZM38.56 50.08H41.44V47.2H40C38.848 47.2 38.56 47.488 38.56 48.64V50.08ZM41.44 47.2V50.08H44.32V47.2H41.44ZM44.32 47.2V50.08H47.2V47.2H44.32ZM47.2 47.2H48.64C49.792 47.2 50.08 47.488 50.08 48.64C50.08 49.792 49.792 50.08 48.64 50.08H47.2V47.2ZM61.6 48.64C61.6 49.792 61.312 50.08 60.16 50.08H61.6V48.64ZM61.6 50.08H64.48V47.2H63.04C61.888 47.2 61.6 47.488 61.6 48.64V50.08ZM64.48 47.2V50.08H67.36V47.2H64.48ZM6.88 51.52C6.88 50.368 7.168 50.08 8.32 50.08C9.472 50.08 9.76 50.368 9.76 51.52C9.76 52.672 9.472 52.96 8.32 52.96C7.168 52.96 6.88 52.672 6.88 51.52ZM15.52 52.96H14.08C12.928 52.96 12.64 52.672 12.64 51.52C12.64 50.368 12.928 50.08 14.08 50.08H15.52V52.96ZM15.52 50.08H16.96C18.112 50.08 18.4 50.368 18.4 51.52C18.4 52.672 18.112 52.96 16.96 52.96H15.52V50.08ZM21.28 51.52C21.28 50.368 21.568 50.08 22.72 50.08C23.872 50.08 24.16 50.368 24.16 51.52C24.16 52.672 23.872 52.96 22.72 52.96C21.568 52.96 21.28 52.672 21.28 51.52ZM27.04 52.96V51.52C27.04 50.368 27.328 50.08 28.48 50.08C29.632 50.08 29.92 50.368 29.92 51.52V52.96H27.04ZM31.36 50.08C32.512 50.08 32.8 50.368 32.8 51.52V50.08H31.36ZM31.36 52.96C30.208 52.96 29.92 52.672 29.92 51.52V52.96H31.36ZM35.68 52.96V50.08H32.8V51.52C32.8 52.672 33.088 52.96 34.24 52.96H35.68ZM35.68 50.08V52.96H38.56V50.08H35.68ZM38.56 50.08V52.96H41.44V50.08H38.56ZM41.44 50.08V52.96H44.32V50.08H41.44ZM44.32 50.08V52.96H47.2V50.08H44.32ZM47.2 51.52C47.2 50.368 47.488 50.08 48.64 50.08H47.2V51.52ZM50.08 52.96H52.96V50.08H51.52C50.368 50.08 50.08 50.368 50.08 51.52V52.96ZM52.96 50.08V52.96H55.84V50.08H52.96ZM55.84 50.08V52.96H58.72V50.08H55.84ZM58.72 50.08V52.96H61.6V50.08H58.72ZM61.6 50.08V52.96H64.48V50.08H61.6ZM64.48 50.08V52.96H67.36V50.08H64.48ZM68.8 52.96C67.648 52.96 67.36 52.672 67.36 51.52V52.96H68.8ZM73.12 52.96H71.68C70.528 52.96 70.24 52.672 70.24 51.52C70.24 50.368 70.528 50.08 71.68 50.08H73.12V52.96ZM73.12 50.08V52.96H76V51.52C76 50.368 75.712 50.08 74.56 50.08H73.12ZM27.04 52.96V55.84H29.92V52.96H27.04ZM29.92 52.96H31.36C32.512 52.96 32.8 53.248 32.8 54.4C32.8 55.552 32.512 55.84 31.36 55.84H29.92V52.96ZM34.24 52.96C35.392 52.96 35.68 53.248 35.68 54.4V52.96H34.24ZM38.56 55.84V52.96H35.68V54.4C35.68 55.552 35.968 55.84 37.12 55.84H38.56ZM38.56 52.96V55.84H41.44V52.96H38.56ZM41.44 54.4C41.44 53.248 41.728 52.96 42.88 52.96H41.44V54.4ZM42.88 52.96C44.032 52.96 44.32 53.248 44.32 54.4V52.96H42.88ZM47.2 52.96V54.4C47.2 55.552 46.912 55.84 45.76 55.84C44.608 55.84 44.32 55.552 44.32 54.4V52.96H47.2ZM50.08 52.96V55.84H52.96V52.96H50.08ZM52.96 54.4C52.96 53.248 53.248 52.96 54.4 52.96H52.96V54.4ZM60.16 52.96C61.312 52.96 61.6 53.248 61.6 54.4V52.96H60.16ZM61.6 52.96V55.84H64.48V52.96H61.6ZM64.48 52.96V55.84H67.36V52.96H64.48ZM67.36 52.96H68.8C69.952 52.96 70.24 53.248 70.24 54.4C70.24 55.552 69.952 55.84 68.8 55.84H67.36V52.96ZM71.68 52.96C72.832 52.96 73.12 53.248 73.12 54.4V52.96H71.68ZM76 52.96V54.4C76 55.552 75.712 55.84 74.56 55.84C73.408 55.84 73.12 55.552 73.12 54.4V52.96H76ZM29.92 55.84V57.28C29.92 58.432 29.632 58.72 28.48 58.72C27.328 58.72 27.04 58.432 27.04 57.28V55.84H29.92ZM29.92 57.28C29.92 56.128 30.208 55.84 31.36 55.84H29.92V57.28ZM32.8 57.28C32.8 56.128 33.088 55.84 34.24 55.84C35.392 55.84 35.68 56.128 35.68 57.28C35.68 58.432 35.392 58.72 34.24 58.72C33.088 58.72 32.8 58.432 32.8 57.28ZM37.12 55.84C38.272 55.84 38.56 56.128 38.56 57.28V55.84H37.12ZM41.44 55.84V57.28C41.44 58.432 41.152 58.72 40 58.72C38.848 58.72 38.56 58.432 38.56 57.28V55.84H41.44ZM50.08 55.84V58.72H52.96V55.84H50.08ZM55.84 57.28C55.84 56.128 56.128 55.84 57.28 55.84C58.432 55.84 58.72 56.128 58.72 57.28C58.72 58.432 58.432 58.72 57.28 58.72C56.128 58.72 55.84 58.432 55.84 57.28ZM61.6 55.84V58.72H64.48V55.84H61.6ZM64.48 55.84V58.72H67.36V55.84H64.48ZM67.36 57.28C67.36 56.128 67.648 55.84 68.8 55.84H67.36V57.28ZM70.24 57.28C70.24 58.432 69.952 58.72 68.8 58.72H70.24V57.28ZM68.8 58.72C67.648 58.72 67.36 58.432 67.36 57.28V58.72H68.8ZM70.24 58.72V57.28C70.24 56.128 70.528 55.84 71.68 55.84C72.832 55.84 73.12 56.128 73.12 57.28V58.72H70.24ZM29.92 61.6V60.16C29.92 59.008 30.208 58.72 31.36 58.72C32.512 58.72 32.8 59.008 32.8 60.16V61.6H29.92ZM34.24 61.6C33.088 61.6 32.8 61.312 32.8 60.16V61.6H34.24ZM44.32 61.6H42.88C41.728 61.6 41.44 61.312 41.44 60.16C41.44 59.008 41.728 58.72 42.88 58.72H44.32V61.6ZM44.32 58.72H45.76C46.912 58.72 47.2 59.008 47.2 60.16C47.2 61.312 46.912 61.6 45.76 61.6H44.32V58.72ZM50.08 60.16C50.08 61.312 49.792 61.6 48.64 61.6H50.08V60.16ZM50.08 58.72V61.6H52.96V58.72H50.08ZM54.4 61.6C53.248 61.6 52.96 61.312 52.96 60.16V61.6H54.4ZM61.6 60.16C61.6 61.312 61.312 61.6 60.16 61.6H61.6V60.16ZM61.6 58.72V61.6H64.48V58.72H61.6ZM64.48 58.72V61.6H67.36V58.72H64.48ZM67.36 58.72V61.6H70.24V58.72H67.36ZM70.24 58.72V61.6H73.12V58.72H70.24ZM29.92 63.04C29.92 64.192 29.632 64.48 28.48 64.48H29.92V63.04ZM29.92 61.6V64.48H32.8V61.6H29.92ZM32.8 61.6V64.48H35.68V63.04C35.68 61.888 35.392 61.6 34.24 61.6H32.8ZM37.12 64.48C35.968 64.48 35.68 64.192 35.68 63.04V64.48H37.12ZM50.08 64.48H48.64C47.488 64.48 47.2 64.192 47.2 63.04C47.2 61.888 47.488 61.6 48.64 61.6H50.08V64.48ZM50.08 61.6V64.48H52.96V61.6H50.08ZM52.96 61.6V64.48H55.84V61.6H52.96ZM55.84 61.6V64.48H58.72V61.6H55.84ZM58.72 61.6V64.48H61.6V61.6H58.72ZM61.6 61.6V64.48H64.48V61.6H61.6ZM64.48 63.04C64.48 61.888 64.768 61.6 65.92 61.6H64.48V63.04ZM65.92 64.48C64.768 64.48 64.48 64.192 64.48 63.04V64.48H65.92ZM68.8 61.6C69.952 61.6 70.24 61.888 70.24 63.04V61.6H68.8ZM73.12 61.6V63.04C73.12 64.192 72.832 64.48 71.68 64.48C70.528 64.48 70.24 64.192 70.24 63.04V61.6H73.12ZM27.04 67.36H29.92V64.48H28.48C27.328 64.48 27.04 64.768 27.04 65.92V67.36ZM29.92 64.48V67.36H32.8V64.48H29.92ZM32.8 64.48V67.36H35.68V64.48H32.8ZM35.68 64.48H37.12C38.272 64.48 38.56 64.768 38.56 65.92C38.56 67.072 38.272 67.36 37.12 67.36H35.68V64.48ZM44.32 65.92C44.32 64.768 44.608 64.48 45.76 64.48C46.912 64.48 47.2 64.768 47.2 65.92C47.2 67.072 46.912 67.36 45.76 67.36C44.608 67.36 44.32 67.072 44.32 65.92ZM54.4 64.48C55.552 64.48 55.84 64.768 55.84 65.92V64.48H54.4ZM58.72 64.48V65.92C58.72 67.072 58.432 67.36 57.28 67.36C56.128 67.36 55.84 67.072 55.84 65.92V64.48H58.72ZM58.72 65.92C58.72 64.768 59.008 64.48 60.16 64.48H58.72V65.92ZM60.16 64.48C61.312 64.48 61.6 64.768 61.6 65.92V64.48H60.16ZM61.6 64.48V67.36H64.48V64.48H61.6ZM64.48 64.48H65.92C67.072 64.48 67.36 64.768 67.36 65.92C67.36 67.072 67.072 67.36 65.92 67.36H64.48V64.48ZM73.12 65.92C73.12 64.768 73.408 64.48 74.56 64.48C75.712 64.48 76 64.768 76 65.92C76 67.072 75.712 67.36 74.56 67.36C73.408 67.36 73.12 67.072 73.12 65.92ZM27.04 67.36V70.24H29.92V67.36H27.04ZM29.92 67.36V70.24H32.8V67.36H29.92ZM32.8 68.8C32.8 67.648 33.088 67.36 34.24 67.36H32.8V68.8ZM34.24 70.24C33.088 70.24 32.8 69.952 32.8 68.8V70.24H34.24ZM50.08 70.24H48.64C47.488 70.24 47.2 69.952 47.2 68.8C47.2 67.648 47.488 67.36 48.64 67.36H50.08V70.24ZM50.08 67.36V70.24H52.96V67.36H50.08ZM52.96 67.36H54.4C55.552 67.36 55.84 67.648 55.84 68.8C55.84 69.952 55.552 70.24 54.4 70.24H52.96V67.36ZM61.6 67.36V70.24H64.48V67.36H61.6ZM64.48 68.8C64.48 67.648 64.768 67.36 65.92 67.36H64.48V68.8ZM65.92 70.24C64.768 70.24 64.48 69.952 64.48 68.8V70.24H65.92ZM67.36 68.8C67.36 67.648 67.648 67.36 68.8 67.36C69.952 67.36 70.24 67.648 70.24 68.8C70.24 69.952 69.952 70.24 68.8 70.24C67.648 70.24 67.36 69.952 67.36 68.8ZM29.92 73.12V70.24H27.04V71.68C27.04 72.832 27.328 73.12 28.48 73.12H29.92ZM29.92 70.24V73.12H32.8V70.24H29.92ZM32.8 70.24V73.12H35.68V71.68C35.68 70.528 35.392 70.24 34.24 70.24H32.8ZM37.12 73.12C35.968 73.12 35.68 72.832 35.68 71.68V73.12H37.12ZM44.32 73.12H42.88C41.728 73.12 41.44 72.832 41.44 71.68C41.44 70.528 41.728 70.24 42.88 70.24H44.32V73.12ZM44.32 70.24V73.12H47.2V71.68C47.2 70.528 46.912 70.24 45.76 70.24H44.32ZM48.64 73.12C47.488 73.12 47.2 72.832 47.2 71.68V73.12H48.64ZM61.6 70.24V73.12H64.48V70.24H61.6ZM64.48 70.24V73.12H67.36V71.68C67.36 70.528 67.072 70.24 65.92 70.24H64.48ZM68.8 73.12C67.648 73.12 67.36 72.832 67.36 71.68V73.12H68.8ZM31.36 73.12C32.512 73.12 32.8 73.408 32.8 74.56V73.12H31.36ZM35.68 76V73.12H32.8V74.56C32.8 75.712 33.088 76 34.24 76H35.68ZM35.68 73.12V76H38.56V73.12H35.68ZM38.56 73.12H40C41.152 73.12 41.44 73.408 41.44 74.56C41.44 75.712 41.152 76 40 76H38.56V73.12ZM42.88 73.12C44.032 73.12 44.32 73.408 44.32 74.56V73.12H42.88ZM47.2 76V73.12H44.32V74.56C44.32 75.712 44.608 76 45.76 76H47.2ZM47.2 73.12H48.64C49.792 73.12 50.08 73.408 50.08 74.56C50.08 75.712 49.792 76 48.64 76H47.2V73.12ZM55.84 74.56C55.84 73.408 56.128 73.12 57.28 73.12C58.432 73.12 58.72 73.408 58.72 74.56C58.72 75.712 58.432 76 57.28 76C56.128 76 55.84 75.712 55.84 74.56ZM64.48 76V73.12H61.6V74.56C61.6 75.712 61.888 76 63.04 76H64.48ZM64.48 73.12V76H67.36V73.12H64.48ZM67.36 73.12V76H70.24V73.12H67.36ZM70.24 73.12V76H73.12V73.12H70.24ZM73.12 73.12H74.56C75.712 73.12 76 73.408 76 74.56C76 75.712 75.712 76 74.56 76H73.12V73.12Z" fill="black"/>
<path d="M4 6.88H6.88V4H5.44C4.576 4 4 4.576 4 5.44V6.88ZM6.88 4V6.88H9.76V4H6.88ZM9.76 4V6.88H12.64V4H9.76ZM12.64 4V6.88H15.52V4H12.64ZM15.52 4V6.88H18.4V4H15.52ZM18.4 4V6.88H21.28V4H18.4ZM21.28 4V6.88H24.16V5.44C24.16 4.576 23.584 4 22.72 4H21.28ZM4 6.88V9.76H6.88V6.88H4ZM6.88 8.32C6.88 7.456 7.456 6.88 8.32 6.88H6.88V8.32ZM19.84 6.88C20.704 6.88 21.28 7.456 21.28 8.32V6.88H19.84ZM21.28 6.88V9.76H24.16V6.88H21.28ZM4 9.76V12.64H6.88V9.76H4ZM21.28 9.76V12.64H24.16V9.76H21.28ZM4 12.64V15.52H6.88V12.64H4ZM21.28 12.64V15.52H24.16V12.64H21.28ZM4 15.52V18.4H6.88V15.52H4ZM21.28 15.52V18.4H24.16V15.52H21.28ZM4 18.4V21.28H6.88V18.4H4ZM8.32 21.28C7.456 21.28 6.88 20.704 6.88 19.84V21.28H8.32ZM21.28 19.84C21.28 20.704 20.704 21.28 19.84 21.28H21.28V19.84ZM21.28 18.4V21.28H24.16V18.4H21.28ZM6.88 24.16V21.28H4V22.72C4 23.584 4.576 24.16 5.44 24.16H6.88ZM6.88 21.28V24.16H9.76V21.28H6.88ZM9.76 21.28V24.16H12.64V21.28H9.76ZM12.64 21.28V24.16H15.52V21.28H12.64ZM15.52 21.28V24.16H18.4V21.28H15.52ZM18.4 21.28V24.16H21.28V21.28H18.4ZM24.16 21.28H21.28V24.16H22.72C23.584 24.16 24.16 23.584 24.16 22.72V21.28Z" fill="black"/>
<path d="M4 58.7198H6.88V55.8398H5.44C4.576 55.8398 4 56.4158 4 57.2798V58.7198ZM6.88 55.8398V58.7198H9.76V55.8398H6.88ZM9.76 55.8398V58.7198H12.64V55.8398H9.76ZM12.64 55.8398V58.7198H15.52V55.8398H12.64ZM15.52 55.8398V58.7198H18.4V55.8398H15.52ZM18.4 55.8398V58.7198H21.28V55.8398H18.4ZM21.28 55.8398V58.7198H24.16V57.2798C24.16 56.4158 23.584 55.8398 22.72 55.8398H21.28ZM4 58.7198V61.5998H6.88V58.7198H4ZM6.88 60.1598C6.88 59.2958 7.456 58.7198 8.32 58.7198H6.88V60.1598ZM19.84 58.7198C20.704 58.7198 21.28 59.2958 21.28 60.1598V58.7198H19.84ZM21.28 58.7198V61.5998H24.16V58.7198H21.28ZM4 61.5998V64.4798H6.88V61.5998H4ZM21.28 61.5998V64.4798H24.16V61.5998H21.28ZM4 64.4798V67.3598H6.88V64.4798H4ZM21.28 64.4798V67.3598H24.16V64.4798H21.28ZM4 67.3598V70.2398H6.88V67.3598H4ZM21.28 67.3598V70.2398H24.16V67.3598H21.28ZM4 70.2398V73.1198H6.88V70.2398H4ZM8.32 73.1198C7.456 73.1198 6.88 72.5438 6.88 71.6798V73.1198H8.32ZM21.28 71.6798C21.28 72.5438 20.704 73.1198 19.84 73.1198H21.28V71.6798ZM21.28 70.2398V73.1198H24.16V70.2398H21.28ZM6.88 75.9998V73.1198H4V74.5598C4 75.4238 4.576 75.9998 5.44 75.9998H6.88ZM6.88 73.1198V75.9998H9.76V73.1198H6.88ZM9.76 73.1198V75.9998H12.64V73.1198H9.76ZM12.64 73.1198V75.9998H15.52V73.1198H12.64ZM15.52 73.1198V75.9998H18.4V73.1198H15.52ZM18.4 73.1198V75.9998H21.28V73.1198H18.4ZM24.16 73.1198H21.28V75.9998H22.72C23.584 75.9998 24.16 75.4238 24.16 74.5598V73.1198Z" fill="black"/>
<path d="M55.84 6.88H58.72V4H57.28C56.416 4 55.84 4.576 55.84 5.44V6.88ZM58.72 4V6.88H61.6V4H58.72ZM61.6 4V6.88H64.48V4H61.6ZM64.48 4V6.88H67.36V4H64.48ZM67.36 4V6.88H70.24V4H67.36ZM70.24 4V6.88H73.12V4H70.24ZM73.12 4V6.88H76V5.44C76 4.576 75.424 4 74.56 4H73.12ZM55.84 6.88V9.76H58.72V6.88H55.84ZM58.72 8.32C58.72 7.456 59.296 6.88 60.16 6.88H58.72V8.32ZM71.68 6.88C72.544 6.88 73.12 7.456 73.12 8.32V6.88H71.68ZM73.12 6.88V9.76H76V6.88H73.12ZM55.84 9.76V12.64H58.72V9.76H55.84ZM73.12 9.76V12.64H76V9.76H73.12ZM55.84 12.64V15.52H58.72V12.64H55.84ZM73.12 12.64V15.52H76V12.64H73.12ZM55.84 15.52V18.4H58.72V15.52H55.84ZM73.12 15.52V18.4H76V15.52H73.12ZM55.84 18.4V21.28H58.72V18.4H55.84ZM60.16 21.28C59.296 21.28 58.72 20.704 58.72 19.84V21.28H60.16ZM73.12 19.84C73.12 20.704 72.544 21.28 71.68 21.28H73.12V19.84ZM73.12 18.4V21.28H76V18.4H73.12ZM58.72 24.16V21.28H55.84V22.72C55.84 23.584 56.416 24.16 57.28 24.16H58.72ZM58.72 21.28V24.16H61.6V21.28H58.72ZM61.6 21.28V24.16H64.48V21.28H61.6ZM64.48 21.28V24.16H67.36V21.28H64.48ZM67.36 21.28V24.16H70.24V21.28H67.36ZM70.24 21.28V24.16H73.12V21.28H70.24ZM76 21.28H73.12V24.16H74.56C75.424 24.16 76 23.584 76 22.72V21.28Z" fill="black"/>
<path d="M9.76001 12.6398H12.64V9.75977H11.2C10.336 9.75977 9.76001 10.3358 9.76001 11.1998V12.6398ZM12.64 9.75977V12.6398H15.52V9.75977H12.64ZM15.52 9.75977V12.6398H18.4V11.1998C18.4 10.3358 17.824 9.75977 16.96 9.75977H15.52ZM9.76001 12.6398V15.5198H12.64V12.6398H9.76001ZM12.64 12.6398V15.5198H15.52V12.6398H12.64ZM15.52 12.6398V15.5198H18.4V12.6398H15.52ZM12.64 18.3998V15.5198H9.76001V16.9598C9.76001 17.8238 10.336 18.3998 11.2 18.3998H12.64ZM12.64 15.5198V18.3998H15.52V15.5198H12.64ZM18.4 15.5198H15.52V18.3998H16.96C17.824 18.3998 18.4 17.8238 18.4 16.9598V15.5198Z" fill="black"/>
<path d="M9.76001 64.4801H12.64V61.6001H11.2C10.336 61.6001 9.76001 62.1761 9.76001 63.0401V64.4801ZM12.64 61.6001V64.4801H15.52V61.6001H12.64ZM15.52 61.6001V64.4801H18.4V63.0401C18.4 62.1761 17.824 61.6001 16.96 61.6001H15.52ZM9.76001 64.4801V67.3601H12.64V64.4801H9.76001ZM12.64 64.4801V67.3601H15.52V64.4801H12.64ZM15.52 64.4801V67.3601H18.4V64.4801H15.52ZM12.64 70.2401V67.3601H9.76001V68.8001C9.76001 69.6641 10.336 70.2401 11.2 70.2401H12.64ZM12.64 67.3601V70.2401H15.52V67.3601H12.64ZM18.4 67.3601H15.52V70.2401H16.96C17.824 70.2401 18.4 69.6641 18.4 68.8001V67.3601Z" fill="black"/>
<path d="M61.6 12.6398H64.48V9.75977H63.04C62.176 9.75977 61.6 10.3358 61.6 11.1998V12.6398ZM64.48 9.75977V12.6398H67.36V9.75977H64.48ZM67.36 9.75977V12.6398H70.24V11.1998C70.24 10.3358 69.664 9.75977 68.8 9.75977H67.36ZM61.6 12.6398V15.5198H64.48V12.6398H61.6ZM64.48 12.6398V15.5198H67.36V12.6398H64.48ZM67.36 12.6398V15.5198H70.24V12.6398H67.36ZM64.48 18.3998V15.5198H61.6V16.9598C61.6 17.8238 62.176 18.3998 63.04 18.3998H64.48ZM64.48 15.5198V18.3998H67.36V15.5198H64.48ZM70.24 15.5198H67.36V18.3998H68.8C69.664 18.3998 70.24 17.8238 70.24 16.9598V15.5198Z" fill="black"/>
</svg>
