<svg width="400" height="280" viewBox="0 0 400 280" fill="none" xmlns="http://www.w3.org/2000/svg">
<path d="M297.579 256.602C331.436 204.348 328.17 151.985 304.002 133.478C289.524 122.374 265.247 122.156 246.958 129.233C208.638 144.147 205.373 188.345 183.709 187.801C162.807 187.256 157.037 145.562 135.265 145.562C119.262 145.562 105.981 168.206 101.517 183.555C90.9577 219.698 113.166 255.514 117.956 255.078C175.871 250.941 239.447 249.417 298.015 255.84" fill="#EBF3FE"/>
<path d="M130.366 129.886C135.156 142.405 147.131 145.78 150.397 153.509C161.392 165.593 168.577 187.365 183.709 187.801C205.263 188.345 208.638 144.256 246.958 129.233C265.247 122.048 289.523 122.374 304.002 133.478C312.493 140.01 318.481 150.787 321.094 164.178C317.501 145.344 316.304 122.048 308.357 97.3358C293.769 52.0488 264.049 2.29849 246.958 6.21755C230.629 10.0278 241.624 59.2338 207.114 83.5102C202.433 86.7761 186.866 97.7712 170.863 93.7433C159.323 90.9129 156.82 82.5304 149.417 83.5102C136.68 85.0343 123.29 111.488 130.366 129.886Z" fill="#EBF3FE"/>
<path d="M84.8612 263.243C84.8612 269.775 136.462 275 200.147 275C263.832 275 315.433 269.775 315.433 263.243C315.433 256.711 263.832 251.486 200.147 251.486C136.462 251.486 84.8612 256.82 84.8612 263.243Z" fill="#393E46"/>
<path d="M161.501 169.947C160.847 170.383 160.194 170.709 159.541 171.036C159.215 171.145 158.888 171.363 158.561 171.471C156.166 172.451 153.445 173.322 152.03 175.499C150.614 177.785 151.268 181.051 153.118 183.011C153.663 183.555 154.207 183.991 154.86 184.426C156.493 185.406 158.561 185.841 160.521 185.732C160.847 185.732 161.174 185.732 161.501 185.624V169.947Z" fill="#FFBDAD"/>
<path d="M161.501 143.167C160.521 143.603 159.541 144.147 158.67 144.909C155.513 147.195 153.227 150.679 152.901 154.489C152.792 156.122 153.009 157.755 153.663 159.17C153.663 159.279 153.771 159.388 153.88 159.496C154.098 159.823 154.316 160.15 154.642 160.476C155.731 161.783 157.473 162.762 159.215 162.654C159.977 162.545 160.848 162.436 161.61 162.218V143.167H161.501Z" fill="#FFBDAD"/>
<path d="M161.501 120.197C160.63 120.85 159.65 121.394 158.779 121.939C158.235 122.265 157.691 122.592 157.255 122.919C154.969 124.443 153.445 125.967 152.574 128.688C152.03 130.539 152.139 132.607 152.901 134.458C153.009 134.676 153.118 135.002 153.336 135.22C155.078 138.159 158.235 139.357 161.61 139.575V120.197H161.501Z" fill="#FFBDAD"/>
<path d="M230.991 29.7937H173.227C164.333 29.7937 161.065 33.0603 161.065 41.9512V184.403C161.065 193.294 164.333 196.561 173.227 196.561H230.991C239.885 196.561 243.153 193.294 243.153 184.403V41.9512C243.153 33.0603 239.885 29.7937 230.991 29.7937Z" fill="#21252C"/>
<path d="M233.512 34.0103H214.175C212.621 34.0076 211.092 34.4016 209.732 35.155C208.373 35.9085 207.229 36.9964 206.409 38.3157C205.957 38.9801 205.349 39.524 204.639 39.8999C203.928 40.2758 203.137 40.4723 202.333 40.4723C201.529 40.4723 200.738 40.2758 200.028 39.8999C199.317 39.524 198.71 38.9801 198.258 38.3157C197.44 36.9959 196.298 35.9073 194.94 35.1537C193.583 34.4001 192.054 34.0064 190.501 34.0103H171.155C169.696 34.0103 168.297 34.5895 167.266 35.6205C166.235 36.6515 165.655 38.0498 165.655 39.5078V186.837C165.655 188.295 166.235 189.693 167.266 190.724C168.297 191.755 169.696 192.334 171.155 192.334H233.512C234.235 192.335 234.951 192.194 235.619 191.918C236.288 191.643 236.895 191.238 237.407 190.727C237.918 190.217 238.324 189.61 238.601 188.943C238.878 188.275 239.021 187.559 239.021 186.837V39.5078C239.021 38.785 238.878 38.0694 238.601 37.4017C238.324 36.7341 237.918 36.1276 237.407 35.617C236.895 35.1064 236.288 34.7017 235.619 34.426C234.951 34.1503 234.235 34.009 233.512 34.0103V34.0103Z" fill="white"/>
<path d="M170.863 148.61C170.863 146.807 172.433 145.344 174.371 145.344H230.496C232.433 145.344 234.003 146.807 234.003 148.61V157.319C234.003 159.123 232.433 160.585 230.496 160.585H174.371C172.433 160.585 170.863 159.123 170.863 157.319V148.61Z" fill="#03949A"/>
<g opacity="0.2">
<path fill-rule="evenodd" clip-rule="evenodd" d="M221.191 61.6453C221.191 61.1949 221.556 60.8298 222.007 60.8298H234.276C234.726 60.8298 235.092 61.1949 235.092 61.6453V73.7237C235.092 74.1741 234.726 74.5393 234.276 74.5393C233.825 74.5393 233.459 74.1741 233.459 73.7237V62.4609H222.007C221.556 62.4609 221.191 62.0958 221.191 61.6453Z" fill="black"/>
<path fill-rule="evenodd" clip-rule="evenodd" d="M169.774 61.7405C169.774 61.29 170.14 60.9249 170.591 60.9249H182.859C183.31 60.9249 183.675 61.29 183.675 61.7405C183.675 62.1909 183.31 62.556 182.859 62.556H171.407V73.8189C171.407 74.2693 171.041 74.6344 170.591 74.6344C170.14 74.6344 169.774 74.2693 169.774 73.8189V61.7405Z" fill="black"/>
<path fill-rule="evenodd" clip-rule="evenodd" d="M170.591 118.326C171.041 118.326 171.407 118.692 171.407 119.142V130.405H182.859C183.31 130.405 183.675 130.77 183.675 131.22C183.675 131.671 183.31 132.036 182.859 132.036H170.591C170.14 132.036 169.774 131.671 169.774 131.22V119.142C169.774 118.692 170.14 118.326 170.591 118.326Z" fill="black"/>
<path fill-rule="evenodd" clip-rule="evenodd" d="M234.276 118.326C234.726 118.326 235.092 118.692 235.092 119.142V131.22C235.092 131.671 234.726 132.036 234.276 132.036H222.007C221.556 132.036 221.191 131.671 221.191 131.22C221.191 130.77 221.556 130.405 222.007 130.405H233.459V119.142C233.459 118.692 233.825 118.326 234.276 118.326Z" fill="black"/>
</g>
<path d="M193.757 89.6597V87.7758H191.871V89.6597H193.757Z" fill="black"/>
<path d="M199.576 89.6597V87.7758H197.69V89.6597H199.576Z" fill="black"/>
<path d="M201.512 87.7839V85.8429H199.577V87.7839H201.512Z" fill="black"/>
<path d="M199.576 85.8347V81.9608H197.69V85.8347H199.576Z" fill="black"/>
<path d="M193.766 83.8692V87.7757H195.75V83.8692H193.766Z" fill="black"/>
<path d="M201.503 83.8774V81.9201H195.741V83.8774H201.503Z" fill="black"/>
<path d="M201.503 83.8692V89.676H203.405V83.8692H201.503Z" fill="black"/>
<path d="M193.773 79.9953V81.9119H195.732V79.9953H193.773Z" fill="black"/>
<path d="M205.356 80.0035V74.2131H203.446V80.0035H205.356Z" fill="black"/>
<path d="M211.176 85.8184V81.9363H209.266V85.8184H211.176Z" fill="black"/>
<path d="M207.323 85.8184V80.0035H205.364V85.8184H207.323Z" fill="black"/>
<path d="M209.233 76.1786V72.3536H207.323V76.1786H209.233Z" fill="black"/>
<path d="M205.347 76.1785V74.2131H199.65V76.1785H205.347Z" fill="black"/>
<path d="M197.7 76.1867V74.2212H193.798V76.1867H197.7Z" fill="black"/>
<path d="M197.684 76.1867V72.3372H195.758V76.1867H197.684Z" fill="black"/>
<path d="M207.291 76.1866V78.0869H209.225V76.1866H207.291Z" fill="black"/>
<path d="M207.315 74.2783V76.1785H211.185V74.2783H207.315Z" fill="black"/>
<path d="M207.315 78.0869V80.0035H211.185V78.0869H207.315Z" fill="black"/>
<path d="M195.741 78.0951V80.0117H197.7V78.0951H195.741Z" fill="black"/>
<path d="M197.7 76.1785V78.095H199.659V76.1785H197.7Z" fill="black"/>
<path d="M201.528 72.3128V74.2293H203.487V72.3128H201.528Z" fill="black"/>
<path d="M187.969 87.7512V93.5091H189.945V87.7512H187.969Z" fill="black"/>
<path d="M199.586 80.0035V81.92H203.439V80.0035H199.586Z" fill="black"/>
<path d="M180.199 72.3318H178.273V85.8211H180.199V72.3318Z" fill="black"/>
<path d="M191.773 72.3291H189.847V85.8184H191.773V72.3291Z" fill="black"/>
<path d="M191.774 74.2539V72.3291H178.273V74.2539H191.774Z" fill="black"/>
<path d="M191.774 85.8184V83.8936H178.273V85.8184H191.774Z" fill="black"/>
<path d="M187.921 76.1214H182.101V81.9363H187.921V76.1214Z" fill="black"/>
<path d="M214.922 72.3291H212.995V85.8184H214.922V72.3291Z" fill="black"/>
<path d="M226.497 72.3291H224.571V85.8184H226.497V72.3291Z" fill="black"/>
<path d="M226.497 74.2539V72.3291H212.996V74.2539H226.497Z" fill="black"/>
<path d="M226.497 85.8184V83.8937H212.996V85.8184H226.497Z" fill="black"/>
<path d="M222.637 76.1214H216.817V81.9363H222.637V76.1214Z" fill="black"/>
<path d="M224.67 105.098H226.596V99.5605H224.67V105.098Z" fill="black"/>
<path d="M222.742 93.5661H224.669V87.7186H222.742V93.5661Z" fill="black"/>
<path d="M222.751 97.4726H224.677V91.6251H222.751V97.4726Z" fill="black"/>
<path d="M226.596 89.6434V87.7187H216.956V89.6434H226.596Z" fill="black"/>
<path d="M215.022 89.6434V87.7187H205.382V89.6434H215.022Z" fill="black"/>
<path d="M213.086 91.5599V89.6352H207.25V91.5599H213.086Z" fill="black"/>
<path d="M211.135 93.4927V91.5681H207.257V93.4927H211.135Z" fill="black"/>
<path d="M218.899 105.066V91.5681H216.981V105.066H218.899Z" fill="black"/>
<path d="M218.899 93.5172V91.5681H213.055V93.5172H218.899Z" fill="black"/>
<path d="M222.759 105.066V103.255H216.971V105.066H222.759Z" fill="black"/>
<path d="M218.874 101.208V99.3974H205.373V101.208H218.874Z" fill="black"/>
<path d="M201.512 101.2V99.324H191.848V101.2H201.512Z" fill="black"/>
<path d="M189.912 101.2V99.324H184.125V101.2H189.912Z" fill="black"/>
<path d="M189.912 101.208V97.1873H187.969V101.208H189.912Z" fill="black"/>
<path d="M186.035 103.1V97.1873H184.092V103.1H186.035Z" fill="black"/>
<path d="M220.767 103.1V108.956H222.636V103.1H220.767Z" fill="black"/>
<path d="M220.767 112.805V114.754H226.505V112.805H220.767Z" fill="black"/>
<path d="M180.265 103.1V99.2833H178.322V103.1H180.265Z" fill="black"/>
<path d="M226.539 120.561V110.889H224.596V120.561H226.539Z" fill="black"/>
<path d="M216.875 116.736V110.88H214.932V116.736H216.875Z" fill="black"/>
<path d="M182.199 101.241V95.4338H180.256V101.241H182.199Z" fill="black"/>
<path d="M187.978 101.208V103.116H191.847V101.208H187.978Z" fill="black"/>
<path d="M215.004 97.228V95.4175H207.283V97.228H215.004Z" fill="black"/>
<path d="M193.798 97.228V95.4175H189.905V97.228H193.798Z" fill="black"/>
<path d="M182.167 97.228V95.4175H178.273V97.228H182.167Z" fill="black"/>
<path d="M184.118 98.9896V97.1791H180.265V98.9896H184.118Z" fill="black"/>
<path d="M207.282 101.208V97.2199H205.372V101.208H207.282Z" fill="black"/>
<path d="M203.397 91.6007V97.2117H205.373V91.6007H203.397Z" fill="black"/>
<path d="M195.699 91.6088V97.2199H197.675V91.6088H195.699Z" fill="black"/>
<path d="M189.88 93.4764V97.2117H191.855V93.4764H189.88Z" fill="black"/>
<path d="M186.027 93.4846V97.2199H188.002V93.4846H186.027Z" fill="black"/>
<path d="M186.027 93.4846V91.6007H184.141V93.4846H186.027Z" fill="black"/>
<path d="M178.322 87.7512V93.5091H180.297V87.7512H178.322Z" fill="black"/>
<path d="M182.199 97.383V91.6007H180.264V97.383H182.199Z" fill="black"/>
<path d="M203.397 99.3322V97.2117H197.659V99.3322H203.397Z" fill="black"/>
<path d="M195.699 99.3322V97.2117H193.781V99.3322H195.699Z" fill="black"/>
<path d="M201.544 91.6088V93.4846H205.364V91.6088H201.544Z" fill="black"/>
<path d="M199.667 101.208V103.084H203.487V101.208H199.667Z" fill="black"/>
<path d="M218.841 105.049V103.084H205.21V105.049H218.841Z" fill="black"/>
<path d="M218.841 105.049V112.854H220.776V105.049H218.841Z" fill="black"/>
<path d="M209.16 105.049V112.854H211.094V105.049H209.16Z" fill="black"/>
<path d="M216.898 105.049V112.854H218.833V105.049H216.898Z" fill="black"/>
<path d="M207.209 110.88V112.854H218.84V110.88H207.209Z" fill="black"/>
<path d="M191.847 91.617V93.4928H197.635V91.617H191.847Z" fill="black"/>
<path d="M211.135 101.208V95.4175H209.225V101.208H211.135Z" fill="black"/>
<path d="M220.8 103.271V101.461H216.98V103.271H220.8Z" fill="black"/>
<path d="M218.89 95.4175V93.4928H214.989V95.4175H218.89Z" fill="black"/>
<path d="M209.218 95.4175V93.4928H203.398V95.4175H209.218Z" fill="black"/>
<path d="M199.594 95.4093V93.4846H193.774V95.4093H199.594Z" fill="black"/>
<path d="M226.596 93.5744V91.6496H220.833V93.5744H226.596Z" fill="black"/>
<path d="M214.923 108.948V107.064H213.038V108.948H214.923Z" fill="black"/>
<path d="M220.752 116.728V114.844H218.866V116.728H220.752Z" fill="black"/>
<path d="M195.732 120.512V107.015H193.814V120.512H195.732Z" fill="black"/>
<path d="M215.037 105.066V103.255H209.25V105.066H215.037Z" fill="black"/>
<path d="M201.487 105.057V110.88H205.43V105.057H201.487Z" fill="black"/>
<path d="M203.487 110.889V103.255H201.487V110.889H203.487Z" fill="black"/>
<path d="M203.478 108.972V107.015H197.667V108.972H203.478Z" fill="black"/>
<path d="M220.775 107.007V108.956H226.514V107.007H220.775Z" fill="black"/>
<path d="M224.603 120.561V118.604H214.938V120.561H224.603Z" fill="black"/>
<path d="M214.939 116.744V118.604H220.75V116.744H214.939Z" fill="black"/>
<path d="M195.716 116.736V118.596H199.569V116.736H195.716Z" fill="black"/>
<path d="M205.316 116.736V114.82H199.537V116.736H205.316Z" fill="black"/>
<path d="M201.512 101.208V105.066H203.487V101.208H201.512Z" fill="black"/>
<path d="M199.586 114.82V112.854H193.831V114.82H199.586Z" fill="black"/>
<path d="M207.34 120.537V110.88H205.43V120.537H207.34Z" fill="black"/>
<path d="M207.332 118.612V116.663H201.52V118.612H207.332Z" fill="black"/>
<path d="M203.405 120.545V114.738H201.495V120.545H203.405Z" fill="black"/>
<path d="M180.199 107.064H178.272V120.553H180.199V107.064Z" fill="black"/>
<path d="M191.773 107.064H189.847V120.553H191.773V107.064Z" fill="black"/>
<path d="M191.782 108.988V107.064H178.281V108.988H191.782Z" fill="black"/>
<path d="M191.782 120.553V118.628H178.281V120.553H191.782Z" fill="black"/>
<path d="M187.921 110.856H182.101V116.671H187.921V110.856Z" fill="black"/>
<path d="M203.397 116.744V118.604H207.25V116.744H203.397Z" fill="black"/>
<path d="M205.365 116.744V120.537H207.234V116.744H205.365Z" fill="black"/>
<path d="M195.725 110.889V109.005H193.839V110.889H195.725Z" fill="black"/>
<path opacity="0.22" d="M226.586 91.095H178.321V122.062H226.586V91.095Z" fill="#B4E1E8"/>
<path d="M228.219 90.1816H176.688V91.0869H228.219V90.1816Z" fill="#C32127"/>
<path d="M216.484 41.5373L187.735 41.5373C186.167 41.5373 184.662 40.9145 183.553 39.8059C182.444 38.6973 181.821 37.1938 181.821 35.626V32.6703L222.358 32.6703V35.626C222.358 37.1938 221.735 38.6973 220.626 39.8059C219.517 40.9145 218.013 41.5373 216.444 41.5373H216.484Z" fill="#21252C"/>
<path d="M245.434 186.821C244.672 186.821 244.019 186.821 243.257 186.93" stroke="#C1C5C6" stroke-miterlimit="10" stroke-linecap="round"/>
<path d="M194.486 196.292C194.486 196.292 199.494 206.743 204.501 212.839C204.501 212.839 215.17 253.119 251.53 254.098L233.894 193.462L194.486 196.292Z" fill="#F6958E"/>
<path d="M194.377 196.292C194.377 196.292 199.385 206.743 204.393 212.839C204.393 212.839 214.408 250.506 248.047 253.881C249.135 253.989 250.333 254.098 251.421 254.098L238.358 208.92L233.894 193.462L194.377 196.292Z" fill="#FFBDAD"/>
<path opacity="0.7" d="M216.694 224.379C216.694 224.379 214.408 228.407 213.755 230.693C213.755 230.584 214.517 228.951 217.239 227.318C217.239 227.318 221.158 240.708 229.54 245.172C234.221 247.675 242.059 251.268 248.047 253.881C249.135 253.989 250.333 254.098 251.421 254.098L238.358 208.92L218.436 204.239C218.436 204.239 208.638 205.545 204.828 211.86C204.937 211.751 208.529 208.376 214.626 208.485C214.735 208.376 214.299 219.589 216.694 224.379Z" fill="#F6958E"/>
<path d="M288.979 271.081C288.979 271.081 268.505 272.621 257.409 273.258C246.313 273.896 232.153 274.347 232.153 274.347L227.472 245.172L227.036 242.341L226.927 241.47L246.958 237.116L270.908 231.89C271.996 232.217 284.842 251.486 284.842 251.486L288.979 271.081Z" fill="#FFBDAD"/>
<path opacity="0.1" d="M186.539 162.762C187.083 161.347 187.845 160.041 188.825 158.843C190.023 157.428 191.873 156.231 193.724 156.448C194.921 156.557 195.901 157.21 196.772 158.081C199.276 160.367 200.473 163.742 202.215 166.681C204.61 170.818 208.094 174.193 212.231 176.588C213.972 177.568 215.932 178.439 217.565 179.527C219.307 180.616 220.831 182.031 221.702 183.991C222.464 185.841 222.464 187.801 222.355 189.76C222.246 194.115 222.137 198.469 222.028 202.824C222.028 203.042 222.028 203.259 222.028 203.477C222.028 204.021 222.028 204.566 222.028 205.11C222.028 205.219 222.028 205.437 222.028 205.545C222.028 205.872 222.028 206.308 221.919 206.743H217.674H214.843H212.34C212.013 201.082 213.646 193.026 213.646 193.026C210.053 190.631 203.631 182.467 203.631 182.467C182.838 175.935 186.321 163.416 186.539 162.762Z" fill="#A9C8C8"/>
<path d="M205.59 178.765L216.476 191.284C216.476 191.284 212.775 224.814 226.927 242.45C241.079 260.195 280.705 253.663 280.705 253.663L284.842 252.465C284.842 252.465 277.44 223.943 274.827 199.993C272.214 176.044 270.255 158.843 263.832 147.522C258.606 138.486 248.482 125.531 244.672 120.85C243.692 119.653 243.148 119 243.148 119V162.654L243.039 167.117L239.773 171.036L238.902 172.016L237.596 173.54C237.596 173.54 223.661 159.496 216.803 157.319C209.836 155.142 204.828 157.755 196.228 154.924C187.628 152.312 179.463 171.798 205.59 178.765Z" fill="#FFBDAD"/>
<path opacity="0.5" d="M260.348 191.393C251.857 186.712 237.596 173.758 237.596 173.758L239.773 171.145L243.039 167.226L243.148 162.762V119.217C243.148 119.217 243.692 119.87 244.672 121.068V140.99C246.523 135.22 251.966 134.893 251.966 134.893C245.652 137.724 244.672 144.038 244.672 144.038V165.266C249.027 162.98 260.457 162.436 260.457 162.436C260.457 162.436 249.462 164.831 245.978 167.226C243.583 168.968 242.386 172.016 241.842 173.758C248.918 182.467 260.131 191.176 260.348 191.393Z" fill="#F6958E"/>
<path d="M317.721 123.024C310.911 120.734 307.28 113.427 309.57 106.617C311.859 99.8062 319.167 96.1757 325.977 98.4652C332.788 100.755 336.418 108.062 334.128 114.873C331.839 121.683 324.531 125.313 317.721 123.024Z" fill="#00ADB5"/>
<path d="M317.494 117.55L320.486 118.556L323.019 111.023L325.083 111.717L326.121 109.31L323.851 108.546C323.851 108.546 324.164 107.618 324.337 107.102C324.545 106.483 324.718 106.311 325.337 106.519C325.75 106.658 326.988 107.074 326.988 107.074L327.855 104.494C327.855 104.494 326.101 103.905 325.791 103.801C323.521 103.038 322.246 103.757 321.621 105.615C321.066 107.266 320.962 107.575 320.962 107.575L319.414 107.055L318.547 109.635L320.095 110.155L317.597 117.584L317.494 117.55Z" fill="white"/>
<path fill-rule="evenodd" clip-rule="evenodd" d="M308.771 117.405C308.913 117.723 308.77 118.096 308.452 118.237L305.927 119.361C305.608 119.503 305.235 119.36 305.093 119.041C304.951 118.723 305.094 118.35 305.413 118.208L307.938 117.084C308.256 116.943 308.629 117.086 308.771 117.405ZM301.196 120.776C301.337 121.094 301.194 121.467 300.876 121.609L295.826 123.856C295.507 123.998 295.134 123.854 294.993 123.536C294.851 123.217 294.994 122.845 295.312 122.703L300.362 120.456C300.681 120.314 301.054 120.457 301.196 120.776ZM291.095 125.27C291.237 125.589 291.094 125.962 290.775 126.103L285.725 128.351C285.407 128.492 285.034 128.349 284.892 128.031C284.75 127.712 284.893 127.339 285.211 127.198L290.261 124.95C290.58 124.809 290.953 124.952 291.095 125.27ZM280.994 129.765C281.136 130.084 280.993 130.457 280.675 130.598L275.624 132.846C275.306 132.987 274.933 132.844 274.791 132.525C274.649 132.207 274.792 131.834 275.11 131.692L280.161 129.445C280.479 129.303 280.852 129.447 280.994 129.765ZM270.893 134.26C271.035 134.578 270.892 134.951 270.574 135.093L268.048 136.217C267.73 136.358 267.357 136.215 267.215 135.897C267.073 135.578 267.216 135.205 267.535 135.064L270.06 133.94C270.378 133.798 270.751 133.942 270.893 134.26Z" fill="#12C7D0"/>
<path fill-rule="evenodd" clip-rule="evenodd" d="M140.824 193.493C140.896 193.834 140.678 194.169 140.338 194.241L137.633 194.814C137.293 194.886 136.958 194.668 136.885 194.327C136.813 193.986 137.031 193.651 137.371 193.579L140.075 193.006C140.416 192.934 140.751 193.152 140.824 193.493ZM132.711 195.21C132.784 195.551 132.566 195.886 132.225 195.958L126.817 197.103C126.477 197.175 126.142 196.957 126.069 196.616C125.997 196.275 126.215 195.941 126.555 195.868L131.963 194.724C132.304 194.651 132.639 194.869 132.711 195.21ZM121.895 197.5C121.968 197.841 121.75 198.176 121.409 198.248L116.001 199.393C115.661 199.465 115.326 199.247 115.253 198.906C115.181 198.565 115.398 198.23 115.739 198.158L121.147 197.013C121.488 196.941 121.823 197.159 121.895 197.5ZM111.079 199.79C111.152 200.131 110.934 200.466 110.593 200.538L105.185 201.683C104.844 201.755 104.51 201.537 104.437 201.196C104.365 200.855 104.582 200.52 104.923 200.448L110.331 199.303C110.672 199.231 111.007 199.449 111.079 199.79ZM100.263 202.079C100.336 202.42 100.118 202.755 99.7772 202.827L97.0732 203.4C96.7324 203.472 96.3975 203.254 96.3251 202.913C96.2527 202.572 96.4703 202.237 96.8111 202.165L99.5151 201.593C99.8559 201.52 100.191 201.738 100.263 202.079Z" fill="#12C7D0"/>
<path d="M80.8879 218.834C73.9203 220.588 66.9166 216.401 65.1626 209.434C63.4085 202.466 67.5952 195.463 74.5627 193.709C81.5303 191.954 88.534 196.141 90.288 203.109C92.042 210.076 87.8554 217.08 80.8879 218.834Z" fill="#00ADB5"/>
<path d="M83.9473 200.664C83.4726 201.008 82.9713 201.246 82.47 201.485C82.9181 201.035 83.2075 200.401 83.2592 199.714C82.8111 200.164 82.3364 200.508 81.7296 200.773C81.0688 200.378 80.3557 200.221 79.5111 200.433C78.0332 200.805 77.0853 202.391 77.4573 203.869C77.5105 204.08 77.5636 204.291 77.7224 204.476C75.4788 204.928 73.2073 204.378 71.4096 203.034C71.3048 203.509 71.2 203.985 71.3329 204.513C71.572 205.463 72.3125 206.175 73.0522 206.437C72.6299 206.544 72.1811 206.544 71.7057 206.44C72.0246 207.706 73.267 208.628 74.587 208.521C74.4025 208.679 74.1913 208.733 73.8746 208.812C73.6635 208.865 73.5579 208.892 73.3468 208.945C73.9292 209.921 75.1975 210.5 76.3588 210.208C75.5947 211.186 74.5397 211.9 73.2729 212.219C73.0618 212.272 72.8506 212.326 72.6395 212.379C73.9868 212.825 75.5976 212.981 77.0756 212.609C82.0374 211.36 83.7457 206.552 82.8421 202.962C82.8155 202.857 82.7889 202.751 82.7624 202.646C83.3685 201.932 83.6579 201.298 83.9473 200.664Z" fill="white"/>
<path fill-rule="evenodd" clip-rule="evenodd" d="M138.419 143.979C138.268 144.293 137.891 144.425 137.577 144.274L135.087 143.075C134.773 142.924 134.641 142.547 134.792 142.233C134.943 141.919 135.32 141.787 135.634 141.938L138.124 143.137C138.438 143.288 138.57 143.665 138.419 143.979ZM130.948 140.382C130.797 140.697 130.42 140.829 130.106 140.678L125.125 138.28C124.811 138.129 124.679 137.752 124.83 137.437C124.981 137.123 125.358 136.991 125.672 137.142L130.653 139.54C130.967 139.691 131.099 140.068 130.948 140.382ZM120.986 135.587C120.835 135.901 120.458 136.033 120.145 135.882L115.164 133.484C114.85 133.333 114.718 132.956 114.869 132.642C115.02 132.328 115.397 132.196 115.711 132.347L120.691 134.744C121.005 134.896 121.137 135.273 120.986 135.587ZM111.025 130.791C110.874 131.106 110.497 131.238 110.183 131.087L105.202 128.689C104.888 128.538 104.756 128.161 104.907 127.846C105.058 127.532 105.435 127.4 105.749 127.551L110.73 129.949C111.044 130.1 111.176 130.477 111.025 130.791ZM101.063 125.996C100.912 126.31 100.535 126.442 100.221 126.291L97.731 125.092C97.4171 124.941 97.2851 124.564 97.4361 124.25C97.5871 123.936 97.964 123.803 98.2779 123.955L100.768 125.153C101.082 125.305 101.214 125.682 101.063 125.996Z" fill="#12C7D0"/>
<path d="M81.4864 129.886C74.3015 129.886 68.5317 124.116 68.5317 116.931C68.5317 109.746 74.3015 103.977 81.4864 103.977C88.6714 103.977 94.4411 109.746 94.4411 116.931C94.4411 124.007 88.6714 129.886 81.4864 129.886Z" fill="#00ADB5"/>
<path d="M88.2358 116.714C87.9093 116.278 87.4738 116.06 86.9295 116.06H85.4054V114.972H74.3014V118.346C74.3014 120.197 75.2812 121.939 76.6964 122.919H74.3014V123.898H85.4054V122.919H83.0104C83.5547 122.592 83.9902 122.157 84.3168 121.612H85.4054C86.7118 121.612 87.8004 120.741 88.0181 119.544L88.3447 118.129C88.6713 117.584 88.5624 117.149 88.2358 116.714ZM87.5827 117.802L87.2561 119.217C87.0383 119.979 86.3852 120.524 85.5143 120.524H84.97C85.2965 119.871 85.5143 119 85.5143 118.238V117.149H87.0383C87.2561 117.149 87.3649 117.258 87.4738 117.367C87.5827 117.476 87.5827 117.693 87.5827 117.802Z" fill="white"/>
<path d="M79.9623 110.944C79.0914 110.944 78.3293 111.706 78.3293 112.577V113.665H79.3091V112.577C79.3091 112.25 79.6357 111.924 79.9623 111.924H84.4257C86.6029 111.924 88.3447 110.182 88.3447 108.005V107.025H87.365V108.005C87.365 109.637 86.0586 110.944 84.4257 110.944H79.9623V110.944Z" fill="white"/>
<path d="M77.0231 112.686C77.0231 111.053 78.3295 109.746 79.9624 109.746H84.4258C85.2967 109.746 86.0587 108.984 86.0587 108.113V107.025H85.079V108.113C85.079 108.44 84.7524 108.767 84.4258 108.767H79.9624C77.7851 108.767 76.0433 110.508 76.0433 112.686V113.665H77.0231V112.686Z" fill="white"/>
</svg>
