<svg width="400" height="280" viewBox="0 0 400 280" fill="none" xmlns="http://www.w3.org/2000/svg">
<g style="mix-blend-mode:multiply">
<path d="M95.4156 157.949C98.8682 167.142 107.633 169.547 109.998 175.233C117.991 184.114 123.214 200.046 134.179 200.284C149.912 200.747 152.302 168.432 180.138 157.535C193.443 152.3 211.111 152.525 221.633 160.629C227.843 165.414 232.004 173.267 233.724 183.174C232.863 166.541 229.867 150.084 224.808 134.201C214.235 100.959 192.621 64.4601 180.189 67.3535C168.313 70.1215 176.319 106.182 151.189 123.917C147.787 126.322 136.443 134.339 124.858 131.433C116.511 129.341 114.74 123.241 109.239 123.917C100.032 125.07 90.2682 144.409 95.4156 157.949Z" fill="#EBF3FE"/>
</g>
<path d="M347.914 16.4008H159.397C157.734 16.4008 156.387 17.7354 156.387 19.3818V140.413C156.387 142.06 157.734 143.394 159.397 143.394H347.914C349.576 143.394 350.924 142.06 350.924 140.413V19.3818C350.924 17.7354 349.576 16.4008 347.914 16.4008Z" fill="#00ADB5"/>
<path d="M342.893 21.2105H164.431C163.6 21.2105 162.926 21.8778 162.926 22.701V134.639C162.926 135.462 163.6 136.13 164.431 136.13H342.893C343.725 136.13 344.398 135.462 344.398 134.639V22.701C344.398 21.8778 343.725 21.2105 342.893 21.2105Z" fill="white"/>
<path d="M286.089 28.1871H222.93C220.712 28.1871 218.914 29.9675 218.914 32.1638C218.914 34.3602 220.712 36.1406 222.93 36.1406H286.089C288.307 36.1406 290.104 34.3602 290.104 32.1638C290.104 29.9675 288.307 28.1871 286.089 28.1871Z" fill="#00ADB5"/>
<g style="mix-blend-mode:multiply" opacity="0.39">
<path d="M292.823 43.5556H215.676V44.8081H292.823V43.5556Z" fill="#B4E1E8"/>
</g>
<g style="mix-blend-mode:multiply" opacity="0.39">
<path d="M277.646 47.3132H230.852V48.5657H277.646V47.3132Z" fill="#B4E1E8"/>
</g>
<g style="mix-blend-mode:multiply" opacity="0.39">
<path d="M313.438 40.8126H195.074V41.9148H313.438V40.8126Z" fill="#B4E1E8"/>
</g>
<path d="M227.539 104.027H228.247V110.791H235.077V111.493H227.539V104.027Z" fill="#085E5C"/>
<path d="M271.311 111.493V110.791H278.14V104.027H278.836V111.493H271.311Z" fill="#085E5C"/>
<path d="M252.591 84.8763H251.718H239.716V82.7972V80.718H237.617V82.7972H235.518V84.8763H237.617H235.518V86.9681V89.0473V91.1264H237.617H239.83V89.0473H237.617V86.9681H239.716H251.718V101.034H253.831V84.8763H252.591Z" fill="#21252C"/>
<path d="M235.518 80.7054H231.307V82.7846H235.518V80.7054Z" fill="#21252C"/>
<path d="M251.733 82.7971H247.521V84.8763H251.733V82.7971Z" fill="#21252C"/>
<path d="M247.52 80.7054H243.309V82.7846H247.52V80.7054Z" fill="#21252C"/>
<path d="M249.621 69.1822H247.521V72.9022H249.621V69.1822Z" fill="#21252C"/>
<path d="M253.592 67.0529H251.492V71.2614H253.592V67.0529Z" fill="#21252C"/>
<path d="M255.931 82.7971H253.832V84.8763H255.931V82.7971Z" fill="#21252C"/>
<path d="M260.092 84.6759H257.992V90.1745H260.092V84.6759Z" fill="#21252C"/>
<path d="M253.82 80.7054H251.721V82.7846H253.82V80.7054Z" fill="#21252C"/>
<path d="M258.031 80.718V78.6263H255.931H253.832V80.718H255.931H258.031Z" fill="#21252C"/>
<path d="M262.064 91.1264H258.005V90.1745H255.893V95.7357H258.005V93.2056H259.99V95.2973H262.09V93.2432H264.164V88.8343H262.064V91.1264Z" fill="#21252C"/>
<path d="M268.377 103.113H266.277V105.192H268.377V103.113Z" fill="#21252C"/>
<path d="M249.545 99.2428H247.445V101.034V103.113V107.572H249.545V103.113H251.72V101.034H249.545V99.2428Z" fill="#21252C"/>
<path d="M243.499 93.1304H231.32V107.284H245.611V105.192V95.172V93.1304H243.499ZM243.499 105.192H233.382V95.172H243.499V105.192Z" fill="#21252C"/>
<path d="M272.586 105.192H268.375V107.272H272.586V105.192Z" fill="#21252C"/>
<path d="M260.383 105.217V107.296H262.482V105.217V103.138H260.383V105.217Z" fill="#21252C"/>
<path d="M258.411 105.192H251.721V107.272H258.411V105.192Z" fill="#21252C"/>
<path d="M266.277 86.7552H264.178V88.8344H266.277V86.7552Z" fill="#21252C"/>
<path d="M268.377 84.6759H266.277V86.7551H268.377V84.6759Z" fill="#21252C"/>
<path d="M272.221 80.5051H267.934V82.5843H272.221V80.5051Z" fill="#21252C"/>
<path d="M274.245 89.0723V86.9931V84.9139H272.133V86.9931H270.033V89.0723H272.133H274.245Z" fill="#21252C"/>
<path d="M270.033 89.0848H267.934V91.164H270.033V89.0848Z" fill="#21252C"/>
<path d="M272.133 91.1641H270.033V93.2432H272.133V91.1641Z" fill="#21252C"/>
<path d="M272.133 99.4933V103.113H274.245V96.9882H272.133V95.3224H270.033V99.4933H272.133Z" fill="#21252C"/>
<path d="M264.165 98.9422H258.41V101.034H264.165V103.113H266.277V101.034V95.3224H270.033V93.2432H264.165V95.3224V98.9422Z" fill="#21252C"/>
<path d="M258.423 101.034H253.832V103.113H258.423V101.034Z" fill="#21252C"/>
<path d="M245.244 88.9596V91.1265H247.445V95.2974H249.544V91.1265H247.445V88.9596H245.244Z" fill="#21252C"/>
<path d="M241.665 97.0885H235.367V103.326H241.665V97.0885Z" fill="#21252C"/>
<path d="M243.499 78.6263H245.611V76.5471V66.5269V64.4727H231.32V78.6263H243.499ZM233.382 66.5519H243.499V76.5721H233.382V66.5519Z" fill="#21252C"/>
<path d="M241.665 68.4307H235.367V74.6682H241.665V68.4307Z" fill="#21252C"/>
<path d="M274.472 66.5519V64.4727H260.181V69.1822H255.603V71.2614H253.617V74.543H251.72V72.9022H249.621V74.543H247.521V80.7055H249.621V76.6222H255.704V71.2614H260.181V78.6263H264.178V82.5968H260.118V84.676H266.264V78.6263H274.46V76.5471V66.5269L274.472 66.5519ZM272.348 76.5721H262.23V66.5519H272.348V76.5721Z" fill="#21252C"/>
<path d="M270.476 68.4307H264.178V74.6682H270.476V68.4307Z" fill="#21252C"/>
<path d="M278.836 67.9924H278.14V61.2287H271.311V60.5398H278.836V67.9924Z" fill="#085E5C"/>
<path d="M235.077 60.5398V61.2287H228.247V67.9924H227.539V60.5398H235.077Z" fill="#085E5C"/>
<path d="M177.508 104.741C177.508 104.741 185.21 104.466 179.595 94.333C173.979 84.2 170.64 85.3148 169.477 76.2089C168.313 67.1031 169.54 60.7653 165.379 60.377C161.218 59.9887 156.969 57.6966 154.262 66.8776C151.556 76.0586 150.317 84.0122 151.328 91.0513C152.34 98.0905 148.622 98.4287 147.534 101.172C146.447 103.915 143.285 109.864 150.772 109.639C158.259 109.413 177.495 104.741 177.495 104.741" fill="#1E2433"/>
<g style="mix-blend-mode:multiply">
<path d="M216.94 250.698C241.552 212.434 239.187 174.119 221.594 160.516C211.072 152.4 193.404 152.187 180.099 157.423C152.276 168.382 149.848 200.697 134.14 200.284C118.964 199.883 114.752 169.322 98.8927 169.359C87.2321 169.359 77.633 185.918 74.3574 197.19C66.668 223.631 82.8056 248.293 86.3088 248.118C128.221 245.888 174.32 244.962 216.295 251.337" fill="#EBF3FE"/>
</g>
<g style="mix-blend-mode:multiply">
<path d="M72.5117 245.062C72.5117 249.821 111.401 253.667 159.372 253.667C207.342 253.667 246.244 249.821 246.244 245.062C246.244 240.302 207.355 236.444 159.372 236.444C111.389 236.444 72.5117 240.29 72.5117 245.037" fill="#393E46"/>
</g>
<path d="M218.851 181.221H105.85V244.811H218.851V181.221Z" fill="#FAFAFA"/>
<path d="M218.849 244.811C218.849 244.811 218.849 244.423 218.849 243.671C218.849 242.92 218.849 241.805 218.849 240.352C218.849 237.434 218.849 233.138 218.849 227.639C218.849 216.617 218.849 200.735 218.786 181.221L218.899 181.321H105.898L106.037 181.183C106.037 203.728 106.037 225.184 106.037 244.774L105.911 244.648H187.193H210.54H216.787H210.59H187.282L105.911 244.711H105.771V180.832H105.911H218.912H219.013V180.945C219.013 200.484 219.013 216.391 219.013 227.426C219.013 232.925 219.013 237.208 219.013 240.114V244.536L218.849 244.811Z" fill="#1A2E35"/>
<path d="M151.693 191.592C151.693 191.667 144.017 191.73 134.544 191.73C125.071 191.73 117.395 191.667 117.395 191.592C117.395 191.517 125.071 191.454 134.544 191.454C144.017 191.454 151.693 191.517 151.693 191.592Z" fill="#ECECEC"/>
<path d="M169.641 197.691C169.641 197.767 161.964 197.83 152.491 197.83C143.019 197.83 135.342 197.83 135.342 197.691C135.342 197.553 143.019 197.616 152.441 197.616C161.863 197.616 169.641 197.616 169.641 197.691Z" fill="#ECECEC"/>
<path d="M207 191.592C207 191.667 199.323 191.73 189.851 191.73C180.378 191.73 172.701 191.667 172.701 191.592C172.701 191.517 180.378 191.454 189.851 191.454C199.323 191.454 207 191.517 207 191.592Z" fill="#ECECEC"/>
<path d="M166.264 191.592C164.725 191.729 163.179 191.775 161.635 191.73C160.09 191.775 158.545 191.729 157.006 191.592C158.545 191.454 160.09 191.408 161.635 191.454C163.179 191.408 164.725 191.454 166.264 191.592Z" fill="#ECECEC"/>
<path d="M127.664 197.692C126.125 197.829 124.579 197.875 123.035 197.83C121.491 197.875 119.945 197.829 118.406 197.692C119.945 197.554 121.491 197.508 123.035 197.554C124.579 197.508 126.125 197.554 127.664 197.692Z" fill="#ECECEC"/>
<path d="M182.996 197.429C181.512 197.566 180.021 197.612 178.532 197.567C177.046 197.612 175.56 197.566 174.08 197.429C175.56 197.292 177.046 197.245 178.532 197.291C180.021 197.245 181.512 197.291 182.996 197.429Z" fill="#ECECEC"/>
<path d="M151.693 205.545C151.693 205.633 144.017 205.683 134.544 205.683C125.071 205.683 117.395 205.683 117.395 205.545C117.395 205.407 125.071 205.407 134.544 205.407C144.017 205.407 151.693 205.47 151.693 205.545Z" fill="#ECECEC"/>
<path d="M169.641 211.645C169.641 211.72 161.964 211.783 152.491 211.783C143.019 211.783 135.342 211.72 135.342 211.645C135.342 211.569 143.019 211.507 152.491 211.507C161.964 211.507 169.641 211.569 169.641 211.645Z" fill="#ECECEC"/>
<path d="M207 205.545C207 205.633 199.323 205.683 189.851 205.683C180.378 205.683 172.701 205.683 172.701 205.545C172.701 205.407 180.378 205.407 189.851 205.407C199.323 205.407 207 205.47 207 205.545Z" fill="#ECECEC"/>
<path d="M166.264 205.545C164.725 205.682 163.179 205.728 161.635 205.683C160.09 205.728 158.545 205.682 157.006 205.545C158.545 205.408 160.09 205.362 161.635 205.407C163.179 205.362 164.725 205.408 166.264 205.545Z" fill="#ECECEC"/>
<path d="M127.664 211.645C126.125 211.782 124.579 211.828 123.035 211.783C121.491 211.829 119.945 211.782 118.406 211.645C119.945 211.507 121.491 211.461 123.035 211.507C124.579 211.461 126.125 211.508 127.664 211.645Z" fill="#ECECEC"/>
<path d="M182.996 211.394C181.513 211.547 180.022 211.597 178.532 211.544C177.046 211.597 175.559 211.547 174.08 211.394C175.56 211.257 177.046 211.211 178.532 211.256C180.021 211.211 181.512 211.257 182.996 211.394Z" fill="#ECECEC"/>
<path d="M152.01 229.744C152.01 229.819 144.333 229.882 134.86 229.882C125.388 229.882 117.711 229.882 117.711 229.744C117.711 229.606 125.388 229.606 134.86 229.606C144.333 229.606 152.01 229.668 152.01 229.744Z" fill="#ECECEC"/>
<path d="M169.956 235.844C169.956 235.919 162.279 235.982 152.819 235.982C143.359 235.982 135.67 235.982 135.67 235.844C135.67 235.705 143.347 235.705 152.819 235.705C162.292 235.705 169.956 235.768 169.956 235.844Z" fill="#ECECEC"/>
<path d="M207.316 229.744C207.316 229.819 199.64 229.882 190.167 229.882C180.694 229.882 173.018 229.882 173.018 229.744C173.018 229.606 180.694 229.606 190.167 229.606C199.64 229.606 207.316 229.668 207.316 229.744Z" fill="#ECECEC"/>
<path d="M166.58 229.744C165.041 229.881 163.495 229.927 161.951 229.882C160.407 229.927 158.861 229.881 157.322 229.744C158.861 229.607 160.407 229.56 161.951 229.606C163.495 229.56 165.041 229.607 166.58 229.744Z" fill="#ECECEC"/>
<path d="M127.98 235.844C126.442 235.981 124.896 236.027 123.351 235.982C121.807 236.027 120.261 235.981 118.723 235.844C120.261 235.706 121.807 235.66 123.351 235.705C124.896 235.66 126.442 235.706 127.98 235.844Z" fill="#ECECEC"/>
<path d="M183.313 235.581C181.829 235.725 180.338 235.772 178.848 235.719C177.363 235.771 175.876 235.725 174.396 235.581C175.876 235.443 177.363 235.397 178.848 235.442C180.338 235.397 181.829 235.443 183.313 235.581Z" fill="#ECECEC"/>
<path d="M151.693 218.671C151.693 218.747 144.017 218.81 134.544 218.81C125.071 218.81 117.395 218.81 117.395 218.671C117.395 218.533 125.071 218.533 134.544 218.533C144.017 218.533 151.693 218.596 151.693 218.671Z" fill="#ECECEC"/>
<path d="M169.641 224.771C169.641 224.846 161.964 224.909 152.491 224.909C143.019 224.909 135.342 224.909 135.342 224.771C135.342 224.633 143.019 224.633 152.491 224.633C161.964 224.633 169.641 224.696 169.641 224.771Z" fill="#ECECEC"/>
<path d="M207 218.671C207 218.747 199.323 218.81 189.851 218.81C180.378 218.81 172.701 218.81 172.701 218.671C172.701 218.533 180.378 218.533 189.851 218.533C199.323 218.533 207 218.596 207 218.671Z" fill="#ECECEC"/>
<path d="M166.264 218.671C164.725 218.809 163.179 218.855 161.635 218.81C160.09 218.855 158.545 218.809 157.006 218.671C158.545 218.534 160.09 218.488 161.635 218.533C163.179 218.488 164.725 218.534 166.264 218.671Z" fill="#ECECEC"/>
<path d="M127.664 224.771C126.125 224.909 124.579 224.955 123.035 224.909C121.491 224.955 119.945 224.909 118.406 224.771C119.945 224.634 121.491 224.587 123.035 224.633C124.579 224.588 126.125 224.634 127.664 224.771Z" fill="#ECECEC"/>
<path d="M182.996 224.508C181.512 224.646 180.021 224.692 178.532 224.646C177.046 224.691 175.56 224.645 174.08 224.508C175.56 224.371 177.046 224.325 178.532 224.37C180.021 224.325 181.512 224.371 182.996 224.508Z" fill="#ECECEC"/>
<path d="M214.512 97.4142L202.245 113.785C202.12 113.978 201.957 114.144 201.765 114.272C201.573 114.4 201.357 114.488 201.129 114.53C200.902 114.573 200.668 114.568 200.442 114.518C200.216 114.467 200.003 114.371 199.816 114.236C194.366 110.253 177.355 97.0885 177.355 97.0885L173.979 113.371C173.979 113.371 195.858 123.392 201.878 122.139C203.245 122.068 204.536 121.492 205.495 120.523C210.301 114.398 220.52 99.2303 220.52 99.2303L214.512 97.4142Z" fill="#FBC7BA"/>
<path d="M221.304 83.4109C220.368 83.7866 217.067 89.3103 217.067 89.3103H216.232C215.867 89.3216 215.508 89.408 215.179 89.5642C214.849 89.7204 214.556 89.9428 214.318 90.2174C214.08 90.4919 213.903 90.8126 213.797 91.1589C213.691 91.5051 213.659 91.8695 213.703 92.2287C213.981 94.5333 214.462 97.3765 214.462 97.3765L219.103 99.4683L220.469 99.1802C221.734 99.1802 222.998 96.5499 223.783 94.7337C224.567 92.9176 223.277 92.5668 223.277 92.5668C223.277 90.7632 221.734 91.1139 221.734 91.1139C221.732 90.9029 221.688 90.6943 221.603 90.5008C221.518 90.3072 221.394 90.1327 221.24 89.9876C221.085 89.8425 220.902 89.7299 220.702 89.6566C220.502 89.5832 220.29 89.5507 220.077 89.5608C220.995 87.9388 221.818 86.2661 222.543 84.5507C222.986 83.2606 222.227 83.0351 221.304 83.4109Z" fill="#FBC7BA"/>
<path d="M221.696 91.1516C221.565 91.5471 221.405 91.9323 221.215 92.3039C221.134 92.5032 221.037 92.6958 220.925 92.88C220.787 93.0897 220.616 93.2758 220.419 93.4311C220.205 93.6186 219.949 93.7518 219.672 93.8194C219.516 93.8465 219.356 93.8416 219.201 93.8049C219.047 93.7683 218.902 93.7008 218.775 93.6065C218.643 93.5013 218.549 93.3561 218.509 93.1932C218.471 93.0452 218.471 92.8902 218.509 92.7423C218.568 92.4748 218.644 92.2112 218.737 91.9532C218.903 91.5237 219.097 91.1053 219.318 90.7006C219.457 90.4255 219.618 90.1616 219.799 89.9116C219.859 89.8152 219.931 89.7268 220.014 89.6485C220.014 89.6485 219.774 90.0619 219.432 90.7633C219.23 91.1698 219.052 91.588 218.901 92.0158C218.809 92.26 218.737 92.5114 218.686 92.7673C218.656 92.8926 218.66 93.0236 218.698 93.1468C218.735 93.2701 218.806 93.3812 218.901 93.4687C219.007 93.5464 219.128 93.6021 219.256 93.6322C219.384 93.6623 219.517 93.6664 219.647 93.6441C219.895 93.5777 220.128 93.4627 220.33 93.3059C220.516 93.16 220.678 92.9868 220.811 92.7924C220.921 92.6183 221.023 92.4385 221.114 92.2538C221.274 91.8695 221.468 91.5006 221.696 91.1516Z" fill="#FBC7BA"/>
<path d="M223.265 92.404C223.256 92.5118 223.231 92.6175 223.189 92.7172C223.105 92.9986 223.003 93.2747 222.885 93.5438C222.714 93.9599 222.475 94.345 222.177 94.6836C222.004 94.8951 221.783 95.0626 221.532 95.1721C221.389 95.2349 221.233 95.2599 221.078 95.2445C220.922 95.2291 220.774 95.1739 220.647 95.0844C220.532 94.9801 220.447 94.8476 220.4 94.7002C220.353 94.5528 220.347 94.3959 220.381 94.2452C220.426 93.9852 220.494 93.7296 220.583 93.4812C220.76 93.0178 220.925 92.6044 221.089 92.2287C221.254 91.8529 221.393 91.6275 221.507 91.4396C221.62 91.2517 221.671 91.164 221.684 91.1766C221.696 91.1891 221.494 91.5899 221.203 92.2788C221.064 92.617 220.9 93.0303 220.748 93.5313C220.658 93.7659 220.594 94.0095 220.558 94.2578C220.532 94.3724 220.535 94.4916 220.566 94.605C220.597 94.7184 220.655 94.8228 220.735 94.9091C220.844 94.9683 220.965 94.9993 221.089 94.9993C221.213 94.9993 221.335 94.9683 221.443 94.9091C221.665 94.8034 221.863 94.6543 222.025 94.4707C222.319 94.1524 222.558 93.7885 222.733 93.3935C222.895 93.0556 223.072 92.7254 223.265 92.404Z" fill="#FBC7BA"/>
<path d="M224.099 93.6566C224.09 93.9497 224.026 94.2386 223.909 94.5083C223.8 94.8094 223.66 95.099 223.492 95.3726C223.389 95.5376 223.266 95.6891 223.125 95.8235C223.047 95.9058 222.95 95.9682 222.842 96.0053C222.734 96.0423 222.618 96.053 222.505 96.0364C222.391 96.0039 222.288 95.9394 222.21 95.8505C222.131 95.7616 222.08 95.6522 222.063 95.5354C222.023 95.3411 222.023 95.141 222.063 94.9467C222.135 94.6322 222.25 94.3288 222.404 94.0449C222.657 93.5689 222.796 93.2683 222.809 93.2808C222.751 93.5684 222.653 93.8467 222.518 94.1075C222.391 94.3847 222.293 94.6744 222.227 94.9718C222.19 95.1451 222.19 95.3244 222.227 95.4978C222.235 95.5801 222.269 95.658 222.323 95.7208C222.377 95.7836 222.45 95.8282 222.531 95.8485C222.615 95.8616 222.702 95.8549 222.783 95.8288C222.864 95.8026 222.938 95.7579 222.999 95.6982C223.122 95.5673 223.232 95.4246 223.328 95.2724C223.505 95.0158 223.657 94.7432 223.783 94.4582C223.874 94.1857 223.98 93.9181 224.099 93.6566Z" fill="#FBC7BA"/>
<path d="M216.232 89.3604C217.597 89.2913 218.965 89.2913 220.33 89.3604C220.431 89.7114 220.399 90.0868 220.241 90.4163C220.082 90.7459 219.809 91.0072 219.47 91.1515C218.811 91.4232 218.092 91.5224 217.383 91.4396C217.655 91.6937 217.87 92.0007 218.016 92.3412C218.162 92.6818 218.235 93.0486 218.231 93.4185C218.227 93.7895 218.144 94.1556 217.987 94.4925C217.83 94.8293 217.603 95.1293 217.32 95.3725" fill="#FBC7BA"/>
<path d="M217.358 95.3725C217.639 95.0707 217.866 94.7233 218.028 94.3454C218.195 93.9148 218.243 93.4478 218.167 92.9927C218.068 92.422 217.784 91.8989 217.358 91.5022L217.194 91.3519H217.421C218.053 91.4172 218.692 91.3445 219.293 91.139C219.644 91.0289 219.938 90.789 220.115 90.4694C220.292 90.1498 220.337 89.775 220.242 89.423H220.317C219.129 89.3353 218.104 89.3353 217.383 89.3228H216.536C216.435 89.3367 216.333 89.3367 216.232 89.3228C216.333 89.3067 216.435 89.3067 216.536 89.3228H217.383C218.104 89.3228 219.129 89.3228 220.33 89.3228C220.404 89.5081 220.432 89.7081 220.412 89.9063C220.393 90.1046 220.325 90.2953 220.216 90.4626C220.016 90.8343 219.689 91.1231 219.293 91.2767C218.667 91.4861 218.003 91.5587 217.345 91.4897L217.409 91.3394C217.857 91.7682 218.151 92.3318 218.243 92.9426C218.312 93.4186 218.246 93.9041 218.054 94.3454C217.935 94.6331 217.764 94.8964 217.548 95.122C217.472 95.3099 217.371 95.385 217.358 95.3725Z" fill="#FBC7BA"/>
<path d="M196.35 218.608L189.811 232.649L179.264 227.815L186.03 210.455L196.35 218.608Z" fill="#FBC7BA"/>
<path d="M196.502 223.431L213.146 182.385C213.146 182.385 212.754 175.096 211.4 172.791C210.047 170.486 168.982 157.072 168.982 157.072C168.982 157.072 158.523 154.567 151.554 157.072C144.586 159.577 139.35 168.194 140.324 172.991C141.158 176.192 142.916 179.082 145.383 181.308L175.571 182.198L192.012 188.134L180.934 219.598C182.977 221.508 185.484 222.864 188.211 223.535C190.938 224.206 193.793 224.17 196.502 223.431Z" fill="#03949A"/>
<path d="M211.25 195.913L211.642 211.369L200.019 211.644L198.35 193.107L211.25 195.913Z" fill="#FBC7BA"/>
<path d="M204.47 153.014C205.441 152.946 206.416 153.073 207.336 153.388C208.257 153.702 209.103 154.198 209.825 154.845C210.547 155.492 211.129 156.277 211.537 157.153C211.944 158.028 212.169 158.976 212.197 159.94C212.982 167.455 213.74 202.338 213.74 202.338L197.464 203.678L194.934 167.994L168.982 157.072C168.982 157.072 199.816 152.049 204.47 153.014Z" fill="#03949A"/>
<path d="M175.774 142.918C175.774 142.918 179.998 154.654 179.188 155.957C178.379 157.26 167.515 162.646 167.515 162.646L140.337 172.991C138.447 169.573 137.484 165.728 137.542 161.831C137.542 155.068 147.002 142.918 147.002 142.918H175.774Z" fill="#085E5C"/>
<path d="M146.117 157.635C146.378 157.6 146.632 157.533 146.876 157.435L148.925 156.784C151.159 156.029 153.451 155.455 155.78 155.068C158.102 154.693 160.473 154.723 162.786 155.156C164.557 155.519 165.581 156.02 165.606 155.957C165.382 155.818 165.145 155.7 164.898 155.606C164.231 155.329 163.541 155.107 162.837 154.943C160.5 154.441 158.088 154.382 155.729 154.767C153.387 155.158 151.088 155.766 148.862 156.583C148.002 156.884 147.319 157.134 146.838 157.322C146.59 157.408 146.349 157.513 146.117 157.635Z" fill="#009A9B"/>
<path d="M149.91 151.461C150.702 151.416 151.496 151.416 152.288 151.461C153.021 151.461 153.894 151.623 154.817 151.724C155.74 151.824 156.853 151.974 157.954 152.174C159.843 152.471 161.654 153.139 163.278 154.141C163.926 154.589 164.542 155.078 165.125 155.606C165.017 155.423 164.885 155.254 164.733 155.105C164.354 154.681 163.93 154.299 163.468 153.966C161.841 152.893 159.998 152.184 158.068 151.886C156.955 151.673 155.892 151.548 154.918 151.448C153.945 151.348 153.059 151.273 152.389 151.248C151.802 151.22 151.214 151.246 150.631 151.323C150.384 151.32 150.139 151.367 149.91 151.461Z" fill="#009A9B"/>
<path d="M176.471 96.7002C178.389 97.4293 179.988 98.8039 180.986 100.583C181.615 101.488 182.015 102.528 182.154 103.618C182.293 104.708 182.165 105.815 181.782 106.846C181.34 108.599 180.518 112.094 180.518 111.856C180.518 111.618 176.471 96.7002 176.471 96.7002Z" fill="#FFBF9D"/>
<path d="M176.254 96.7001L172.675 95.9611L152.592 94.0698L159.358 116.064L171.6 123.692L178.847 120.097L179.581 112.106L176.254 96.7001Z" fill="#FBC7BA"/>
<path d="M176.47 96.7002C176.47 96.7002 181.086 111.38 180.985 115.576C180.884 119.772 178.165 131.52 177.975 133.875C177.608 138.221 176.976 142.505 175.8 142.918C173.068 143.87 147.028 142.918 147.028 142.918C147.028 142.918 140.527 141.14 140.249 137.269C139.971 133.399 145.308 100.333 145.308 100.333C145.308 100.333 148.975 94.8339 151.353 94.3329C153.731 93.8319 158.144 92.8675 159.738 97.7398C161.331 102.612 161.85 105.117 165.239 108.474C168.629 111.831 173.473 115.613 173.473 115.613C173.473 115.613 177.381 112.382 177.545 108.01C177.442 104.151 176.946 100.311 176.065 96.5499L176.47 96.7002Z" fill="#085E5C"/>
<path d="M137.543 116.427L152.036 123.153C152.036 123.153 157.955 110.202 158.461 108.436C158.967 106.67 160.561 103.865 158.929 100.17C157.298 96.4747 153.175 94.4206 150.443 95.3725C144.044 97.602 137.543 116.427 137.543 116.427Z" fill="#085E5C"/>
<path d="M179.581 116.377C180.251 116.377 188.029 120.398 188.029 120.398L192.456 105.881C185.841 101.522 179.088 96.9882 175.23 95.9611L178.582 107.509L179.581 116.377Z" fill="#085E5C"/>
<path d="M150.62 122.239C147.876 126.711 145.953 129.278 145.953 129.278L170.577 144.133L167.719 150.734L135.772 137.708C135.772 137.708 132.623 134.501 133.736 130.932L138.795 117.004L150.62 122.239Z" fill="#FBC7BA"/>
<path d="M139.971 131.545C140.911 130.964 141.896 130.457 142.917 130.03C143.971 129.696 145.049 129.445 146.142 129.278C145.01 129.2 143.874 129.361 142.81 129.752C141.745 130.143 140.777 130.755 139.971 131.545Z" fill="#FBC7BA"/>
<path d="M137.543 116.427C137.644 116.447 137.742 116.481 137.834 116.528L138.631 116.866L141.565 118.118L151.176 122.465L152.353 123.003H152.163C153.832 119.596 155.299 116.54 156.336 114.336C156.842 113.246 157.26 112.369 157.601 111.718L157.93 111.017C157.967 110.934 158.009 110.855 158.056 110.779C158.056 110.779 158.056 110.866 157.981 111.042C157.905 111.217 157.829 111.455 157.702 111.768C157.449 112.394 157.057 113.296 156.564 114.411C155.565 116.64 154.136 119.709 152.466 123.179V123.304H152.34L151.176 122.765L141.577 118.356L138.694 116.979L137.91 116.603L137.543 116.427Z" fill="#009A9B"/>
<path d="M178.684 103.238C178.815 103.459 178.929 103.689 179.025 103.927C179.288 104.567 179.508 105.224 179.683 105.894C180.225 108.108 180.555 110.369 180.669 112.645C180.84 114.917 180.84 117.199 180.669 119.471C180.593 120.348 180.492 121.049 180.404 121.525C180.368 121.78 180.313 122.031 180.239 122.277C180.208 122.023 180.208 121.766 180.239 121.513C180.239 121.037 180.366 120.335 180.404 119.459C180.537 117.198 180.537 114.931 180.404 112.67C180.288 110.408 179.988 108.158 179.506 105.944C179.303 105.092 179.088 104.428 178.937 103.965C178.827 103.732 178.742 103.489 178.684 103.238Z" fill="#009A9B"/>
<path d="M189.687 148.655L183.54 145.749L171.563 144.797L170.577 144.133L167.719 150.734C169.235 151.475 170.842 152.018 172.499 152.35L182.617 152.049L187.878 152.6L189.687 148.655Z" fill="#FBC7BA"/>
<path d="M224.238 125.22L189.686 125.496C189.157 125.435 188.625 125.569 188.189 125.871C187.753 126.174 187.444 126.624 187.321 127.137L183.527 152.074H165.758C165.483 152.074 165.219 152.183 165.024 152.375C164.83 152.568 164.721 152.829 164.721 153.101C164.721 153.374 164.83 153.635 165.024 153.828C165.219 154.02 165.483 154.128 165.758 154.128H222.594L226.476 127.825C226.53 127.504 226.512 127.175 226.423 126.862C226.335 126.548 226.179 126.257 225.966 126.009C225.753 125.761 225.488 125.562 225.19 125.426C224.891 125.29 224.566 125.22 224.238 125.22Z" fill="#E1E1E1"/>
<path d="M224.238 125.22C224.418 125.192 224.601 125.192 224.782 125.22C225.291 125.362 225.737 125.671 226.046 126.097C226.287 126.415 226.435 126.792 226.476 127.187C226.488 127.657 226.445 128.128 226.35 128.589C226.211 129.604 226.034 130.756 225.857 132.059C225.085 137.295 223.998 144.835 222.644 154.091V154.179H222.556H167.415H165.922C165.652 154.207 165.378 154.155 165.138 154.028C164.892 153.894 164.703 153.676 164.607 153.415C164.512 153.151 164.514 152.863 164.614 152.602C164.713 152.34 164.904 152.122 165.151 151.987C165.389 151.869 165.657 151.821 165.922 151.849H183.552L183.413 151.962C184.779 143.031 186.044 134.702 187.207 127.224C187.252 126.743 187.478 126.296 187.84 125.972C188.22 125.662 188.68 125.463 189.167 125.396C189.631 125.365 190.095 125.365 190.559 125.396H191.912H197.123H206.368H219.52H223.96H223.049H219.52L206.368 125.546L197.123 125.634H191.912H190.559C190.108 125.602 189.656 125.602 189.205 125.634C188.739 125.677 188.298 125.86 187.941 126.16C187.609 126.462 187.41 126.879 187.384 127.324C186.259 134.84 185.007 143.131 183.59 152.062V152.187H165.884C165.663 152.159 165.438 152.198 165.239 152.3C165.052 152.401 164.908 152.566 164.834 152.764C164.759 152.961 164.76 153.179 164.835 153.377C164.907 153.579 165.051 153.748 165.239 153.853C165.439 153.95 165.663 153.989 165.884 153.966H167.377H222.518L222.417 154.053C223.795 144.797 224.946 137.257 225.705 132.034C225.907 130.781 226.084 129.529 226.236 128.564C226.335 128.108 226.381 127.641 226.375 127.174C226.335 126.791 226.196 126.424 225.97 126.11C225.666 125.682 225.218 125.376 224.706 125.245C224.55 125.228 224.394 125.219 224.238 125.22Z" fill="#1A2E35"/>
<path d="M205.495 141.503C206.689 141.503 207.657 140.544 207.657 139.361C207.657 138.178 206.689 137.219 205.495 137.219C204.3 137.219 203.332 138.178 203.332 139.361C203.332 140.544 204.3 141.503 205.495 141.503Z" fill="white"/>
<path d="M184.942 153.903C184.942 153.903 186.093 147.553 187.472 139.712C188.85 131.871 189.799 125.508 189.748 125.496C189.698 125.483 188.597 131.846 187.295 139.687C185.992 147.528 184.904 153.89 184.942 153.903Z" fill="#1A2E35"/>
<path d="M167.085 84.8889C167.085 84.8889 173.181 98.9297 172.144 101.172C171.107 103.414 171.676 105.43 168.122 102.6C164.569 99.7689 162.33 98.1657 162.33 98.1657C162.33 98.1657 162.95 87.9951 162.798 86.0036C162.646 84.0121 167.123 84.8513 167.123 84.8513" fill="#FBC7BA"/>
<path d="M170.866 64.2097C170.866 64.2097 178.353 70.7855 174.42 82.9976C170.487 95.2097 159.825 82.5341 159.357 81.7451C158.889 80.956 153.793 67.2158 161.128 64.9988C168.463 62.7818 169.007 63.1576 170.866 64.1596" fill="#FBC7BA"/>
<path d="M178.353 69.7083C178.454 70.0841 176.115 74.1422 172.561 69.7083C168.931 74.8311 162.924 80.0416 157.207 79.0396C151.491 78.0376 157.207 63.4331 159.13 62.8319C161.052 62.2307 174.306 53.5758 178.353 69.7083Z" fill="#1E2433"/>
<path d="M186.917 243.095C186.917 243.095 190.825 241.442 190.825 238.085C190.825 234.728 191.685 228.065 190.825 228.29C189.965 228.516 184.704 222.316 182.655 222.98C180.606 223.644 177.723 230.232 177.04 233C176.357 235.768 183.502 242.745 186.917 243.02" fill="#21252C"/>
<path d="M222.96 220.412C222.96 220.412 212.122 207.586 208.568 207.261C205.014 206.935 201.562 207.874 200.183 209.34C198.805 210.805 198.703 212.333 198.387 214.926C198.071 217.519 199.652 217.957 203.079 218.408C206.507 218.859 224.276 221.928 222.96 220.412Z" fill="#21252C"/>
</svg>
