<svg xmlns="http://www.w3.org/2000/svg" viewBox="0 0 392 248"><defs><style>.cls-1{isolation:isolate;}.cls-2,.cls-6{fill:#b4e1e8;}.cls-13,.cls-2,.cls-3,.cls-4{opacity:0.39;mix-blend-mode:multiply;}.cls-3{fill:#cde4e7;}.cls-4{fill:#009a9b;}.cls-5{fill:#373737;}.cls-7{fill:#fff;}.cls-8{fill:#085e5c;}.cls-9{fill:none;stroke:#b0cacc;stroke-linecap:round;stroke-linejoin:round;stroke-width:0.75px;}.cls-10{font-size:7.8px;fill:#042826;}.cls-10,.cls-14{font-family:MyriadPro-Regular, Myriad Pro;}.cls-11{fill:#1a2e35;}.cls-12{opacity:0.3;}.cls-14{font-size:2.66px;fill:#8db3b7;letter-spacing:0.12em;}</style></defs><g class="cls-1"><g id="Layer_1" data-name="Layer 1"><path class="cls-2" d="M251.21,201.23c30.66-40.44,27.72-80.92,5.8-95.25-13.12-8.57-35.13-8.8-51.7-3.26-34.69,11.57-37.7,45.73-57.26,45.29-19-.42-24.15-32.72-43.92-32.69-14.53,0-26.49,17.5-30.58,29.42C64,172.68,83.84,205.92,88.19,205.65c52.48-3.22,110.33-9.91,163.38-4.9"/><path class="cls-3" d="M95.71,105.41c4.28,10.07,15.09,12.7,18,18.92,9.87,9.72,16.32,27.16,29.87,27.47,19.39.45,25.26-33.07,56.75-46.91,15.92-7,40.18-8.5,53.29-.14,7.83,5,11,17.36,13.27,28.14-3.24-15.14-4.25-33.74-11.41-53.6C242.43,43,215.75,3.1,200.39,6.26c-14.66,3-4.78,42.47-35.81,61.91-4.19,2.63-18.2,11.4-32.5,8.22-10.31-2.29-12.57-9-19.29-8.22-11.37,1.26-23.36,22.43-17.08,37.24"/><path class="cls-4" d="M60.4,217.93c0,10.66,63.41,19.3,141.64,19.3s141.65-8.64,141.65-19.3S280.27,198.62,202,198.62,60.4,207.26,60.4,217.93"/><path class="cls-5" d="M190.21,190.3,166.39,94.08a7.54,7.54,0,0,0-3.21-4.52,3.27,3.27,0,0,0-1.09-.42,1.86,1.86,0,0,0-1.32.18L104.52,122c-.85.45-1.25,1.79-.82,3.52l12.52,50.56L85.88,193.72a2.34,2.34,0,0,0-1,2.17,7.47,7.47,0,0,0,3.39,5.86l42.45,24.51a2.2,2.2,0,0,0,2.77,0,1.62,1.62,0,0,1-.34.26l56.24-32.68a1.44,1.44,0,0,0,.34-.27A3.42,3.42,0,0,0,190.21,190.3Z"/><g class="cls-1"><path class="cls-6" d="M144.55,161.27a2.41,2.41,0,0,0-2.43-.24L85.88,193.72a2.41,2.41,0,0,1,2.42.23L126,215.74l56.24-32.69Z"/><path class="cls-6" d="M190.21,190.3,166.39,94.08a7.54,7.54,0,0,0-3.21-4.52,3.27,3.27,0,0,0-1.09-.42,1.86,1.86,0,0,0-1.32.18L104.52,122a1.88,1.88,0,0,1,1.33-.19,3.77,3.77,0,0,1,1.09.42,7.51,7.51,0,0,1,3.2,4.52L134,223a3.48,3.48,0,0,1-.47,3.26,1.62,1.62,0,0,1-.34.26l56.24-32.68a1.44,1.44,0,0,0,.34-.27A3.42,3.42,0,0,0,190.21,190.3Z"/><path class="cls-7" d="M117.89,124.84c-.1-.39-.21-.78-.34-1.17l41.91-24.36,22.23,89.76L139.82,213.4Z"/><path class="cls-8" d="M106.94,122.24a7.51,7.51,0,0,1,3.2,4.52L134,223a3.48,3.48,0,0,1-.47,3.26,2.2,2.2,0,0,1-2.77,0L88.28,201.75a7.47,7.47,0,0,1-3.39-5.86c0-2.16,1.54-3,3.41-1.94L126,215.74,103.7,125.53c-.59-2.38.37-4,2.15-3.71A3.77,3.77,0,0,1,106.94,122.24Z"/></g><polygon class="cls-8" points="161.92 160.44 162.63 160.08 161.97 157.82 161.26 158.18 161.92 160.44"/><polygon class="cls-8" points="159.84 156.09 160.54 155.73 159.85 153.34 159.14 153.7 159.84 156.09"/><polygon class="cls-8" points="160.3 157.68 161.01 157.32 160.31 154.94 159.6 155.29 160.3 157.68"/><polygon class="cls-8" points="160.78 153.78 160.55 152.99 157.01 154.77 157.24 155.56 160.78 153.78"/><polygon class="cls-8" points="156.53 155.92 156.3 155.13 152.76 156.92 152.99 157.7 156.53 155.92"/><polygon class="cls-8" points="156.05 157.06 155.82 156.27 153.68 157.35 153.91 158.14 156.05 157.06"/><polygon class="cls-8" points="155.56 158.21 155.33 157.42 153.91 158.14 154.14 158.93 155.56 158.21"/><polygon class="cls-8" points="159.79 161.49 158.18 155.98 157.48 156.34 159.09 161.85 159.79 161.49"/><polygon class="cls-8" points="153.13 172.08 151.52 166.57 150.81 166.93 152.43 172.44 153.13 172.08"/><polygon class="cls-8" points="158.42 156.78 158.18 155.98 156.03 157.07 156.27 157.86 158.42 156.78"/><polygon class="cls-8" points="161.21 160.78 161 160.04 158.87 161.11 159.09 161.85 161.21 160.78"/><polygon class="cls-8" points="158.38 162.21 158.16 161.47 156.03 162.54 156.25 163.28 158.38 162.21"/><polygon class="cls-8" points="153.4 164.71 154.09 167.09 155.54 166.36 154.85 163.98 153.4 164.71"/><polygon class="cls-8" points="154.83 166.72 153.92 163.61 153.18 163.98 154.09 167.09 154.83 166.72"/><polygon class="cls-8" points="154.6 165.94 154.37 165.14 152.23 166.22 152.46 167.01 154.6 165.94"/><polygon class="cls-8" points="159.32 159.92 159.11 159.19 154.15 161.68 154.37 162.42 159.32 159.92"/><polygon class="cls-8" points="152.95 163.13 152.72 162.37 149.18 164.16 149.4 164.92 152.95 163.13"/><polygon class="cls-8" points="148.69 165.28 148.46 164.52 146.34 165.59 146.56 166.35 148.69 165.28"/><polygon class="cls-8" points="148.69 165.28 148.21 163.64 147.5 164 147.97 165.64 148.69 165.28"/><polygon class="cls-8" points="147.49 166.77 146.78 164.36 146.07 164.72 146.78 167.13 147.49 166.77"/><polygon class="cls-8" points="160.94 160 161.63 162.39 160.95 162.73 160.25 160.34 160.94 160"/><polygon class="cls-8" points="162.82 160.88 163.06 161.67 160.95 162.73 160.71 161.94 162.82 160.88"/><polygon class="cls-8" points="163.51 163.24 163.75 164.04 161.64 165.1 161.41 164.31 163.51 163.24"/><polygon class="cls-8" points="145.37 167.84 144.91 166.28 144.2 166.64 144.66 168.2 145.37 167.84"/><polygon class="cls-8" points="163.74 166.76 162.58 162.81 163.3 162.45 164.45 166.4 163.74 166.76"/><polygon class="cls-8" points="163.74 166.76 163.5 165.96 159.95 167.75 160.19 168.55 163.74 166.76"/><polygon class="cls-8" points="159.73 166.99 159.03 164.6 159.75 164.24 160.44 166.63 159.73 166.99"/><polygon class="cls-8" points="161.87 165.91 162.09 166.67 159.95 167.75 159.73 166.99 161.87 165.91"/><polygon class="cls-8" points="156.91 168.41 157.13 169.17 155.72 169.88 155.49 169.13 156.91 168.41"/><polygon class="cls-8" points="152.67 170.55 152.9 171.31 154.31 170.59 154.09 169.83 152.67 170.55"/><polygon class="cls-8" points="156.91 168.41 157.36 169.96 156.67 170.31 156.22 168.76 156.91 168.41"/><polygon class="cls-8" points="154.08 169.84 153.85 169.06 155.97 167.99 156.2 168.77 154.08 169.84"/><polygon class="cls-8" points="145.86 166.73 145.17 164.35 144.45 164.72 145.15 167.09 145.86 166.73"/><polygon class="cls-8" points="147.98 165.64 148.21 166.42 149.63 165.7 149.4 164.92 147.98 165.64"/><polygon class="cls-8" points="157.43 159.01 157.21 158.28 154.38 159.7 154.59 160.44 157.43 159.01"/><polygon class="cls-8" points="149.64 162.94 149.42 162.2 148 162.92 148.21 163.66 149.64 162.94"/><polygon class="cls-8" points="145.37 165.09 145.15 164.35 143.72 165.07 143.94 165.81 145.37 165.09"/><polygon class="cls-8" points="146.29 165.45 146.08 164.72 144.66 165.43 144.88 166.16 146.29 165.45"/><polygon class="cls-8" points="155.07 162.07 154.59 160.44 153.89 160.79 154.37 162.42 155.07 162.07"/><polygon class="cls-8" points="152.5 158.87 153.16 161.16 153.89 160.79 153.22 158.5 152.5 158.87"/><polygon class="cls-8" points="149.67 160.29 150.34 162.59 151.06 162.22 150.39 159.93 149.67 160.29"/><polygon class="cls-8" points="147.75 162.14 148.2 163.66 148.92 163.3 148.48 161.77 147.75 162.14"/><polygon class="cls-8" points="146.34 162.85 146.78 164.37 147.51 164.01 147.06 162.49 146.34 162.85"/><polygon class="cls-8" points="146.34 162.85 146.12 162.08 145.42 162.43 145.65 163.2 146.34 162.85"/><polygon class="cls-8" points="148.72 159.86 148.5 159.09 147.81 159.44 148.03 160.21 148.72 159.86"/><polygon class="cls-8" points="150.86 158.78 150.64 158.01 149.94 158.36 150.17 159.13 150.86 158.78"/><polygon class="cls-8" points="151.35 157.66 151.12 156.86 150.41 157.22 150.64 158.01 151.35 157.66"/><polygon class="cls-8" points="150.41 157.22 149.94 155.64 149.25 155.99 149.71 157.57 150.41 157.22"/><polygon class="cls-8" points="148.03 157.5 148.5 159.09 149.23 158.72 148.76 157.13 148.03 157.5"/><polygon class="cls-8" points="150.88 156.06 150.64 155.27 148.53 156.33 148.76 157.13 150.88 156.06"/><polygon class="cls-8" points="150.88 156.06 151.57 158.43 152.27 158.08 151.58 155.71 150.88 156.06"/><polygon class="cls-8" points="147.58 155.91 147.81 156.7 148.53 156.33 148.3 155.55 147.58 155.91"/><polygon class="cls-8" points="149.71 154.84 149.94 155.62 151.36 154.91 151.13 154.13 149.71 154.84"/><polygon class="cls-8" points="151.83 153.77 151.14 151.41 150.44 151.76 151.13 154.13 151.83 153.77"/><polygon class="cls-8" points="154.66 155.07 154.2 153.48 153.5 153.84 153.96 155.42 154.66 155.07"/><polygon class="cls-8" points="153.25 155.78 152.55 153.41 151.83 153.77 152.52 156.15 153.25 155.78"/><polygon class="cls-8" points="152.8 151.49 152.34 149.93 151.64 150.29 152.09 151.85 152.8 151.49"/><polygon class="cls-8" points="151.38 152.21 151.14 151.41 149.05 152.47 149.28 153.27 151.38 152.21"/><polygon class="cls-8" points="148.56 153.63 148.33 152.83 146.9 153.55 147.13 154.35 148.56 153.63"/><polygon class="cls-8" points="148.56 153.63 148.1 152.06 147.39 152.42 147.85 153.99 148.56 153.63"/><polygon class="cls-8" points="152.09 151.85 152.31 152.63 153.02 152.27 152.8 151.5 152.09 151.85"/><polygon class="cls-8" points="151.87 151.07 152.1 151.85 153.52 151.13 153.29 150.36 151.87 151.07"/><polygon class="cls-8" points="152.32 152.63 152.55 153.41 153.97 152.69 153.75 151.91 152.32 152.63"/><polygon class="cls-8" points="148.07 154.77 148.3 155.55 149.02 155.19 148.79 154.41 148.07 154.77"/><polygon class="cls-8" points="148.56 153.63 148.79 154.41 149.51 154.05 149.28 153.27 148.56 153.63"/><polygon class="cls-8" points="149.51 151.34 149.74 152.12 150.45 151.76 150.23 150.98 149.51 151.34"/><polygon class="cls-8" points="146.37 160.15 147.06 162.5 147.78 162.13 147.09 159.78 146.37 160.15"/><polygon class="cls-8" points="142.83 161.94 143.51 164.29 144.24 163.92 143.55 161.57 142.83 161.94"/><polygon class="cls-8" points="145.4 165.15 144.71 162.79 144 163.15 144.69 165.51 145.4 165.15"/><polygon class="cls-8" points="153.42 162.02 153.16 161.16 151.06 162.22 151.31 163.09 153.42 162.02"/><polygon class="cls-8" points="150.59 163.45 150.34 162.58 149.63 162.94 149.88 163.8 150.59 163.45"/><polygon class="cls-8" points="151.81 159.21 152.04 159.98 153.44 159.27 153.22 158.5 151.81 159.21"/><polygon class="cls-8" points="152.95 163.13 153.41 164.71 154.13 164.34 153.68 162.77 152.95 163.13"/><polygon class="cls-8" points="152.27 163.48 152.49 164.24 153.9 163.54 153.68 162.77 152.27 163.48"/><polygon class="cls-8" points="154.76 164.02 154.53 163.22 159.53 160.69 159.77 161.5 154.76 164.02"/><polygon class="cls-8" points="160.48 161.14 161.41 164.32 160.7 164.68 159.77 161.5 160.48 161.14"/><polygon class="cls-8" points="156.93 162.93 157.86 166.12 157.15 166.47 156.22 163.29 156.93 162.93"/><polygon class="cls-8" points="159.77 161.5 160.7 164.68 159.99 165.04 159.06 161.85 159.77 161.5"/><polygon class="cls-8" points="156.19 166.03 156.43 166.84 160.7 164.68 160.47 163.88 156.19 166.03"/><polygon class="cls-8" points="151.75 170.11 151.52 169.31 153.63 168.25 153.87 169.05 151.75 170.11"/><polygon class="cls-8" points="148.25 161.01 148.48 161.78 150.6 160.7 150.38 159.94 148.25 161.01"/><polygon class="cls-8" points="156.48 161.35 155.79 158.99 155.09 159.34 155.78 161.71 156.48 161.35"/><polygon class="cls-8" points="157.39 169.95 156.24 166.01 155.54 166.36 156.69 170.3 157.39 169.95"/><polygon class="cls-8" points="157.16 169.16 156.93 168.37 154.8 169.44 155.03 170.24 157.16 169.16"/><polygon class="cls-8" points="155.95 170.67 155.26 168.31 154.56 168.66 155.25 171.03 155.95 170.67"/><polygon class="cls-8" points="160.28 160.41 160.06 159.67 158.66 160.38 158.87 161.11 160.28 160.41"/><polygon class="cls-8" points="158.64 157.55 158.41 156.77 156.98 157.49 157.21 158.28 158.64 157.55"/><polygon class="cls-8" points="155.09 159.35 154.86 158.56 152.72 159.64 152.95 160.42 155.09 159.35"/><polygon class="cls-8" points="151.55 161.13 151.32 160.34 149.19 161.42 149.41 162.21 151.55 161.13"/><polygon class="cls-8" points="161.25 155.38 161.02 154.59 158.9 155.66 159.13 156.45 161.25 155.38"/><polygon class="cls-8" points="143.29 160.8 142.58 161.16 140.97 155.65 141.68 155.3 143.29 160.8"/><polygon class="cls-8" points="147.54 158.66 146.83 159.02 145.22 153.51 145.93 153.15 147.54 158.66"/><polygon class="cls-8" points="141.2 156.44 140.97 155.65 145.93 153.15 146.16 153.94 141.2 156.44"/><polygon class="cls-8" points="142.58 161.16 142.35 160.37 147.31 157.87 147.54 158.66 142.58 161.16"/><polygon class="cls-8" points="145.66 157.79 143.52 158.86 142.83 156.49 144.96 155.41 145.66 157.79"/><polygon class="cls-8" points="147.43 174.98 146.72 175.33 145.11 169.83 145.82 169.47 147.43 174.98"/><polygon class="cls-8" points="151.68 172.83 150.97 173.19 149.36 167.69 150.07 167.33 151.68 172.83"/><polygon class="cls-8" points="145.34 170.61 145.11 169.83 150.07 167.33 150.3 168.12 145.34 170.61"/><polygon class="cls-8" points="146.72 175.33 146.49 174.55 151.45 172.05 151.68 172.83 146.72 175.33"/><polygon class="cls-8" points="149.8 171.96 147.66 173.04 146.97 170.67 149.11 169.59 149.8 171.96"/><polygon class="cls-8" points="156.04 154.38 155.33 154.73 153.72 149.23 154.43 148.87 156.04 154.38"/><polygon class="cls-8" points="160.29 152.23 159.58 152.59 157.97 147.09 158.68 146.73 160.29 152.23"/><polygon class="cls-8" points="153.95 150.01 153.72 149.23 158.68 146.73 158.91 147.51 153.95 150.01"/><polygon class="cls-8" points="155.33 154.73 155.1 153.94 160.06 151.45 160.29 152.23 155.33 154.73"/><polygon class="cls-8" points="158.41 151.36 156.27 152.44 155.58 150.06 157.72 148.99 158.41 151.36"/><polygon class="cls-8" points="151.97 168.16 151.75 167.39 151.06 167.74 151.28 168.5 151.97 168.16"/><polygon class="cls-8" points="158.1 164.16 157.88 163.39 158.57 163.04 158.8 163.81 158.1 164.16"/><polygon class="cls-8" points="161.17 166.25 160.95 165.49 161.64 165.14 161.86 165.91 161.17 166.25"/><polyline class="cls-9" points="155.81 143.86 161.4 141.05 163.18 147.16"/><polyline class="cls-9" points="141.41 151.12 135.83 153.94 137.62 160.04"/><polyline class="cls-9" points="149.46 178.65 143.88 181.46 142.09 175.36"/><polyline class="cls-9" points="163.86 171.39 169.44 168.58 167.66 162.47"/><text class="cls-10" transform="matrix(0.91, -0.41, 0.41, 0.91, 137.59, 147.03)">MENU</text><path class="cls-7" d="M300.58,99.18h-9.06a2.26,2.26,0,0,0-2.2,2.3v1.64a2.24,2.24,0,0,1-2.19,2.29H269.48a2.26,2.26,0,0,1-2.2-2.3v-1.64a2.25,2.25,0,0,0-2.2-2.3H254a7.11,7.11,0,0,0-7.13,7.12l0,114.26a7.12,7.12,0,0,0,7.12,7.12l46.6,0a7.12,7.12,0,0,0,7.12-7.12l0-114.26A7.12,7.12,0,0,0,300.58,99.18Z"/><path class="cls-11" d="M300.58,99.18h.24a6.19,6.19,0,0,1,.72.06,6.68,6.68,0,0,1,2.67.92,6.85,6.85,0,0,1,1.63,1.32,7.1,7.1,0,0,1,1.36,2.12,7.46,7.46,0,0,1,.53,2.9v3.35c0,9.5,0,23.23,0,40.19s0,37.18,0,59.61v10.68a7.61,7.61,0,0,1-.28,2.17,6.88,6.88,0,0,1-.91,2,7.74,7.74,0,0,1-1.48,1.65,7.17,7.17,0,0,1-4.11,1.59c-1.5.05-3,0-4.48,0h-42a7.52,7.52,0,0,1-4.64-1.28,7.3,7.3,0,0,1-2.83-3.9,7.88,7.88,0,0,1-.29-2.41V189.62c0-12.21,0-24,0-35.21s0-21.88,0-31.85q0-7.49,0-14.44v-1.73c0-.29,0-.58,0-.86a7.53,7.53,0,0,1,.15-.85,7.28,7.28,0,0,1,1.5-3,7.16,7.16,0,0,1,5.81-2.57h10.66a2.24,2.24,0,0,1,1.4.39,2.39,2.39,0,0,1,.87,1.14,3.79,3.79,0,0,1,.14,1.41v.69a5,5,0,0,0,0,.68,2.22,2.22,0,0,0,.53,1.2,2.08,2.08,0,0,0,1.09.67,2.73,2.73,0,0,0,.64.07h16.76c.33,0,.66,0,1,0a2.21,2.21,0,0,0,.87-.31,2.24,2.24,0,0,0,1-1.43,4.25,4.25,0,0,0,.06-.87v-.85a4.58,4.58,0,0,1,0-.83,2.46,2.46,0,0,1,.27-.76,2.28,2.28,0,0,1,1.14-1,3.67,3.67,0,0,1,1.42-.15h0a3.53,3.53,0,0,0-1.4.15,2.22,2.22,0,0,0-1.1,1,2.4,2.4,0,0,0-.25.74,4.42,4.42,0,0,0,0,.82v.85a4.33,4.33,0,0,1-.05.88,2.37,2.37,0,0,1-1,1.49,2.25,2.25,0,0,1-.91.32c-.33,0-.65,0-1,0H269.63a2.54,2.54,0,0,1-.67-.06,2.2,2.2,0,0,1-1.15-.72,2.32,2.32,0,0,1-.57-1.25,5.46,5.46,0,0,1,0-.7V102a3.87,3.87,0,0,0-.14-1.36,2.15,2.15,0,0,0-.82-1.08,2.1,2.1,0,0,0-1.33-.37H254.27a7.12,7.12,0,0,0-5.7,2.52,7.1,7.1,0,0,0-1.46,3,8,8,0,0,0-.15.83c0,.28,0,.57,0,.85V220.17a7.43,7.43,0,0,0,.29,2.35,7.09,7.09,0,0,0,2.74,3.8,7.34,7.34,0,0,0,4.53,1.24h42c1.5,0,3,0,4.47,0a7,7,0,0,0,4-1.55,7.59,7.59,0,0,0,1.44-1.61,6.63,6.63,0,0,0,.89-1.95,7.57,7.57,0,0,0,.27-2.12V209.66c0-22.43,0-42.64,0-59.61s0-30.69,0-40.19v-3.35a7.3,7.3,0,0,0-.52-2.87,7.19,7.19,0,0,0-2.95-3.44,6.77,6.77,0,0,0-2.65-.93,5,5,0,0,0-.72-.07Z"/><path class="cls-11" d="M302,111.48s-1.18.07-2.63.08-2.63,0-2.63,0,1.17-.07,2.63-.08S302,111.45,302,111.48Z"/><path class="cls-11" d="M302,112.83s-1.18.06-2.63.08-2.63,0-2.63,0,1.17-.06,2.63-.07S302,112.8,302,112.83Z"/><path class="cls-11" d="M302.05,114.18s-1.18.06-2.63.07-2.63,0-2.63,0,1.17-.07,2.63-.08S302.05,114.14,302.05,114.18Z"/><path class="cls-11" d="M252,115h.41l1.12,0,0,0c0-.25,0-.53,0-.82a3.68,3.68,0,0,1,0-.47.43.43,0,0,1,.38-.34,4.64,4.64,0,0,1,.53,0,.43.43,0,0,1,.37.44V115l-.05-.05h1.42l-.05,0c0-.57,0-1.16,0-1.76v-.45c0-.14-.09-.23-.2-.34l-.62-.61-.6-.59-.29-.28c-.1-.1-.18-.2-.29-.22a.39.39,0,0,0-.33.06c-.08.07-.17.18-.26.26l-.51.51c-.32.34-.65.64-.89.93a1,1,0,0,0-.08.53v1.3c0,.2,0,.37,0,.51V115s0-.06,0-.17l0-.51,0-.81v-.79a.51.51,0,0,1,.08-.29c.26-.32.57-.61.89-1l.51-.52c.09-.09.16-.17.27-.27a.47.47,0,0,1,.41-.08.78.78,0,0,1,.34.24l.29.29.6.59.62.61a.88.88,0,0,1,.16.17.49.49,0,0,1,.08.24v.45c0,.6,0,1.19,0,1.76v.06h-1.52v0c0-.42,0-.81,0-1.19a.35.35,0,0,0-.28-.35h-.52a.36.36,0,0,0-.3.28c0,.14,0,.31,0,.45v.85H252Z"/><rect class="cls-6" x="251.19" y="188.27" width="10.87" height="10.87"/><path class="cls-6" d="M283,189.44c0,.05-3.63.09-8.11.09s-8.13,0-8.13-.09,3.64-.09,8.13-.09S283,189.39,283,189.44Z"/><path class="cls-6" d="M295.92,192.77s-6.53.1-14.59.1-14.6-.05-14.6-.1,6.54-.09,14.6-.09S295.92,192.72,295.92,192.77Z"/><path class="cls-6" d="M295.58,195.15s-6.46.1-14.42.1-14.43-.05-14.43-.1,6.46-.09,14.43-.09S295.58,195.1,295.58,195.15Z"/><path class="cls-6" d="M283.77,197.42c0,.06-3.82.1-8.52.1s-8.52,0-8.52-.1,3.82-.09,8.52-.09S283.77,197.37,283.77,197.42Z"/><g class="cls-12"><rect class="cls-6" x="251.19" y="188.27" width="10.87" height="10.87"/></g><rect class="cls-6" x="251.19" y="205.97" width="10.87" height="10.87"/><path class="cls-6" d="M283,207.14c0,.05-3.63.09-8.11.09s-8.13,0-8.13-.09,3.64-.1,8.13-.1S283,207.08,283,207.14Z"/><path class="cls-6" d="M295.92,210.47c0,.05-6.53.09-14.59.09s-14.6,0-14.6-.09,6.54-.09,14.6-.09S295.92,210.42,295.92,210.47Z"/><path class="cls-6" d="M295.58,212.85c0,.05-6.46.09-14.42.09s-14.43,0-14.43-.09,6.46-.09,14.43-.09S295.58,212.8,295.58,212.85Z"/><path class="cls-6" d="M283.77,215.12s-3.82.09-8.52.09-8.52,0-8.52-.09,3.82-.09,8.52-.09S283.77,215.07,283.77,215.12Z"/><g class="cls-12"><rect class="cls-6" x="251.19" y="205.97" width="10.87" height="10.87"/></g><g class="cls-13"><path class="cls-6" d="M289.57,124.32c0,.08-5.52.14-12.32.14s-12.33-.06-12.33-.14,5.52-.13,12.33-.13S289.57,124.25,289.57,124.32Z"/></g><path class="cls-8" d="M278,117.93a.81.81,0,1,1-.8-.81A.8.8,0,0,1,278,117.93Z"/><rect class="cls-8" x="249.96" y="129.7" width="0.68" height="0.11"/><path class="cls-8" d="M303.35,129.81H302v-.11h1.38Zm-2.29,0h-1.38v-.11h1.38Zm-2.3,0h-1.37v-.11h1.37Zm-2.29,0H295.1v-.11h1.37Zm-2.29,0h-1.37v-.11h1.37Zm-2.29,0h-1.38v-.11h1.38Zm-2.29,0h-1.38v-.11h1.38Zm-2.29,0h-1.38v-.11h1.38Zm-2.3,0h-1.37v-.11H285Zm-2.29,0h-1.37v-.11h1.37Zm-2.29,0h-1.38v-.11h1.38Zm-2.29,0h-1.38v-.11h1.38Zm-2.29,0h-1.38v-.11h1.38Zm-2.3,0h-1.37v-.11h1.37Zm-2.29,0h-1.37v-.11h1.37Zm-2.29,0H267.6v-.11H269Zm-2.29,0H265.3v-.11h1.38Zm-2.29,0H263v-.11h1.38Zm-2.29,0h-1.38v-.11h1.38Zm-2.3,0h-1.37v-.11h1.37Zm-2.29,0h-1.37v-.11h1.37Zm-2.29,0h-1.38v-.11h1.38Zm-2.29,0h-1.38v-.11h1.38Z"/><rect class="cls-8" x="304.27" y="129.7" width="0.68" height="0.11"/><rect class="cls-8" x="249.96" y="176.19" width="0.68" height="0.11"/><path class="cls-8" d="M303.35,176.3H302v-.11h1.38Zm-2.29,0h-1.38v-.11h1.38Zm-2.3,0h-1.37v-.11h1.37Zm-2.29,0H295.1v-.11h1.37Zm-2.29,0h-1.37v-.11h1.37Zm-2.29,0h-1.38v-.11h1.38Zm-2.29,0h-1.38v-.11h1.38Zm-2.29,0h-1.38v-.11h1.38Zm-2.3,0h-1.37v-.11H285Zm-2.29,0h-1.37v-.11h1.37Zm-2.29,0h-1.38v-.11h1.38Zm-2.29,0h-1.38v-.11h1.38Zm-2.29,0h-1.38v-.11h1.38Zm-2.3,0h-1.37v-.11h1.37Zm-2.29,0h-1.37v-.11h1.37Zm-2.29,0H267.6v-.11H269Zm-2.29,0H265.3v-.11h1.38Zm-2.29,0H263v-.11h1.38Zm-2.29,0h-1.38v-.11h1.38Zm-2.3,0h-1.37v-.11h1.37Zm-2.29,0h-1.37v-.11h1.37Zm-2.29,0h-1.38v-.11h1.38Zm-2.29,0h-1.38v-.11h1.38Z"/><rect class="cls-8" x="304.27" y="176.19" width="0.68" height="0.11"/><rect class="cls-8" x="249.96" y="130.9" width="0.68" height="0.11"/><path class="cls-8" d="M303.35,131H302v-.11h1.38Zm-2.29,0h-1.38v-.11h1.38Zm-2.3,0h-1.37v-.11h1.37Zm-2.29,0H295.1v-.11h1.37Zm-2.29,0h-1.37v-.11h1.37Zm-2.29,0h-1.38v-.11h1.38Zm-2.29,0h-1.38v-.11h1.38Zm-2.29,0h-1.38v-.11h1.38Zm-2.3,0h-1.37v-.11H285Zm-2.29,0h-1.37v-.11h1.37Zm-2.29,0h-1.38v-.11h1.38Zm-2.29,0h-1.38v-.11h1.38Zm-2.29,0h-1.38v-.11h1.38Zm-2.3,0h-1.37v-.11h1.37Zm-2.29,0h-1.37v-.11h1.37ZM269,131H267.6v-.11H269Zm-2.29,0H265.3v-.11h1.38Zm-2.29,0H263v-.11h1.38Zm-2.29,0h-1.38v-.11h1.38Zm-2.3,0h-1.37v-.11h1.37Zm-2.29,0h-1.37v-.11h1.37Zm-2.29,0h-1.38v-.11h1.38Zm-2.29,0h-1.38v-.11h1.38Z"/><rect class="cls-8" x="304.27" y="130.9" width="0.68" height="0.11"/><rect class="cls-6" x="249.3" y="134.92" width="21.88" height="2.17" rx="1.08"/><rect class="cls-6" x="289.79" y="134.92" width="6.77" height="2.17" rx="1.08"/><rect class="cls-6" x="298.27" y="134.92" width="6.77" height="2.17" rx="1.08"/><rect class="cls-6" x="289.79" y="138.96" width="6.77" height="2.17" rx="1.08"/><rect class="cls-6" x="298.27" y="138.96" width="6.77" height="2.17" rx="1.08"/><rect class="cls-6" x="289.79" y="143" width="6.77" height="2.17" rx="1.08"/><rect class="cls-6" x="298.27" y="143" width="6.77" height="2.17" rx="1.08"/><rect class="cls-6" x="289.79" y="147.05" width="6.77" height="2.17" rx="1.08"/><rect class="cls-6" x="298.27" y="147.05" width="6.77" height="2.17" rx="1.08"/><rect class="cls-6" x="289.79" y="151.09" width="6.77" height="2.17" rx="1.08"/><rect class="cls-6" x="298.27" y="151.09" width="6.77" height="2.17" rx="1.08"/><rect class="cls-6" x="249.3" y="138.96" width="21.88" height="2.17" rx="1.08"/><rect class="cls-6" x="249.3" y="143" width="21.88" height="2.17" rx="1.08"/><rect class="cls-6" x="249.3" y="147.05" width="21.88" height="2.17" rx="1.08"/><rect class="cls-6" x="249.3" y="151.09" width="21.88" height="2.17" rx="1.08"/><text class="cls-14" transform="translate(272.87 136.25)">..................</text><text class="cls-14" transform="translate(272.87 140.04)">..................</text><text class="cls-14" transform="translate(272.87 144.3)">..................</text><text class="cls-14" transform="translate(272.87 148.32)">..................</text><text class="cls-14" transform="translate(272.87 152.31)">..................</text><rect class="cls-6" x="249.3" y="154.83" width="21.88" height="2.17" rx="1.08"/><rect class="cls-6" x="289.79" y="154.83" width="6.77" height="2.17" rx="1.08"/><rect class="cls-6" x="298.27" y="154.83" width="6.77" height="2.17" rx="1.08"/><rect class="cls-6" x="289.79" y="158.88" width="6.77" height="2.17" rx="1.08"/><rect class="cls-6" x="298.27" y="158.88" width="6.77" height="2.17" rx="1.08"/><rect class="cls-6" x="289.79" y="162.92" width="6.77" height="2.17" rx="1.08"/><rect class="cls-6" x="298.27" y="162.92" width="6.77" height="2.17" rx="1.08"/><rect class="cls-6" x="289.79" y="166.96" width="6.77" height="2.17" rx="1.08"/><rect class="cls-6" x="298.27" y="166.96" width="6.77" height="2.17" rx="1.08"/><rect class="cls-6" x="289.79" y="171.01" width="6.77" height="2.17" rx="1.08"/><rect class="cls-6" x="291.71" y="179.22" width="6.77" height="2.17" rx="1.08"/><rect class="cls-6" x="299.27" y="179.22" width="6.77" height="2.17" rx="1.08"/><rect class="cls-6" x="298.27" y="171.01" width="6.77" height="2.17" rx="1.08"/><rect class="cls-6" x="249.3" y="158.88" width="21.88" height="2.17" rx="1.08"/><rect class="cls-6" x="249.3" y="162.92" width="21.88" height="2.17" rx="1.08"/><rect class="cls-6" x="249.3" y="166.96" width="21.88" height="2.17" rx="1.08"/><rect class="cls-6" x="249.3" y="171.01" width="21.88" height="2.17" rx="1.08"/><rect class="cls-6" x="249.78" y="179.42" width="10.94" height="2.17" rx="1.08"/><rect class="cls-6" x="262.13" y="179.42" width="20.19" height="2.17" rx="1.08"/><text class="cls-14" transform="translate(272.87 156.17)">..................</text><text class="cls-14" transform="translate(272.87 159.96)">..................</text><text class="cls-14" transform="translate(272.87 164.22)">..................</text><text class="cls-14" transform="translate(272.87 168.24)">..................</text><text class="cls-14" transform="translate(272.87 172.23)">..................</text><text class="cls-14" transform="translate(282.72 180.72)">..........</text></g></g></svg>