<svg width="400" height="280" viewBox="0 0 400 280" fill="none" xmlns="http://www.w3.org/2000/svg">
<path d="M265.482 218.807C297.869 176.176 294.763 133.503 271.608 118.397C257.749 109.362 234.499 109.12 216.996 114.96C180.351 127.157 177.172 163.168 156.51 162.704C136.439 162.261 130.999 128.211 110.116 128.243C94.7669 128.243 82.1331 146.691 77.8127 159.257C67.7247 188.71 88.6824 223.751 93.2775 223.467C148.714 220.072 209.823 213.02 265.862 218.301" fill="#EBF3FE"/>
<path d="M101.221 117.796C105.742 128.412 117.161 131.184 120.235 137.741C130.661 147.988 137.474 166.373 151.788 166.699C172.27 167.174 178.471 131.838 211.735 117.248C228.552 109.869 254.178 108.287 268.027 117.1C276.298 122.371 279.647 135.401 282.045 146.765C278.622 130.805 277.555 111.197 269.992 90.261C256.206 52.0049 228.023 9.94321 211.798 13.2744C196.312 16.4369 206.749 58.0453 173.971 78.5386C169.545 81.311 154.745 90.5562 139.64 87.2039C128.749 84.7898 126.361 77.7163 119.263 78.5386C107.252 79.8668 94.5868 102.184 101.221 117.796Z" fill="#EBF3FE"/>
<g style="mix-blend-mode:multiply">
<path d="M50.4219 236.412C50.4219 247.649 117.404 256.758 200.042 256.758C282.679 256.758 349.672 247.649 349.672 236.412C349.672 225.174 282.679 216.056 199.999 216.056C117.32 216.056 50.4219 225.164 50.4219 236.412Z" fill="#393E46"/>
</g>
<path d="M201.045 207.285L175.883 105.852C175.4 103.892 174.188 102.188 172.492 101.087C172.138 100.872 171.748 100.722 171.341 100.644C170.868 100.534 170.372 100.601 169.946 100.834L110.527 135.285C109.63 135.759 109.207 137.172 109.661 138.995L122.887 192.295L90.8373 210.89C90.4715 211.142 90.1804 211.487 89.9945 211.889C89.8086 212.292 89.7348 212.737 89.7809 213.178C89.8482 214.416 90.2076 215.621 90.8299 216.695C91.4522 217.768 92.3198 218.68 93.3619 219.355L138.203 245.193C138.617 245.528 139.134 245.711 139.666 245.711C140.199 245.711 140.716 245.528 141.13 245.193C141.022 245.3 140.902 245.392 140.77 245.467L200.179 211.017C200.312 210.941 200.433 210.845 200.538 210.732C200.907 210.247 201.148 209.677 201.236 209.074C201.325 208.471 201.259 207.856 201.045 207.285Z" fill="#373737"/>
<path d="M152.811 176.682C152.445 176.416 152.014 176.252 151.562 176.207C151.111 176.163 150.656 176.239 150.244 176.429L90.8359 210.89C91.2453 210.701 91.6978 210.624 92.147 210.666C92.5962 210.709 93.0259 210.87 93.3923 211.133L133.216 234.103L192.625 199.642L152.811 176.682Z" fill="#CCEFF0"/>
<path d="M201.045 207.285L175.883 105.852C175.4 103.892 174.188 102.188 172.492 101.087C172.138 100.872 171.748 100.722 171.341 100.644C170.868 100.534 170.372 100.601 169.946 100.834L110.527 135.285C110.955 135.047 111.455 134.976 111.932 135.084C112.337 135.171 112.725 135.321 113.084 135.527C114.778 136.628 115.987 138.332 116.464 140.292L141.668 241.757C141.876 242.326 141.94 242.938 141.853 243.537C141.767 244.137 141.532 244.706 141.172 245.193C141.065 245.3 140.944 245.392 140.813 245.467L200.221 211.017C200.354 210.941 200.476 210.845 200.58 210.732C200.943 210.243 201.175 209.671 201.257 209.068C201.338 208.466 201.265 207.852 201.045 207.285Z" fill="#12C7D0"/>
<path d="M124.65 138.279C124.545 137.867 124.428 137.456 124.291 137.045L168.562 111.365L192.045 205.988L147.816 231.637L124.65 138.279Z" fill="white"/>
<path d="M113.083 135.538C114.777 136.638 115.986 138.343 116.464 140.303L141.668 241.757C141.876 242.326 141.939 242.938 141.853 243.537C141.766 244.137 141.532 244.706 141.171 245.193C140.757 245.528 140.241 245.711 139.708 245.711C139.176 245.711 138.659 245.528 138.245 245.193L93.372 219.355C92.3298 218.68 91.4623 217.768 90.84 216.695C90.2177 215.621 89.8583 214.416 89.791 213.178C89.791 210.901 91.4178 210.015 93.3931 211.133L133.217 234.103L109.661 139.006C109.037 136.497 110.052 134.789 111.932 135.095C112.336 135.182 112.725 135.331 113.083 135.538Z" fill="#03949A"/>
<path d="M171.162 175.807L171.912 175.428L171.215 173.045L170.465 173.425L171.162 175.807Z" fill="#085E5C"/>
<path d="M168.964 171.222L169.703 170.842L168.975 168.323L168.225 168.702L168.964 171.222Z" fill="#085E5C"/>
<path d="M169.45 172.898L170.2 172.518L169.461 170.009L168.711 170.378L169.45 172.898Z" fill="#085E5C"/>
<path d="M169.957 168.786L169.714 167.954L165.975 169.83L166.218 170.663L169.957 168.786Z" fill="#085E5C"/>
<path d="M165.469 171.042L165.226 170.21L161.486 172.097L161.729 172.919L165.469 171.042Z" fill="#085E5C"/>
<path d="M164.961 172.244L164.718 171.411L162.457 172.55L162.7 173.383L164.961 172.244Z" fill="#085E5C"/>
<path d="M164.442 173.456L164.199 172.624L162.699 173.383L162.942 174.215L164.442 173.456Z" fill="#085E5C"/>
<path d="M168.911 176.914L167.21 171.106L166.471 171.485L168.171 177.294L168.911 176.914Z" fill="#085E5C"/>
<path d="M161.876 188.078L160.176 182.269L159.426 182.649L161.137 188.457L161.876 188.078Z" fill="#085E5C"/>
<path d="M167.464 171.949L167.211 171.106L164.939 172.255L165.193 173.087L167.464 171.949Z" fill="#085E5C"/>
<path d="M170.411 176.166L170.189 175.386L167.939 176.514L168.172 177.294L170.411 176.166Z" fill="#085E5C"/>
<path d="M167.422 177.673L167.189 176.893L164.939 178.021L165.172 178.801L167.422 177.673Z" fill="#085E5C"/>
<path d="M162.162 180.309L162.891 182.817L164.423 182.048L163.694 179.539L162.162 180.309Z" fill="#085E5C"/>
<path d="M163.673 182.427L162.711 179.149L161.93 179.539L162.891 182.818L163.673 182.427Z" fill="#085E5C"/>
<path d="M163.429 181.605L163.186 180.762L160.926 181.9L161.169 182.733L163.429 181.605Z" fill="#085E5C"/>
<path d="M168.414 175.259L168.193 174.489L162.953 177.114L163.186 177.894L168.414 175.259Z" fill="#085E5C"/>
<path d="M161.686 178.643L161.443 177.842L157.703 179.729L157.936 180.53L161.686 178.643Z" fill="#085E5C"/>
<path d="M157.186 180.909L156.943 180.108L154.703 181.236L154.936 182.037L157.186 180.909Z" fill="#085E5C"/>
<path d="M157.187 180.909L156.68 179.181L155.93 179.56L156.426 181.289L157.187 180.909Z" fill="#085E5C"/>
<path d="M155.918 182.48L155.168 179.94L154.418 180.319L155.168 182.86L155.918 182.48Z" fill="#085E5C"/>
<path d="M170.125 175.343L170.854 177.863L170.136 178.221L169.396 175.702L170.125 175.343Z" fill="#085E5C"/>
<path d="M172.112 176.271L172.365 177.104L170.136 178.221L169.883 177.389L172.112 176.271Z" fill="#085E5C"/>
<path d="M172.841 178.759L173.095 179.602L170.866 180.72L170.623 179.887L172.841 178.759Z" fill="#085E5C"/>
<path d="M153.679 183.608L153.193 181.964L152.443 182.343L152.929 183.988L153.679 183.608Z" fill="#085E5C"/>
<path d="M173.085 182.47L171.859 178.306L172.62 177.926L173.835 182.09L173.085 182.47Z" fill="#085E5C"/>
<path d="M173.084 182.47L172.83 181.626L169.08 183.513L169.334 184.357L173.084 182.47Z" fill="#085E5C"/>
<path d="M168.849 182.712L168.109 180.193L168.87 179.813L169.599 182.333L168.849 182.712Z" fill="#085E5C"/>
<path d="M171.108 181.574L171.341 182.375L169.08 183.513L168.848 182.712L171.108 181.574Z" fill="#085E5C"/>
<path d="M165.869 184.209L166.102 185.01L164.612 185.759L164.369 184.968L165.869 184.209Z" fill="#085E5C"/>
<path d="M161.391 186.465L161.634 187.266L163.123 186.507L162.891 185.706L161.391 186.465Z" fill="#085E5C"/>
<path d="M165.869 184.209L166.345 185.843L165.616 186.212L165.141 184.578L165.869 184.209Z" fill="#085E5C"/>
<path d="M162.88 185.716L162.637 184.894L164.876 183.766L165.119 184.589L162.88 185.716Z" fill="#085E5C"/>
<path d="M154.196 182.438L153.468 179.929L152.707 180.319L153.446 182.818L154.196 182.438Z" fill="#085E5C"/>
<path d="M156.436 181.289L156.679 182.111L158.179 181.352L157.936 180.53L156.436 181.289Z" fill="#085E5C"/>
<path d="M166.419 174.3L166.187 173.53L163.197 175.027L163.419 175.807L166.419 174.3Z" fill="#085E5C"/>
<path d="M158.189 178.443L157.957 177.663L156.457 178.422L156.679 179.202L158.189 178.443Z" fill="#085E5C"/>
<path d="M153.678 180.709L153.446 179.929L151.936 180.688L152.168 181.468L153.678 180.709Z" fill="#085E5C"/>
<path d="M154.652 181.089L154.43 180.319L152.93 181.068L153.162 181.837L154.652 181.089Z" fill="#085E5C"/>
<path d="M163.926 177.526L163.419 175.807L162.68 176.176L163.187 177.894L163.926 177.526Z" fill="#085E5C"/>
<path d="M161.211 174.152L161.908 176.566L162.679 176.176L161.972 173.762L161.211 174.152Z" fill="#085E5C"/>
<path d="M158.221 175.649L158.928 178.074L159.689 177.684L158.981 175.27L158.221 175.649Z" fill="#085E5C"/>
<path d="M156.193 177.599L156.669 179.202L157.429 178.822L156.964 177.209L156.193 177.599Z" fill="#085E5C"/>
<path d="M154.703 178.348L155.168 179.95L155.939 179.571L155.464 177.968L154.703 178.348Z" fill="#085E5C"/>
<path d="M154.704 178.348L154.472 177.536L153.732 177.905L153.975 178.717L154.704 178.348Z" fill="#085E5C"/>
<path d="M157.217 175.196L156.985 174.384L156.256 174.753L156.488 175.565L157.217 175.196Z" fill="#085E5C"/>
<path d="M159.478 174.057L159.245 173.246L158.506 173.615L158.749 174.426L159.478 174.057Z" fill="#085E5C"/>
<path d="M159.995 172.877L159.752 172.033L159.002 172.413L159.245 173.246L159.995 172.877Z" fill="#085E5C"/>
<path d="M159.003 172.413L158.506 170.747L157.777 171.116L158.263 172.782L159.003 172.413Z" fill="#085E5C"/>
<path d="M156.488 172.708L156.985 174.384L157.756 173.994L157.259 172.318L156.488 172.708Z" fill="#085E5C"/>
<path d="M159.5 171.19L159.246 170.357L157.018 171.475L157.261 172.318L159.5 171.19Z" fill="#085E5C"/>
<path d="M159.5 171.19L160.229 173.688L160.968 173.319L160.239 170.821L159.5 171.19Z" fill="#085E5C"/>
<path d="M156.014 171.032L156.257 171.865L157.017 171.475L156.774 170.652L156.014 171.032Z" fill="#085E5C"/>
<path d="M158.264 169.904L158.507 170.726L160.007 169.978L159.764 169.155L158.264 169.904Z" fill="#085E5C"/>
<path d="M160.503 168.776L159.775 166.288L159.035 166.657L159.764 169.155L160.503 168.776Z" fill="#085E5C"/>
<path d="M163.493 170.146L163.007 168.47L162.268 168.85L162.754 170.515L163.493 170.146Z" fill="#085E5C"/>
<path d="M162.002 170.895L161.263 168.396L160.502 168.776L161.231 171.285L162.002 170.895Z" fill="#085E5C"/>
<path d="M161.528 166.372L161.042 164.728L160.303 165.107L160.778 166.752L161.528 166.372Z" fill="#085E5C"/>
<path d="M160.028 167.131L159.774 166.288L157.566 167.405L157.809 168.249L160.028 167.131Z" fill="#085E5C"/>
<path d="M157.048 168.628L156.805 167.785L155.295 168.544L155.538 169.387L157.048 168.628Z" fill="#085E5C"/>
<path d="M157.048 168.628L156.563 166.973L155.812 167.353L156.298 169.008L157.048 168.628Z" fill="#085E5C"/>
<path d="M160.777 166.752L161.01 167.574L161.76 167.195L161.527 166.383L160.777 166.752Z" fill="#085E5C"/>
<path d="M160.545 165.93L160.788 166.752L162.288 165.993L162.045 165.181L160.545 165.93Z" fill="#085E5C"/>
<path d="M161.02 167.574L161.262 168.396L162.762 167.637L162.53 166.815L161.02 167.574Z" fill="#085E5C"/>
<path d="M156.531 169.83L156.774 170.652L157.535 170.273L157.292 169.451L156.531 169.83Z" fill="#085E5C"/>
<path d="M157.049 168.628L157.292 169.451L158.052 169.071L157.809 168.249L157.049 168.628Z" fill="#085E5C"/>
<path d="M158.053 166.214L158.296 167.036L159.046 166.657L158.813 165.835L158.053 166.214Z" fill="#085E5C"/>
<path d="M154.734 175.501L155.463 177.979L156.224 177.589L155.495 175.111L154.734 175.501Z" fill="#085E5C"/>
<path d="M150.996 177.389L151.714 179.866L152.486 179.476L151.757 176.998L150.996 177.389Z" fill="#085E5C"/>
<path d="M153.711 180.772L152.982 178.285L152.232 178.664L152.961 181.152L153.711 180.772Z" fill="#085E5C"/>
<path d="M162.182 177.473L161.908 176.566L159.689 177.684L159.954 178.601L162.182 177.473Z" fill="#085E5C"/>
<path d="M159.194 178.98L158.93 178.063L158.18 178.443L158.444 179.349L159.194 178.98Z" fill="#085E5C"/>
<path d="M160.482 174.511L160.725 175.322L162.204 174.574L161.972 173.762L160.482 174.511Z" fill="#085E5C"/>
<path d="M161.686 178.643L162.171 180.309L162.932 179.919L162.457 178.263L161.686 178.643Z" fill="#085E5C"/>
<path d="M160.967 179.012L161.199 179.813L162.689 179.075L162.456 178.263L160.967 179.012Z" fill="#085E5C"/>
<path d="M163.598 179.581L163.355 178.738L168.637 176.071L168.891 176.925L163.598 179.581Z" fill="#085E5C"/>
<path d="M169.641 176.545L170.623 179.897L169.873 180.277L168.891 176.925L169.641 176.545Z" fill="#085E5C"/>
<path d="M165.891 178.432L166.873 181.795L166.123 182.164L165.141 178.812L165.891 178.432Z" fill="#085E5C"/>
<path d="M168.891 176.925L169.873 180.277L169.123 180.656L168.141 177.294L168.891 176.925Z" fill="#085E5C"/>
<path d="M165.109 181.7L165.363 182.554L169.873 180.277L169.631 179.434L165.109 181.7Z" fill="#085E5C"/>
<path d="M160.419 186.001L160.176 185.158L162.405 184.04L162.658 184.884L160.419 186.001Z" fill="#085E5C"/>
<path d="M156.721 176.408L156.964 177.22L159.203 176.081L158.971 175.28L156.721 176.408Z" fill="#085E5C"/>
<path d="M165.416 176.767L164.687 174.279L163.947 174.648L164.676 177.146L165.416 176.767Z" fill="#085E5C"/>
<path d="M166.376 185.832L165.161 181.679L164.422 182.048L165.637 186.201L166.376 185.832Z" fill="#085E5C"/>
<path d="M166.134 185L165.891 184.167L163.641 185.295L163.884 186.138L166.134 185Z" fill="#085E5C"/>
<path d="M164.855 186.591L164.126 184.104L163.387 184.473L164.116 186.971L164.855 186.591Z" fill="#085E5C"/>
<path d="M169.428 175.776L169.196 174.995L167.717 175.744L167.939 176.514L169.428 175.776Z" fill="#085E5C"/>
<path d="M167.697 172.761L167.454 171.938L165.943 172.697L166.186 173.53L167.697 172.761Z" fill="#085E5C"/>
<path d="M163.947 174.658L163.704 173.825L161.443 174.964L161.686 175.786L163.947 174.658Z" fill="#085E5C"/>
<path d="M160.208 176.535L159.965 175.702L157.715 176.84L157.947 177.673L160.208 176.535Z" fill="#085E5C"/>
<path d="M170.453 170.473L170.21 169.64L167.971 170.768L168.214 171.601L170.453 170.473Z" fill="#085E5C"/>
<path d="M151.482 176.187L150.732 176.566L149.031 170.758L149.781 170.389L151.482 176.187Z" fill="#21252C"/>
<path d="M155.972 173.931L155.222 174.31L153.521 168.502L154.271 168.122L155.972 173.931Z" fill="#21252C"/>
<path d="M149.274 171.591L149.031 170.758L154.271 168.122L154.514 168.955L149.274 171.591Z" fill="#21252C"/>
<path d="M150.731 176.566L150.488 175.733L155.728 173.098L155.971 173.931L150.731 176.566Z" fill="#21252C"/>
<path d="M153.986 173.014L151.725 174.142L150.996 171.643L153.246 170.505L153.986 173.014Z" fill="#21252C"/>
<path d="M155.855 191.135L155.105 191.504L153.404 185.706L154.154 185.326L155.855 191.135Z" fill="#21252C"/>
<path d="M160.345 188.869L159.595 189.248L157.895 183.45L158.645 183.071L160.345 188.869Z" fill="#21252C"/>
<path d="M153.647 186.528L153.404 185.706L158.644 183.071L158.887 183.903L153.647 186.528Z" fill="#21252C"/>
<path d="M155.104 191.504L154.861 190.682L160.101 188.046L160.344 188.869L155.104 191.504Z" fill="#21252C"/>
<path d="M158.359 187.951L156.098 189.09L155.369 186.591L157.63 185.453L158.359 187.951Z" fill="#21252C"/>
<path d="M164.951 169.419L164.201 169.788L162.5 163.99L163.25 163.61L164.951 169.419Z" fill="#21252C"/>
<path d="M169.439 167.152L168.689 167.532L166.988 161.734L167.738 161.354L169.439 167.152Z" fill="#21252C"/>
<path d="M162.743 164.812L162.5 163.99L167.739 161.354L167.982 162.177L162.743 164.812Z" fill="#21252C"/>
<path d="M164.2 169.788L163.957 168.955L169.196 166.33L169.439 167.152L164.2 169.788Z" fill="#21252C"/>
<path d="M167.454 166.235L165.194 167.374L164.465 164.865L166.725 163.737L167.454 166.235Z" fill="#21252C"/>
<path d="M160.651 183.946L160.418 183.134L159.689 183.503L159.922 184.304L160.651 183.946Z" fill="#085E5C"/>
<path d="M167.127 179.729L166.895 178.917L167.623 178.548L167.866 179.36L167.127 179.729Z" fill="#085E5C"/>
<path d="M170.369 181.932L170.137 181.131L170.866 180.762L171.098 181.574L170.369 181.932Z" fill="#085E5C"/>
<path fill-rule="evenodd" clip-rule="evenodd" d="M170.724 155.109C170.801 155.143 170.859 155.208 170.882 155.288L172.762 161.729C172.806 161.878 172.72 162.034 172.571 162.077C172.422 162.121 172.266 162.035 172.222 161.886L170.436 155.769L164.833 158.58C164.695 158.649 164.526 158.594 164.456 158.455C164.386 158.317 164.442 158.148 164.581 158.078L170.486 155.116C170.56 155.079 170.648 155.076 170.724 155.109Z" fill="#393E46"/>
<path fill-rule="evenodd" clip-rule="evenodd" d="M149.747 165.856C149.817 165.994 149.761 166.163 149.623 166.233L143.937 169.1L145.762 175.307C145.806 175.455 145.721 175.611 145.572 175.655C145.423 175.699 145.266 175.613 145.223 175.465L143.332 169.034C143.294 168.904 143.354 168.766 143.475 168.705L149.369 165.732C149.508 165.662 149.677 165.717 149.747 165.856Z" fill="#393E46"/>
<path fill-rule="evenodd" clip-rule="evenodd" d="M150.136 191.266C150.285 191.223 150.441 191.308 150.485 191.457L152.281 197.564L157.874 194.753C158.012 194.683 158.181 194.739 158.251 194.878C158.321 195.016 158.265 195.185 158.127 195.254L152.232 198.217C152.158 198.254 152.07 198.257 151.994 198.224C151.917 198.19 151.859 198.125 151.836 198.045L149.945 191.615C149.901 191.466 149.987 191.31 150.136 191.266Z" fill="#393E46"/>
<path fill-rule="evenodd" clip-rule="evenodd" d="M177.146 177.678C177.296 177.634 177.452 177.72 177.495 177.869L179.375 184.31C179.413 184.44 179.353 184.578 179.232 184.639L173.337 187.601C173.199 187.671 173.03 187.615 172.96 187.477C172.89 187.338 172.946 187.169 173.085 187.1L178.77 184.243L176.955 178.026C176.912 177.877 176.997 177.721 177.146 177.678Z" fill="#393E46"/>
<path d="M282.308 103.564H234.346C226.961 103.564 224.248 106.277 224.248 113.659V231.936C224.248 239.318 226.961 242.031 234.346 242.031H282.308C289.692 242.031 292.406 239.318 292.406 231.936V113.659C292.406 106.277 289.692 103.564 282.308 103.564Z" fill="#21252C"/>
<path d="M284.4 107.065H268.344C267.054 107.063 265.784 107.39 264.656 108.016C263.527 108.642 262.577 109.545 261.896 110.64C261.521 111.192 261.016 111.643 260.426 111.956C259.837 112.268 259.18 112.431 258.512 112.431C257.845 112.431 257.188 112.268 256.598 111.956C256.008 111.643 255.504 111.192 255.128 110.64C254.449 109.544 253.501 108.641 252.374 108.015C251.247 107.389 249.978 107.062 248.688 107.065H232.625C231.414 107.065 230.252 107.546 229.396 108.402C228.54 109.258 228.059 110.419 228.059 111.63V233.957C228.059 235.167 228.54 236.328 229.396 237.184C230.252 238.04 231.414 238.521 232.625 238.521H284.4C285 238.522 285.595 238.405 286.149 238.176C286.704 237.947 287.209 237.611 287.634 237.187C288.059 236.763 288.396 236.26 288.626 235.705C288.856 235.151 288.974 234.557 288.974 233.957V111.63C288.974 111.03 288.856 110.436 288.626 109.881C288.396 109.327 288.059 108.823 287.634 108.4C287.209 107.976 286.704 107.639 286.149 107.411C285.595 107.182 285 107.064 284.4 107.065Z" fill="white"/>
<path fill-rule="evenodd" clip-rule="evenodd" d="M228.482 196.375L227.75 196.375L227.75 196.225L228.482 196.225L228.482 196.375ZM231.411 196.375L229.946 196.375L229.946 196.225L231.411 196.225L231.411 196.375ZM234.339 196.375L232.875 196.375L232.875 196.225L234.339 196.225L234.339 196.375ZM237.268 196.375L235.804 196.375L235.804 196.225L237.268 196.225L237.268 196.375ZM240.196 196.375L238.732 196.375L238.732 196.225L240.196 196.225L240.196 196.375ZM243.125 196.375L241.661 196.375L241.661 196.225L243.125 196.225L243.125 196.375ZM246.054 196.375L244.589 196.375L244.589 196.225L246.054 196.225L246.054 196.375ZM248.982 196.375L247.518 196.375L247.518 196.225L248.982 196.225L248.982 196.375ZM251.911 196.375L250.446 196.375L250.446 196.225L251.911 196.225L251.911 196.375ZM254.839 196.375L253.375 196.375L253.375 196.225L254.839 196.225L254.839 196.375ZM257.768 196.375L256.304 196.375L256.304 196.225L257.768 196.225L257.768 196.375ZM260.696 196.375L259.232 196.375L259.232 196.225L260.696 196.225L260.696 196.375ZM263.625 196.375L262.161 196.375L262.161 196.225L263.625 196.225L263.625 196.375ZM266.554 196.375L265.089 196.375L265.089 196.225L266.554 196.225L266.554 196.375ZM269.482 196.375L268.018 196.375L268.018 196.225L269.482 196.225L269.482 196.375ZM272.411 196.375L270.946 196.375L270.946 196.225L272.411 196.225L272.411 196.375ZM275.339 196.375L273.875 196.375L273.875 196.225L275.339 196.225L275.339 196.375ZM278.268 196.375L276.804 196.375L276.804 196.225L278.268 196.225L278.268 196.375ZM281.196 196.375L279.732 196.375L279.732 196.225L281.196 196.225L281.196 196.375ZM284.125 196.375L282.661 196.375L282.661 196.225L284.125 196.225L284.125 196.375ZM287.054 196.375L285.589 196.375L285.589 196.225L287.054 196.225L287.054 196.375ZM289.25 196.375L288.518 196.375L288.518 196.225L289.25 196.225L289.25 196.375Z" fill="black"/>
<path d="M251 123.227C251 122.702 251.427 122.276 251.953 122.276H269.102C269.628 122.276 270.055 122.702 270.055 123.227C270.055 123.752 269.628 124.178 269.102 124.178H251.953C251.427 124.178 251 123.752 251 123.227Z" fill="#00ADB5"/>
<path d="M232.25 121.528C232.25 120.287 233.257 119.282 234.5 119.282H245C246.243 119.282 247.25 120.287 247.25 121.528V132.006C247.25 133.246 246.243 134.252 245 134.252H234.5C233.257 134.252 232.25 133.246 232.25 132.006V121.528Z" fill="#03949A"/>
<path d="M251 130.712C251 130.186 251.427 129.761 251.953 129.761H261.602C262.128 129.761 262.555 130.186 262.555 130.712C262.555 131.237 262.128 131.662 261.602 131.662H251.953C251.427 131.662 251 131.237 251 130.712Z" fill="#00ADB5"/>
<path d="M251 126.969C251 126.444 251.427 126.018 251.953 126.018H284.102C284.628 126.018 285.055 126.444 285.055 126.969C285.055 127.494 284.628 127.92 284.102 127.92H251.953C251.427 127.92 251 127.494 251 126.969Z" fill="#00ADB5"/>
<path d="M251 143.435C251 142.91 251.427 142.485 251.953 142.485H269.102C269.628 142.485 270.055 142.91 270.055 143.435C270.055 143.961 269.628 144.386 269.102 144.386H251.953C251.427 144.386 251 143.961 251 143.435Z" fill="#00ADB5"/>
<path d="M232.25 140.239C232.25 138.999 233.257 137.994 234.5 137.994H245C246.243 137.994 247.25 138.999 247.25 140.239V150.718C247.25 151.958 246.243 152.963 245 152.963H234.5C233.257 152.963 232.25 151.958 232.25 150.718V140.239Z" fill="#03949A"/>
<path d="M251 147.178C251 146.653 251.427 146.227 251.953 146.227H261.602C262.128 146.227 262.555 146.653 262.555 147.178C262.555 147.703 262.128 148.129 261.602 148.129H251.953C251.427 148.129 251 147.703 251 147.178Z" fill="#00ADB5"/>
<path d="M251 167.791C251 167.266 251.427 166.84 251.953 166.84H269.102C269.628 166.84 270.055 167.266 270.055 167.791C270.055 168.316 269.628 168.742 269.102 168.742H251.953C251.427 168.742 251 168.316 251 167.791Z" fill="#00ADB5"/>
<path d="M232.25 158.951C232.25 157.711 233.257 156.706 234.5 156.706H245C246.243 156.706 247.25 157.711 247.25 158.951V169.429C247.25 170.67 246.243 171.675 245 171.675H234.5C233.257 171.675 232.25 170.67 232.25 169.429V158.951Z" fill="#03949A"/>
<path d="M251 160.65C251 160.125 251.427 159.699 251.953 159.699H261.602C262.128 159.699 262.555 160.125 262.555 160.65C262.555 161.175 262.128 161.601 261.602 161.601H251.953C251.427 161.601 251 161.175 251 160.65Z" fill="#00ADB5"/>
<path d="M251 164.392C251 163.867 251.427 163.442 251.953 163.442H276.602C277.128 163.442 277.555 163.867 277.555 164.392C277.555 164.918 277.128 165.343 276.602 165.343H251.953C251.427 165.343 251 164.918 251 164.392Z" fill="#00ADB5"/>
<path d="M251 179.362C251 178.837 251.427 178.411 251.953 178.411H269.102C269.628 178.411 270.055 178.837 270.055 179.362C270.055 179.887 269.628 180.313 269.102 180.313H251.953C251.427 180.313 251 179.887 251 179.362Z" fill="#00ADB5"/>
<path d="M232.25 177.663C232.25 176.422 233.257 175.417 234.5 175.417H245C246.243 175.417 247.25 176.422 247.25 177.663V188.141C247.25 189.381 246.243 190.386 245 190.386H234.5C233.257 190.386 232.25 189.381 232.25 188.141V177.663Z" fill="#03949A"/>
<path d="M251 186.846C251 186.321 251.427 185.896 251.953 185.896H261.602C262.128 185.896 262.555 186.321 262.555 186.846C262.555 187.372 262.128 187.797 261.602 187.797H251.953C251.427 187.797 251 187.372 251 186.846Z" fill="#00ADB5"/>
<path d="M251 183.104C251 182.579 251.427 182.153 251.953 182.153H284.102C284.628 182.153 285.055 182.579 285.055 183.104C285.055 183.629 284.628 184.055 284.102 184.055H251.953C251.427 184.055 251 183.629 251 183.104Z" fill="#00ADB5"/>
<path d="M251 208.208C251 207.683 251.427 207.257 251.953 207.257H269.102C269.628 207.257 270.055 207.683 270.055 208.208C270.055 208.733 269.628 209.159 269.102 209.159H251.953C251.427 209.159 251 208.733 251 208.208Z" fill="#EEEEEE"/>
<path d="M232.25 203.11C232.25 201.87 233.257 200.865 234.5 200.865H245C246.243 200.865 247.25 201.87 247.25 203.11V213.589C247.25 214.829 246.243 215.834 245 215.834H234.5C233.257 215.834 232.25 214.829 232.25 213.589V203.11Z" fill="#C7C8CA"/>
<path d="M251 212.294C251 211.769 251.427 211.344 251.953 211.344H261.602C262.128 211.344 262.555 211.769 262.555 212.294C262.555 212.819 262.128 213.245 261.602 213.245H251.953C251.427 213.245 251 212.819 251 212.294Z" fill="#EEEEEE"/>
<path d="M251 204.81C251 204.285 251.427 203.859 251.953 203.859H276.602C277.128 203.859 277.555 204.285 277.555 204.81C277.555 205.335 277.128 205.76 276.602 205.76H251.953C251.427 205.76 251 205.335 251 204.81Z" fill="#EEEEEE"/>
<path d="M251 223.521C251 222.996 251.427 222.571 251.953 222.571H269.102C269.628 222.571 270.055 222.996 270.055 223.521C270.055 224.046 269.628 224.472 269.102 224.472H251.953C251.427 224.472 251 224.046 251 223.521Z" fill="#EEEEEE"/>
<path d="M232.25 221.822C232.25 220.582 233.257 219.577 234.5 219.577H245C246.243 219.577 247.25 220.582 247.25 221.822V232.301C247.25 233.541 246.243 234.546 245 234.546H234.5C233.257 234.546 232.25 233.541 232.25 232.301V221.822Z" fill="#C7C8CA"/>
<path d="M251 227.264C251 226.739 251.427 226.313 251.953 226.313H261.602C262.128 226.313 262.555 226.739 262.555 227.264C262.555 227.789 262.128 228.214 261.602 228.214H251.953C251.427 228.214 251 227.789 251 227.264Z" fill="#EEEEEE"/>
<path d="M251 230.662C251 230.137 251.427 229.711 251.953 229.711H284.102C284.628 229.711 285.055 230.137 285.055 230.662C285.055 231.187 284.628 231.613 284.102 231.613H251.953C251.427 231.613 251 231.187 251 230.662Z" fill="#EEEEEE"/>
<path d="M270.262 113.315H246.391C245.089 113.315 243.84 112.798 242.919 111.878C241.999 110.957 241.481 109.709 241.481 108.407V105.953H275.139V108.407C275.139 109.709 274.621 110.957 273.701 111.878C272.78 112.798 271.531 113.315 270.229 113.315H270.262Z" fill="#21252C"/>
<g opacity="0.5">
<path d="M151.049 152.888L152.18 156.796L151.453 157.169L150.718 154.628L150.483 157.669L149.932 157.952L148.221 155.912L148.957 158.454L148.23 158.828L147.1 154.92L147.925 154.496L149.918 156.808L150.229 153.31L151.049 152.888Z" fill="black"/>
<path d="M155.102 153.433C155.135 153.545 155.157 153.649 155.169 153.746L153.067 154.827C153.149 155.042 153.273 155.18 153.437 155.241C153.602 155.302 153.778 155.285 153.965 155.189C154.235 155.05 154.39 154.826 154.432 154.517L155.216 154.114C155.219 154.455 155.131 154.783 154.952 155.098C154.772 155.41 154.511 155.654 154.168 155.83C153.891 155.972 153.623 156.035 153.364 156.019C153.107 155.996 152.882 155.896 152.687 155.718C152.496 155.537 152.354 155.289 152.262 154.971C152.169 154.65 152.148 154.337 152.199 154.033C152.25 153.728 152.366 153.454 152.546 153.211C152.726 152.968 152.958 152.774 153.242 152.628C153.515 152.487 153.777 152.425 154.028 152.442C154.283 152.456 154.503 152.551 154.689 152.726C154.877 152.895 155.015 153.13 155.102 153.433ZM154.285 153.596C154.223 153.396 154.109 153.27 153.943 153.219C153.776 153.163 153.597 153.184 153.407 153.282C153.227 153.375 153.092 153.513 153.002 153.696C152.915 153.874 152.887 154.075 152.92 154.298L154.285 153.596Z" fill="black"/>
<path d="M156.783 150.811C157.126 150.635 157.437 150.61 157.716 150.737C157.994 150.86 158.193 151.13 158.314 151.548L158.841 153.367L158.114 153.741L157.618 152.028C157.547 151.782 157.436 151.623 157.284 151.551C157.131 151.475 156.955 151.488 156.758 151.59C156.558 151.693 156.418 151.842 156.339 152.037C156.263 152.226 156.26 152.444 156.332 152.691L156.827 154.404L156.101 154.778L155.203 151.676L155.93 151.302L156.042 151.689C156.1 151.504 156.192 151.337 156.319 151.185C156.449 151.029 156.604 150.904 156.783 150.811Z" fill="black"/>
<path d="M161.348 148.514L162.246 151.615L161.514 151.992L161.401 151.6C161.346 151.782 161.254 151.952 161.124 152.108C160.997 152.26 160.846 152.381 160.669 152.471C160.444 152.587 160.231 152.639 160.029 152.627C159.825 152.612 159.645 152.531 159.487 152.385C159.332 152.233 159.215 152.019 159.135 151.743L158.608 149.924L159.335 149.55L159.829 151.257C159.9 151.504 160.012 151.665 160.165 151.74C160.317 151.812 160.492 151.797 160.689 151.696C160.89 151.593 161.028 151.446 161.105 151.257C161.18 151.064 161.182 150.844 161.111 150.598L160.617 148.89L161.348 148.514Z" fill="black"/>
</g>
</svg>
